<svg xmlns="http://www.w3.org/2000/svg" width="24" height="24" viewBox="0 0 24 24">
  <g id="arrow-right" transform="translate(-620 -188)">
    <path id="Vector" d="M0,12.89a.748.748,0,0,1-.53-.22.75.75,0,0,1,0-1.061l5.54-5.54L-.53.53A.75.75,0,0,1-.53-.53.75.75,0,0,1,.53-.53L6.6,5.54A.75.75,0,0,1,6.6,6.6L.53,12.67A.748.748,0,0,1,0,12.89Z" transform="translate(634.43 193.93)" fill="#fff"/>
    <path id="Vector-2" data-name="Vector" d="M16.83.75H0A.75.75,0,0,1-.75,0,.75.75,0,0,1,0-.75H16.83a.75.75,0,0,1,.75.75A.75.75,0,0,1,16.83.75Z" transform="translate(623.5 200)" fill="#fff"/>
    <path id="Vector-3" data-name="Vector" d="M0,0H24V24H0Z" transform="translate(644 212) rotate(180)" fill="none" opacity="0"/>
  </g>
</svg>
