<svg xmlns="http://www.w3.org/2000/svg" width="180.356" height="40.509" viewBox="0 0 180.356 40.509">
  <g id="Logo" transform="translate(-77.999 -21.681)">
    <path id="Path_16" data-name="Path 16" d="M344.28-154a5.79,5.79,0,0,1,1.794.291,5.441,5.441,0,0,1,1.608.826,4.328,4.328,0,0,1,1.16,1.316,3.407,3.407,0,0,1,.448,1.729V-135.1a3.58,3.58,0,0,1-.418,1.744,3.947,3.947,0,0,1-1.113,1.285,5.4,5.4,0,0,1-1.608.811,11.443,11.443,0,0,1-1.871.291h-16.27a11.394,11.394,0,0,1-1.887-.291,5.436,5.436,0,0,1-1.593-.811,3.946,3.946,0,0,1-1.113-1.285A3.58,3.58,0,0,1,323-135.1v-14.744a3.406,3.406,0,0,1,.449-1.729,4.329,4.329,0,0,1,1.16-1.316,5.44,5.44,0,0,1,1.608-.826,5.791,5.791,0,0,1,1.794-.291Zm-2.1,4.191H330.114a2.887,2.887,0,0,0-2.1.627,2.442,2.442,0,0,0-.619,1.79v9.757a2.5,2.5,0,0,0,.6,1.866,2.978,2.978,0,0,0,2.088.581h12.125a2.876,2.876,0,0,0,2.088-.612,2.515,2.515,0,0,0,.6-1.836v-9.757a2.442,2.442,0,0,0-.619-1.79A2.887,2.887,0,0,0,342.177-149.809Z" transform="translate(-236.129 182.705)" fill="#a3a3a3" opacity="0.204"/>
    <path id="Path_14" data-name="Path 14" d="M344.28-154a5.79,5.79,0,0,1,1.794.291,5.441,5.441,0,0,1,1.608.826,4.328,4.328,0,0,1,1.16,1.316,3.407,3.407,0,0,1,.448,1.729V-135.1a3.58,3.58,0,0,1-.418,1.744,3.947,3.947,0,0,1-1.113,1.285,5.4,5.4,0,0,1-1.608.811,6.129,6.129,0,0,1-1.871.291h-4.912l-2.291,3.07a1.256,1.256,0,0,1-1.738.262,1.234,1.234,0,0,1-.266-.262l-2.291-3.07h-4.772a6.082,6.082,0,0,1-1.887-.291,5.436,5.436,0,0,1-1.593-.811,3.946,3.946,0,0,1-1.113-1.285A3.58,3.58,0,0,1,323-135.1v-14.744a3.406,3.406,0,0,1,.449-1.729,4.329,4.329,0,0,1,1.16-1.316,5.44,5.44,0,0,1,1.608-.826,5.791,5.791,0,0,1,1.794-.291Zm-2.1,4.191H330.114a2.887,2.887,0,0,0-2.1.627,2.442,2.442,0,0,0-.619,1.79v9.757a2.5,2.5,0,0,0,.6,1.866,2.978,2.978,0,0,0,2.088.581h12.125a2.876,2.876,0,0,0,2.088-.612,2.515,2.515,0,0,0,.6-1.836v-9.757a2.442,2.442,0,0,0-.619-1.79A2.887,2.887,0,0,0,342.177-149.809Z" transform="translate(-245.001 189.586)" fill="#a3a3a3"/>
    <g id="Group_7" data-name="Group 7" transform="translate(236.251 56.684)">
      <ellipse id="Ellipse_4" data-name="Ellipse 4" cx="2.795" cy="2.752" rx="2.795" ry="2.752" transform="translate(0)" fill="#a3a3a3"/>
      <ellipse id="Ellipse_5" data-name="Ellipse 5" cx="2.795" cy="2.752" rx="2.795" ry="2.752" transform="translate(8.257)" fill="#a3a3a3"/>
      <ellipse id="Ellipse_6" data-name="Ellipse 6" cx="2.795" cy="2.752" rx="2.795" ry="2.752" transform="translate(16.513)" fill="#a3a3a3"/>
    </g>
    <path id="Path_15" data-name="Path 15" d="M7.527,7.933v-26.61H2.44V7.933ZM22.319-9.677A10.421,10.421,0,0,0,21.106-14.9a8.253,8.253,0,0,0-3.189-3.228,8.618,8.618,0,0,0-4.246-1.1A6.89,6.89,0,0,0,9.66-18.051a7.51,7.51,0,0,0-2.622,3.307,12.74,12.74,0,0,0-.92,5.068,12.775,12.775,0,0,0,.92,5.048A7.5,7.5,0,0,0,9.66-1.3,6.89,6.89,0,0,0,13.671-.129a8.618,8.618,0,0,0,4.246-1.1,8.22,8.22,0,0,0,3.189-3.248A10.447,10.447,0,0,0,22.319-9.677Zm-5.244,0a5.327,5.327,0,0,1-.665,2.739A4.429,4.429,0,0,1,14.63-5.216a5.17,5.17,0,0,1-2.446.587A4.687,4.687,0,0,1,9.973-5.2,4.494,4.494,0,0,1,8.212-6.9a5.286,5.286,0,0,1-.685-2.778,5.286,5.286,0,0,1,.685-2.778,4.494,4.494,0,0,1,1.761-1.7,4.687,4.687,0,0,1,2.211-.567,5.17,5.17,0,0,1,2.446.587,4.429,4.429,0,0,1,1.781,1.722A5.327,5.327,0,0,1,17.076-9.677Zm12.444-9H24.55v18h4.97ZM34.8-13.395l2.309-4.3a3.341,3.341,0,0,0-1.428-1.057,4.958,4.958,0,0,0-1.859-.352,4.518,4.518,0,0,0-2.739,1,7.292,7.292,0,0,0-2.152,2.661,8.5,8.5,0,0,0-.822,3.815l1.409,1.409a6.521,6.521,0,0,1,.333-2.211,3.047,3.047,0,0,1,1-1.428,2.564,2.564,0,0,1,1.6-.509,3.011,3.011,0,0,1,1.311.254A4.277,4.277,0,0,1,34.8-13.395Zm1.644,3.718a9.187,9.187,0,0,0,1.311,4.911,8.969,8.969,0,0,0,3.561,3.307A10.875,10.875,0,0,0,46.425-.285a10.875,10.875,0,0,0,5.107-1.174,8.969,8.969,0,0,0,3.561-3.307A9.187,9.187,0,0,0,56.4-9.677a9.16,9.16,0,0,0-1.311-4.931,9.014,9.014,0,0,0-3.561-3.287,10.875,10.875,0,0,0-5.107-1.174,10.875,10.875,0,0,0-5.107,1.174,9.014,9.014,0,0,0-3.561,3.287A9.16,9.16,0,0,0,36.446-9.677Zm5.166,0a5.511,5.511,0,0,1,.646-2.7A4.54,4.54,0,0,1,44-14.177a4.8,4.8,0,0,1,2.426-.626,4.8,4.8,0,0,1,2.426.626,4.54,4.54,0,0,1,1.741,1.8,5.511,5.511,0,0,1,.646,2.7A5.4,5.4,0,0,1,50.593-7a4.716,4.716,0,0,1-1.741,1.8,4.69,4.69,0,0,1-2.426.646A4.69,4.69,0,0,1,44-5.2,4.716,4.716,0,0,1,42.258-7,5.4,5.4,0,0,1,41.612-9.677Zm14.714-9v4.265H67.44v-4.265Zm3.091-6.261V-.676h4.892V-24.939ZM67.361-9.677a9.187,9.187,0,0,0,1.311,4.911,8.969,8.969,0,0,0,3.561,3.307A10.875,10.875,0,0,0,77.34-.285a10.875,10.875,0,0,0,5.107-1.174,8.969,8.969,0,0,0,3.561-3.307,9.187,9.187,0,0,0,1.311-4.911,9.16,9.16,0,0,0-1.311-4.931,9.014,9.014,0,0,0-3.561-3.287,10.875,10.875,0,0,0-5.107-1.174,10.875,10.875,0,0,0-5.107,1.174,9.014,9.014,0,0,0-3.561,3.287A9.16,9.16,0,0,0,67.361-9.677Zm5.166,0a5.511,5.511,0,0,1,.646-2.7,4.54,4.54,0,0,1,1.741-1.8A4.8,4.8,0,0,1,77.34-14.8a4.8,4.8,0,0,1,2.426.626,4.54,4.54,0,0,1,1.741,1.8,5.511,5.511,0,0,1,.646,2.7A5.4,5.4,0,0,1,81.508-7a4.716,4.716,0,0,1-1.741,1.8,4.69,4.69,0,0,1-2.426.646A4.69,4.69,0,0,1,74.914-5.2,4.716,4.716,0,0,1,73.173-7,5.4,5.4,0,0,1,72.527-9.677Zm20.858,0a5.146,5.146,0,0,1,.7-2.7,5.188,5.188,0,0,1,1.9-1.859,5.213,5.213,0,0,1,2.641-.685,7.126,7.126,0,0,1,2.191.352,7.455,7.455,0,0,1,2.015,1,4.459,4.459,0,0,1,1.389,1.507v-5.2a6.9,6.9,0,0,0-2.446-1.311,11.356,11.356,0,0,0-3.5-.489,11.112,11.112,0,0,0-5.146,1.174,8.95,8.95,0,0,0-3.6,3.287,9.16,9.16,0,0,0-1.311,4.931A9.187,9.187,0,0,0,89.53-4.766a8.9,8.9,0,0,0,3.6,3.307A11.112,11.112,0,0,0,98.276-.285a11.356,11.356,0,0,0,3.5-.489,6.562,6.562,0,0,0,2.446-1.35v-5.2a4.6,4.6,0,0,1-1.35,1.507A7.263,7.263,0,0,1,100.9-4.8a7.016,7.016,0,0,1-2.27.372A5.333,5.333,0,0,1,95.987-5.1a5.037,5.037,0,0,1-1.9-1.839A5.222,5.222,0,0,1,93.385-9.677Zm17.336,3.4a2.312,2.312,0,0,1,.352-1.311,2.264,2.264,0,0,1,1.1-.822,5.291,5.291,0,0,1,1.918-.293,9.6,9.6,0,0,1,2.759.391,7.589,7.589,0,0,1,2.368,1.174V-9.481a4.707,4.707,0,0,0-1.291-.978,9.536,9.536,0,0,0-2.211-.861,11.741,11.741,0,0,0-3.033-.352,7.936,7.936,0,0,0-5.2,1.526A5.106,5.106,0,0,0,105.633-6a5.332,5.332,0,0,0,.88,3.111A5.635,5.635,0,0,0,108.842-.95a7.408,7.408,0,0,0,3.131.665,8.6,8.6,0,0,0,3.15-.587,5.863,5.863,0,0,0,2.465-1.761,4.429,4.429,0,0,0,.959-2.9l-.626-2.348a4.023,4.023,0,0,1-.587,2.211,3.954,3.954,0,0,1-1.526,1.409,4.506,4.506,0,0,1-2.113.489,3.785,3.785,0,0,1-1.507-.293,2.439,2.439,0,0,1-1.076-.861A2.319,2.319,0,0,1,110.721-6.272Zm-1.957-7.318a8.988,8.988,0,0,1,1.213-.665,10.064,10.064,0,0,1,1.957-.665,10.142,10.142,0,0,1,2.387-.274,6.5,6.5,0,0,1,1.487.157,3.21,3.21,0,0,1,1.154.509,2.145,2.145,0,0,1,.724.88,3.119,3.119,0,0,1,.235,1.272v11.7h4.892V-13.434a4.823,4.823,0,0,0-1.017-3.111,6.3,6.3,0,0,0-2.818-1.937,11.8,11.8,0,0,0-4.109-.665,14.174,14.174,0,0,0-4.539.685,23.535,23.535,0,0,0-3.444,1.428ZM125.943-31.2V-.676h5.087V-31.2Zm8.531,0V-.676h5.087V-31.2Z" transform="translate(118.217 52.881)" fill="#a3a3a3"/>
  </g>
</svg>
