<svg xmlns="http://www.w3.org/2000/svg" width="60" height="60" viewBox="0 0 60 60">
  <path id="Icon_material-ac-unit" data-name="Icon material-ac-unit" d="M63,30H50.49l9.72-9.72-4.23-4.26L42,30H36V24L49.98,10.02,45.72,5.79,36,15.51V3H30V15.51L20.28,5.79l-4.26,4.23L30,24v6H24L10.02,16.02,5.79,20.28,15.51,30H3v6H15.51L5.79,45.72l4.23,4.26L24,36h6v6L16.02,55.98l4.26,4.23L30,50.49V63h6V50.49l9.72,9.72,4.26-4.23L36,42V36h6L55.98,49.98l4.23-4.26L50.49,36H63Z" transform="translate(-3 -3)" fill="#51459e"/>
</svg>
