<svg xmlns="http://www.w3.org/2000/svg" width="24" height="24" viewBox="0 0 24 24">
  <g id="vuesax_linear_eye" data-name="vuesax/linear/eye" transform="translate(-108 -188)">
    <g id="eye">
      <path id="Vector" d="M3.58-.75A4.33,4.33,0,1,1-.75,3.58,4.335,4.335,0,0,1,3.58-.75Zm0,7.16A2.83,2.83,0,1,0,.75,3.58,2.833,2.833,0,0,0,3.58,6.41Z" transform="translate(116.42 196.42)" fill="#51459e"/>
      <path id="Vector-2" data-name="Vector" d="M9.785,17.3c-3.755,0-7.306-2.2-9.743-6.027a6.075,6.075,0,0,1,0-6C2.479,1.447,6.03-.75,9.785-.75s7.306,2.2,9.743,6.027a6.075,6.075,0,0,1,0,6C17.091,15.1,13.54,17.3,9.785,17.3Zm0-16.55A8.618,8.618,0,0,0,5.163,2.126,12.471,12.471,0,0,0,1.308,6.083a4.576,4.576,0,0,0,0,4.384,12.473,12.473,0,0,0,3.856,3.958A8.618,8.618,0,0,0,9.785,15.8a8.618,8.618,0,0,0,4.622-1.376,12.471,12.471,0,0,0,3.855-3.957,4.576,4.576,0,0,0,0-4.384,12.473,12.473,0,0,0-3.856-3.958A8.618,8.618,0,0,0,9.785.75Z" transform="translate(110.215 191.72)" fill="#51459e"/>
      <path id="Vector-3" data-name="Vector" d="M0,0H24V24H0Z" transform="translate(132 212) rotate(180)" fill="none" opacity="0"/>
    </g>
  </g>
</svg>
