<svg xmlns="http://www.w3.org/2000/svg" width="40" height="40" viewBox="0 0 40 40">
  <g id="vuesax_linear_shield-security" data-name="vuesax/linear/shield-security" transform="translate(-492 -188)">
    <g id="shield-security" transform="translate(492 188)">
      <path id="Vector" d="M14.821-.75a8.964,8.964,0,0,1,2.974.463l.01,0,8.317,3.117a7.016,7.016,0,0,1,4.295,6.2V21.421a9.34,9.34,0,0,1-3.385,6.735l-7.167,5.35a8.4,8.4,0,0,1-5.031,1.573A8.4,8.4,0,0,1,9.8,33.5L2.636,28.156A9.34,9.34,0,0,1-.75,21.421V9.038a7,7,0,0,1,4.3-6.188L11.859-.282A8.74,8.74,0,0,1,14.821-.75Zm2.113,2.81a6.546,6.546,0,0,0-2.113-.31,6.314,6.314,0,0,0-2.083.308L4.424,5.191A4.549,4.549,0,0,0,1.75,9.038V21.421a6.881,6.881,0,0,0,2.382,4.732L11.3,31.5a5.979,5.979,0,0,0,3.536,1.077,5.977,5.977,0,0,0,3.532-1.074l7.17-5.353a6.881,6.881,0,0,0,2.381-4.732V9.038a4.561,4.561,0,0,0-2.671-3.863Z" transform="translate(5.183 2.829)" fill="#51459e"/>
      <path id="Vector-2" data-name="Vector" d="M0,0H40V40H0Z" transform="translate(40 40) rotate(180)" fill="none" opacity="0"/>
      <path id="Vector-3" data-name="Vector" d="M3.833-.75A4.583,4.583,0,1,1-.75,3.833,4.589,4.589,0,0,1,3.833-.75Zm0,6.667A2.083,2.083,0,1,0,1.75,3.833,2.086,2.086,0,0,0,3.833,5.917Z" transform="translate(16.167 13.667)" fill="#51459e"/>
      <path id="Vector-4" data-name="Vector" d="M.5,6.75A1.25,1.25,0,0,1-.75,5.5V.5a1.25,1.25,0,0,1,2.5,0v5A1.25,1.25,0,0,1,.5,6.75Z" transform="translate(19.5 20.333)" fill="#51459e"/>
    </g>
  </g>
</svg>
