<svg xmlns="http://www.w3.org/2000/svg" xmlns:xlink="http://www.w3.org/1999/xlink" width="758" height="661" viewBox="0 0 758 661">
  <defs>
    <clipPath id="clip-path">
      <rect id="Rectangle_685" data-name="Rectangle 685" width="758" height="661" transform="translate(1162 271)" fill="#fff"/>
    </clipPath>
    <linearGradient id="linear-gradient" x1="0.233" y1="1" x2="1" y2="0.331" gradientUnits="objectBoundingBox">
      <stop offset="0" stop-color="#fad15c" stop-opacity="0"/>
      <stop offset="0.522" stop-color="#fad15c" stop-opacity="0.557"/>
      <stop offset="1" stop-color="#f7ce5b" stop-opacity="0"/>
    </linearGradient>
    <linearGradient id="linear-gradient-2" x1="0.195" y1="0.652" x2="1" y2="0.331" gradientUnits="objectBoundingBox">
      <stop offset="0" stop-color="#1967d2" stop-opacity="0"/>
      <stop offset="0.522" stop-color="#1967d2" stop-opacity="0.173"/>
      <stop offset="1" stop-color="#1967d2" stop-opacity="0"/>
    </linearGradient>
  </defs>
  <g id="Mask_Group_40" data-name="Mask Group 40" transform="translate(-1162 -271)" clip-path="url(#clip-path)">
    <g id="Group_1633" data-name="Group 1633">
      <g id="Group_49" data-name="Group 49" transform="translate(0 433.686)">
        <path id="llline" d="M741.841,316.4H741.6c-8.637-.009-17.946-.429-27.669-1.248-9.429-.794-19.513-1.986-29.971-3.543-19.921-2.965-42.047-7.381-65.761-13.124-22.076-5.346-46.19-12-71.67-19.784-23.445-7.16-48.79-15.5-75.332-24.789-101.848-35.644-207.606-80.3-292.584-116.18-29.99-12.663-58.316-24.623-82.4-34.455C69.568,92.406,50.572,85.135,36.426,80.4a2.5,2.5,0,1,1,1.588-4.741C52.264,80.428,71.355,87.735,98.1,98.65c24.113,9.843,52.453,21.809,82.457,34.478,84.913,35.853,190.591,80.474,292.29,116.066,26.479,9.267,51.76,17.586,75.141,24.727,25.388,7.753,49.405,14.384,71.387,19.706,23.57,5.708,45.547,10.094,65.321,13.038A395.005,395.005,0,0,0,741.6,311.4h.241a226.839,226.839,0,0,0,34.9-2.68,224.325,224.325,0,0,0,32.557-7.633,245.774,245.774,0,0,0,30.361-11.874,295.383,295.383,0,0,0,28.533-15.41c8.891-5.43,17.741-11.4,27.058-18.235,8.3-6.1,16.786-12.752,25.93-20.344,17-14.117,33.707-29.365,49.861-44.111,14.921-13.62,30.35-27.7,45.814-40.7,8.333-7,16.024-13.153,23.514-18.8,8.412-6.343,16.362-11.9,24.3-16.988a292.026,292.026,0,0,1,25.383-14.584A235.46,235.46,0,0,1,1116.8,88.461a206.158,206.158,0,0,1,28.388-7.973,198.454,198.454,0,0,1,30.285-3.761,283.578,283.578,0,0,1,39.467,1.13c13.254,1.248,27.572,3.376,42.558,6.326,14.087,2.773,29.236,6.366,45.026,10.678,14.68,4.009,30.447,8.787,46.864,14.2,28.375,9.357,60,21.026,96.684,35.675,32.448,12.958,64.92,26.653,96.323,39.9,45.889,19.355,89.233,37.636,128.3,51.9,20.894,7.63,38.8,13.469,54.747,17.85,8.58,2.358,16.694,4.312,24.118,5.808a218.1,218.1,0,0,0,21.584,3.323,205.947,205.947,0,0,0,32.976.7,159.9,159.9,0,0,0,28.109-4.24,138.117,138.117,0,0,0,23.809-8.217,135.2,135.2,0,0,0,20.081-11.265c24.608-16.7,40.749-39.217,53.719-57.314,4.649-6.486,9.039-12.612,13.239-17.637,4.773-5.711,8.863-9.474,12.871-11.844a2.5,2.5,0,1,1,2.545,4.3c-3.5,2.071-7.183,5.486-11.579,10.746-4.08,4.882-8.419,10.935-13.011,17.343-13.2,18.419-29.63,41.342-54.976,58.538a140.2,140.2,0,0,1-20.825,11.682,143.149,143.149,0,0,1-24.673,8.516,164.884,164.884,0,0,1-28.99,4.375,210.869,210.869,0,0,1-33.781-.71,222.968,222.968,0,0,1-22.083-3.4c-7.537-1.519-15.765-3.5-24.455-5.889-16.078-4.418-34.114-10.3-55.137-17.975-39.185-14.309-82.584-32.614-128.531-51.993-31.381-13.236-63.83-26.922-96.234-39.862-36.588-14.611-68.12-26.246-96.4-35.57-16.335-5.387-32.018-10.139-46.615-14.126-15.674-4.281-30.7-7.845-44.674-10.6-14.822-2.918-28.973-5.022-42.061-6.254a278.6,278.6,0,0,0-38.766-1.113,193.407,193.407,0,0,0-29.52,3.666,201.2,201.2,0,0,0-27.7,7.779,230.48,230.48,0,0,0-26.177,11.335,287.057,287.057,0,0,0-24.945,14.334c-7.834,5.019-15.681,10.5-23.99,16.77-7.419,5.594-15.043,11.69-23.307,18.636-15.385,12.93-30.775,26.979-45.66,40.566-16.2,14.785-32.945,30.073-50.038,44.265-9.221,7.656-17.779,14.371-26.164,20.527-9.432,6.925-18.4,12.967-27.411,18.472a300.342,300.342,0,0,1-29.019,15.671,250.769,250.769,0,0,1-30.981,12.116,229.322,229.322,0,0,1-33.285,7.8A231.866,231.866,0,0,1,741.841,316.4Z" transform="translate(498.281 159.912)" fill="url(#linear-gradient)"/>
        <path id="llline-2" data-name="llline" d="M741.841,316.4H741.6c-8.637-.009-17.946-.429-27.669-1.248-9.429-.794-19.513-1.986-29.971-3.543-19.922-2.965-42.047-7.381-65.761-13.124-22.076-5.346-46.19-12-71.671-19.784-23.445-7.16-48.79-15.5-75.332-24.789-101.848-35.644-207.606-80.3-292.584-116.18-29.99-12.663-58.316-24.623-82.4-34.455C69.568,92.406,50.572,85.135,36.426,80.4a2.5,2.5,0,1,1,1.588-4.741C52.264,80.428,71.356,87.735,98.1,98.65c24.113,9.843,52.453,21.809,82.457,34.478,84.913,35.853,190.591,80.474,292.291,116.066,26.479,9.267,51.76,17.586,75.141,24.727,25.388,7.753,49.406,14.384,71.387,19.706,23.57,5.708,45.547,10.094,65.321,13.038A395,395,0,0,0,741.6,311.4h.241a226.84,226.84,0,0,0,34.9-2.68,224.325,224.325,0,0,0,32.557-7.633,245.771,245.771,0,0,0,30.361-11.874,295.4,295.4,0,0,0,28.533-15.41c8.891-5.43,17.741-11.4,27.058-18.235,8.3-6.1,16.786-12.752,25.929-20.344,17-14.117,33.707-29.365,49.861-44.111,14.921-13.62,30.35-27.7,45.814-40.7,8.333-7,16.024-13.153,23.514-18.8,8.412-6.343,16.362-11.9,24.3-16.988a292.026,292.026,0,0,1,25.383-14.584A235.46,235.46,0,0,1,1116.8,88.461a206.158,206.158,0,0,1,28.388-7.973,198.454,198.454,0,0,1,30.285-3.761,283.58,283.58,0,0,1,39.468,1.13c13.254,1.248,27.572,3.376,42.558,6.326,14.087,2.773,29.236,6.366,45.026,10.678,14.68,4.009,30.447,8.787,46.864,14.2,28.375,9.357,60,21.026,96.684,35.675,32.448,12.958,64.92,26.653,96.323,39.9,45.889,19.355,89.233,37.636,128.3,51.9,20.894,7.63,38.8,13.469,54.747,17.85,8.58,2.358,16.694,4.312,24.118,5.808a218.1,218.1,0,0,0,21.584,3.323,205.947,205.947,0,0,0,32.976.7,159.9,159.9,0,0,0,28.109-4.24,138.117,138.117,0,0,0,23.809-8.217,135.2,135.2,0,0,0,20.081-11.265c24.608-16.7,40.749-39.217,53.719-57.314,4.649-6.486,9.039-12.612,13.239-17.637,4.773-5.711,8.863-9.474,12.871-11.844a2.5,2.5,0,1,1,2.545,4.3c-3.5,2.071-7.183,5.486-11.579,10.746-4.08,4.882-8.419,10.935-13.011,17.343-13.2,18.419-29.63,41.342-54.976,58.538a140.211,140.211,0,0,1-20.826,11.682,143.149,143.149,0,0,1-24.673,8.516,164.884,164.884,0,0,1-28.99,4.375,210.869,210.869,0,0,1-33.781-.71,222.968,222.968,0,0,1-22.083-3.4c-7.537-1.519-15.765-3.5-24.455-5.889-16.078-4.418-34.114-10.3-55.137-17.975-39.185-14.309-82.584-32.614-128.531-51.993-31.381-13.236-63.831-26.922-96.234-39.862-36.588-14.611-68.12-26.246-96.4-35.57-16.335-5.387-32.018-10.139-46.615-14.126-15.674-4.281-30.7-7.845-44.674-10.6-14.822-2.918-28.973-5.022-42.061-6.254a278.6,278.6,0,0,0-38.766-1.113,193.407,193.407,0,0,0-29.52,3.666,201.2,201.2,0,0,0-27.7,7.779A230.48,230.48,0,0,0,1092.31,104.5a287.057,287.057,0,0,0-24.945,14.334c-7.834,5.019-15.681,10.5-23.99,16.77-7.419,5.594-15.043,11.69-23.307,18.636-15.385,12.93-30.775,26.979-45.66,40.566-16.2,14.785-32.945,30.073-50.038,44.265-9.221,7.656-17.779,14.371-26.165,20.527-9.432,6.925-18.4,12.967-27.411,18.472a300.349,300.349,0,0,1-29.019,15.671,250.769,250.769,0,0,1-30.981,12.116,229.323,229.323,0,0,1-33.285,7.8A231.866,231.866,0,0,1,741.841,316.4Z" transform="translate(658.282 130.474)" fill="url(#linear-gradient-2)"/>
      </g>
      <g id="Group_12" data-name="Group 12" transform="translate(814.511 26.68)">
        <path id="Path_21" data-name="Path 21" d="M588.744-154a72.314,72.314,0,0,1,22.4,3.629,67.953,67.953,0,0,1,20.085,10.315,54.047,54.047,0,0,1,14.484,16.428,42.541,42.541,0,0,1,5.6,21.586V82.071a44.7,44.7,0,0,1-5.214,21.776,49.292,49.292,0,0,1-13.9,16.046,67.444,67.444,0,0,1-20.086,10.124c-7.6,2.42-23.368,3.629-23.368,3.629H385.573s-16.093-1.21-23.561-3.629a67.881,67.881,0,0,1-19.892-10.124,49.283,49.283,0,0,1-13.905-16.046A44.7,44.7,0,0,1,323,82.071V-102.042a42.532,42.532,0,0,1,5.6-21.586,54.055,54.055,0,0,1,14.485-16.428,67.933,67.933,0,0,1,20.085-10.315,72.314,72.314,0,0,1,22.4-3.629Zm-26.266,52.34H411.839q-18.54,0-26.265,7.832t-7.725,22.349V50.361q0,16.046,7.532,23.3t26.072,7.259H562.863q18.54,0,26.073-7.641t7.532-22.923V-71.479q0-14.518-7.725-22.349T562.478-101.66Z" transform="translate(728.282 398.32)" fill="#51459e" opacity="0.204"/>
        <path id="Path_22" data-name="Path 22" d="M588.744-154a72.314,72.314,0,0,1,22.4,3.629,67.953,67.953,0,0,1,20.085,10.315,54.047,54.047,0,0,1,14.484,16.428,42.541,42.541,0,0,1,5.6,21.586V82.071a44.7,44.7,0,0,1-5.214,21.776,49.292,49.292,0,0,1-13.9,16.046,67.444,67.444,0,0,1-20.086,10.124,76.538,76.538,0,0,1-23.368,3.629H527.405L498.8,171.981a15.687,15.687,0,0,1-21.708,3.268,15.411,15.411,0,0,1-3.319-3.268l-28.608-38.336H385.573a75.96,75.96,0,0,1-23.561-3.629,67.881,67.881,0,0,1-19.892-10.124,49.283,49.283,0,0,1-13.905-16.046A44.7,44.7,0,0,1,323,82.071V-102.042a42.532,42.532,0,0,1,5.6-21.586,54.055,54.055,0,0,1,14.485-16.428,67.933,67.933,0,0,1,20.085-10.315,72.314,72.314,0,0,1,22.4-3.629Zm-26.266,52.34H411.839q-18.54,0-26.265,7.832t-7.725,22.349V50.361q0,16.046,7.532,23.3t26.072,7.259H562.863q18.54,0,26.073-7.641t7.532-22.923V-71.479q0-14.518-7.725-22.349T562.478-101.66Z" transform="translate(617.489 484.242)" fill="#51459e"/>
      </g>
    </g>
  </g>
</svg>
