<svg xmlns="http://www.w3.org/2000/svg" width="40" height="40" viewBox="0 0 40 40">
  <g id="vuesax_linear_user-tag" data-name="vuesax/linear/user-tag" transform="translate(-556 -188)">
    <g id="user-tag" transform="translate(556 188)">
      <path id="Vector" d="M15.492,35.062a4.577,4.577,0,0,1-3.236-1.323L9.4,30.922A3.771,3.771,0,0,0,6.75,29.833H5.5a6.232,6.232,0,0,1-6.25-6.2V5.45A6.232,6.232,0,0,1,5.5-.75h20a6.232,6.232,0,0,1,6.25,6.2V23.633a6.232,6.232,0,0,1-6.25,6.2H24.233a3.716,3.716,0,0,0-2.649,1.084l-2.855,2.822A4.577,4.577,0,0,1,15.492,35.062ZM5.5,1.75a3.729,3.729,0,0,0-3.75,3.7V23.633a3.729,3.729,0,0,0,3.75,3.7H6.75a6.284,6.284,0,0,1,4.417,1.816l2.845,2.812a2.12,2.12,0,0,0,2.96,0l2.85-2.816a6.2,6.2,0,0,1,4.412-1.811H25.5a3.729,3.729,0,0,0,3.75-3.7V5.45a3.729,3.729,0,0,0-3.75-3.7Z" transform="translate(4.5 2.85)" fill="#51459e"/>
      <g id="Group" transform="translate(12.083 7.65)">
        <path id="Vector-2" data-name="Vector" d="M4.383-.75A5.133,5.133,0,1,1-.75,4.383,5.139,5.139,0,0,1,4.383-.75Zm0,7.767A2.633,2.633,0,1,0,1.75,4.383,2.636,2.636,0,0,0,4.383,7.017Z" transform="translate(3.533 0.75)" fill="#51459e"/>
        <path id="Vector-3" data-name="Vector" d="M13.833,7.183a1.25,1.25,0,0,1-1.25-1.25c0-2.307-2.43-4.183-5.417-4.183S1.75,3.627,1.75,5.933a1.25,1.25,0,0,1-2.5,0,6.176,6.176,0,0,1,2.412-4.81A8.7,8.7,0,0,1,7.167-.75a8.7,8.7,0,0,1,5.5,1.873,6.176,6.176,0,0,1,2.412,4.81A1.25,1.25,0,0,1,13.833,7.183Z" transform="translate(0.75 12.517)" fill="#51459e"/>
      </g>
      <path id="Vector-4" data-name="Vector" d="M0,0H40V40H0Z" fill="none" opacity="0"/>
    </g>
  </g>
</svg>
