<svg xmlns="http://www.w3.org/2000/svg" width="24" height="24" viewBox="0 0 24 24">
  <g id="add-square" transform="translate(-620 -252)">
    <path id="Vector" d="M8,.75H0A.75.75,0,0,1-.75,0,.75.75,0,0,1,0-.75H8A.75.75,0,0,1,8.75,0,.75.75,0,0,1,8,.75Z" transform="translate(628 264)" fill="#242424"/>
    <path id="Vector-2" data-name="Vector" d="M0,8.75A.75.75,0,0,1-.75,8V0A.75.75,0,0,1,0-.75.75.75,0,0,1,.75,0V8A.75.75,0,0,1,0,8.75Z" transform="translate(632 260)" fill="#242424"/>
    <path id="Vector-3" data-name="Vector" d="M13,20.75H7c-2.77,0-4.647-.586-5.905-1.845S-.75,15.77-.75,13V7c0-2.77.586-4.647,1.845-5.905S4.23-.75,7-.75h6c2.77,0,4.647.586,5.905,1.845S20.75,4.23,20.75,7v6c0,2.77-.586,4.647-1.845,5.905S15.77,20.75,13,20.75ZM7,.75C4.654.75,3.114,1.2,2.155,2.155S.75,4.654.75,7v6c0,2.346.447,3.886,1.405,4.845S4.654,19.25,7,19.25h6c2.346,0,3.886-.447,4.845-1.405S19.25,15.346,19.25,13V7c0-2.346-.447-3.886-1.405-4.845S15.346.75,13,.75Z" transform="translate(622 254)" fill="#242424"/>
    <path id="Vector-4" data-name="Vector" d="M0,0H24V24H0Z" transform="translate(620 252)" fill="none" opacity="0"/>
  </g>
</svg>
