<svg xmlns="http://www.w3.org/2000/svg" width="126" height="24" viewBox="0 0 126 24">
  <path id="airbus-logo2" d="M73.06,33.611H65.092V29.137h7.972a2.241,2.241,0,1,1,0,4.475M65.092,20.494h7.83a1.961,1.961,0,0,1,1.98,1.925,1.989,1.989,0,0,1-2.027,1.928H65.093V20.5Zm12.469,6.258a5.381,5.381,0,0,0,2.03-4.646A6.534,6.534,0,0,0,72.926,15.7H59.63V38.407H73.448v.008a6.936,6.936,0,0,0,7.111-6.662,5.689,5.689,0,0,0-3-5m20.5-11.1V28.415c0,3.9-2.28,5.539-5.081,5.539s-5.066-1.632-5.066-5.537V15.649H82.26v12.8C82.26,36.622,87.056,39,92.984,39s10.734-2.378,10.734-10.548v-12.8H98.065Zm19.853,8.85c-4.579-.994-6.126-1.435-6.126-2.888,0-1.282,1.658-1.928,4.276-1.928a15.742,15.742,0,0,1,7.208,2.1l1.786-4.62A25.123,25.123,0,0,0,114.988,15c-5.538,0-9,3.24-9,7.2s2.849,5.708,8.495,6.9c4.376.924,5.563,1.482,5.563,2.844s-1.756,1.865-4.128,1.865a22.62,22.62,0,0,1-8.812-2.22l-1.684,4.5a25.269,25.269,0,0,0,10.906,2.782c6.866,0,9.667-3.283,9.667-7.11,0-3.4-2.356-6.025-8.082-7.272M11.466,15.7,0,38.4l6.81,0,1.714-3.652h7.822l-2.434-4.974H10.824l2.908-6.21,7.325,14.836h6.828L15.972,15.7H11.466Zm46.07,7.552c0-4.136-2.836-7.492-8.664-7.492H37.1V38.466l5.458,0V20.554h6.695a2.517,2.517,0,0,1,2.8,2.683,2.513,2.513,0,0,1-2.844,2.632H44.525l7.084,12.594h5.6s-4.848-8.232-4.824-8.237a6.888,6.888,0,0,0,5.149-6.976M29.053,38.416H34.7v-22.7H29.053Z" transform="translate(0 -15)" fill="#00205b"/>
</svg>
