<svg id="arrow-down" xmlns="http://www.w3.org/2000/svg" width="24" height="24" viewBox="0 0 24 24">
  <path id="Vector" d="M7.92,7.849a2.721,2.721,0,0,1-1.93-.8L-.53.53A.75.75,0,0,1-.53-.53.75.75,0,0,1,.53-.53L7.05,5.99a1.231,1.231,0,0,0,1.739,0L15.31-.53a.75.75,0,0,1,1.061,0,.75.75,0,0,1,0,1.061L9.85,7.05A2.721,2.721,0,0,1,7.92,7.849Z" transform="translate(4.08 8.95)" fill="#51459e"/>
  <path id="Vector-2" data-name="Vector" d="M0,0H24V24H0Z" transform="translate(24 24) rotate(180)" fill="none" opacity="0"/>
</svg>
