<svg xmlns="http://www.w3.org/2000/svg" width="129.013" height="24" viewBox="0 0 129.013 24">
  <g id="deloitte-logo2" transform="translate(0 -15.158)">
    <path id="Path_29" data-name="Path 29" d="M100.33,32.656a3.342,3.342,0,1,1,3.341,3.413,3.367,3.367,0,0,1-3.341-3.413" transform="translate(22.002 3.089)" fill="#86bc25"/>
    <path id="Path_30" data-name="Path 30" d="M19.492,26.546c0,3.931-1.04,6.935-3.156,9.087-2.117,2.114-5.087,3.19-8.911,3.19H0V15.307H7.945c3.676,0,6.535.963,8.539,2.893q3.009,2.837,3.008,8.346m-6.46.222a7.441,7.441,0,0,0-1.263-4.785,4.567,4.567,0,0,0-3.786-1.558H6.164V33.594H7.535a4.988,4.988,0,0,0,4.158-1.67,8.3,8.3,0,0,0,1.338-5.155m27.251-11.61h5.9V38.787h-5.9ZM65.639,30a9.369,9.369,0,0,1-2.264,6.713,8.371,8.371,0,0,1-6.349,2.412,8.086,8.086,0,0,1-6.2-2.448A9.414,9.414,0,0,1,48.524,30a9.279,9.279,0,0,1,2.264-6.677,8.35,8.35,0,0,1,6.349-2.374,8.832,8.832,0,0,1,4.455,1.112A7.477,7.477,0,0,1,64.6,25.21,10.7,10.7,0,0,1,65.639,30M54.5,30a7.675,7.675,0,0,0,.6,3.449,2.056,2.056,0,0,0,1.967,1.188,1.971,1.971,0,0,0,1.931-1.188,8.33,8.33,0,0,0,.556-3.451,7.942,7.942,0,0,0-.556-3.375,2,2,0,0,0-1.968-1.15,2.065,2.065,0,0,0-1.968,1.15A8.43,8.43,0,0,0,54.5,30m13.477-8.755h5.9V38.787h-5.9Zm0-6.083h5.9V18.9h-5.9ZM85.911,34.335a8.356,8.356,0,0,0,2.858-.594v4.414a10.772,10.772,0,0,1-4.789.966c-2,0-3.415-.483-4.307-1.484a6.75,6.75,0,0,1-1.3-4.6V25.8H76.295V21.279h2.079V16.791l5.978-1.039v5.527h3.786V25.8H84.352v6.826a1.413,1.413,0,0,0,1.558,1.707m14.072,0a8.356,8.356,0,0,0,2.858-.594v4.414a10.771,10.771,0,0,1-4.788.966c-2.006,0-3.416-.483-4.308-1.484a6.75,6.75,0,0,1-1.3-4.6V25.8H90.366V21.279h2.079V16.716l5.978-.964v5.527h3.787V25.8H98.421v6.826a1.414,1.414,0,0,0,1.559,1.707m18.676-11.313a8.247,8.247,0,0,0-5.978-2.078,8.123,8.123,0,0,0-6.274,2.374c-1.447,1.594-2.19,3.858-2.19,6.824a8.867,8.867,0,0,0,2.376,6.64,9.068,9.068,0,0,0,6.645,2.337,18.983,18.983,0,0,0,3.527-.3,10.515,10.515,0,0,0,2.858-1l-.89-3.969a14.594,14.594,0,0,1-1.931.63,13.535,13.535,0,0,1-2.858.3,4.083,4.083,0,0,1-2.71-.854,3,3,0,0,1-1.04-2.3h10.581V28.92a7.855,7.855,0,0,0-2.115-5.9M110.3,27.844a3.275,3.275,0,0,1,.817-2.114,2.442,2.442,0,0,1,1.745-.667,2.4,2.4,0,0,1,1.819.741,3.213,3.213,0,0,1,.706,2.04ZM35.864,23.022a8.242,8.242,0,0,0-5.977-2.078,8.123,8.123,0,0,0-6.274,2.374c-1.449,1.594-2.191,3.858-2.191,6.824a8.867,8.867,0,0,0,2.376,6.64,9.072,9.072,0,0,0,6.645,2.337,18.983,18.983,0,0,0,3.527-.3,10.515,10.515,0,0,0,2.859-1l-.891-3.969a14.593,14.593,0,0,1-1.931.63,13.534,13.534,0,0,1-2.858.3,4.083,4.083,0,0,1-2.71-.854,3,3,0,0,1-1.04-2.3H37.981V28.92a7.856,7.856,0,0,0-2.117-5.9m-8.353,4.822a3.262,3.262,0,0,1,.817-2.114,2.439,2.439,0,0,1,1.744-.667,2.409,2.409,0,0,1,1.82.741,3.219,3.219,0,0,1,.7,2.04Z" transform="translate(0 0)"/>
  </g>
</svg>
