<svg xmlns="http://www.w3.org/2000/svg" width="172" height="19.189" viewBox="0 0 172 19.189">
  <g id="Group_35" data-name="Group 35" transform="translate(0 -17.126)">
    <g id="Group_30" data-name="Group 30" transform="translate(0 17.47)">
      <path id="Path_31" data-name="Path 31" d="M13.647.321V2.752a.248.248,0,0,1-.26.265H3.1V7.985h8.49a.248.248,0,0,1,.26.264v2.432a.246.246,0,0,1-.26.264H3.1v7.349a.247.247,0,0,1-.26.264H.26A.248.248,0,0,1,0,18.294V.32A.247.247,0,0,1,.26.056H13.387a.248.248,0,0,1,.26.264" transform="translate(0 -0.056)" fill="#677b8c" fill-rule="evenodd"/>
    </g>
    <path id="Path_32" data-name="Path 32" d="M27.033,28.1q-1.4-3.942-3.086-7.771h-.612q-1.695,3.826-3.1,7.77h6.8Zm5.455,7.823H29.651a.285.285,0,0,1-.3-.238Q28.755,33.3,28,30.959H19.285q-.761,2.339-1.341,4.731a.284.284,0,0,1-.3.239H14.91c-.182,0-.287-.105-.235-.291A124.284,124.284,0,0,1,21.342,17.77a.5.5,0,0,1,.509-.344h3.7a.5.5,0,0,1,.508.344,122.079,122.079,0,0,1,6.667,17.867C32.775,35.822,32.671,35.928,32.489,35.928Z" transform="translate(2.149 0.044)" fill="#677b8c" fill-rule="evenodd"/>
    <g id="Group_31" data-name="Group 31" transform="translate(39.299 17.126)">
      <path id="Path_33" data-name="Path 33" d="M.023,9.764C.023,4.027,3.747.01,9.06.01h.39a8.091,8.091,0,0,1,7.281,4.2.236.236,0,0,1-.092.37L14.347,5.731a.314.314,0,0,1-.455-.118A4.83,4.83,0,0,0,9.347,3.022h-.39c-3.348,0-5.652,2.7-5.652,6.609s2.266,6.554,5.652,6.554h.39a5.312,5.312,0,0,0,4.441-1.9.328.328,0,0,1,.43-.092l2.356,1.163a.22.22,0,0,1,.131.186.353.353,0,0,1-.078.2A8.464,8.464,0,0,1,9.4,19.2H9.008C3.6,19.2.023,15.431.023,9.761" transform="translate(-0.023 -0.01)" fill="#677b8c" fill-rule="evenodd"/>
    </g>
    <path id="Path_34" data-name="Path 34" d="M68.754,33.232v2.431a.247.247,0,0,1-.26.264H54.82a.247.247,0,0,1-.26-.264V17.691a.247.247,0,0,1,.26-.264H68.259a.248.248,0,0,1,.26.264v2.431a.247.247,0,0,1-.26.265h-10.6V25.2H66.28a.248.248,0,0,1,.26.264v2.405a.247.247,0,0,1-.26.264H57.659v4.838H68.494a.247.247,0,0,1,.26.264m20.365-2.657c0-1.719-1.119-2.5-3.581-2.5H79.4v4.969h6.134c2.5,0,3.581-.74,3.581-2.471M84.666,20.307h-5.26v4.969h5.26c2.357,0,3.437-.78,3.437-2.485s-1.08-2.485-3.437-2.485M92.3,30.853c0,3.238-2.449,5.075-6.771,5.075H76.567a.247.247,0,0,1-.26-.264V17.69a.247.247,0,0,1,.26-.264H84.73c4.208,0,6.5,1.691,6.5,4.783a3.857,3.857,0,0,1-3.073,3.99c2.89.621,4.141,2.379,4.141,4.653" transform="translate(7.995 0.044)" fill="#677b8c" fill-rule="evenodd"/>
    <g id="Group_32" data-name="Group 32" transform="translate(105.748 17.126)">
      <path id="Path_35" data-name="Path 35" d="M9.865,16.185c3.738,0,6.094-2.6,6.094-6.581S13.6,3.023,9.865,3.023H9.474c-3.738,0-6.094,2.6-6.094,6.581s2.356,6.581,6.094,6.581h.39ZM.1,9.6C.1,4.027,3.745.01,9.474.01h.39c5.73,0,9.376,4.017,9.376,9.594S15.595,19.2,9.865,19.2H9.474C3.745,19.2.1,15.181.1,9.6Z" transform="translate(-0.099 -0.01)" fill="#677b8c" fill-rule="evenodd"/>
    </g>
    <g id="Group_33" data-name="Group 33" transform="translate(130.176 17.126)">
      <path id="Path_36" data-name="Path 36" d="M9.794,16.185c3.738,0,6.094-2.6,6.094-6.581S13.532,3.023,9.794,3.023H9.4c-3.738,0-6.1,2.6-6.1,6.581S5.667,16.185,9.4,16.185ZM.028,9.6C.028,4.027,3.674.01,9.4.01h.391c5.73,0,9.376,4.017,9.376,9.594S15.525,19.2,9.794,19.2H9.4C3.674,19.2.028,15.181.028,9.6Z" transform="translate(-0.028 -0.01)" fill="#677b8c" fill-rule="evenodd"/>
    </g>
    <g id="Group_34" data-name="Group 34" transform="translate(155.845 17.471)">
      <path id="Path_37" data-name="Path 37" d="M15.975,18.558H12.616a.491.491,0,0,1-.456-.225,71.794,71.794,0,0,0-7.513-7.678H3.135v7.638a.246.246,0,0,1-.26.264H.3a.247.247,0,0,1-.26-.264V.321A.247.247,0,0,1,.3.057h2.58a.247.247,0,0,1,.259.264V7.615H4.671a56.293,56.293,0,0,0,6.8-7.36.415.415,0,0,1,.39-.2h3.178c.156,0,.234.08.234.186a.323.323,0,0,1-.092.2,65.387,65.387,0,0,1-8.138,8.59,79.089,79.089,0,0,1,9.077,9.2c.142.172.064.33-.143.33" transform="translate(-0.036 -0.057)" fill="#677b8c" fill-rule="evenodd"/>
    </g>
  </g>
</svg>
