<svg xmlns="http://www.w3.org/2000/svg" width="26.891" height="27.475" viewBox="0 0 26.891 27.475">
  <g id="Google__G__Logo" data-name="Google_&quot;G&quot;_Logo" transform="translate(26.754 -39.239)">
    <path id="Path_64" data-name="Path 64" d="M-1.6,51.838a15.916,15.916,0,0,0-.218-2.6H-14.754V54.4h7.407a6.378,6.378,0,0,1-2.748,4.1v3.434h4.419A13.432,13.432,0,0,0-1.6,51.838Z" transform="translate(1.738 1.448)" fill="#4285f4"/>
    <path id="Path_65" data-name="Path 65" d="M-13.2,64.645a13.086,13.086,0,0,0,9.078-3.331l-4.419-3.434A8.287,8.287,0,0,1-13.2,59.207a8.2,8.2,0,0,1-7.7-5.678h-4.556v3.537A13.717,13.717,0,0,0-13.2,64.645Z" transform="translate(0.187 2.069)" fill="#34a853"/>
    <path id="Path_66" data-name="Path 66" d="M-20.721,54.64a7.972,7.972,0,0,1-.435-2.622,8.282,8.282,0,0,1,.435-2.622V45.859h-4.556a13.578,13.578,0,0,0-1.477,6.159,13.578,13.578,0,0,0,1.477,6.159Z" transform="translate(0 0.959)" fill="#fbbc05"/>
    <path id="Path_67" data-name="Path 67" d="M-13.2,44.677a7.453,7.453,0,0,1,5.266,2.061l3.915-3.915A13.134,13.134,0,0,0-13.2,39.239a13.717,13.717,0,0,0-12.261,7.579l4.556,3.537A8.2,8.2,0,0,1-13.2,44.677Z" transform="translate(0.187)" fill="#ea4335"/>
  </g>
</svg>
