<svg xmlns="http://www.w3.org/2000/svg" width="84.92" height="34.2" viewBox="0 0 84.92 34.2">
  <g id="ibm-logo2" transform="translate(0 -0.1)">
    <path id="Path_46" data-name="Path 46" d="M72.074,2.535H57.938L58.811.1H72.074V2.535M34.392.1,47.516.1l.86,2.438c.005,0-13.98,0-13.98,0S34.388.1,34.392.1" transform="translate(12.845)" fill="#4c78af" fill-rule="evenodd"/>
    <path id="Path_47" data-name="Path 47" d="M36.8.1a9.428,9.428,0,0,1,5.645,2.435s-23.789,0-23.789,0V.1H36.8M.04,2.533H16.514V.1H.04Z" transform="translate(0.015 0.001)" fill="#4c78af" fill-rule="evenodd"/>
    <path id="Path_48" data-name="Path 48" d="M72.075,5.851H56.319s.858-2.417.854-2.417h14.9V5.851M50,5.853H34.39V3.432H49.144L50,5.853" transform="translate(12.845 1.245)" fill="#4c78af" fill-rule="evenodd"/>
    <g id="Group_36" data-name="Group 36" transform="translate(0.055 4.677)">
      <path id="Path_49" data-name="Path 49" d="M44.3.142a6.273,6.273,0,0,1,.684,2.419H18.659V.143H44.3M.04,2.561H16.514V.143H.04Z" transform="translate(-0.04 -0.142)" fill="#4c78af" fill-rule="evenodd"/>
    </g>
    <path id="Path_50" data-name="Path 50" d="M66.3,9.183l.865-2.43,11.83,0v2.42l-12.7.005M62.35,6.753l.863,2.431H50.637V6.753H62.35m-18.4,0A7.909,7.909,0,0,1,43.6,9.183H36.4V6.752h7.554M3.355,9.183h7.1V6.763h-7.1Zm18.849,0h7.09V6.752H22.2Zm35.417,2.626s0,1.839,0,1.843H50.638v-2.42H63.951l.825,2.257s.8-2.261.8-2.257H78.991v2.42H72.037l0-1.843-.641,1.843-13.129,0-.643-1.84M22.2,11.232H42.559a9.106,9.106,0,0,1-2.019,2.42s-18.338,0-18.338,0v-2.42M3.355,13.652h7.1v-2.42h-7.1Zm68.682,4.561H78.99V15.8H72.037ZM57.621,15.8H50.638v2.417h6.987s.008-2.417,0-2.417m13.014,0c-.034-.005-.816,2.417-.847,2.417l-9.9,0c-.007,0-.869-2.427-.871-2.421h11.62m-48.434,0H40.5a11.932,11.932,0,0,1,2.183,2.419H22.2V15.794M10.457,18.213V15.794H3.367v2.417h7.09m61.58,4.563h6.951v-2.42h-6.95Zm-21.4,0h6.983V20.355H50.638Zm17.525.012c0-.011.857-2.434.869-2.431H60.615c-.014,0,.863,2.42.863,2.42s6.682.022,6.685.011M22.2,22.774v-2.42h7.2s.005,2.421,0,2.421-7.2,0-7.2,0M43.7,20.354a7.006,7.006,0,0,1,.453,2.431H36.524V20.354H43.7M3.367,22.773h7.09V20.355H3.367Zm68.67,4.471H83.665V24.825H72.037Zm-26.055,0H57.621V24.825H45.983Z" transform="translate(1.253 2.485)" fill="#4c78af" fill-rule="evenodd"/>
    <g id="Group_37" data-name="Group 37" transform="translate(0 27.308)">
      <path id="Path_51" data-name="Path 51" d="M67.851,2.592H64.3L63.449.172h5.223l-.823,2.42M0,.172v2.42H16.516c.007,0-.008-2.419,0-2.419H0" transform="translate(0 -0.172)" fill="#4c78af" fill-rule="evenodd"/>
    </g>
    <path id="Path_52" data-name="Path 52" d="M40.023,19.909a5.178,5.178,0,0,1-.919,2.419H13.6V19.91H40.023m21.141,6.984h-.326l-.831-2.424h2.009l-.852,2.424m7.047.007H79.841V24.47H68.213Zm-54.62-.007V24.473l23.929,0A9.067,9.067,0,0,1,31.355,26.9L13.6,26.895" transform="translate(5.077 7.399)" fill="#4c78af" fill-rule="evenodd"/>
    <g id="Group_38" data-name="Group 38" transform="translate(0 31.868)">
      <path id="Path_53" data-name="Path 53" d="M47.235,2.634H58.874V.2H47.236ZM16.516.214s-.008,2.415,0,2.415S.005,2.638,0,2.633.005.207,0,.207,16.507.221,16.515.214" transform="translate(0 -0.203)" fill="#4c78af" fill-rule="evenodd"/>
    </g>
  </g>
</svg>
