<svg xmlns="http://www.w3.org/2000/svg" width="24" height="24" viewBox="0 0 24 24">
  <g id="vuesax_linear_location" data-name="vuesax/linear/location" transform="translate(-428 -188)">
    <g id="location">
      <path id="Vector" d="M3.12,6.99A3.87,3.87,0,1,1,6.99,3.12,3.874,3.874,0,0,1,3.12,6.99Zm0-6.24A2.37,2.37,0,1,0,5.49,3.12,2.373,2.373,0,0,0,3.12.75Z" transform="translate(436.88 195.19)" fill="#51459e"/>
      <path id="Vector-2" data-name="Vector" d="M8.62-.75a9.749,9.749,0,0,1,5.649,1.766,8.815,8.815,0,0,1,3.466,5.319,11.06,11.06,0,0,1-.977,7.421,19.047,19.047,0,0,1-4.015,5.326,5.943,5.943,0,0,1-8.249,0A19.087,19.087,0,0,1,.487,13.75,11.083,11.083,0,0,1-.489,6.324,8.815,8.815,0,0,1,2.978,1.013,9.744,9.744,0,0,1,8.62-.75Zm0,20A4.414,4.414,0,0,0,11.7,18c2.675-2.568,5.637-6.618,4.569-11.335a7.337,7.337,0,0,0-2.877-4.431A8.238,8.238,0,0,0,8.62.75,8.233,8.233,0,0,0,3.851,2.232,7.337,7.337,0,0,0,.974,6.656C.385,9.259.7,13.34,5.533,18A4.44,4.44,0,0,0,8.622,19.245Z" transform="translate(431.377 190)" fill="#51459e"/>
      <path id="Vector-3" data-name="Vector" d="M0,0H24V24H0Z" transform="translate(452 212) rotate(180)" fill="none" opacity="0"/>
    </g>
  </g>
</svg>
