<svg xmlns="http://www.w3.org/2000/svg" width="820" height="540.94" viewBox="0 0 820 540.94">
  <g id="pixeltrue-location" transform="translate(-105.584 -96.11)">
    <g id="background" transform="translate(105.584 105.389)">
      <g id="Group_9276" data-name="Group 9276" transform="translate(0 181.235)">
        <g id="Group_9275" data-name="Group 9275">
          <path id="Path_4822" data-name="Path 4822" d="M106.848,472.753A567.674,567.674,0,0,1,199.1,437.382c7.987-2.282,16.145-4.45,24.474-5.306,8.615-.856,17.172.057,25.672,1.6a429.464,429.464,0,0,1,48.435,12.152c18.085,5.534,35.884,11.866,53.627,18.2,1.027.342,1.483-1.255.456-1.654-32.4-11.524-65.037-23.105-98.867-29.723-7.873-1.54-15.917-2.8-23.961-2.567a106.682,106.682,0,0,0-24.018,3.936c-16.031,4.222-31.891,9.47-47.465,15.232Q131.18,459,106.05,471.27c-1.027.456-.171,1.94.8,1.483Z" transform="translate(-105.584 -430.053)" fill="#e8e8e8"/>
        </g>
      </g>
      <g id="Group_9278" data-name="Group 9278" transform="translate(161.223 164.3)">
        <g id="Group_9277" data-name="Group 9277">
          <path id="Path_4823" data-name="Path 4823" d="M389.221,424.176c23.048-6.218,46.61-10.383,70.228-13.92,11.638-1.712,23.276-3.309,34.971-4.906,11.98-1.6,24.018-3.081,36.17-3.195,43.415-.342,84.719,15.175,126.251,25.558,23.048,5.762,46.61,10.041,70.456,9.413a.857.857,0,0,0,0-1.711c-43.814,1.141-85.461-14.205-127.335-24.874-20.481-5.192-41.3-9.413-62.47-10.1-23.162-.685-46.324,3.48-69.2,6.732-26.756,3.822-53.4,8.215-79.527,15.289-1.027.4-.57,2.054.456,1.712Z" transform="translate(-388.185 -400.369)" fill="#e8e8e8"/>
        </g>
      </g>
      <g id="Group_9280" data-name="Group 9280" transform="translate(428.724 198.102)">
        <g id="Group_9279" data-name="Group 9279">
          <path id="Path_4824" data-name="Path 4824" d="M857.888,476.324a289.966,289.966,0,0,0,69.2-3.765c22.763-3.993,45.3-12.722,68.745-11.011,1.084.057,1.084-1.654,0-1.712-22.877-1.654-44.841,6.561-67.034,10.668a286.992,286.992,0,0,1-70.913,4.108c-1.084-.057-1.084,1.654,0,1.711Z" transform="translate(-857.075 -459.619)" fill="#e8e8e8"/>
        </g>
      </g>
      <g id="Group_9282" data-name="Group 9282" transform="translate(91.775 191.479)">
        <g id="Group_9281" data-name="Group 9281">
          <path id="Path_4825" data-name="Path 4825" d="M269.389,448.4c-4.963,6.789-3.138,16.088,1.769,22.364,5.876,7.531,15.632,10.725,24.36,13.692,5.135,1.768,10.326,3.537,14.947,6.333a32.071,32.071,0,0,1,6.275,4.792c1.312,1.369,2.567,2.8,2.282,4.906-.228,1.654-2.111,3.195-3.309,4.222-4.45,3.936-8.957,7.759-13.464,11.638-3.195,2.738-7.074,5.819-7.474,10.326-.685,7.873,8.9,11.3,15,12.779a360.306,360.306,0,0,0,35.656,6.789c23.733,3.366,47.694,4.849,71.655,5.99,24.474,1.141,49.006,1.94,73.48,4.051,5.933.513,11.923,1.084,17.857,1.826,4.108.513,11.923,2.111,11.125,7.759-.685,4.678-7.416,7.588-10.782,10.269a86.249,86.249,0,0,0-11.7,11.125,84.765,84.765,0,0,0-9.014,12.494c-1.94,3.309-3.936,7.474-2.852,11.41,1.027,3.594,4.45,4.963,7.816,5.306,5.762.57,11.752.171,17.514,0,24.189-.8,48.207-4.279,72.282-6.1a309.851,309.851,0,0,1,36.4-.856c11.239.513,23.162,1.369,33.888,4.849,4.336,1.369,8.9,3.48,11.923,7.017,3.708,4.336,3.48,9.927.456,14.6-2.91,4.507-7.474,7.93-11.581,11.353-4.849,3.994-9.813,7.873-14.89,11.581-4.735,3.423-9.527,6.732-14.434,9.87-.913.57-.057,2.054.856,1.483a317.119,317.119,0,0,0,28.411-20.709c6.618-5.42,17-12.608,15.575-22.535-1.141-7.7-8.843-11.923-15.518-14.148-10.326-3.423-21.85-4.336-32.575-4.906-24.417-1.312-48.778,1.54-73.024,3.993-12.038,1.2-24.075,2.339-36.17,2.8-5.933.228-11.98.456-17.914.114-2.909-.171-6.161-.8-7.3-3.879-1.027-2.852.342-6.219,1.654-8.786,5.077-9.641,12.779-18.142,21.28-24.817,4.564-3.594,16.773-10.269,9.014-17.229-2.567-2.282-6.276-3.195-9.642-3.651-6.047-.8-12.152-1.369-18.2-1.883-12.095-1.084-24.246-1.768-36.4-2.4-24.645-1.255-49.348-1.94-73.994-3.879-24.132-1.883-48.778-4.564-72.225-11.011-4.051-1.141-9.356-3.024-11.353-7.131-2.8-5.819,3.765-10.44,7.588-13.749,4.45-3.879,9.356-7.531,13.521-11.752,2.738-2.8,3.48-5.933.97-9.128-6.1-7.588-16.487-10.554-25.33-13.578-9.813-3.366-21.051-7.873-24.7-18.6-1.654-4.849-1.369-10.041,1.711-14.262.685-.8-.8-1.655-1.426-.742Z" transform="translate(-266.452 -448.01)" fill="#e8e8e8"/>
        </g>
      </g>
      <g id="Group_9284" data-name="Group 9284" transform="translate(123.609 182.616)">
        <g id="Group_9283" data-name="Group 9283">
          <path id="Path_4826" data-name="Path 4826" d="M325.189,432.831c-4.963,6.789-3.138,16.088,1.769,22.364,5.876,7.531,15.632,10.725,24.36,13.692,5.134,1.769,10.326,3.537,14.947,6.333a32.071,32.071,0,0,1,6.275,4.792c1.312,1.369,2.567,2.8,2.282,4.906-.228,1.654-2.111,3.195-3.309,4.222-4.45,3.936-8.957,7.759-13.464,11.638-3.195,2.738-7.074,5.819-7.474,10.326-.685,7.873,8.9,11.3,15,12.779a360.327,360.327,0,0,0,35.656,6.789c23.733,3.366,47.694,4.849,71.655,5.99,24.474,1.141,49.006,1.94,73.48,4.05,5.933.514,11.923,1.084,17.857,1.826,4.108.513,11.923,2.111,11.125,7.759-.685,4.678-7.417,7.588-10.782,10.269a86.234,86.234,0,0,0-11.7,11.125,84.757,84.757,0,0,0-9.014,12.494c-1.94,3.309-3.937,7.474-2.852,11.41,1.027,3.594,4.45,4.963,7.816,5.306,5.762.57,11.752.171,17.514,0,24.189-.8,48.207-4.279,72.282-6.1a309.852,309.852,0,0,1,36.4-.856c11.239.513,23.162,1.369,33.888,4.849,4.336,1.369,8.9,3.48,11.923,7.017,3.708,4.336,3.48,9.927.456,14.6-2.91,4.507-7.474,7.93-11.581,11.353-4.849,3.994-9.813,7.873-14.89,11.581-4.735,3.423-9.527,6.732-14.434,9.87-.913.571-.057,2.054.856,1.483a317.11,317.11,0,0,0,28.411-20.709c6.618-5.42,17-12.608,15.575-22.535-1.141-7.7-8.843-11.923-15.518-14.148-10.326-3.423-21.85-4.336-32.575-4.906-24.417-1.312-48.778,1.54-73.024,3.994-12.037,1.2-24.075,2.339-36.169,2.8-5.933.228-11.981.456-17.914.114-2.91-.171-6.161-.8-7.3-3.879-1.027-2.852.342-6.219,1.654-8.786,5.077-9.641,12.779-18.142,21.28-24.817,4.564-3.594,16.773-10.269,9.014-17.229-2.567-2.282-6.276-3.195-9.641-3.651-6.047-.8-12.152-1.369-18.2-1.883-12.095-1.084-24.246-1.768-36.4-2.4-24.645-1.255-49.348-1.94-73.994-3.879-24.132-1.883-48.778-4.564-72.225-11.011-4.051-1.141-9.356-3.024-11.353-7.131-2.8-5.819,3.765-10.44,7.588-13.749,4.45-3.879,9.356-7.531,13.521-11.752,2.738-2.8,3.48-5.933.97-9.128-6.1-7.588-16.487-10.554-25.33-13.578-9.813-3.366-21.051-7.873-24.7-18.6-1.654-4.849-1.369-10.041,1.712-14.262.742-.742-.742-1.6-1.426-.742Z" transform="translate(-322.252 -432.474)" fill="#e8e8e8"/>
        </g>
      </g>
      <g id="Group_9286" data-name="Group 9286" transform="translate(27.2 428.212)">
        <g id="Group_9285" data-name="Group 9285" transform="translate(0 0)">
          <path id="Path_4827" data-name="Path 4827" d="M154.311,879.246c38.851-12.095,80.383-19.454,120.717-11.011a150.843,150.843,0,0,1,32.062,10.554c.97.456,1.883-1.027.856-1.483-37.139-17.172-79.3-17.229-118.778-9.014-11.923,2.453-23.733,5.7-35.371,9.3-.97.342-.513,2,.513,1.654Z" transform="translate(-153.263 -862.968)" fill="#e8e8e8"/>
        </g>
      </g>
      <g id="Group_9288" data-name="Group 9288" transform="translate(327.582 251.996)">
        <g id="Group_9287" data-name="Group 9287">
          <path id="Path_4828" data-name="Path 4828" d="M680.593,559.628c9.071,1.2,17.628-3.537,26.642-3.822,9.755-.342,19.34,2.453,28.582,5.191a.859.859,0,0,0,.456-1.654c-9.071-2.681-18.427-5.42-27.954-5.249-9.356.114-18.313,5.077-27.669,3.879-1.141-.228-1.141,1.483-.057,1.654Z" transform="translate(-679.787 -554.086)" fill="#e8e8e8"/>
        </g>
      </g>
      <g id="Group_9290" data-name="Group 9290" transform="translate(376.301 247.721)">
        <g id="Group_9289" data-name="Group 9289">
          <path id="Path_4829" data-name="Path 4829" d="M766.221,551.96a70.366,70.366,0,0,1,43.358-.4c1.027.342,1.483-1.312.456-1.654a71.584,71.584,0,0,0-44.271.4c-1.027.342-.57,2,.456,1.654Z" transform="translate(-765.185 -546.594)" fill="#e8e8e8"/>
        </g>
      </g>
      <g id="Group_9292" data-name="Group 9292" transform="translate(128.005 338.677)">
        <g id="Group_9291" data-name="Group 9291">
          <path id="Path_4830" data-name="Path 4830" d="M330.609,727.462a17.878,17.878,0,0,0,8.329-.742.841.841,0,0,0,.571-1.027l-1.369-7.7c-.4.342-.856.628-1.255.97a3.167,3.167,0,0,0,4.393-.913c1.94-2.51-.513-5.363.114-8.044,1.369-5.819,8.729,1.255,10.5,3.081a35.081,35.081,0,0,1,6.39,9.128c.513.97,1.94.114,1.483-.856-2.738-5.534-7.474-12.209-13.464-14.719-1.883-.8-4.222-1.027-5.7.628a4.285,4.285,0,0,0-1.027,2.967,9.887,9.887,0,0,0,.171,1.826,10.789,10.789,0,0,0,.285,1.312c.742,1.883,0,3.252-2.339,4.051-.685-.456-1.369.285-1.255.97l1.369,7.7c.171-.342.4-.685.57-1.027a14.932,14.932,0,0,1-7.416.742c-.97-.114-1.483,1.54-.342,1.654Z" transform="translate(-329.957 -706.027)" fill="#e8e8e8"/>
        </g>
      </g>
      <g id="Group_9294" data-name="Group 9294" transform="translate(469.174 279.997)">
        <g id="Group_9293" data-name="Group 9293" transform="translate(0 0)">
          <path id="Path_4831" data-name="Path 4831" d="M929.531,618.362c.628-1.483,1.2-2.967,1.883-4.393a3.709,3.709,0,0,1,4.906-2c2.4.856,4.393,1.826,6.96.97,2.339-.8,4.165-2.681,5.819-4.393a14.087,14.087,0,0,1,3.993-3.138c2.054-.913,6.39-.342,5.477,3.081a.858.858,0,0,0,1.655.456c.742-2.852-1.483-5.249-4.279-5.705-3.423-.57-6.161,2.225-8.386,4.45-2.4,2.4-4.906,4.735-8.557,3.594-1.54-.513-3.024-1.483-4.678-1.54-4.051-.171-5.02,4.906-6.275,7.816-.4.97,1.027,1.826,1.483.8Z" transform="translate(-927.978 -603.168)" fill="#e8e8e8"/>
        </g>
      </g>
      <g id="Group_9296" data-name="Group 9296" transform="translate(673.033 209.374)">
        <g id="Group_9295" data-name="Group 9295">
          <path id="Path_4832" data-name="Path 4832" d="M1285.933,481.045q56.565,10.611,113.586,18.541c10.668,1.483,21.28,2.852,31.948,4.222,1.084.114,1.084-1.6,0-1.711q-56.736-7.1-113.016-16.887c-10.668-1.883-21.394-3.822-32.062-5.819-1.084-.171-1.54,1.426-.456,1.654Z" transform="translate(-1285.313 -479.378)" fill="#e8e8e8"/>
        </g>
      </g>
      <g id="Group_9298" data-name="Group 9298" transform="translate(386.355 461.318)">
        <g id="Group_9297" data-name="Group 9297">
          <path id="Path_4833" data-name="Path 4833" d="M783.26,924.422c14.205,7.017,29.609,1.2,44.214-1.027,8.615-1.312,17.115-.456,25.672.628,8.729,1.084,17.514,2.168,26.243,3.309,1.084.114,1.084-1.6,0-1.711-8.215-1.027-16.43-2.054-24.589-3.081-8.1-1.027-16.259-2.111-24.417-1.2C815.151,923,798.891,930.3,784.115,923c-.97-.513-1.883.97-.856,1.426Z" transform="translate(-782.808 -920.998)" fill="#e8e8e8"/>
        </g>
      </g>
      <g id="Group_9300" data-name="Group 9300" transform="translate(216.701 413.669)">
        <g id="Group_9299" data-name="Group 9299" transform="translate(0 0)">
          <path id="Path_4834" data-name="Path 4834" d="M485.926,840.4c5.762,5.762,8.215,13.806,5.591,21.622-.685,2.111,2.624,2.967,3.309.913,2.967-8.957.114-18.427-6.5-24.931-1.54-1.6-3.936.8-2.4,2.4Z" transform="translate(-485.43 -837.477)" fill="#e8e8e8"/>
        </g>
      </g>
      <g id="Group_9302" data-name="Group 9302" transform="translate(222.898 438.89)">
        <g id="Group_9301" data-name="Group 9301">
          <path id="Path_4835" data-name="Path 4835" d="M496.354,882.721a15.132,15.132,0,0,0,11.638,8.9c1.084.171,1.54-1.483.456-1.655-4.45-.8-8.672-3.366-10.44-7.7-.4-1.027-2.054-.57-1.654.456Z" transform="translate(-496.292 -881.685)" fill="#e8e8e8"/>
        </g>
      </g>
      <g id="Group_9304" data-name="Group 9304" transform="translate(219.181 447.143)">
        <g id="Group_9303" data-name="Group 9303">
          <path id="Path_4836" data-name="Path 4836" d="M505.364,896.179c-3.48.057-8.557-.456-11.752,1.312-2.567,1.483-3.48,4.792-3.765,7.531-.742,6.618,4.45,11.467,11.011,10.269,1.084-.171.628-1.826-.456-1.654-5.876,1.084-9.755-3.765-8.729-9.356.513-2.681,1.483-5.249,4.393-5.876a50.609,50.609,0,0,1,9.3-.57c1.084.057,1.084-1.654,0-1.654Z" transform="translate(-489.776 -896.152)" fill="#e8e8e8"/>
        </g>
      </g>
      <g id="Group_9306" data-name="Group 9306" transform="translate(221.854 464.851)">
        <g id="Group_9305" data-name="Group 9305">
          <path id="Path_4837" data-name="Path 4837" d="M501.957,927.2c-3.48.285-8.158,2.111-7.416,6.332.628,3.708,3.537,7.474,5.591,10.5a44.13,44.13,0,0,0,6.047,6.96c7.645,7.188,16.659,12.323,25.045,18.484A92.6,92.6,0,0,1,551.7,990.92c.628.913,2.111.057,1.483-.856-6.789-9.641-15.061-18.37-25.045-24.76-8.9-5.7-18.883-12.037-25.387-20.481a56.788,56.788,0,0,1-3.822-5.819c-1.027-1.711-2.453-3.651-2.738-5.648-.456-3.081,3.252-4.222,5.762-4.393,1.084-.171,1.141-1.883,0-1.768Z" transform="translate(-494.463 -927.19)" fill="#e8e8e8"/>
        </g>
      </g>
      <g id="Group_9308" data-name="Group 9308" transform="translate(217.649 413.375)">
        <g id="Group_9307" data-name="Group 9307" transform="translate(0 0)">
          <path id="Path_4838" data-name="Path 4838" d="M487.667,838.638c17.742,6.846,35.143,14.377,48.492,28.354,12.323,12.95,20.253,29.381,24.132,46.781a136.327,136.327,0,0,1,2.51,16.544c.285,2.8.456,5.648.57,8.443.057,1.255.057,2.453.114,3.708,0,.285-.057,5.7-.456,5.42-.913-.628-1.769.856-.856,1.483,3.138,2.111,3.081-3.993,3.081-5.306a151.571,151.571,0,0,0-1.027-16.887,121.162,121.162,0,0,0-7.873-32A91.956,91.956,0,0,0,521.5,852.615c-10.326-6.675-21.907-11.182-33.317-15.575-1.084-.456-1.54,1.2-.513,1.6Z" transform="translate(-487.091 -836.962)" fill="#e8e8e8"/>
        </g>
      </g>
      <g id="Group_9310" data-name="Group 9310" transform="translate(223.267 419.674)">
        <g id="Group_9309" data-name="Group 9309" transform="translate(0 0)">
          <path id="Path_4839" data-name="Path 4839" d="M497.2,849.427c24.931,21.736,45.3,48.949,57.563,79.756a182.681,182.681,0,0,1,8.044,25.615c.228,1.084,1.883.628,1.654-.456-7.531-31.663-23.5-60.929-45.012-85.289A219.748,219.748,0,0,0,498.4,848.229c-.8-.742-2,.513-1.2,1.2Z" transform="translate(-496.938 -848.002)" fill="#e8e8e8"/>
        </g>
      </g>
      <g id="Group_9312" data-name="Group 9312" transform="translate(223.823 437.394)">
        <g id="Group_9311" data-name="Group 9311" transform="translate(0 0)">
          <path id="Path_4840" data-name="Path 4840" d="M498.533,880.738a96.953,96.953,0,0,1,18.712,5.648c1.027.4,1.483-1.255.456-1.654a98.166,98.166,0,0,0-18.712-5.648c-1.084-.228-1.54,1.426-.456,1.654Z" transform="translate(-497.914 -879.062)" fill="#e8e8e8"/>
        </g>
      </g>
      <g id="Group_9314" data-name="Group 9314" transform="translate(247.502 431.88)">
        <g id="Group_9313" data-name="Group 9313" transform="translate(0 0)">
          <path id="Path_4841" data-name="Path 4841" d="M541.12,881.893a38.36,38.36,0,0,1,6.732-11.011c.742-.8-.456-2.054-1.2-1.2a39.488,39.488,0,0,0-7.188,11.752c-.342,1.027,1.312,1.483,1.654.456Z" transform="translate(-539.419 -869.397)" fill="#e8e8e8"/>
        </g>
      </g>
      <g id="Group_9316" data-name="Group 9316" transform="translate(283.46 411.259)">
        <g id="Group_9315" data-name="Group 9315">
          <path id="Path_4842" data-name="Path 4842" d="M602.535,834.535c8.957,20.538,18.769,44.613,6.789,66.064a.856.856,0,0,0,1.483.856c12.323-22.078,2.453-46.667-6.789-67.775-.456-.97-1.94-.114-1.483.856Z" transform="translate(-602.449 -833.252)" fill="#e8e8e8"/>
        </g>
      </g>
      <g id="Group_9318" data-name="Group 9318" transform="translate(284.511 409.357)">
        <g id="Group_9317" data-name="Group 9317">
          <path id="Path_4843" data-name="Path 4843" d="M604.867,831.62c5.192,1.94,14.32,5.249,13.007,12.437-.171,1.084,1.426,1.54,1.655.456,1.54-8.329-7.987-12.152-14.148-14.548a.867.867,0,0,0-.513,1.654Z" transform="translate(-604.291 -829.919)" fill="#e8e8e8"/>
        </g>
      </g>
      <g id="Group_9320" data-name="Group 9320" transform="translate(297.921 421.699)">
        <g id="Group_9319" data-name="Group 9319">
          <path id="Path_4844" data-name="Path 4844" d="M629.282,854.146c2.91-2.453,6.675.171,8.272,2.853a8.968,8.968,0,0,1,.456,8.329c-.456,1.027,1.027,1.883,1.483.856a10.867,10.867,0,0,0-1.54-11.581c-2.453-2.91-6.675-4.279-9.87-1.654-.856.685.4,1.883,1.2,1.2Z" transform="translate(-627.797 -851.551)" fill="#e8e8e8"/>
        </g>
      </g>
      <g id="Group_9322" data-name="Group 9322" transform="translate(307.265 436.049)">
        <g id="Group_9321" data-name="Group 9321" transform="translate(0 0)">
          <path id="Path_4845" data-name="Path 4845" d="M644.988,878.414c4.735-.513,7.3,4.108,9.3,7.7a95.071,95.071,0,0,1,5.7,12.209,84.8,84.8,0,0,1,5.363,25.444c.8,15.4-2.8,31.434-15.061,41.76-.856.742.4,1.94,1.2,1.2,13.35-11.3,16.773-29.267,15.346-45.925a88.931,88.931,0,0,0-7.017-27.327c-1.883-4.336-3.993-8.957-6.9-12.722-2-2.51-4.621-4.393-7.93-3.994-1.084.057-1.084,1.769,0,1.654Z" transform="translate(-644.175 -876.706)" fill="#e8e8e8"/>
        </g>
      </g>
      <g id="Group_9324" data-name="Group 9324" transform="translate(286.451 412.282)">
        <g id="Group_9323" data-name="Group 9323">
          <path id="Path_4846" data-name="Path 4846" d="M607.867,836.331c11.7,16.316,21.736,34.458,25.387,54.426a80.1,80.1,0,0,1,.057,29.495,74.228,74.228,0,0,1-3.993,13.578,60.411,60.411,0,0,1-3.195,6.732c-1.141,2.054-2.681,6.047-5.135,6.675a.858.858,0,0,0,.456,1.654c2.91-.742,4.336-4.222,5.705-6.618A66.538,66.538,0,0,0,632,931.6a75.709,75.709,0,0,0,4.336-23.333c.513-16.544-4.222-32.69-11.467-47.465a178.321,178.321,0,0,0-15.518-25.444c-.685-.8-2.168.057-1.483.97Z" transform="translate(-607.691 -835.045)" fill="#e8e8e8"/>
        </g>
      </g>
      <g id="Group_9326" data-name="Group 9326" transform="translate(325.603 403.399)">
        <g id="Group_9325" data-name="Group 9325" transform="translate(0 0)">
          <path id="Path_4847" data-name="Path 4847" d="M677.963,881.331c.285-.97.57-2,.856-2.967a12.71,12.71,0,0,1,.856-2.967c1.312-1.711,5.534-.513,7.359-.285.8.057,1.084-.97.628-1.483-1.883-1.94-4.051-4.621-3.024-7.474.97-2.738,5.363-3.993,7.074-1.141l1.369-1.027c-1.255-1.54-2.624-3.537-2.453-5.648a4.763,4.763,0,0,1,5.477-4.051.875.875,0,0,0,.97-1.255c-2.681-5.477,2.054-11.524,3.822-16.6a43.129,43.129,0,0,0,2.282-16.145c-.057-1.084-1.768-1.084-1.711,0a43.182,43.182,0,0,1-4.051,20.2c-2,4.279-4.05,8.786-1.826,13.407.342-.4.628-.856.97-1.255a6.664,6.664,0,0,0-7.245,3.765c-1.312,3.195.514,6.39,2.51,8.786.628.742,1.826-.228,1.369-1.027-1.826-3.081-6.447-3.138-8.843-.685-3.537,3.651-.685,8.443,2.168,11.353.228-.514.4-.97.628-1.483-2.054-.228-6.39-1.6-8.158,0-1.711,1.54-2.054,5.477-2.624,7.531a.831.831,0,1,0,1.6.456Z" transform="translate(-676.319 -819.475)" fill="#e8e8e8"/>
        </g>
      </g>
      <g id="Group_9328" data-name="Group 9328" transform="translate(326.4 404.661)">
        <g id="Group_9327" data-name="Group 9327">
          <path id="Path_4848" data-name="Path 4848" d="M702.352,823.007c4.05,8.5,5.933,17.686,7.759,26.87,1.883,9.813,3.822,19.682,3.879,29.723A71.914,71.914,0,0,1,698.7,923.186a86.772,86.772,0,0,1-20.595,19.226c-.913.628-.057,2.111.856,1.483,13.578-9.128,24.817-21.793,31.206-36.968a69.693,69.693,0,0,0,5.42-22.535c.685-10.1-.97-20.2-2.853-30.122-2.054-10.954-4.051-21.964-8.843-32.119a.881.881,0,0,0-1.54.856Z" transform="translate(-677.716 -821.687)" fill="#e8e8e8"/>
        </g>
      </g>
      <g id="Group_9330" data-name="Group 9330" transform="translate(316.816 412.014)">
        <g id="Group_9329" data-name="Group 9329" transform="translate(0 0)">
          <path id="Path_4849" data-name="Path 4849" d="M696.791,835.388a169.712,169.712,0,0,1-6.561,59.845,175.142,175.142,0,0,1-11.353,28.753c-4.336,8.615-9.128,19.4-17.571,24.7-.913.571-.057,2.054.856,1.483,6.276-3.994,10.041-10.44,13.635-16.773a178.266,178.266,0,0,0,10.611-22.078,172.908,172.908,0,0,0,11.7-47.865,164.671,164.671,0,0,0,.342-28.069c-.057-1.084-1.769-1.084-1.654,0Z" transform="translate(-660.916 -834.575)" fill="#e8e8e8"/>
        </g>
      </g>
      <g id="Group_9332" data-name="Group 9332" transform="translate(608.154 430.904)">
        <g id="Group_9331" data-name="Group 9331">
          <path id="Path_4850" data-name="Path 4850" d="M1173.535,945.681A82.657,82.657,0,0,1,1184.2,898.5a9.125,9.125,0,0,1-1.2.285c1.084.513,2.111,1.084,3.195,1.6a.875.875,0,0,0,1.255-.97,7.566,7.566,0,0,1,.285-4.051c-.342.171-.685.4-1.027.571,1.027.285,2,.57,3.024.856a.85.85,0,0,0,1.027-1.027c-.8-3.366,2.453-5.819,4.735-7.7a66.462,66.462,0,0,0,6.218-5.819,62.286,62.286,0,0,0,9.413-13.293h-1.483a47.463,47.463,0,0,1-2.4,41.875c-3.822,6.732-9.413,11.467-15.061,16.544a45.55,45.55,0,0,0-13.007,18.541c-.4,1.027,1.255,1.483,1.655.456,3.252-8.9,9.356-14.947,16.316-21.051,5.648-4.963,10.383-10.44,13.521-17.343a49.276,49.276,0,0,0,.513-39.878.88.88,0,0,0-1.483,0,60.934,60.934,0,0,1-12.494,16.259c-3.423,3.138-9.3,6.39-8.044,11.866l1.027-1.027c-1.027-.285-2-.57-3.024-.856a.863.863,0,0,0-1.027.57,9.583,9.583,0,0,0-.285,4.906c.4-.342.856-.628,1.255-.97-1.084-.513-2.111-1.084-3.195-1.6a.913.913,0,0,0-1.2.285,84.143,84.143,0,0,0-10.9,48.036c.057,1.2,1.768,1.2,1.711.114Z" transform="translate(-1171.59 -867.687)" fill="#e8e8e8"/>
        </g>
      </g>
      <g id="Group_9334" data-name="Group 9334" transform="translate(624.585 440.187)">
        <g id="Group_9333" data-name="Group 9333" transform="translate(0 0)">
          <path id="Path_4851" data-name="Path 4851" d="M1228.065,896.989a79.015,79.015,0,0,0,9.641-11.7l-1.369.171a30.156,30.156,0,0,1,6.732,24.76,32.558,32.558,0,0,1-1.54,5.591,15.6,15.6,0,0,1-1.712,3.537,3.948,3.948,0,0,1-2.567,1.768c-.856.285-1.654.228-2.111,1.2-.171.342,0,.513,0,.856A9.2,9.2,0,0,1,1236,926.2a6.538,6.538,0,0,1-.057,1.826l.856-.856c-3.822.171-3.48,3.936-4.963,6.5-2.054,3.537-7.131,4.507-10.611,6.047a62.074,62.074,0,0,0-20.595,14.947c-.742.8.457,2.054,1.2,1.2a60.828,60.828,0,0,1,19.4-14.319c3.024-1.369,6.39-2.225,9.185-4.108a8.906,8.906,0,0,0,2.51-2.339c1.141-1.6,1.54-6.218,3.879-6.332a.877.877,0,0,0,.856-.856,12.446,12.446,0,0,0-.114-2.91c-.285-1.426-.97-1.769.456-2.339,1.54-.628,2.111-.628,3.024-2.168a29.7,29.7,0,0,0,3.994-12.152,31.93,31.93,0,0,0-7.473-24.132.9.9,0,0,0-1.369.171,77.962,77.962,0,0,1-9.356,11.353c-.685.856.513,2.054,1.255,1.255Z" transform="translate(-1200.391 -883.958)" fill="#e8e8e8"/>
        </g>
      </g>
      <g id="Group_9336" data-name="Group 9336" transform="translate(612.149 446.928)">
        <g id="Group_9335" data-name="Group 9335" transform="translate(0 0)">
          <path id="Path_4852" data-name="Path 4852" d="M1209.175,896.588c-.571,5.191-4.45,10.269-7.188,14.6-2.8,4.336-5.762,8.5-8.672,12.722-5.648,8.215-11.068,16.544-14.662,25.9-.4,1.027,1.255,1.483,1.655.456,3.879-10.1,9.984-19,16.088-27.84,2.91-4.222,5.819-8.443,8.557-12.779,2.453-3.994,5.363-8.272,5.876-13.064.228-1.084-1.483-1.084-1.655,0Z" transform="translate(-1178.592 -895.775)" fill="#e8e8e8"/>
        </g>
      </g>
      <g id="Group_9338" data-name="Group 9338" transform="translate(629.145 451.606)">
        <g id="Group_9337" data-name="Group 9337" transform="translate(0 0)">
          <path id="Path_4853" data-name="Path 4853" d="M1208.508,904.788a23.942,23.942,0,0,0,1.768,11.809c.4,1.027,2.054.57,1.655-.456a23.4,23.4,0,0,1-1.655-11.353c.057-1.084-1.654-1.084-1.768,0Z" transform="translate(-1208.385 -903.975)" fill="#e8e8e8"/>
        </g>
      </g>
      <g id="Group_9340" data-name="Group 9340" transform="translate(626.329 475.267)">
        <g id="Group_9339" data-name="Group 9339" transform="translate(0 0)">
          <path id="Path_4854" data-name="Path 4854" d="M1204.048,948.388a18.084,18.084,0,0,0,10.383-1.369c1.027-.456.114-1.94-.856-1.483a15.791,15.791,0,0,1-9.014,1.2c-1.084-.114-1.6,1.483-.513,1.655Z" transform="translate(-1203.448 -945.449)" fill="#e8e8e8"/>
        </g>
      </g>
      <g id="Group_9342" data-name="Group 9342" transform="translate(434.529 521.45)">
        <g id="Group_9341" data-name="Group 9341">
          <path id="Path_4855" data-name="Path 4855" d="M869.732,1031.534H1185.5c3.309,0,3.309-5.135,0-5.135H869.732c-3.309,0-3.309,5.135,0,5.135Z" transform="translate(-867.25 -1026.4)" fill="#161616"/>
        </g>
      </g>
      <g id="Group_9344" data-name="Group 9344" transform="translate(647.781 511.865)">
        <g id="Group_9343" data-name="Group 9343">
          <path id="Path_4856" data-name="Path 4856" d="M1243.532,1014.734h80.5c3.309,0,3.309-5.135,0-5.135h-80.5c-3.309,0-3.309,5.135,0,5.135Z" transform="translate(-1241.05 -1009.6)" fill="#161616"/>
        </g>
      </g>
      <g id="Group_9346" data-name="Group 9346" transform="translate(400.128 520.765)">
        <g id="Group_9345" data-name="Group 9345">
          <path id="Path_4857" data-name="Path 4857" d="M809.432,1030.334h21.337c3.309,0,3.309-5.135,0-5.135H809.432c-3.309,0-3.309,5.135,0,5.135Z" transform="translate(-806.95 -1025.2)" fill="#161616"/>
        </g>
      </g>
      <g id="Group_9348" data-name="Group 9348" transform="translate(372.63 521.45)">
        <g id="Group_9347" data-name="Group 9347">
          <path id="Path_4858" data-name="Path 4858" d="M761.232,1031.534h8.957c3.309,0,3.309-5.135,0-5.135h-8.957c-3.309,0-3.309,5.135,0,5.135Z" transform="translate(-758.75 -1026.4)" fill="#161616"/>
        </g>
      </g>
      <g id="Group_9350" data-name="Group 9350" transform="translate(740.658 510.439)">
        <g id="Group_9349" data-name="Group 9349">
          <path id="Path_4859" data-name="Path 4859" d="M1406.332,1012.234h21.337c3.309,0,3.309-5.135,0-5.135h-21.337c-3.309,0-3.309,5.135,0,5.135Z" transform="translate(-1403.85 -1007.1)" fill="#161616"/>
        </g>
      </g>
      <g id="Group_9352" data-name="Group 9352" transform="translate(774.374 509.754)">
        <g id="Group_9351" data-name="Group 9351">
          <path id="Path_4860" data-name="Path 4860" d="M1465.432,1011.034h9.641c3.309,0,3.309-5.134,0-5.134h-9.641c-3.309,0-3.309,5.134,0,5.134Z" transform="translate(-1462.95 -1005.9)" fill="#161616"/>
        </g>
      </g>
      <g id="Group_9354" data-name="Group 9354" transform="translate(142.149 526.527)">
        <g id="Group_9353" data-name="Group 9353">
          <path id="Path_4861" data-name="Path 4861" d="M357.232,1040.435h122.2c3.309,0,3.309-5.135,0-5.135h-122.2c-3.309,0-3.309,5.135,0,5.135Z" transform="translate(-354.75 -1035.3)" fill="#161616"/>
        </g>
      </g>
      <g id="Group_9356" data-name="Group 9356" transform="translate(104.21 511.808)">
        <g id="Group_9355" data-name="Group 9355">
          <path id="Path_4862" data-name="Path 4862" d="M290.732,1014.634h41.076c3.309,0,3.309-5.135,0-5.135H290.732c-3.309,0-3.309,5.135,0,5.135Z" transform="translate(-288.25 -1009.5)" fill="#161616"/>
        </g>
      </g>
      <g id="Group_9358" data-name="Group 9358" transform="translate(162.173 514.946)">
        <g id="Group_9357" data-name="Group 9357">
          <path id="Path_4863" data-name="Path 4863" d="M392.332,1020.134h13.692c3.309,0,3.309-5.135,0-5.135H392.332c-3.309,0-3.309,5.135,0,5.135Z" transform="translate(-389.85 -1015)" fill="#161616"/>
        </g>
      </g>
      <g id="Group_9360" data-name="Group 9360" transform="translate(263.602 122.082)">
        <g id="Group_9359" data-name="Group 9359">
          <path id="Path_4864" data-name="Path 4864" d="M572.409,344.413a81.044,81.044,0,0,1,8.843-13.521c2.054-2.567-1.54-6.218-3.651-3.651a88.12,88.12,0,0,0-9.641,14.548c-1.54,2.91,2.91,5.534,4.45,2.624Z" transform="translate(-567.64 -326.367)" fill="#161616"/>
        </g>
      </g>
      <g id="Group_9362" data-name="Group 9362" transform="translate(287.485 90.538)">
        <g id="Group_9361" data-name="Group 9361">
          <path id="Path_4865" data-name="Path 4865" d="M614.693,285.465a28.5,28.5,0,0,1,6.9-10.041c2.4-2.282-1.2-5.876-3.651-3.651a33.348,33.348,0,0,0-8.272,12.266c-1.141,3.138,3.822,4.45,5.02,1.426Z" transform="translate(-609.504 -271.074)" fill="#161616"/>
        </g>
      </g>
      <g id="Group_9364" data-name="Group 9364" transform="translate(310.318 55.878)">
        <g id="Group_9363" data-name="Group 9363">
          <path id="Path_4866" data-name="Path 4866" d="M653.79,226.968l10.269-12.152c2.111-2.51-1.483-6.161-3.651-3.651l-10.269,12.152c-2.054,2.567,1.54,6.218,3.651,3.651Z" transform="translate(-649.526 -210.321)" fill="#161616"/>
        </g>
      </g>
      <g id="Group_9366" data-name="Group 9366" transform="translate(339.924 18.947)">
        <g id="Group_9365" data-name="Group 9365">
          <path id="Path_4867" data-name="Path 4867" d="M705.916,161.8c4.735-3.993,9.413-7.987,14.148-11.923,2.51-2.111-1.141-5.762-3.651-3.651-4.735,3.993-9.413,7.987-14.148,11.923-2.51,2.168,1.141,5.762,3.651,3.651Z" transform="translate(-701.421 -145.587)" fill="#161616"/>
        </g>
      </g>
      <g id="Group_9368" data-name="Group 9368" transform="translate(383.913 0)">
        <g id="Group_9367" data-name="Group 9367">
          <path id="Path_4868" data-name="Path 4868" d="M781.65,119.064a24.991,24.991,0,0,1,10.611-1.483c3.309.228,3.309-4.906,0-5.134a29.506,29.506,0,0,0-11.98,1.654c-3.081,1.084-1.769,6.047,1.369,4.963Z" transform="translate(-778.528 -112.375)" fill="#161616"/>
        </g>
      </g>
      <g id="Group_9370" data-name="Group 9370" transform="translate(423.999 1.944)">
        <g id="Group_9369" data-name="Group 9369">
          <path id="Path_4869" data-name="Path 4869" d="M850.052,120.527a10.181,10.181,0,0,1,5.42,5.876c1.084,3.138,6.047,1.769,4.963-1.369a15.257,15.257,0,0,0-7.759-8.957,2.7,2.7,0,0,0-3.537.913,2.58,2.58,0,0,0,.913,3.537Z" transform="translate(-848.792 -115.781)" fill="#161616"/>
        </g>
      </g>
      <path id="Path_4870" data-name="Path 4870" d="M513.348,274.792c-1.54-3.993-5.02-13.007-9.413-12.893-6.1.114-12.266,17.343-12.437,32.29-.171,15.8,6.447,29.837,10.44,38.223,1.883,3.993,3.651,7.188,4.963,9.413C514.66,324.312,522.361,298.24,513.348,274.792Zm-5.591,13.863c-1.883,1.712-4.621,2.282-6.561.456a4.749,4.749,0,0,1-1.084-1.483,6.063,6.063,0,0,1,.8-8.044,4.667,4.667,0,0,1,5.705-.456,4.817,4.817,0,0,1,2.054,1.94,5.692,5.692,0,0,1,.571,1.654A5.889,5.889,0,0,1,507.757,288.656Z" transform="translate(-271.333 -176.595)" fill="#3b3a3b"/>
      <g id="Group_9372" data-name="Group 9372" transform="translate(237.137 85.414)">
        <g id="Group_9371" data-name="Group 9371">
          <path id="Path_4871" data-name="Path 4871" d="M521.507,263.58c8.957,8.786,10.383,22.991,10.269,34.914a91.207,91.207,0,0,1-9.242,38.737c-.456.97.97,1.826,1.483.856a92.691,92.691,0,0,0,9.47-40.619c0-12.095-1.711-26.186-10.782-35.143-.742-.742-2,.456-1.2,1.255Z" transform="translate(-521.25 -262.092)" fill="#161616"/>
        </g>
      </g>
      <g id="Group_9374" data-name="Group 9374" transform="translate(229.435 102.693)">
        <g id="Group_9373" data-name="Group 9373">
          <path id="Path_4872" data-name="Path 4872" d="M509.091,292.734a6.783,6.783,0,0,0,2.168,9.984.856.856,0,0,0,.856-1.483,5,5,0,0,1-1.54-7.588c.628-.913-.856-1.769-1.483-.913Z" transform="translate(-507.751 -292.381)" fill="#161616"/>
        </g>
      </g>
    </g>
    <g id="legs" transform="translate(610.147 311.011)">
      <g id="Layer_18" transform="translate(0 258.045)">
        <path id="Path_4873" data-name="Path 4873" d="M1029.426,937.315c-1.084,3.936,1.2,5.477-.285,9.984-.627,1.826-1.94,4.507-9.071,9.984a92.965,92.965,0,0,1-13.806,8.786c-9.185,4.792-12.836,5.135-14.947,9.356-.285.57-2.4,4.849-.57,7.645,2.51,3.822,10.155.913,26.129-.285,13.977-1.027,15.118.627,25.786-.856a94.329,94.329,0,0,0,22.021-5.876,71.587,71.587,0,0,0-2.909-24.075c-2.453-7.873-4.678-9.584-6.732-19.055-.8-3.708-.856-5.249-2.339-6.447C1047.4,922.254,1031.879,928.416,1029.426,937.315Z" transform="translate(-990.01 -925.116)" fill="#515151"/>
      </g>
      <path id="Path_4874" data-name="Path 4874" d="M1127.4,534.813c-1.54,10.668-9.014,15.917-23.847,35.77a347.355,347.355,0,0,0-29.723,47.237,153.885,153.885,0,0,0-11.7,41.532,155.686,155.686,0,0,0,9.755,77.188c-10.155,1.711-20.31,3.48-30.464,5.192a210.487,210.487,0,0,1-16.83-80.725c-.114-35.371,9.014-62.127,25.844-107.767a799.493,799.493,0,0,1,34.743-80.44C1123.523,501.838,1129.285,521.863,1127.4,534.813Z" transform="translate(-1004.866 -472.8)" fill="#3b3a3b"/>
      <g id="Layer_19" transform="translate(143.48 248.917)">
        <path id="Path_4875" data-name="Path 4875" d="M1280.926,921.315c-1.084,3.936,1.2,5.477-.285,9.984-.628,1.826-1.94,4.507-9.071,9.984a92.986,92.986,0,0,1-13.806,8.786c-9.185,4.792-12.836,5.135-14.947,9.356-.285.571-2.4,4.849-.571,7.645,2.51,3.822,10.155.913,26.129-.285,13.977-1.027,15.118.628,25.786-.856a94.339,94.339,0,0,0,22.021-5.876,71.587,71.587,0,0,0-2.91-24.075c-2.453-7.873-4.678-9.584-6.732-19.055-.8-3.708-.856-5.249-2.339-6.447C1298.9,906.254,1283.379,912.416,1280.926,921.315Z" transform="translate(-1241.51 -909.116)" fill="#515151"/>
      </g>
      <g id="Layer_9" transform="translate(85.26 3.476)">
        <path id="Path_4876" data-name="Path 4876" d="M1195.219,488.995a153.572,153.572,0,0,1,12.095,17.857c13.863,23.733,17.343,44.042,21.679,66.292,5.534,28.411,12.608,56.422,18.484,84.776,5.762,27.84,10.725,50.6,14.034,65.664-.514.97-5.762,9.87-15.917,10.839a19.755,19.755,0,0,1-11.467-2.567,441.27,441.27,0,0,1-30.579-66.919c-15.632-43.472-19.169-75.363-45.868-117.294-4.564-7.188-8.672-12.893-11.467-16.544a32.683,32.683,0,0,1,3.822-43.985C1162.758,475.531,1183.011,476.216,1195.219,488.995Z" transform="translate(-1139.458 -478.893)" fill="#3b3a3b"/>
      </g>
      <g id="Group_9376" data-name="Group 9376" transform="translate(99.329 72.572)">
        <g id="Group_9375" data-name="Group 9375">
          <path id="Path_4877" data-name="Path 4877" d="M1164.507,601.6a40.981,40.981,0,0,1,11.98,10.611c.628.856,2.168,0,1.483-.856a43,43,0,0,0-12.551-11.239.873.873,0,0,0-.913,1.483Z" transform="translate(-1164.119 -600.008)" fill="#6c6d6d"/>
        </g>
      </g>
      <g id="Group_9378" data-name="Group 9378" transform="translate(151.187 72.16)">
        <g id="Group_9377" data-name="Group 9377">
          <path id="Path_4878" data-name="Path 4878" d="M1255.065,600.321c.514,1.483,1.084,2.909,1.6,4.393.4,1.027,2.054.57,1.654-.456-.513-1.483-1.084-2.909-1.6-4.393-.342-1.027-2-.57-1.655.456Z" transform="translate(-1255.019 -599.285)" fill="#6c6d6d"/>
        </g>
      </g>
      <g id="Group_9380" data-name="Group 9380" transform="translate(156.835 87.579)">
        <g id="Group_9379" data-name="Group 9379">
          <path id="Path_4879" data-name="Path 4879" d="M1264.965,627.39c.685,2,1.369,3.994,2,6.047.342,1.027,2,.571,1.654-.456-.685-2-1.369-3.993-2-6.047a.858.858,0,0,0-1.654.456Z" transform="translate(-1264.919 -626.314)" fill="#6c6d6d"/>
        </g>
      </g>
      <g id="Group_9382" data-name="Group 9382" transform="translate(163.51 106.658)">
        <g id="Group_9381" data-name="Group 9381">
          <path id="Path_4880" data-name="Path 4880" d="M1276.665,660.808c.57,1.769,1.141,3.537,1.712,5.363.342,1.027,2,.627,1.654-.456-.571-1.769-1.141-3.537-1.712-5.363-.342-1.027-2-.628-1.654.456Z" transform="translate(-1276.619 -659.757)" fill="#6c6d6d"/>
        </g>
      </g>
      <g id="Group_9384" data-name="Group 9384" transform="translate(169.574 124.341)">
        <g id="Group_9383" data-name="Group 9383">
          <path id="Path_4881" data-name="Path 4881" d="M1287.335,692.035a26.288,26.288,0,0,1,2.225,7.188c.171,1.084,1.825.628,1.655-.456a30.094,30.094,0,0,0-2.4-7.588c-.456-.97-1.94-.114-1.483.856Z" transform="translate(-1287.249 -690.752)" fill="#6c6d6d"/>
        </g>
      </g>
      <g id="Group_9386" data-name="Group 9386" transform="translate(176.46 146.153)">
        <g id="Group_9385" data-name="Group 9385">
          <path id="Path_4882" data-name="Path 4882" d="M1299.365,730.021c.856,2.681,1.769,5.363,2.624,8.044.342,1.027,2,.57,1.655-.456-.856-2.681-1.769-5.363-2.624-8.044-.342-1.027-2-.57-1.655.456Z" transform="translate(-1299.319 -728.985)" fill="#6c6d6d"/>
        </g>
      </g>
      <g id="Group_9388" data-name="Group 9388" transform="translate(183.262 173.553)">
        <g id="Group_9387" data-name="Group 9387">
          <path id="Path_4883" data-name="Path 4883" d="M1311.275,778.09c.8,2.91,1.6,5.762,2.4,8.672a.858.858,0,0,0,1.654-.456c-.8-2.909-1.6-5.762-2.4-8.672a.858.858,0,0,0-1.654.456Z" transform="translate(-1311.242 -777.014)" fill="#6c6d6d"/>
        </g>
      </g>
      <g id="Group_9390" data-name="Group 9390" transform="translate(188.682 199.625)">
        <g id="Group_9389" data-name="Group 9389">
          <path id="Path_4884" data-name="Path 4884" d="M1320.775,823.79c.742,3.138,1.54,6.276,2.282,9.356a.858.858,0,0,0,1.655-.456c-.742-3.138-1.541-6.275-2.282-9.356a.858.858,0,0,0-1.654.456Z" transform="translate(-1320.742 -822.714)" fill="#6c6d6d"/>
        </g>
      </g>
      <g id="Group_9392" data-name="Group 9392" transform="translate(194.659 227.734)">
        <g id="Group_9391" data-name="Group 9391">
          <path id="Path_4885" data-name="Path 4885" d="M1331.265,873.021c.57,1.826,1.2,3.594,1.768,5.42.342,1.027,2,.57,1.654-.456-.57-1.826-1.2-3.594-1.768-5.42-.342-1.027-2-.571-1.654.456Z" transform="translate(-1331.219 -871.985)" fill="#6c6d6d"/>
        </g>
      </g>
      <g id="Group_9394" data-name="Group 9394" transform="translate(198.916 246.141)">
        <g id="Group_9393" data-name="Group 9393">
          <path id="Path_4886" data-name="Path 4886" d="M1338.692,905.3c.114.8.228,1.54.342,2.339a.816.816,0,0,0,1.027.57.778.778,0,0,0,.571-1.027c-.114-.8-.228-1.54-.342-2.339a.816.816,0,0,0-1.027-.57.863.863,0,0,0-.57,1.027Z" transform="translate(-1338.681 -904.249)" fill="#6c6d6d"/>
        </g>
      </g>
    </g>
    <g id="hand_r" transform="translate(549.867 132.093)">
      <path id="Path_4887" data-name="Path 4887" d="M907.413,177.892c-.4.228-3.081,1.6-3.366,4.165-.285,2.225,1.369,3.936,2.339,4.963,5.134,5.306,15.232,3.993,17.457,3.651a51.055,51.055,0,0,1,7.3,2.852,55.074,55.074,0,0,1,16.43,12.266c6.447,6.675,15.86,13.121,34.686,26.072,5.7,3.936,14.205,9.527,25.045,15.632a21.432,21.432,0,0,0,8.843-1.826c1.369-.628,10.44-4.735,11.182-13.578.627-6.96-4.393-11.98-5.192-12.779-8.9-3.537-16.259-6.732-21.622-9.128-34.287-15.232-55-28.068-59.674-31.035-3.423-2.168-6.218-3.993-8.1-5.192A26.131,26.131,0,0,0,922.3,163.8c-1.141-.57-9.7-4.906-19.283-1.826a21.242,21.242,0,0,0-4.165,1.826c-5.02-.628-11.125-1.084-11.467.285-.228.913,2.168,2.225,5.477,4.165C896.345,170.362,901.366,173.5,907.413,177.892Z" transform="translate(-885.647 -159.912)" fill="#fff"/>
      <g id="Group_9396" data-name="Group 9396" transform="translate(17.581 17.03)">
        <g id="Group_9395" data-name="Group 9395">
          <path id="Path_4888" data-name="Path 4888" d="M936.065,202.079a31.591,31.591,0,0,1-12.437-.97,12.021,12.021,0,0,1-5.306-2.681c-2.909-2.967-.57-5.933,2.054-7.759.913-.628.057-2.111-.856-1.483-1.883,1.312-3.879,2.738-4.279,5.134a6.321,6.321,0,0,0,2.567,5.876c4.678,3.879,12.551,4.222,18.256,3.594,1.084-.114,1.084-1.826,0-1.712Z" transform="translate(-915.165 -189.034)" fill="#161616"/>
        </g>
      </g>
      <g id="Group_9398" data-name="Group 9398" transform="translate(0 2.66)">
        <g id="Group_9397" data-name="Group 9397">
          <path id="Path_4889" data-name="Path 4889" d="M905.543,178.082c-3.195-2.225-6.39-4.393-9.641-6.447-1.483-.97-2.967-1.883-4.45-2.8-.913-.57-1.826-1.084-2.738-1.654-.57-.342-2.567-1.084-2.681-1.6-.114.342-.285.628-.4.97,2.681-2,8.386-.628,11.239.057,3.252.8,6.96,1.769,9.813,3.594.913.57,1.768-.913.856-1.483-3.48-2.225-8.215-3.423-12.209-4.222-2.967-.57-7.93-1.369-10.554.571a.925.925,0,0,0-.4.97c.342,1.141,1.654,1.54,2.567,2.111,2,1.141,3.936,2.339,5.876,3.537,4.051,2.51,7.987,5.134,11.866,7.873.913.628,1.769-.856.856-1.483Z" transform="translate(-884.347 -163.847)" fill="#161616"/>
        </g>
      </g>
      <g id="Group_9400" data-name="Group 9400" transform="translate(12.267)">
        <g id="Group_9399" data-name="Group 9399">
          <path id="Path_4890" data-name="Path 4890" d="M907.076,164.27a20.671,20.671,0,0,1,19.283-1.769c5.876,2.51,10.1,7.531,13.977,12.437.685.856,1.883-.342,1.2-1.2-4.336-5.42-9.128-10.954-15.86-13.35a22.242,22.242,0,0,0-19.4,2.453.817.817,0,0,0,.8,1.426Z" transform="translate(-905.849 -159.184)" fill="#161616"/>
        </g>
      </g>
      <g id="Group_9402" data-name="Group 9402" transform="translate(46.555 13.877)">
        <g id="Group_9401" data-name="Group 9401">
          <path id="Path_4891" data-name="Path 4891" d="M966.379,185.1a678.5,678.5,0,0,0,88.655,45.24c1.027.4,1.483-1.255.456-1.654a676.219,676.219,0,0,1-88.256-45.069.857.857,0,0,0-.856,1.483Z" transform="translate(-965.952 -183.508)" fill="#161616"/>
        </g>
      </g>
      <g id="Group_9404" data-name="Group 9404" transform="translate(36.892 29.515)">
        <g id="Group_9403" data-name="Group 9403">
          <path id="Path_4892" data-name="Path 4892" d="M949.633,212.562c8.215,2.054,14.548,7.7,20.88,13.007,6.5,5.42,13.064,10.782,19.8,15.974a298.7,298.7,0,0,0,43.415,28.354c.97.513,1.826-.97.856-1.483A305.622,305.622,0,0,1,990.025,239.2c-7.017-5.42-13.806-11.068-20.595-16.716-5.819-4.849-11.866-9.7-19.34-11.524a.831.831,0,1,0-.456,1.6Z" transform="translate(-949.014 -210.919)" fill="#161616"/>
        </g>
      </g>
      <g id="Group_9406" data-name="Group 9406" transform="translate(120.283 59.186)">
        <g id="Group_9405" data-name="Group 9405">
          <path id="Path_4893" data-name="Path 4893" d="M1110.027,264.624c6.96,2.91,6.732,11.581,2.967,17-3.252,4.678-10.783,10.554-16.773,8.386-1.027-.4-1.483,1.255-.456,1.654,7.245,2.624,16.316-4.678,19.625-10.668,3.537-6.39,2.282-14.947-4.963-17.971-.97-.513-1.426,1.141-.4,1.6Z" transform="translate(-1095.185 -262.929)" fill="#161616"/>
        </g>
      </g>
    </g>
    <g id="torso" transform="translate(669.351 190.964)">
      <path id="Path_4894" data-name="Path 4894" d="M1117.433,262.6a18.186,18.186,0,0,0-5.477,2.168,20.04,20.04,0,0,0-7.131,8.215c-6.447,12.095-8.215,21.337-8.215,21.337-2.4,12.551-.97,22.706,0,29.267,1.711,11.581,3.537,10.782,5.477,23.5a132.271,132.271,0,0,1,1.369,26.528A138.732,138.732,0,0,1,1101,393.586a46.857,46.857,0,0,0,6.047,5.762c14.262,11.239,31.491,10.383,36.968,10.1a65.177,65.177,0,0,0,32.575-10.954c.57-.8,1.084-1.654,1.654-2.453a70.186,70.186,0,0,1-3.309-11.239c-2.339-11.467-1.027-19.454,0-33.089.456-6.275,1.027-15.518,1.084-27.1h-4.108c-1.027.057-10.326.228-16.145-7.131-5.02-6.333-3.822-13.749-3.537-15.346,1.426-8.957,8.957-16.43,19.169-19.454-4.279-2.282-8.9-5.02-13.692-8.215a158.63,158.63,0,0,1-14.205-10.668c-4.621,1.141-8.386,2.225-10.953,3.024-5.42,1.654-7.474,2.51-9.87,1.654C1119.715,267.506,1118.175,264.6,1117.433,262.6Z" transform="translate(-1094.435 -262.472)" fill="#fff"/>
      <g id="Group_9408" data-name="Group 9408">
        <g id="Group_9407" data-name="Group 9407">
          <path id="Path_4895" data-name="Path 4895" d="M1117.641,262.389c-5.762-.285-10.1,3.822-13.122,8.329a65.3,65.3,0,0,0-8.443,19.4c-3.994,14.947-2.225,29.552,1.2,44.385,1.826,7.759,3.765,15.518,4.564,23.5a110.976,110.976,0,0,1-.856,25.729c-.4,3.024-1.712,6.618-1.426,9.641.285,2.681,3.081,4.393,5.078,5.876a54.411,54.411,0,0,0,18.541,8.786c16.031,4.222,32.861,1.312,47.808-5.249,1.027-.456.114-1.94-.856-1.483-13.064,5.7-27.726,8.672-41.932,6.1a54.784,54.784,0,0,1-18.028-6.561c-2.453-1.426-5.42-3.138-7.359-5.249-2.681-2.967-.513-8.957,0-12.665a113.483,113.483,0,0,0-2-40.676c-3.081-13.806-6.732-27.327-5.078-41.589a70.644,70.644,0,0,1,6.561-22.535c2.91-6.047,7.473-14.434,15.289-14.034a.856.856,0,1,0,.057-1.711Z" transform="translate(-1093.787 -262.375)" fill="#161616"/>
        </g>
      </g>
      <g id="Group_9410" data-name="Group 9410" transform="translate(62.45 11.546)">
        <g id="Group_9409" data-name="Group 9409">
          <path id="Path_4896" data-name="Path 4896" d="M1203.679,284.2c4.45,2.339,8.843,4.849,13.236,7.416a.856.856,0,0,0,.856-1.483c-4.336-2.567-8.729-5.02-13.236-7.416-.97-.513-1.826.97-.856,1.483Z" transform="translate(-1203.252 -282.613)" fill="#161616"/>
        </g>
      </g>
      <g id="Group_9412" data-name="Group 9412" transform="translate(56.362 18.982)">
        <g id="Group_9411" data-name="Group 9411">
          <path id="Path_4897" data-name="Path 4897" d="M1213.586,295.735c-7.816,3.366-13.863,7.474-17.8,15.232-3.081,6.161-5.42,14.262.228,19.739.8.742,2-.456,1.2-1.2-5.819-5.591-2-14.377,1.426-20.2,3.594-6.1,9.47-9.356,15.8-12.095,1.027-.456.114-1.94-.856-1.483Z" transform="translate(-1192.581 -295.649)" fill="#161616"/>
        </g>
      </g>
      <g id="Group_9414" data-name="Group 9414" transform="translate(78.341 62.755)">
        <g id="Group_9413" data-name="Group 9413">
          <path id="Path_4898" data-name="Path 4898" d="M1233.271,373.188c1.369,12.209-1.255,24.189-2,36.341a97.8,97.8,0,0,0,4.108,34.23c.342,1.027,2,.628,1.654-.456a97.284,97.284,0,0,1-3.993-34.857c.8-11.752,3.195-23.447,1.883-35.257-.057-1.084-1.769-1.084-1.654,0Z" transform="translate(-1231.107 -372.375)" fill="#161616"/>
        </g>
      </g>
      <g id="Group_9416" data-name="Group 9416" transform="translate(76.028 133.291)">
        <g id="Group_9415" data-name="Group 9415">
          <path id="Path_4899" data-name="Path 4899" d="M1233.754,496.406a20.445,20.445,0,0,1-6.275,5.42c-.97.513-.114,2,.856,1.483a22.682,22.682,0,0,0,6.9-6.047c.685-.913-.856-1.769-1.483-.856Z" transform="translate(-1227.052 -496.016)" fill="#161616"/>
        </g>
      </g>
      <g id="Group_9418" data-name="Group 9418" transform="translate(59.163 52.237)">
        <g id="Group_9417" data-name="Group 9417">
          <path id="Path_4900" data-name="Path 4900" d="M1197.724,355.457a27.614,27.614,0,0,0,21.907,9.755.857.857,0,0,0,0-1.712,26.212,26.212,0,0,1-20.709-9.3c-.742-.8-1.94.4-1.2,1.255Z" transform="translate(-1197.491 -353.94)" fill="#161616"/>
        </g>
      </g>
      <path id="Path_4901" data-name="Path 4901" d="M1153.4,280.952a176.582,176.582,0,0,1,16.944,52.543,192.206,192.206,0,0,1,2.054,33.545,222.02,222.02,0,0,1-5.42,44.784c2.054-.114,4.05-.228,6.1-.342a42.561,42.561,0,0,0,18.655-4.393,41.906,41.906,0,0,0,10.839-7.816,95.139,95.139,0,0,1-3.366-19.34c-.8-11.353.913-17.571,1.712-33.888.4-7.987.4-14.377.342-18.313a29.225,29.225,0,0,1-13.92-3.708c-3.081-1.769-8.158-4.735-9.812-10.5a16.593,16.593,0,0,1,.342-9.128c.342-1.369,2.8-10.611,11.866-15.575a23.811,23.811,0,0,1,8.158-2.738L1164.353,268.8a41.626,41.626,0,0,1-4.051,5.762A48.242,48.242,0,0,1,1153.4,280.952Z" transform="translate(-1119.391 -265.135)" fill="#6c6d6d" opacity="0.15"/>
      <path id="Path_4902" data-name="Path 4902" d="M1200.1,361.6a173.177,173.177,0,0,1-6.9,88.941,45.7,45.7,0,0,0,27.555-10.953,73.964,73.964,0,0,1-3.651-13.35,80.931,80.931,0,0,1-1.084-14.205c-.057-12.323,1.654-15.974,2.168-28.24a142.194,142.194,0,0,0-.228-15.917,22.014,22.014,0,0,1-9.071-.856A21.083,21.083,0,0,1,1200.1,361.6Z" transform="translate(-1136.485 -304.993)" fill="#6c6d6d" opacity="0.29"/>
    </g>
    <g id="hand_l" transform="translate(717.76 209.058)">
      <path id="Path_4903" data-name="Path 4903" d="M1210.222,298.29c-5.534.228-9.527,3.594-12.038,5.591-2,1.654-7.645,6.333-9.071,14.434-.4,2.282-1.255,7.131,1.312,11.752,3.936,6.96,13.007,8.615,15.46,9.071,3.651.685,4.051-.057,5.876.8,2.054.913,5.648,3.594,7.759,18.427,1.084,7.588,2.51,18.37-.8,32.575-2.91,12.551-5.306,16.259-7.759,18.142a40.439,40.439,0,0,1-7.473,4.279c-4.507,2.054-5.477,1.6-9.641,3.48-3.195,1.426-6.9,3.024-9.87,6.675a20.785,20.785,0,0,0-4.279,9.356l12.836-1.883a57.479,57.479,0,0,1,2.681,5.363,52.525,52.525,0,0,1,3.195,9.87c.913,3.993,4.108,10.383,13.863,20.823-1.141-7.131-2.339-14.262-3.48-21.337a41.814,41.814,0,0,0,5.591,9.356,43.3,43.3,0,0,0,11.467,10.155c-.513-7.131-1.084-14.262-1.6-21.337,2.852,3.993,5.7,7.987,8.558,12.037a64.639,64.639,0,0,0-14.148-33.146,56.561,56.561,0,0,0,6.39-5.591,59.469,59.469,0,0,0,9.071-12.038c5.933-9.984,10.554-17.742,13.064-29.1a77.878,77.878,0,0,0-2.4-40.334,70.812,70.812,0,0,0-18.941-29.666C1217.866,298.69,1212.96,298.176,1210.222,298.29Z" transform="translate(-1179.095 -295.89)" fill="#fff"/>
      <g id="Group_9420" data-name="Group 9420" transform="translate(29.803)">
        <g id="Group_9419" data-name="Group 9419">
          <path id="Path_4904" data-name="Path 4904" d="M1231.462,295.808a55.838,55.838,0,0,1,25.33,19.454c5.876,8.386,8.843,18.085,11.239,27.954,5.192,21.223-.913,42.331-13.007,60.016a125.852,125.852,0,0,1-13.863,16.773c-.742.8.456,2,1.2,1.2,11.41-11.752,21.165-25.558,26.072-41.361a68.2,68.2,0,0,0,1.712-34.857c-2.168-9.927-5.135-19.967-10.611-28.582-6.561-10.326-16.373-17.742-27.669-22.249-.97-.4-1.426,1.255-.4,1.654Z" transform="translate(-1230.879 -294.092)" fill="#161616"/>
        </g>
      </g>
      <g id="Group_9422" data-name="Group 9422" transform="translate(0 42.05)">
        <g id="Group_9421" data-name="Group 9421">
          <path id="Path_4905" data-name="Path 4905" d="M1205.487,369.568c11.866-.114,12.836,19,13.121,27.27.285,9.185.114,18.655-2.4,27.5a38.2,38.2,0,0,1-5.819,12.323,19.661,19.661,0,0,1-5.534,5.534c-1.883,1.141-3.936,1.426-6.1,1.883a26.349,26.349,0,0,0-17,11.467c-.913,1.483-4.222,5.648-2.739,7.588.456.628,1.141.628,1.883.628a44.691,44.691,0,0,0,6.675-1.369c1.084-.228.628-1.883-.456-1.654-1.769.4-4.051,1.312-5.876,1.255-1.084-.057-.913.171-.514-.97a18.015,18.015,0,0,1,1.883-3.594,23.319,23.319,0,0,1,10.611-9.7,41.245,41.245,0,0,1,8.215-2.453c4.165-.97,7.188-3.537,9.812-6.9,4.963-6.39,7.3-14.377,8.386-22.306a109.534,109.534,0,0,0,.114-27.669c-1.027-7.987-3.879-20.709-14.205-20.595-1.141.114-1.141,1.826-.057,1.769Z" transform="translate(-1178.639 -367.799)" fill="#161616"/>
        </g>
      </g>
      <g id="Group_9424" data-name="Group 9424" transform="translate(6.787 134.091)">
        <g id="Group_9423" data-name="Group 9423">
          <path id="Path_4906" data-name="Path 4906" d="M1191.6,531.739a23.821,23.821,0,0,1,2.909-.513,3.4,3.4,0,0,1,3.48.856c.114.342.171.628.285.97.856,1.711,1.141,3.993,1.712,5.819a95.364,95.364,0,0,0,4.051,10.383,59.594,59.594,0,0,0,12.437,18.028c.685.628,1.54,0,1.426-.856l-3.081-19.853c-.171-1.084-1.826-.628-1.654.456q1.541,9.927,3.081,19.853c.456-.285.97-.571,1.426-.856-6.675-6.39-11.182-14.491-14.434-23.048q-1.2-3.252-2.225-6.5c-.571-1.826-.8-4.051-1.655-5.7-1.54-2.909-5.648-1.141-8.158-.685-1.141.171-.684,1.826.4,1.654Z" transform="translate(-1190.535 -529.135)" fill="#161616"/>
        </g>
      </g>
      <g id="Group_9426" data-name="Group 9426" transform="translate(39.057 125.904)">
        <g id="Group_9425" data-name="Group 9425">
          <path id="Path_4907" data-name="Path 4907" d="M1247.329,516.276c4.393,4.906,7.074,10.5,9.47,16.544,2.51,6.333,4.849,12.722,5.42,19.511.571-.057,1.141-.171,1.655-.228a53.394,53.394,0,0,0-10.554-16.373c-.742-.8-1.94.4-1.2,1.2a51.445,51.445,0,0,1,10.1,15.632c.342.8,1.769.856,1.655-.228-.628-7.359-3.138-14.148-5.876-20.937a54.474,54.474,0,0,0-9.527-16.316c-.628-.856-1.883.342-1.141,1.2Z" transform="translate(-1247.101 -514.784)" fill="#161616"/>
        </g>
      </g>
      <g id="Group_9428" data-name="Group 9428" transform="translate(28.432 147.771)">
        <g id="Group_9427" data-name="Group 9427">
          <path id="Path_4908" data-name="Path 4908" d="M1228.6,556.072a68.481,68.481,0,0,0,18.256,19.739c.571.4,1.255-.171,1.312-.742a78.957,78.957,0,0,0-2.624-21.337.858.858,0,0,0-1.655.456,78.15,78.15,0,0,1,2.567,20.88c.456-.228.856-.513,1.312-.742a65.535,65.535,0,0,1-17.628-19.112c-.628-.913-2.111-.057-1.541.856Z" transform="translate(-1228.475 -553.114)" fill="#161616"/>
        </g>
      </g>
      <g id="Group_9430" data-name="Group 9430" transform="translate(34.741 145.243)">
        <g id="Group_9429" data-name="Group 9429">
          <path id="Path_4909" data-name="Path 4909" d="M1239.686,549.947a115.475,115.475,0,0,1,10.668,21.222c.4,1.027,2.054.57,1.655-.456a114.881,114.881,0,0,0-10.839-21.679c-.627-.856-2.111,0-1.483.913Z" transform="translate(-1239.534 -548.681)" fill="#161616"/>
        </g>
      </g>
      <path id="Path_4910" data-name="Path 4910" d="M1199.484,303.573c6.047,2.624,22.877,10.9,33.032,29.951,11.3,21.337,10.041,49.348-.913,63.611-4.507,5.819-12.038,14.205-15,17.172-5.363,5.42-7.473,6.789-9.641,7.759-4.906,2.282-7.359,1.369-13.977,4.108-5.648,2.339-8.957,5.077-8.786,5.306.114.285,4.165-1.654,8.1-1.54,0,0,2.967.057,3.822,1.426a.82.82,0,0,1,.114.171c.171.342.171.8.742,3.024.4,1.654.856,3.024,1.084,3.879a77.429,77.429,0,0,0,6.675,15.118,75,75,0,0,0,9.813,13.464c-.913-6.675-1.768-13.35-2.681-20.082a61.71,61.71,0,0,0,16.6,17.685c-.685-7.416-1.426-14.833-2.111-22.306a88.561,88.561,0,0,1,6.39,9.356c1.255,2.054,2.282,4.051,3.252,5.933a73.82,73.82,0,0,0-12.323-32.747c-.228-1.54-.456-3.024-.628-4.564A113.374,113.374,0,0,0,1232,410.028c3.994-5.135,11.581-15,15.8-28.183,7.93-24.588-.4-46.553-2.624-52.143-2.4-6.047-5.933-14.662-14.491-22.649a54.115,54.115,0,0,0-18.712-11.353,30.427,30.427,0,0,0-12.494,7.873Z" transform="translate(-1181.023 -294.783)" fill="#6c6d6d" opacity="0.33"/>
      <path id="Path_4911" data-name="Path 4911" d="M1255.994,484.571c-.856-.742-10.725,9.413-14.205,13.064-7.873,8.329-8.615,10.611-8.957,11.866-1.483,5.534.57,10.326,3.994,18.028,2.909,6.561,9.071,18.085,11.41,17.229,1.084-.4,2.054-3.594-1.94-21.907,7.131,13.178,9.356,15.746,10.041,15.4,1.312-.57-1.883-12.095-6.447-22.021a99.26,99.26,0,0,0-7.188-12.95C1254.4,488.564,1256.451,484.97,1255.994,484.571Z" transform="translate(-1201.705 -375.886)" fill="#6c6d6d" opacity="0.31"/>
    </g>
    <g id="head" transform="translate(653.133 96.11)">
      <path id="Path_4912" data-name="Path 4912" d="M1078.042,151.938c-.571,1.426-.342,1.6-1.712,5.99-.57,1.826-1.084,3.366-1.483,4.393a70.993,70.993,0,0,0-2.91,13.236,3.676,3.676,0,0,0,.513,2.91c1.141,1.312,3.195.228,5.02,1.312,1.6.97,1.94,2.91,2.4,4.792a44.357,44.357,0,0,0,3.994,10.611c4.735,8.786,17.856,10.212,19.34,10.326a26.9,26.9,0,0,0,5.306,0,7.468,7.468,0,0,0,.513,7.7c2.339,3.195,6.846,2.8,8.215,2.624a12.591,12.591,0,0,0,5.933-2.282,30.238,30.238,0,0,1-2.225-11.011,30.568,30.568,0,0,1,6.846-19.112,11.153,11.153,0,0,0,5.306-2.624c.456-.4,4.222-3.936,3.537-9.014-.342-2.681-2.111-6.96-5.933-7.7a7.643,7.643,0,0,0-5.705,1.54l-1.54-3.765a34.772,34.772,0,0,1-11.638-2.225c-12.893-4.792-19.055-15.746-20.88-19.34a22.781,22.781,0,0,0-5.077,2.624C1084.089,144.122,1079.924,146.975,1078.042,151.938Z" transform="translate(-1068.148 -115.09)" fill="#fff"/>
      <g id="Group_9432" data-name="Group 9432" transform="translate(2.161 38.717)">
        <g id="Group_9431" data-name="Group 9431">
          <path id="Path_4913" data-name="Path 4913" d="M1074.654,164.788a204.982,204.982,0,0,1-5.477,28.068.834.834,0,0,0,1.027,1.027c2.567-.685,5.078-1.369,7.645-2-.342-.171-.684-.4-1.027-.57a44.554,44.554,0,0,0,7.017,15.974,51.413,51.413,0,0,0,4.735,5.819c1.483,1.6,2.624,3.252,4.849,3.366a32.672,32.672,0,0,0,26.072-11.467c.742-.8-.457-2.054-1.2-1.2-6.1,6.96-14.662,11.239-24.018,11.011-3.765-.114-7.531-6.275-9.413-9.071a43.689,43.689,0,0,1-6.333-14.89.841.841,0,0,0-1.027-.57c-2.567.685-5.077,1.369-7.645,2l1.027,1.027a201.478,201.478,0,0,0,5.534-28.525c.057-1.084-1.655-1.084-1.769,0Z" transform="translate(-1069.146 -163.975)" fill="#161616"/>
        </g>
      </g>
      <g id="Group_9434" data-name="Group 9434" transform="translate(15.651 40.162)">
        <g id="Group_9433" data-name="Group 9433">
          <path id="Path_4914" data-name="Path 4914" d="M1092.8,167.929a29.156,29.156,0,0,0,1.54,9.927.845.845,0,0,0,1.654-.228,25.2,25.2,0,0,0-1.2-10.5.842.842,0,0,0-1.654.228,17.953,17.953,0,0,0,.285,5.249c.228,1.084,1.826.628,1.654-.456a19.311,19.311,0,0,1-.228-4.792c-.57.057-1.141.171-1.654.228a25.045,25.045,0,0,1,1.141,10.041c.57-.057,1.141-.171,1.654-.228a25.536,25.536,0,0,1-1.483-9.47.857.857,0,0,0-1.711,0Z" transform="translate(-1092.793 -166.508)" fill="#161616"/>
        </g>
      </g>
      <g id="Group_9436" data-name="Group 9436" transform="translate(1.733 41.361)">
        <g id="Group_9435" data-name="Group 9435">
          <path id="Path_4915" data-name="Path 4915" d="M1069.768,176.078l.114.114c-.057-.285-.171-.57-.228-.856.057-.057.114-.171.171-.228h.856c-.57-.342-.513-2.225-.513-2.681a9.023,9.023,0,0,1,.57-2.738h-1.654a19.439,19.439,0,0,1,.228,7.7h1.655a11.87,11.87,0,0,1-.456-7.3.858.858,0,0,0-1.655-.456,13.919,13.919,0,0,0,.456,8.215c.285.685,1.483.913,1.655,0a23.047,23.047,0,0,0-.228-8.615.862.862,0,0,0-1.654,0,8.687,8.687,0,0,0-.114,6.447c.456,1.027,1.94,1.426,2.282.057a.955.955,0,0,0-.228-.856l-.114-.114c-.742-.628-2,.571-1.141,1.312Z" transform="translate(-1068.397 -168.61)" fill="#161616"/>
        </g>
      </g>
      <g id="Group_9438" data-name="Group 9438" transform="translate(12.643 69.105)">
        <g id="Group_9437" data-name="Group 9437">
          <path id="Path_4916" data-name="Path 4916" d="M1088.136,222.3a7.88,7.88,0,0,0,5.363-.228,26.907,26.907,0,0,0,4.621-3.423c.856-.685-.342-1.883-1.2-1.2a37.5,37.5,0,0,1-3.822,2.91,6,6,0,0,1-4.45.285c-1.141-.228-1.6,1.426-.514,1.654Z" transform="translate(-1087.52 -217.242)" fill="#161616"/>
        </g>
      </g>
      <g id="Group_9440" data-name="Group 9440" transform="translate(20.34 55.053)">
        <g id="Group_9439" data-name="Group 9439">
          <path id="Path_4917" data-name="Path 4917" d="M1102.089,194.487h-.171c-.171-.057-.285-.057-.456-.114-.057-.057-.114-.057-.114-.114a2.479,2.479,0,0,1-.228-.4V193.8q-.086-.342.342-.685c.171-.057.285-.057.456-.114h.171a.816.816,0,0,0-1.027.57.863.863,0,0,0,.571,1.027c.628.285,1.2-.342,1.2-.97a.946.946,0,0,0-1.2-.97.8.8,0,0,0-.571,1.027c.114.628.628.97,1.027.8Z" transform="translate(-1101.012 -192.61)" fill="#161616"/>
        </g>
      </g>
      <g id="Group_9442" data-name="Group 9442" transform="translate(25.054 50.883)">
        <g id="Group_9441" data-name="Group 9441">
          <path id="Path_4918" data-name="Path 4918" d="M1110.088,187.012a.857.857,0,0,0,0-1.712.857.857,0,0,0,0,1.712Z" transform="translate(-1109.275 -185.3)" fill="#161616"/>
        </g>
      </g>
      <g id="Group_9444" data-name="Group 9444" transform="translate(25.767 55.932)">
        <g id="Group_9443" data-name="Group 9443">
          <path id="Path_4919" data-name="Path 4919" d="M1110.739,195.6l.342.342a.847.847,0,1,0,1.2-1.2l-.342-.342a.827.827,0,0,0-1.2,0,.945.945,0,0,0,0,1.2Z" transform="translate(-1110.525 -194.15)" fill="#161616"/>
        </g>
      </g>
      <g id="Group_9446" data-name="Group 9446" transform="translate(7.835 23.453)">
        <g id="Group_9445" data-name="Group 9445">
          <path id="Path_4920" data-name="Path 4920" d="M1080.808,152.954a23.563,23.563,0,0,1,15.118-14.034c1.027-.342.628-2-.456-1.654a25.489,25.489,0,0,0-16.316,15.232c-.4,1.027,1.255,1.483,1.654.456Z" transform="translate(-1079.092 -137.219)" fill="#161616"/>
        </g>
      </g>
      <g id="Group_9448" data-name="Group 9448" transform="translate(22.968 23.548)">
        <g id="Group_9447" data-name="Group 9447">
          <path id="Path_4921" data-name="Path 4921" d="M1105.665,138.421c4.336,15.118,19.169,23.219,34.23,23.048a.857.857,0,0,0,0-1.712c-14.262.114-28.468-7.416-32.575-21.793-.342-1.027-2-.571-1.654.456Z" transform="translate(-1105.619 -137.385)" fill="#161616"/>
        </g>
      </g>
      <g id="Group_9450" data-name="Group 9450" transform="translate(37.834 88.985)">
        <g id="Group_9449" data-name="Group 9449">
          <path id="Path_4922" data-name="Path 4922" d="M1133.458,252.893a68.217,68.217,0,0,1-1.769,19.511.926.926,0,0,0,.4.97,14.507,14.507,0,0,0,19.682-6.161c.514-.97-.97-1.826-1.483-.856a12.764,12.764,0,0,1-17.343,5.534c.114.342.285.628.4.97a71.026,71.026,0,0,0,1.826-19.91c-.057-1.141-1.769-1.141-1.711-.057Z" transform="translate(-1131.675 -252.087)" fill="#161616"/>
        </g>
      </g>
      <path id="Path_4923" data-name="Path 4923" d="M1088.716,122a25.006,25.006,0,0,0-14.776,15.917,11.368,11.368,0,0,1-6.276-3.708c-3.993-4.963-2.4-13.407,1.711-17.914,3.823-4.222,7.017-1.711,14.206-6.846,4.564-3.252,4.393-5.077,9.47-8.386a27.3,27.3,0,0,1,10.5-4.678c6.96-1.2,12.779,1.6,21.28,5.648,4.963,2.4,3.88,2.4,10.782,5.99,11.581,5.99,13.178,5.192,18.028,9.014,5.02,3.936,7.816,8.386,10.212,12.209,3.366,5.42,3.423,7.3,7.017,15.118,5.477,11.752,7.131,11.182,10.5,19.34,2.852,6.9,5.7,13.692,4.279,21.907-2.111,12.095-12.037,18.941-13.92,20.2-12.608,8.329-26.528,4.735-31.549,3.423-5.933-1.54-14.091-3.651-19.054-10.782-6.333-9.128-5.021-23.105,2.853-35.257a9.161,9.161,0,0,0,5.134-.856c4.507-2.339,6.789-9.014,4.279-13.635-.285-.513-2.51-4.507-6.846-4.564-4.279-.057-6.732,3.765-6.846,3.993a44.432,44.432,0,0,1-23.619-13.92A42.665,42.665,0,0,1,1088.716,122Z" transform="translate(-1065.358 -96.11)" fill="#1c1c1c"/>
      <circle id="Ellipse_1402" data-name="Ellipse 1402" cx="3.252" cy="3.252" r="3.252" transform="translate(55.362 64.974)" fill="#5b5b5b"/>
      <path id="Path_4924" data-name="Path 4924" d="M1135.2,244.283c0,.685.057,1.369.114,2.054.057.742.171,1.483.228,2.168a18.017,18.017,0,0,0,7.759-4.963c2.852-3.252,4.165-7.416,3.651-7.759-.456-.285-1.825,2.054-5.077,4.621A31.235,31.235,0,0,1,1135.2,244.283Z" transform="translate(-1095.356 -156.089)" fill="#161616" stroke="#161616" stroke-width="1"/>
      <path id="Path_4925" data-name="Path 4925" d="M1172.5,108.1a163.638,163.638,0,0,1,17.4,23.39c7.245,11.752,12.722,20.709,14.776,33.431,1.255,7.93,4.336,27.27-7.93,38.509-7.074,6.447-16.088,7.416-20.595,7.531a53.866,53.866,0,0,0,10.041,3.48c5.933,1.426,15.118,3.594,24.988-.114,1.94-.742,14.776-5.819,19.168-18.883,2.91-8.672.685-16.659-.228-19.853a57.578,57.578,0,0,0-5.933-13.064c-2.51-4.222-5.135-7.645-7.474-12.836-1.426-3.081-2.339-5.591-2.339-5.591-1.2-3.138-1.027-3.309-1.826-4.963-.856-1.883-1.426-2.4-3.88-6.275-2.339-3.708-1.826-3.195-2.681-4.393a27.317,27.317,0,0,0-7.7-7.3c-.627-.4-1.825-.97-4.279-2.168-3.708-1.769-6.5-3.024-7.074-3.252C1184.138,114.661,1179.688,112.436,1172.5,108.1Z" transform="translate(-1111.376 -101.26)" fill="#444647" opacity="0.19"/>
      <path id="Path_4926" data-name="Path 4926" d="M1235.493,197a75.19,75.19,0,0,1,1.084,16.145c-.171,3.651-.513,11.98-3.252,18.655-6.1,14.833-23.676,20.367-28.125,21.622,1.768.342,19.283,3.48,31.092-7.93a33.906,33.906,0,0,0,8.843-15.4,30.17,30.17,0,0,0,.456-10.554C1244.45,208.866,1238.859,200.993,1235.493,197Z" transform="translate(-1125.421 -139.442)" fill="#252626" opacity="0.15"/>
    </g>
  </g>
</svg>
