<svg xmlns="http://www.w3.org/2000/svg" width="60" height="60" viewBox="0 0 60 60">
  <path id="Icon_awesome-spray-can" data-name="Icon awesome-spray-can" d="M26.25,3.75A3.75,3.75,0,0,0,22.5,0H15a3.75,3.75,0,0,0-3.75,3.75V15h15ZM56.25,15A3.75,3.75,0,1,0,60,18.75,3.75,3.75,0,0,0,56.25,15Zm-30,3.75h-15A11.25,11.25,0,0,0,0,30V56.25A3.75,3.75,0,0,0,3.75,60h30a3.75,3.75,0,0,0,3.75-3.75V30A11.25,11.25,0,0,0,26.25,18.75Zm-7.5,30a9.375,9.375,0,1,1,9.375-9.375A9.375,9.375,0,0,1,18.75,48.75Zm37.5-37.5A3.75,3.75,0,1,0,52.5,7.5,3.75,3.75,0,0,0,56.25,11.25ZM45,15a3.75,3.75,0,1,0,3.75,3.75A3.75,3.75,0,0,0,45,15ZM33.75,3.75A3.75,3.75,0,1,0,37.5,7.5,3.75,3.75,0,0,0,33.75,3.75ZM45,3.75A3.75,3.75,0,1,0,48.75,7.5,3.75,3.75,0,0,0,45,3.75Zm11.25,22.5A3.75,3.75,0,1,0,60,30,3.75,3.75,0,0,0,56.25,26.25Z" fill="#51459e"/>
</svg>
