<svg xmlns="http://www.w3.org/2000/svg" width="54.465" height="51.864" viewBox="0 0 54.465 51.864">
  <g id="Group_12" data-name="Group 12" transform="translate(-940.489 -244.32)">
    <path id="Path_21" data-name="Path 21" d="M355.961-154a8.969,8.969,0,0,1,2.779.45,8.428,8.428,0,0,1,2.491,1.279,6.7,6.7,0,0,1,1.8,2.038,5.277,5.277,0,0,1,.695,2.677v22.836a5.544,5.544,0,0,1-.647,2.7,6.114,6.114,0,0,1-1.725,1.99,8.365,8.365,0,0,1-2.491,1.256,17.727,17.727,0,0,1-2.9.45h-25.2a17.651,17.651,0,0,1-2.922-.45,8.42,8.42,0,0,1-2.467-1.256,6.113,6.113,0,0,1-1.725-1.99,5.545,5.545,0,0,1-.647-2.7v-22.836a5.275,5.275,0,0,1,.695-2.677,6.7,6.7,0,0,1,1.8-2.038,8.426,8.426,0,0,1,2.491-1.279,8.969,8.969,0,0,1,2.779-.45Zm-3.258,6.492H334.019a4.472,4.472,0,0,0-3.258.971,3.782,3.782,0,0,0-.958,2.772v15.112a3.87,3.87,0,0,0,.934,2.891,4.612,4.612,0,0,0,3.234.9h18.78a4.454,4.454,0,0,0,3.234-.948,3.9,3.9,0,0,0,.934-2.843v-15.112a3.781,3.781,0,0,0-.958-2.772A4.472,4.472,0,0,0,352.7-147.508Z" transform="translate(631.231 398.32)" fill="#51459e" opacity="0.204"/>
    <path id="Path_22" data-name="Path 22" d="M355.961-154a8.969,8.969,0,0,1,2.779.45,8.428,8.428,0,0,1,2.491,1.279,6.7,6.7,0,0,1,1.8,2.038,5.277,5.277,0,0,1,.695,2.677v22.836a5.544,5.544,0,0,1-.647,2.7,6.114,6.114,0,0,1-1.725,1.99,8.365,8.365,0,0,1-2.491,1.256,9.493,9.493,0,0,1-2.9.45h-7.608l-3.548,4.755a1.946,1.946,0,0,1-2.693.405,1.911,1.911,0,0,1-.412-.405l-3.548-4.755h-7.391a9.422,9.422,0,0,1-2.922-.45,8.42,8.42,0,0,1-2.467-1.256,6.113,6.113,0,0,1-1.725-1.99,5.545,5.545,0,0,1-.647-2.7v-22.836a5.275,5.275,0,0,1,.695-2.677,6.7,6.7,0,0,1,1.8-2.038,8.426,8.426,0,0,1,2.491-1.279,8.969,8.969,0,0,1,2.779-.45Zm-3.258,6.492H334.019a4.472,4.472,0,0,0-3.258.971,3.782,3.782,0,0,0-.958,2.772v15.112a3.87,3.87,0,0,0,.934,2.891,4.612,4.612,0,0,0,3.234.9h18.78a4.454,4.454,0,0,0,3.234-.948,3.9,3.9,0,0,0,.934-2.843v-15.112a3.781,3.781,0,0,0-.958-2.772A4.472,4.472,0,0,0,352.7-147.508Z" transform="translate(617.489 408.978)" fill="#51459e"/>
  </g>
</svg>
