<svg xmlns="http://www.w3.org/2000/svg" width="79.65" height="24" viewBox="0 0 79.65 24">
  <g id="amazon_logo2" transform="translate(0 -4.44)">
    <path id="Path_26" data-name="Path 26" d="M41.72,12.7c-4.627,3.409-11.337,5.23-17.112,5.23A30.987,30.987,0,0,1,3.7,9.953c-.434-.392-.045-.925.475-.622A42.085,42.085,0,0,0,25.093,14.88a41.552,41.552,0,0,0,15.954-3.265c.784-.332,1.441.51.673,1.084" transform="translate(7.693 10.511)" fill="#f90" fill-rule="evenodd"/>
    <path id="Path_27" data-name="Path 27" d="M20.071,11.07c-.59-.759-3.913-.357-5.4-.182-.456.054-.523-.341-.115-.625,2.647-1.859,6.984-1.323,7.494-.7s-.134,4.981-2.618,7.054c-.383.319-.746.15-.577-.271.558-1.394,1.811-4.519,1.218-5.275" transform="translate(31.267 9.94)" fill="#f90" fill-rule="evenodd"/>
    <path id="Path_28" data-name="Path 28" d="M46.042,7.065V5.256A.446.446,0,0,1,46.5,4.8h8.1a.454.454,0,0,1,.469.459v1.55a2.562,2.562,0,0,1-.612,1.135l-4.2,6a8.914,8.914,0,0,1,4.621.989.832.832,0,0,1,.431.7v1.933c0,.265-.293.574-.6.415a9.334,9.334,0,0,0-8.562.013c-.281.153-.574-.153-.574-.415V15.735a2.168,2.168,0,0,1,.3-1.244l4.866-6.971H46.508a.446.446,0,0,1-.466-.456M16.48,18.353H14.019a.466.466,0,0,1-.44-.421V5.288a.46.46,0,0,1,.475-.453h2.3a.466.466,0,0,1,.446.424V6.911h.048a3.387,3.387,0,0,1,6.445,0,3.639,3.639,0,0,1,6.257-.96c.781,1.062.622,2.609.622,3.967V17.9a.469.469,0,0,1-.478.456H27.227a.469.469,0,0,1-.446-.456v-6.71a16.242,16.242,0,0,0-.064-2.369,1.286,1.286,0,0,0-1.451-1.087,1.636,1.636,0,0,0-1.473,1.036,7.593,7.593,0,0,0-.23,2.424v6.7a.466.466,0,0,1-.475.459H20.626a.466.466,0,0,1-.446-.456v-6.7c0-1.41.233-3.486-1.518-3.486-1.773,0-1.7,2.025-1.7,3.486v6.7a.469.469,0,0,1-.478.456M62.044,4.561c3.658,0,5.638,3.141,5.638,7.134,0,3.859-2.188,6.92-5.638,6.92-3.591,0-5.549-3.141-5.549-7.054,0-3.938,1.98-7,5.549-7m.022,2.583c-1.818,0-1.933,2.475-1.933,4.018s-.026,4.847,1.913,4.847c1.907,0,2-2.666,2-4.286a11.691,11.691,0,0,0-.367-3.355,1.543,1.543,0,0,0-1.61-1.225M72.424,18.35H69.969a.469.469,0,0,1-.443-.456V5.244A.466.466,0,0,1,70,4.829h2.286a.472.472,0,0,1,.44.357V7.119h.045c.689-1.728,1.658-2.551,3.361-2.551a3.232,3.232,0,0,1,2.876,1.486,8.056,8.056,0,0,1,.644,3.938v7.963a.472.472,0,0,1-.475.4H76.7a.466.466,0,0,1-.437-.4V11.086c0-1.384.159-3.412-1.543-3.412A1.618,1.618,0,0,0,73.3,8.691a5.616,5.616,0,0,0-.392,2.392V17.9a.475.475,0,0,1-.478.456m-32.846-6.04a4.8,4.8,0,0,1-.462,2.612,2,2,0,0,1-1.706,1.116c-.944,0-1.5-.718-1.5-1.786,0-2.1,1.881-2.478,3.667-2.478v.536m2.487,6a.513.513,0,0,1-.584.061,6.049,6.049,0,0,1-1.416-1.645,4.877,4.877,0,0,1-4.063,1.792,3.5,3.5,0,0,1-3.69-3.839,4.188,4.188,0,0,1,2.628-4.028A17.06,17.06,0,0,1,39.581,9.8V9.485a3.138,3.138,0,0,0-.3-1.786,1.634,1.634,0,0,0-1.384-.641,1.871,1.871,0,0,0-1.977,1.48.508.508,0,0,1-.431.446l-2.392-.255a.432.432,0,0,1-.367-.513c.549-2.9,3.17-3.773,5.517-3.773a5.591,5.591,0,0,1,3.712,1.228c1.2,1.116,1.084,2.615,1.084,4.241v3.839a3.374,3.374,0,0,0,.928,2.283.461.461,0,0,1-.01.654c-.5.421-1.4,1.2-1.891,1.636v-.006M7.264,12.31A4.824,4.824,0,0,1,6.8,14.922,2,2,0,0,1,5.1,16.038c-.947,0-1.5-.718-1.5-1.786,0-2.1,1.885-2.478,3.667-2.478v.536m2.487,6a.513.513,0,0,1-.584.061A6.049,6.049,0,0,1,7.752,16.73,4.874,4.874,0,0,1,3.69,18.522,3.5,3.5,0,0,1,0,14.683a4.188,4.188,0,0,1,2.628-4.028A17.06,17.06,0,0,1,7.264,9.8V9.482a3.164,3.164,0,0,0-.3-1.786,1.642,1.642,0,0,0-1.384-.641A1.88,1.88,0,0,0,3.6,8.535a.5.5,0,0,1-.424.446L.781,8.726a.435.435,0,0,1-.37-.513c.552-2.9,3.17-3.773,5.517-3.773A5.577,5.577,0,0,1,9.637,5.668c1.2,1.116,1.084,2.615,1.084,4.241v3.839a3.361,3.361,0,0,0,.931,2.283.461.461,0,0,1-.006.654c-.5.421-1.4,1.2-1.891,1.636l-.006-.006" transform="translate(0 0)" fill-rule="evenodd"/>
  </g>
</svg>
