<svg xmlns="http://www.w3.org/2000/svg" width="17.5" height="21.5" viewBox="0 0 17.5 21.5">
  <g id="vuesax_linear_mobile" data-name="vuesax/linear/mobile" transform="translate(-111.25 -381.25)">
    <g id="mobile">
      <path id="Vector" d="M5-.75h6c2.351,0,3.664.353,4.53,1.22S16.75,2.649,16.75,5V15c0,2.351-.353,3.664-1.22,4.53S13.351,20.75,11,20.75H5c-2.351,0-3.664-.353-4.53-1.22S-.75,17.351-.75,15V5C-.75,2.649-.4,1.336.47.47S2.649-.75,5-.75Zm6,20c1.885,0,2.923-.233,3.47-.78s.78-1.585.78-3.47V5c0-1.885-.233-2.923-.78-3.47S12.885.75,11,.75H5c-1.885,0-2.923.233-3.47.78S.75,3.115.75,5V15c0,1.885.233,2.923.78,3.47s1.585.78,3.47.78Z" transform="translate(112 382)" fill="#51459e"/>
      <path id="Vector-2" data-name="Vector" d="M4,.75H0A.75.75,0,0,1-.75,0,.75.75,0,0,1,0-.75H4A.75.75,0,0,1,4.75,0,.75.75,0,0,1,4,.75Z" transform="translate(118 385.5)" fill="#51459e"/>
      <path id="Vector-3" data-name="Vector" d="M1.55-.75a2.3,2.3,0,1,1-2.3,2.3A2.3,2.3,0,0,1,1.55-.75Zm0,3.1a.8.8,0,1,0-.8-.8A.8.8,0,0,0,1.55,2.35Z" transform="translate(118.45 396)" fill="#51459e"/>
    </g>
  </g>
</svg>
