<svg xmlns="http://www.w3.org/2000/svg" width="386.65" height="283.177" viewBox="0 0 386.65 283.177">
  <g id="pixeltrue-meditation" transform="translate(-136.297 -42.791)">
    <g id="ground" transform="translate(136.297 194.46)">
      <g id="Group_1638" data-name="Group 1638" transform="translate(338.144 47.095)">
        <g id="Group_1637" data-name="Group 1637">
          <path id="Path_943" data-name="Path 943" d="M1339.2,804.908a33.682,33.682,0,0,1-1.1-21.505c-.2.085-.423.169-.62.254.507.338.986.7,1.494,1.043a.429.429,0,0,0,.62-.254,71.866,71.866,0,0,1,15.784-35.71,6.591,6.591,0,0,1-.7-.2c4.622,19.363-1.1,39.234-8.089,57.272-.2.507.62.733.817.226,7.046-18.208,12.74-38.191,8.089-57.723a.438.438,0,0,0-.7-.2,73.1,73.1,0,0,0-15.981,36.1c.2-.085.423-.169.62-.254-.507-.338-.987-.7-1.494-1.043a.414.414,0,0,0-.62.254,34.475,34.475,0,0,0,1.1,21.956c.169.507.986.282.789-.225Z" transform="translate(-1336.026 -748.003)" fill="#e8e8e8"/>
        </g>
      </g>
      <g id="Group_1640" data-name="Group 1640" transform="translate(353.452 42.379)">
        <g id="Group_1639" data-name="Group 1639">
          <path id="Path_944" data-name="Path 944" d="M1395.8,756a68.917,68.917,0,0,1,6.624-12.289,4.518,4.518,0,0,1-.592.141c.338.254.7.507,1.043.733a.444.444,0,0,0,.592-.141,74.113,74.113,0,0,1,8.625-12.43l-.677-.085c4.34,7.469,1.043,16.686-1.607,24.155a128.86,128.86,0,0,1-10.907,23.591,103.221,103.221,0,0,1-8.456,12.091c-.338.423.254,1.015.592.592a109.157,109.157,0,0,0,14.177-22.83c1.888-4.03,3.551-8.146,5.073-12.317a69.161,69.161,0,0,0,3.636-12.74c.7-4.453.479-9.019-1.8-12.993a.443.443,0,0,0-.677-.085,79.281,79.281,0,0,0-8.766,12.6,4.509,4.509,0,0,1,.592-.141c-.338-.254-.7-.507-1.043-.733a.451.451,0,0,0-.592.141,70.889,70.889,0,0,0-6.708,12.486c-.141.536.676.761.874.254Z" transform="translate(-1390.342 -731.272)" fill="#e8e8e8"/>
        </g>
      </g>
      <g id="Group_1642" data-name="Group 1642" transform="translate(344.274 47.802)">
        <g id="Group_1641" data-name="Group 1641">
          <path id="Path_945" data-name="Path 945" d="M1369.848,750.82c-3.72,17.221-9.386,33.991-12.063,51.409-.085.536.733.761.818.225,2.677-17.446,8.343-34.217,12.063-51.409.113-.536-.7-.761-.818-.225Z" transform="translate(-1357.778 -750.514)" fill="#e8e8e8"/>
        </g>
      </g>
      <g id="Group_1644" data-name="Group 1644" transform="translate(354.656 42.926)">
        <g id="Group_1643" data-name="Group 1643">
          <path id="Path_946" data-name="Path 946" d="M1414.705,733.52c-2.9,17.7-11.528,33.625-20.039,49.155-.254.479.479.9.733.423,8.54-15.615,17.193-31.6,20.124-49.352.084-.536-.733-.761-.817-.225Z" transform="translate(-1394.613 -733.214)" fill="#e8e8e8"/>
        </g>
      </g>
      <g id="Group_1646" data-name="Group 1646" transform="translate(344.713 68.209)">
        <g id="Group_1645" data-name="Group 1645">
          <path id="Path_947" data-name="Path 947" d="M1359.409,823.531a26.031,26.031,0,0,1,3.889,10.2c.085.536.9.31.818-.225a26.181,26.181,0,0,0-3.974-10.4c-.31-.451-1.043-.028-.733.423Z" transform="translate(-1359.334 -822.916)" fill="#e8e8e8"/>
        </g>
      </g>
      <g id="Group_1648" data-name="Group 1648" transform="translate(349.899 60.204)">
        <g id="Group_1647" data-name="Group 1647">
          <path id="Path_948" data-name="Path 948" d="M1378.542,808.266c2.847-4.369,5.693-8.766,8.54-13.134.31-.451-.423-.874-.733-.423-2.847,4.369-5.693,8.765-8.54,13.134-.31.451.423.874.733.423Z" transform="translate(-1377.734 -794.516)" fill="#e8e8e8"/>
        </g>
      </g>
      <g id="Group_1650" data-name="Group 1650" transform="translate(362.019 58.678)">
        <g id="Group_1649" data-name="Group 1649">
          <path id="Path_949" data-name="Path 949" d="M1420.754,789.523A100.667,100.667,0,0,0,1421.966,807c.085.536.9.31.818-.226a98.265,98.265,0,0,1-1.184-17.249c.028-.564-.817-.564-.846,0Z" transform="translate(-1420.737 -789.1)" fill="#e8e8e8"/>
        </g>
      </g>
      <g id="Group_1652" data-name="Group 1652" transform="translate(369.489 54.727)">
        <g id="Group_1651" data-name="Group 1651">
          <path id="Path_950" data-name="Path 950" d="M1447.96,783.121c2.311-2.339,4.566-4.791,6.708-7.3.338-.423-.254-1.015-.592-.592-2.142,2.509-4.368,4.932-6.708,7.3a.419.419,0,1,0,.592.592Z" transform="translate(-1447.238 -775.084)" fill="#e8e8e8"/>
        </g>
      </g>
      <g id="Group_1654" data-name="Group 1654" transform="translate(19.618 30.88)">
        <g id="Group_1653" data-name="Group 1653">
          <path id="Path_951" data-name="Path 951" d="M222.163,748.965a29.528,29.528,0,0,1-11.838-18.4c-.085.169-.2.338-.282.507a1.739,1.739,0,0,1,1.8.479c.366.366.846-.085.676-.507a66.845,66.845,0,0,1-5.75-26.86,4.8,4.8,0,0,1-.31.395c.282.141.592.31.874.451a.427.427,0,0,0,.789-.225l-.592-7.356c-.169-2.17-.423-4.453.986-6.285a4.493,4.493,0,0,1-.592.141c1.973,1.409,3.129,3.692,4.284,5.75,1.127,2.029,2.2,4.115,3.213,6.2a106.523,106.523,0,0,1,5.412,13.585,112.934,112.934,0,0,1,5.327,28.016c.028.535.874.535.846,0a114.726,114.726,0,0,0-5.665-29.2,110.275,110.275,0,0,0-5.524-13.5c-1.1-2.255-2.255-4.453-3.495-6.623a14.571,14.571,0,0,0-3.974-4.989.451.451,0,0,0-.592.141c-1.268,1.663-1.3,3.749-1.184,5.778.2,2.762.451,5.524.676,8.315.254-.085.536-.141.789-.225a1.629,1.629,0,0,0-1.832-.846.423.423,0,0,0-.31.395,68.376,68.376,0,0,0,5.862,27.283l.676-.507a2.49,2.49,0,0,0-2.621-.7.4.4,0,0,0-.282.507,30.467,30.467,0,0,0,12.2,18.912c.451.423.874-.31.423-.62Z" transform="translate(-205.9 -690.474)" fill="#e8e8e8"/>
        </g>
      </g>
      <g id="Group_1656" data-name="Group 1656" transform="translate(31.806 20.981)">
        <g id="Group_1655" data-name="Group 1655">
          <path id="Path_952" data-name="Path 952" d="M250.682,685.186a46.672,46.672,0,0,1-.535-4.82c-.085-1.494-.507-3.72.62-4.9a2.849,2.849,0,0,0,1.1-1.945c.2-1.578.2-3.185.366-4.763a95.232,95.232,0,0,1,1.494-9.78,8.159,8.159,0,0,1,.451-2.029c.676-1.1,1.719.056,2.255.592a14.241,14.241,0,0,1,2.368,3.269c2.706,4.961,3.439,11.077,4.171,16.6a116.544,116.544,0,0,1,.986,18.546,64.759,64.759,0,0,1-3.551,20.716c-.2.507.62.733.817.225,4.707-12.993,4.284-27.734,2.339-41.206-.817-5.722-1.691-12.232-5.158-17.08-.761-1.043-3.072-4.369-4.566-2.875-.789.761-.846,2.537-1.043,3.523-.366,1.86-.7,3.721-.958,5.609-.254,1.832-.451,3.664-.62,5.5a22.2,22.2,0,0,1-.225,3.072c-.225.93-.9,1.212-1.353,1.945-.733,1.127-.451,2.9-.395,4.171a51.217,51.217,0,0,0,.62,5.834c.085.564.9.338.817-.2Z" transform="translate(-249.144 -655.353)" fill="#e8e8e8"/>
        </g>
      </g>
      <g id="Group_1658" data-name="Group 1658" transform="translate(36.738 21.469)">
        <g id="Group_1657" data-name="Group 1657">
          <path id="Path_953" data-name="Path 953" d="M266.659,657.6a148.537,148.537,0,0,1,3.749,53.918c-.056.536.789.536.846,0a149.733,149.733,0,0,0-3.777-54.143.425.425,0,0,0-.817.226Z" transform="translate(-266.642 -657.085)" fill="#e8e8e8"/>
        </g>
      </g>
      <g id="Group_1660" data-name="Group 1660" transform="translate(21.016 31.024)">
        <g id="Group_1659" data-name="Group 1659">
          <path id="Path_954" data-name="Path 954" d="M210.9,691.5a323.923,323.923,0,0,1,15.474,52.227c.113.536.93.31.817-.225a321.094,321.094,0,0,0-15.474-52.227c-.225-.507-1.043-.282-.817.226Z" transform="translate(-210.862 -690.985)" fill="#e8e8e8"/>
        </g>
      </g>
      <g id="Group_1662" data-name="Group 1662" transform="translate(20.89 56.654)">
        <g id="Group_1661" data-name="Group 1661">
          <path id="Path_955" data-name="Path 955" d="M210.72,782.731a17.793,17.793,0,0,1,10.795,8.54c.254.479.986.056.733-.423a18.8,18.8,0,0,0-11.3-8.906.41.41,0,1,0-.225.789Z" transform="translate(-210.414 -781.919)" fill="#e8e8e8"/>
        </g>
      </g>
      <g id="Group_1664" data-name="Group 1664" transform="translate(30.097 46.128)">
        <g id="Group_1663" data-name="Group 1663">
          <path id="Path_956" data-name="Path 956" d="M243.537,744.977a67.91,67.91,0,0,0-.254,13.106c.028.536.874.536.846,0a67.913,67.913,0,0,1,.254-13.106c.056-.536-.789-.536-.846,0Z" transform="translate(-243.08 -744.575)" fill="#e8e8e8"/>
        </g>
      </g>
      <g id="Group_1666" data-name="Group 1666" transform="translate(33.466 40.277)">
        <g id="Group_1665" data-name="Group 1665">
          <path id="Path_957" data-name="Path 957" d="M255.109,724.432a42.769,42.769,0,0,1,7.864,16.883c.113.536.93.31.817-.226a43.352,43.352,0,0,0-7.948-17.08c-.31-.451-1.043-.028-.733.423Z" transform="translate(-255.034 -723.816)" fill="#e8e8e8"/>
        </g>
      </g>
      <g id="Group_1668" data-name="Group 1668" transform="translate(40.412 30.523)">
        <g id="Group_1667" data-name="Group 1667">
          <path id="Path_958" data-name="Path 958" d="M282.616,689.431a41.248,41.248,0,0,0-2.931,10.175c-.085.536.733.761.817.225a39.949,39.949,0,0,1,2.847-9.977c.225-.479-.507-.93-.733-.423Z" transform="translate(-279.678 -689.208)" fill="#e8e8e8"/>
        </g>
      </g>
      <g id="Group_1670" data-name="Group 1670" transform="translate(5.831 106.117)">
        <g id="Group_1669" data-name="Group 1669">
          <path id="Path_959" data-name="Path 959" d="M157.5,960.821c15.276-5.383,31.567-1.1,46.9,1.635a406.219,406.219,0,0,0,49.493,5.693q14.078.761,28.185.507a.423.423,0,0,0,0-.846,407.254,407.254,0,0,1-50.761-2.339q-12.852-1.4-25.592-3.636c-7.582-1.325-15.135-2.959-22.773-3.861-8.6-.987-17.418-.874-25.677,2.029-.507.2-.282,1.015.225.817Z" transform="translate(-156.985 -957.415)" fill="#e8e8e8"/>
        </g>
      </g>
      <g id="Group_1672" data-name="Group 1672" transform="translate(94.567 106.423)">
        <g id="Group_1671" data-name="Group 1671">
          <path id="Path_960" data-name="Path 960" d="M472.124,960.894c25.282,6.2,51.466,4.566,77.114,2.2,13.191-1.212,26.353-2.649,39.572-3.354a260.544,260.544,0,0,1,39.515.817,428.554,428.554,0,0,1,45.491,7.469c.535.113.761-.7.225-.817-26.156-5.5-52.565-9.527-79.341-8.568-26.212.93-52.2,5.242-78.439,5.722-14.741.282-29.538-.761-43.884-4.284a.428.428,0,0,0-.254.817Z" transform="translate(-471.82 -958.498)" fill="#e8e8e8"/>
        </g>
      </g>
      <g id="Group_1674" data-name="Group 1674" transform="translate(204.791 122.078)">
        <g id="Group_1673" data-name="Group 1673" transform="translate(0)">
          <path id="Path_961" data-name="Path 961" d="M863.429,1018.681c20.744-4.284,41.855-.225,62.514,2.509a240.08,240.08,0,0,0,61.81.536,231.253,231.253,0,0,0,33.653-6.849.424.424,0,0,0-.226-.817,230.1,230.1,0,0,1-61.471,8.653,239.54,239.54,0,0,1-30.806-1.973c-10.457-1.325-20.857-3.044-31.342-4.03-11.471-1.071-23.055-1.184-34.386,1.184-.507.084-.282.9.254.789Z" transform="translate(-862.891 -1014.042)" fill="#e8e8e8"/>
        </g>
      </g>
      <g id="Group_1676" data-name="Group 1676" transform="translate(298.081 97.327)">
        <g id="Group_1675" data-name="Group 1675">
          <path id="Path_962" data-name="Path 962" d="M1194.171,934.028c10.541,3.918,21.872,1.607,32.441-.93,11.7-2.79,23.338-5.1,35.372-5.778a170.279,170.279,0,0,1,20.068.113c.536.028.536-.817,0-.845a166.957,166.957,0,0,0-34.78,1.353c-5.75.845-11.443,2.029-17.08,3.41a151.412,151.412,0,0,1-17,3.495c-6.342.789-12.768.592-18.8-1.663-.507-.141-.733.676-.225.846Z" transform="translate(-1193.885 -926.229)" fill="#e8e8e8"/>
        </g>
      </g>
      <g id="Group_1678" data-name="Group 1678" transform="translate(285.812 14.572)">
        <g id="Group_1677" data-name="Group 1677">
          <path id="Path_963" data-name="Path 963" d="M1154.37,632.92c-.818,2.537-1.663,5.045-2.48,7.582a3.3,3.3,0,0,0-.2,1.945c.282.9,1.24,1.437,1.268,2.452a6.519,6.519,0,0,1,.536-.395c-3.326-.987-3.213,4.312-3.1,6.172a21.411,21.411,0,0,0,3.354,10.344c.282.451,1.015.028.733-.423a20.757,20.757,0,0,1-2.9-7.187c-.282-1.381-1.268-8.991,1.691-8.117a.428.428,0,0,0,.536-.395,2.614,2.614,0,0,0-.648-1.663,2.9,2.9,0,0,1-.282-3.016c.761-2.368,1.55-4.707,2.311-7.074a.424.424,0,0,0-.817-.225Z" transform="translate(-1150.355 -632.614)" fill="#e8e8e8"/>
        </g>
      </g>
      <g id="Group_1680" data-name="Group 1680" transform="translate(289.979 14.256)">
        <g id="Group_1679" data-name="Group 1679">
          <path id="Path_964" data-name="Path 964" d="M1165.269,632.227c3.185,3.241,3.974,8.512,4.228,12.852a36.3,36.3,0,0,1-1.888,13.783c-.169.507.648.733.817.225a36.745,36.745,0,0,0,1.86-15.023c-.366-4.312-1.268-9.245-4.4-12.458-.423-.366-1.015.225-.62.62Z" transform="translate(-1165.14 -631.492)" fill="#e8e8e8"/>
        </g>
      </g>
      <g id="Group_1682" data-name="Group 1682" transform="translate(294.354)">
        <g id="Group_1681" data-name="Group 1681">
          <path id="Path_965" data-name="Path 965" d="M1181.462,608.445a55.077,55.077,0,0,1,2.847-11.02c-.2.085-.423.169-.62.254.592.395,1.184.817,1.776,1.212a.432.432,0,0,0,.648-.366c.254-6.285,5.158-11.1,6.483-17.08h-.818a56.928,56.928,0,0,1-7.92,39.4c-.282.451.451.874.733.423a57.934,57.934,0,0,0,8-40.051c-.056-.423-.733-.395-.818,0-1.353,6.088-6.257,10.908-6.511,17.306.226-.113.423-.254.648-.366-.592-.395-1.184-.817-1.776-1.212a.429.429,0,0,0-.62.254,55.073,55.073,0,0,0-2.847,11.02c-.113.536.7.761.789.226Z" transform="translate(-1180.662 -580.912)" fill="#e8e8e8"/>
        </g>
      </g>
      <g id="Group_1684" data-name="Group 1684" transform="translate(297.027 1.867)">
        <g id="Group_1683" data-name="Group 1683">
          <path id="Path_966" data-name="Path 966" d="M1198.5,587.95a84.42,84.42,0,0,1-8.315,29.9c-.225.479.479.9.733.423a85.774,85.774,0,0,0,8.427-30.327c.028-.564-.818-.536-.846,0Z" transform="translate(-1190.144 -587.537)" fill="#e8e8e8"/>
        </g>
      </g>
      <g id="Group_1686" data-name="Group 1686" transform="translate(289.712 15.136)">
        <g id="Group_1685" data-name="Group 1685">
          <path id="Path_967" data-name="Path 967" d="M1164.193,635.145c1.155,8.4,2.255,16.967.479,25.338-.113.536.7.761.817.225,1.832-8.54.7-17.249-.479-25.789-.056-.536-.874-.31-.817.225Z" transform="translate(-1164.19 -634.614)" fill="#e8e8e8"/>
        </g>
      </g>
      <g id="Group_1688" data-name="Group 1688" transform="translate(248.356 42.893)">
        <g id="Group_1687" data-name="Group 1687">
          <path id="Path_968" data-name="Path 968" d="M1017.867,734.112a40.77,40.77,0,0,1,12.937,1.015c3.579.874,7.131,2.678,10.879,2.114,3.861-.592,7.1-3.157,11.077-3.3,3.833-.141,7.61,1.184,11.387.085a.424.424,0,0,0-.225-.817c-3.946,1.127-7.92-.423-11.894-.056-3.608.338-6.623,2.509-10.118,3.213-4.03.789-8.033-1.409-11.922-2.255a40.944,40.944,0,0,0-12.148-.789c-.507-.028-.507.817.028.789Z" transform="translate(-1017.462 -733.096)" fill="#e8e8e8"/>
        </g>
      </g>
      <g id="Group_1690" data-name="Group 1690" transform="translate(0 82.703)">
        <g id="Group_1689" data-name="Group 1689">
          <path id="Path_969" data-name="Path 969" d="M136.439,875.063c7.779,7.272,19.053-.592,27.988,2.311.507.169.733-.648.225-.817-4.763-1.55-9.639-.338-14.431.395-4.481.676-9.639.789-13.191-2.508-.395-.338-1.015.254-.592.62Z" transform="translate(-136.297 -874.343)" fill="#e8e8e8"/>
        </g>
      </g>
    </g>
    <g id="mat" transform="translate(180.295 190.233)">
      <path id="Path_970" data-name="Path 970" d="M583.917,793.11c-45.913,2.9-94.392,4.679-145.237,4.932-51.212.254-100.057-1.071-146.28-3.523q6.807-11.965,13.7-23.845c3.692-6.4,7.441-12.768,11.189-19.109,39.741,2.255,82.695,3.157,128.439,2.029,43.095-1.071,83.625-3.833,121.252-7.694a92.609,92.609,0,0,1,10.739,19.786A93.806,93.806,0,0,1,583.917,793.11Z" transform="translate(-292.4 -695.171)" fill="#fff" stroke="#161616" stroke-width="3"/>
      <g id="Group_1692" data-name="Group 1692" transform="translate(20.878 92.75)">
        <g id="Group_1691" data-name="Group 1691">
          <path id="Path_971" data-name="Path 971" d="M366.877,895.839a328.28,328.28,0,0,0,48.253,1.606c.535-.028.535-.874,0-.845a328.54,328.54,0,0,1-48.253-1.607c-.536-.056-.536.789,0,.846Z" transform="translate(-366.475 -894.99)" fill="#161616"/>
        </g>
      </g>
      <g id="Group_1694" data-name="Group 1694" transform="translate(49.373 88.694)">
        <g id="Group_1693" data-name="Group 1693">
          <path id="Path_972" data-name="Path 972" d="M467.977,881.444c7.807.31,15.643.113,23.45.113,7.92-.028,15.812-.028,23.732-.056a.423.423,0,0,0,0-.846c-7.92.028-15.812.028-23.732.056-7.807.028-15.643.2-23.45-.113-.536-.028-.536.817,0,.846Z" transform="translate(-467.575 -880.598)" fill="#161616"/>
        </g>
      </g>
      <g id="Group_1696" data-name="Group 1696" transform="translate(153.573 81.223)">
        <g id="Group_1695" data-name="Group 1695">
          <path id="Path_973" data-name="Path 973" d="M837.677,860.35q35.809-2.283,71.562-5.412c.536-.056.536-.9,0-.845q-35.725,3.128-71.562,5.411c-.536.028-.536.874,0,.846Z" transform="translate(-837.275 -854.09)" fill="#161616"/>
        </g>
      </g>
      <g id="Group_1698" data-name="Group 1698" transform="translate(215.805 68.596)">
        <g id="Group_1697" data-name="Group 1697" transform="translate(0)">
          <path id="Path_974" data-name="Path 974" d="M1058.477,813.69q27.734-1.014,55.384-3.551c.535-.056.535-.9,0-.846q-27.649,2.537-55.384,3.551a.423.423,0,0,0,0,.845Z" transform="translate(-1058.075 -809.29)" fill="#161616"/>
        </g>
      </g>
      <g id="Group_1700" data-name="Group 1700" transform="translate(231.984 88.186)">
        <g id="Group_1699" data-name="Group 1699">
          <path id="Path_975" data-name="Path 975" d="M1115.877,881.7q23.295-1.015,46.59-2.057c.536-.028.536-.874,0-.846q-23.295,1.015-46.59,2.057c-.536.028-.536.874,0,.846Z" transform="translate(-1115.475 -878.798)" fill="#161616"/>
        </g>
      </g>
      <path id="Path_976" data-name="Path 976" d="M389.9,759.956c.7,1.325,1.409,2.649,2.142,4a7.9,7.9,0,0,0,5.609,1.212,7.419,7.419,0,0,0,2.649-1.015l2.368-4.143a21.139,21.139,0,0,0-12.768-.056Z" transform="translate(-362.42 -704.576)" fill="#fff" stroke="#161616" stroke-width="3"/>
      <g id="Group_1702" data-name="Group 1702" transform="translate(27.767 55.063)">
        <g id="Group_1701" data-name="Group 1701">
          <path id="Path_977" data-name="Path 977" d="M391.109,762.071c2.537,1.578,6.173,1.212,9.019,1.043.536-.028.536-.874,0-.845-2.678.141-6.2.564-8.6-.93-.451-.282-.874.451-.423.733Z" transform="translate(-390.916 -761.275)" fill="#161616"/>
        </g>
      </g>
      <g id="Group_1704" data-name="Group 1704" transform="translate(21.362 36.343)">
        <g id="Group_1703" data-name="Group 1703">
          <path id="Path_978" data-name="Path 978" d="M368.222,695.376q3.594,9.3,7.159,18.6c.2.507,1.015.282.817-.226q-3.594-9.3-7.159-18.6c-.2-.507-1.015-.31-.817.225Z" transform="translate(-368.192 -694.857)" fill="#161616"/>
        </g>
      </g>
      <g id="Group_1706" data-name="Group 1706" transform="translate(24.989 36.471)">
        <g id="Group_1705" data-name="Group 1705">
          <path id="Path_979" data-name="Path 979" d="M381.073,695.845q1.86,9.512,4.369,18.912a.424.424,0,0,0,.817-.226q-2.537-9.386-4.369-18.912c-.113-.536-.93-.31-.817.225Z" transform="translate(-381.062 -695.314)" fill="#161616"/>
        </g>
      </g>
      <g id="Group_1708" data-name="Group 1708" transform="translate(17.543)">
        <g id="Group_1707" data-name="Group 1707">
          <path id="Path_980" data-name="Path 980" d="M358.661,599.619c-.423-1.353.7-2.621.395-4.03-.366-1.494-1.832-2.114-1.663-3.833.113-1.184.7-2.311.507-3.523a7.018,7.018,0,0,0-.958-1.888,3.5,3.5,0,0,1,0-2.509,5.206,5.206,0,0,0,.2-3.072,4.345,4.345,0,0,0-.93-1.212,3.28,3.28,0,0,1-.479-3.016,23.6,23.6,0,0,0-.254-10.316.424.424,0,0,0-.817.225,21.633,21.633,0,0,1,.733,6c-.056,1.719-.507,3.326-.648,5.017a3.462,3.462,0,0,0,1.184,2.959c1.1,1.325.169,2.847-.028,4.34a3.684,3.684,0,0,0,.085,1.466c.225.789.93,1.325,1.071,2.17.225,1.353-.62,2.677-.535,4.03.113,1.466,1.635,2.227,1.747,3.636.113,1.325-.846,2.4-.423,3.777.169.507.986.282.817-.225Z" transform="translate(-354.642 -565.914)" fill="#e8e8e8"/>
        </g>
      </g>
      <g id="Group_1710" data-name="Group 1710" transform="translate(23.391 6.847)">
        <g id="Group_1709" data-name="Group 1709">
          <path id="Path_981" data-name="Path 981" d="M377.649,616.418c-.874-.817.226-1.663-.085-2.621-.169-.536-.733-.93-.761-1.522a9,9,0,0,1,.423-1.663c.141-1.015-.395-1.494-.648-2.424-.338-1.268.423-2.678.648-3.918a4.821,4.821,0,0,0-.254-2.678,4.784,4.784,0,0,1-.507-2.142,13.854,13.854,0,0,1,.479-1.86c.564-2.255-1.437-4.651-.479-6.736.225-.479-.507-.93-.733-.423-1.127,2.4.958,4.679.338,7.159-.31,1.24-.676,2.142-.254,3.41a7.164,7.164,0,0,1,.648,2.17,6.968,6.968,0,0,1-.423,2.283,5.9,5.9,0,0,0-.282,2.959c.225.817.761,1.437.564,2.339a7.313,7.313,0,0,0-.338,1.353,1.929,1.929,0,0,0,.254,1.184c.113.2.451.507.479.648a2.325,2.325,0,0,1-.2.874,2.015,2.015,0,0,0,.536,2.17c.395.395.986-.2.592-.564Z" transform="translate(-375.392 -590.208)" fill="#e8e8e8"/>
        </g>
      </g>
    </g>
    <g id="background" transform="translate(167.665 42.791)">
      <g id="Group_1712" data-name="Group 1712">
        <g id="Group_1711" data-name="Group 1711">
          <path id="Path_982" data-name="Path 982" d="M247.876,95.81c5.581,1.747,11.5,1.635,17.277,1.522,5.524-.113,11.02-.479,16.488-1.043a209.717,209.717,0,0,0,32.3-6.06,253.954,253.954,0,0,0,61.19-25.761,302.1,302.1,0,0,0,31.314-20.857c.423-.338,0-1.071-.423-.733a288.3,288.3,0,0,1-56.455,33.737,227.1,227.1,0,0,1-63.388,18.292c-6,.789-12.063,1.3-18.123,1.494-6.6.225-13.557.592-19.927-1.409a.428.428,0,0,0-.254.817Z" transform="translate(-247.591 -42.791)" fill="#e8e8e8"/>
        </g>
      </g>
      <g id="Group_1714" data-name="Group 1714" transform="translate(146.11 9.132)">
        <g id="Group_1713" data-name="Group 1713">
          <path id="Path_983" data-name="Path 983" d="M766.131,75.9c7.525,6.511,16.4,11.161,25.536,15.023a216.022,216.022,0,0,0,30.271,10.231,222.41,222.41,0,0,0,62.627,7.018c12.007-.366,24.549-1.184,36.021-5.017.507-.169.282-.986-.225-.817-10.2,3.439-21.223,4.312-31.905,4.848a218.859,218.859,0,0,1-31-.676A220.467,220.467,0,0,1,796.628,92.02C786,87.82,775.489,82.832,766.78,75.306c-.479-.366-1.071.225-.648.592Z" transform="translate(-765.987 -75.191)" fill="#e8e8e8"/>
        </g>
      </g>
      <g id="Group_1716" data-name="Group 1716" transform="translate(33.04 3.586)">
        <g id="Group_1715" data-name="Group 1715">
          <path id="Path_984" data-name="Path 984" d="M365.009,76.169c10.344,5.975,22.661,7.441,34.329,8.681a242.716,242.716,0,0,0,36.218,1.071A248.942,248.942,0,0,0,505.68,72.533,246.524,246.524,0,0,0,542.518,56.3c.479-.254.056-.986-.423-.733a245.476,245.476,0,0,1-66.347,24.408,246.545,246.545,0,0,1-70.773,4.566,200.119,200.119,0,0,1-20.068-2.508c-6.793-1.24-13.472-3.1-19.476-6.567-.451-.282-.874.451-.423.7Z" transform="translate(-364.816 -55.513)" fill="#e8e8e8"/>
        </g>
      </g>
      <g id="Group_1718" data-name="Group 1718" transform="translate(67.956 42.111)">
        <g id="Group_1717" data-name="Group 1717" transform="translate(0 0)">
          <path id="Path_985" data-name="Path 985" d="M488.7,192.623v10.513a.423.423,0,0,0,.846,0V192.623a.423.423,0,1,0-.846,0Z" transform="translate(-488.7 -192.2)" fill="#161616"/>
        </g>
      </g>
      <g id="Group_1720" data-name="Group 1720" transform="translate(68.21 59.568)">
        <g id="Group_1719" data-name="Group 1719">
          <path id="Path_986" data-name="Path 986" d="M489.6,254.549v12.317a.423.423,0,0,0,.846,0V254.549a.423.423,0,0,0-.846,0Z" transform="translate(-489.6 -254.137)" fill="#161616"/>
        </g>
      </g>
      <g id="Group_1722" data-name="Group 1722" transform="translate(82.584 71.113)">
        <g id="Group_1721" data-name="Group 1721">
          <path id="Path_987" data-name="Path 987" d="M540.6,295.523v15.389a.423.423,0,0,0,.846,0V295.523a.423.423,0,1,0-.846,0Z" transform="translate(-540.6 -295.1)" fill="#161616"/>
        </g>
      </g>
      <g id="Group_1724" data-name="Group 1724" transform="translate(82.077 98.84)">
        <g id="Group_1723" data-name="Group 1723">
          <path id="Path_988" data-name="Path 988" d="M538.8,393.877v7.441a.423.423,0,0,0,.846,0v-7.441a.423.423,0,0,0-.846,0Z" transform="translate(-538.8 -393.475)" fill="#161616"/>
        </g>
      </g>
      <g id="Group_1726" data-name="Group 1726" transform="translate(111.333 23.135)">
        <g id="Group_1725" data-name="Group 1725">
          <path id="Path_989" data-name="Path 989" d="M642.6,125.277V138.89a.423.423,0,0,0,.846,0V125.277a.423.423,0,0,0-.846,0Z" transform="translate(-642.6 -124.875)" fill="#161616"/>
        </g>
      </g>
      <g id="Group_1728" data-name="Group 1728" transform="translate(111.333 41.597)">
        <g id="Group_1727" data-name="Group 1727" transform="translate(0 0)">
          <path id="Path_990" data-name="Path 990" d="M642.6,190.777v10.259a.423.423,0,0,0,.846,0V190.777a.423.423,0,0,0-.846,0Z" transform="translate(-642.6 -190.375)" fill="#161616"/>
        </g>
      </g>
      <g id="Group_1730" data-name="Group 1730" transform="translate(232.444 28.265)">
        <g id="Group_1729" data-name="Group 1729">
          <path id="Path_991" data-name="Path 991" d="M1072.3,143.477v17.7a.423.423,0,0,0,.846,0v-17.7a.423.423,0,0,0-.846,0Z" transform="translate(-1072.3 -143.075)" fill="#161616"/>
        </g>
      </g>
      <g id="Group_1732" data-name="Group 1732" transform="translate(232.19 52.899)">
        <g id="Group_1731" data-name="Group 1731">
          <path id="Path_992" data-name="Path 992" d="M1071.4,230.877v9.245a.423.423,0,0,0,.846,0v-9.245a.423.423,0,0,0-.846,0Z" transform="translate(-1071.4 -230.475)" fill="#161616"/>
        </g>
      </g>
      <g id="Group_1734" data-name="Group 1734" transform="translate(181.88 17.995)">
        <g id="Group_1733" data-name="Group 1733">
          <path id="Path_993" data-name="Path 993" d="M892.9,107.05v11.3a.423.423,0,0,0,.846,0v-11.3a.423.423,0,0,0-.846,0Z" transform="translate(-892.9 -106.637)" fill="#161616"/>
        </g>
      </g>
      <g id="Group_1736" data-name="Group 1736" transform="translate(182.162 40.075)">
        <g id="Group_1735" data-name="Group 1735">
          <path id="Path_994" data-name="Path 994" d="M893.9,185.377v10.259a.423.423,0,0,0,.846,0V185.377a.423.423,0,0,0-.846,0Z" transform="translate(-893.9 -184.975)" fill="#161616"/>
        </g>
      </g>
      <g id="Group_1738" data-name="Group 1738" transform="translate(260.685 58.536)">
        <g id="Group_1737" data-name="Group 1737" transform="translate(0 0)">
          <path id="Path_995" data-name="Path 995" d="M1172.5,250.877v10.006a.423.423,0,0,0,.845,0V250.877a.423.423,0,0,0-.845,0Z" transform="translate(-1172.5 -250.475)" fill="#161616"/>
        </g>
      </g>
      <g id="Group_1740" data-name="Group 1740" transform="translate(260.939 75.475)">
        <g id="Group_1739" data-name="Group 1739">
          <path id="Path_996" data-name="Path 996" d="M1173.4,310.977v7.948a.423.423,0,0,0,.846,0v-7.948a.423.423,0,0,0-.846,0Z" transform="translate(-1173.4 -310.575)" fill="#161616"/>
        </g>
      </g>
      <circle id="Ellipse_1346" data-name="Ellipse 1346" cx="4.679" cy="4.679" r="4.679" transform="translate(63.926 52.258)" fill="#7c7c7c"/>
      <circle id="Ellipse_1347" data-name="Ellipse 1347" cx="3.213" cy="3.213" r="3.213" transform="translate(79.512 105.724)" fill="#7c7c7c"/>
      <circle id="Ellipse_1348" data-name="Ellipse 1348" cx="1.522" cy="1.522" r="1.522" transform="translate(110.6 55.217)" fill="#7c7c7c"/>
      <circle id="Ellipse_1349" data-name="Ellipse 1349" cx="2.142" cy="2.142" r="2.142" transform="translate(181.232 58.261)" fill="#7c7c7c"/>
      <circle id="Ellipse_1350" data-name="Ellipse 1350" cx="1.973" cy="1.973" r="1.973" transform="translate(181.26 32.021)" fill="#7c7c7c"/>
      <circle id="Ellipse_1351" data-name="Ellipse 1351" cx="2.198" cy="2.198" r="2.198" transform="translate(80.245 92.731)" fill="#2d2d2d"/>
      <circle id="Ellipse_1352" data-name="Ellipse 1352" cx="2.17" cy="2.17" r="2.17" transform="translate(109.304 20.127)" fill="#2d2d2d"/>
      <circle id="Ellipse_1353" data-name="Ellipse 1353" cx="2.17" cy="2.17" r="2.17" transform="translate(109.304 39.321)" fill="#2d2d2d"/>
      <circle id="Ellipse_1354" data-name="Ellipse 1354" cx="1.071" cy="1.071" r="1.071" transform="translate(181.232 52.286)" fill="#2d2d2d"/>
      <circle id="Ellipse_1355" data-name="Ellipse 1355" cx="4.481" cy="4.481" r="4.481" transform="translate(228.414 62.545)" fill="#2d2d2d"/>
      <circle id="Ellipse_1356" data-name="Ellipse 1356" cx="2.142" cy="2.142" r="2.142" transform="translate(259.699 88.25)" fill="#2d2d2d"/>
      <circle id="Ellipse_1357" data-name="Ellipse 1357" cx="1.973" cy="1.973" r="1.973" transform="translate(230.894 32.021)" fill="#2d2d2d"/>
      <circle id="Ellipse_1358" data-name="Ellipse 1358" cx="1.522" cy="1.522" r="1.522" transform="translate(231.373 41.012)" fill="#7c7c7c"/>
      <circle id="Ellipse_1359" data-name="Ellipse 1359" cx="1.522" cy="1.522" r="1.522" transform="translate(259.84 70.183)" fill="#7c7c7c"/>
      <g id="Group_1742" data-name="Group 1742" transform="translate(41.084 93.411)">
        <g id="Group_1741" data-name="Group 1741">
          <path id="Path_997" data-name="Path 997" d="M399.881,374.4c-1.325,2.086-2.649,4.143-3.974,6.229a15.411,15.411,0,0,0-2.452,5.3c-.592,3.354,1.663,5.609,3.579,8.033,1.1,1.381,2.114,2.959,1.635,4.763-.423,1.635-1.776,3.044-1.578,4.848a5.667,5.667,0,0,0,.817,2,10.77,10.77,0,0,1,1.1,3.579,10.416,10.416,0,0,1-1.494,6.6.423.423,0,0,0,.733.423,11.291,11.291,0,0,0,.789-10.259c-.507-1.184-1.353-2.142-.986-3.551a21.754,21.754,0,0,1,1.156-2.621,5,5,0,0,0,.028-3.974c-1.268-2.988-4.791-4.932-5.017-8.4-.141-2.339,1.24-4.481,2.424-6.37,1.325-2.086,2.649-4.171,3.974-6.229.282-.395-.451-.817-.733-.366Z" transform="translate(-393.359 -374.21)" fill="#e8e8e8"/>
        </g>
      </g>
      <g id="Group_1744" data-name="Group 1744" transform="translate(96.812 125.408)">
        <g id="Group_1743" data-name="Group 1743">
          <path id="Path_998" data-name="Path 998" d="M593.93,487.868a9.87,9.87,0,0,0-2.79,8.033,11.559,11.559,0,0,0,1.522,4.228,6.292,6.292,0,0,1,.507,5.862,8.521,8.521,0,0,0-.986,4.03c.169,1.607,1.409,2.452,2.17,3.777,1.607,2.875-1.635,5.891-.874,8.963a.424.424,0,0,0,.817-.225c-.7-2.762,1.945-5.214,1.268-8-.338-1.353-1.437-2.2-2.114-3.354-.958-1.635-.056-3.354.536-4.961a6.857,6.857,0,0,0,.536-3.89c-.366-1.663-1.494-3.016-2.086-4.594a8.959,8.959,0,0,1,2.086-9.273.419.419,0,0,0-.592-.592Z" transform="translate(-591.077 -487.738)" fill="#e8e8e8"/>
        </g>
      </g>
      <g id="Group_1746" data-name="Group 1746" transform="translate(277.351 131.553)">
        <g id="Group_1745" data-name="Group 1745">
          <path id="Path_999" data-name="Path 999" d="M1236.919,509.669c-2.819,3.3-5.552,7.554-5.271,12.091a11.463,11.463,0,0,0,2.283,5.693c1.381,2.057,2.565,4,1.889,6.567-.9,3.354-4.228,6.708-3.072,10.4.7,2.255,2.959,3.495,3.495,5.862.62,2.819-.677,5.778-1.832,8.286-.226.479.507.93.733.423a19.392,19.392,0,0,0,2.058-6.567,7.667,7.667,0,0,0-1.917-5.637c-1.606-1.945-2.339-3.608-1.494-6.06.648-1.888,1.8-3.579,2.508-5.44a6.979,6.979,0,0,0,.113-5.327c-.761-1.86-2.17-3.3-3.072-5.073-2.537-5.073.874-10.767,4.171-14.6.366-.423-.225-1.015-.592-.62Z" transform="translate(-1231.629 -509.539)" fill="#e8e8e8"/>
        </g>
      </g>
      <g id="Group_1748" data-name="Group 1748" transform="translate(287.85 161.584)">
        <g id="Group_1747" data-name="Group 1747">
          <path id="Path_1000" data-name="Path 1000" d="M1271.591,616.205a8.559,8.559,0,0,0-2.65,5.186c-.31,2.4.592,4.059,1.55,6.144,1.184,2.565-1.127,4.876-.507,7.469.338,1.409,1.1,2.48,1.071,3.974a6.071,6.071,0,0,1-1.748,4.059c-.366.395.225.986.592.592a6.717,6.717,0,0,0,1.945-5.524c-.141-1.184-.789-2.2-1.043-3.354-.366-1.55.479-2.959.789-4.425.535-2.48-1.156-3.946-1.691-6.2a7.652,7.652,0,0,1,2.283-7.356c.423-.338-.169-.93-.592-.564Z" transform="translate(-1268.88 -616.09)" fill="#e8e8e8"/>
        </g>
      </g>
      <g id="Group_1750" data-name="Group 1750" transform="translate(209.47 82.88)">
        <g id="Group_1749" data-name="Group 1749">
          <path id="Path_1001" data-name="Path 1001" d="M993.5,337.061c-1.607,2.48-3.382,5.412-2.452,8.484.451,1.494,1.691,2.114,2.367,3.41.648,1.3.028,2.818-.423,4.059-.648,1.776-1.55,3.946.085,5.468.648.592,1.437.93,1.719,1.86a5.289,5.289,0,0,1-.113,2.4,12.618,12.618,0,0,0-.507,4.087c.056.536.9.536.846,0-.254-2.311,1.437-4.9.451-7.131-.564-1.3-2.311-1.663-2.48-3.129a7.719,7.719,0,0,1,.817-3.326c.7-1.945,1.212-3.889-.31-5.581-1.409-1.55-2.142-3.044-1.691-5.186a14.85,14.85,0,0,1,2.452-5.017c.282-.451-.451-.874-.761-.395Z" transform="translate(-990.789 -336.849)" fill="#e8e8e8"/>
        </g>
      </g>
      <g id="Group_1752" data-name="Group 1752" transform="translate(94.821 53.254)">
        <g id="Group_1751" data-name="Group 1751">
          <path id="Path_1002" data-name="Path 1002" d="M585.5,231.809a3.321,3.321,0,0,0-.789,4.82c1.043,1.409-.564,2.058-.254,3.382.113.479.507.761.733,1.184.564,1.043-.085,2.142-.62,3.072a.423.423,0,0,0,.733.423,5.3,5.3,0,0,0,.986-2.931,3.113,3.113,0,0,0-.423-1.212c-.141-.254-.31-.338-.423-.648-.141-.536.056-.648.31-1.156a1.951,1.951,0,0,0,.113-2.029c-.366-.676-.958-1.071-1.015-1.917a2.591,2.591,0,0,1,1.1-2.283c.423-.282,0-1.015-.451-.7Z" transform="translate(-584.015 -231.734)" fill="#2b2b2b"/>
        </g>
      </g>
      <g id="Group_1754" data-name="Group 1754" transform="translate(54.677 74.326)">
        <g id="Group_1753" data-name="Group 1753">
          <path id="Path_1003" data-name="Path 1003" d="M442.886,306.639a3.3,3.3,0,0,0-.93,2.029c-.056.9.676,1.832.282,2.649-.282.592-.592.817-.535,1.55.056.761,1.325,2.847.169,3.3-.507.2-.282,1.015.226.817,1.409-.535,1.127-2.029.733-3.185a2.471,2.471,0,0,1,.338-2.2,2.034,2.034,0,0,0,.254-.564c.056-.451-.2-.7-.366-1.071a2.345,2.345,0,0,1,.395-2.734c.395-.395-.226-1.015-.564-.592Z" transform="translate(-441.585 -306.497)" fill="#2b2b2b"/>
        </g>
      </g>
      <g id="Group_1756" data-name="Group 1756" transform="translate(269.504 83.227)">
        <g id="Group_1755" data-name="Group 1755">
          <path id="Path_1004" data-name="Path 1004" d="M1205.933,338.085a2.022,2.022,0,0,0-2.114,1.86c-.254,1.607,1.071,2.734,1.747,4.03a2.935,2.935,0,0,1,0,2.48c-.141.451-.31.31-.338.817a1.342,1.342,0,0,0,.423,1.043c.761.874,1.381,1.268,1.3,2.565a8.716,8.716,0,0,1-1.127,3.241c-.254.479.479.9.733.423a8.989,8.989,0,0,0,1.24-3.664,3.8,3.8,0,0,0-1.1-2.79.652.652,0,0,1-.282-.676.6.6,0,0,1,.113-.874c.056-.254.2-.451.254-.733a3.243,3.243,0,0,0-.226-1.776,7.61,7.61,0,0,0-.986-1.663,5.152,5.152,0,0,1-.817-1.494c-.225-.817,0-2.057,1.212-1.973.507.085.507-.761-.028-.817Z" transform="translate(-1203.787 -338.079)" fill="#2b2b2b"/>
        </g>
      </g>
    </g>
    <g id="girl_meditating" transform="translate(244.331 113.872)">
      <g id="leg_left" transform="translate(77.834 117.704)">
        <path id="Path_1005" data-name="Path 1005" d="M864.609,876.834a90.113,90.113,0,0,1-13.473,1.043q-2.663,38.769.789,39.318,2.917.465,10.2-26.212c6.68-1.663,13.388-3.326,20.068-4.989.676-6.539-.845-9.076-2.367-10.231C877.011,873.649,873.065,875.509,864.609,876.834Z" transform="translate(-834.692 -829.088)" fill="#161616" stroke="#161616" stroke-width="3"/>
        <path id="Path_1006" data-name="Path 1006" d="M798.417,714.543c-4.679,4.256-3.072,15.812,3.889,27.9a36.531,36.531,0,0,1,7.272-.113c1.268.113,5.242.507,15.389,4.2,2.114.789,5.045,1.888,8.54,3.382-2.734.733-5.468,1.466-8.23,2.2a72.618,72.618,0,0,0,1.888,11.049,73.738,73.738,0,0,0,7.159,18.01c6.342-1.86,11.528-3.692,15.276-5.045,8.991-3.3,13.754-5.665,18.32-8.85,4.876-3.41,7.441-6.285,8.23-9.893a13.065,13.065,0,0,0,.113-4.538c-.564-3.495-2.508-5.862-4.538-8.117-4.453-4.989-6.68-7.469-10.316-10.231-8.315-6.285-15.9-9.583-24.324-13.162-6.511-2.762-10.851-4.594-17.165-6.116C809.832,712.88,802.25,711.048,798.417,714.543Z" transform="translate(-795.755 -712.598)" fill="#424242"/>
        <path id="Path_1007" data-name="Path 1007" d="M813.9,755.4c2.621.592,6.454,1.578,10.992,3.072,3.354,1.1,9.7,3.326,24.267,10.682,4.9,2.48,11.359,5.834,18.828,10.034q-14.163,6.384-28.354,12.768a37.729,37.729,0,0,1-.9-5.693c-.085-.987-.113-1.945-.113-2.819,2.537-.93,5.073-1.832,7.61-2.762a127.37,127.37,0,0,0-15.7-5.919,36.731,36.731,0,0,0-6.933-1.522,35.751,35.751,0,0,0-8.174-.028C814.915,767.238,814.407,761.319,813.9,755.4Z" transform="translate(-808.786 -743.336)" fill="#3d3d3d" opacity="0.11"/>
        <path id="Path_1008" data-name="Path 1008" d="M818.9,815.03a57.4,57.4,0,0,1,37.345,7.046c-4.51,2.678-8.991,5.355-13.5,8.033-.226-1.437-.451-2.847-.677-4.284,2.565-.958,5.13-1.917,7.666-2.875a136.588,136.588,0,0,0-13.444-5.073,61.886,61.886,0,0,0-6.483-1.8A50.61,50.61,0,0,0,818.9,815.03Z" transform="translate(-812.376 -785.689)" fill="#3d3d3d" opacity="0.11"/>
      </g>
      <g id="leg_right" transform="translate(0 114.724)">
        <path id="Path_1009" data-name="Path 1009" d="M689.4,882.629c4.2,1.466,8.4,2.931,12.57,4.4q1.311,27.184,3.777,27.283,3,.127,7.723-39.262c-6.68-1.607-13.332-3.241-20.011-4.848Q691.472,876.415,689.4,882.629Z" transform="translate(-641.542 -822.8)" fill="#161616" stroke="#161616" stroke-width="3"/>
        <path id="Path_1010" data-name="Path 1010" d="M604.042,734.769a131.884,131.884,0,0,0-2.086-19.7c-1.888-10.344-3.523-11.979-4.961-12.655-3.129-1.437-6.313,1.325-14.262,4.961-6.511,2.988-5.665,1.719-16.826,5.919a183.932,183.932,0,0,0-28.523,13.444A51.286,51.286,0,0,0,524.73,737c-4.792,5.383-5.13,8.23-5.13,9.611,0,1.409.338,4.566,4.961,9.3,5.44,5.552,11.584,7.948,29.312,13.613,4.876,1.55,9.329,2.959,13.3,4.171,2.142-4.087,3.777-7.638,4.961-10.4,3.326-7.779,4.03-11.443,4.312-13.3a41.417,41.417,0,0,0,.479-4.961c-2.875-.761-5.778-1.494-8.653-2.255a62.365,62.365,0,0,1,12.176-5.3A63.73,63.73,0,0,1,604.042,734.769Z" transform="translate(-519.6 -702.025)" fill="#424242"/>
        <path id="Path_1011" data-name="Path 1011" d="M667.812,758.286c-12.12,5.891-20.1,10.034-23.675,11.753q-14.121,6.68-27.537,12.317A16.658,16.658,0,0,1,631,810.513c1.917.676,3.805,1.353,5.722,2.057,1.691-3.185,2.959-5.862,3.861-7.807,2.227-4.876,3.664-8.033,4.763-12.345a45.56,45.56,0,0,0,1.325-7.807c-2.988-.987-5.975-2-8.963-2.988a67.358,67.358,0,0,1,35.936-8.146c-.056-1.86-.113-3.749-.254-5.721-.254-4.087-.677-7.948-1.184-11.556C671.194,756.651,669.672,757.412,667.812,758.286Z" transform="translate(-589.261 -740.931)" fill="#3d3d3d" opacity="0.13"/>
        <path id="Path_1012" data-name="Path 1012" d="M717.054,815.287c0-.254-7.074-1.043-16.037.226a71.822,71.822,0,0,0-22.717,7.243c2.565,1.917,5.13,3.861,7.695,5.778-1.381,8.427-2.734,16.855-4.115,25.282a59.744,59.744,0,0,0,7.92-19.476,55.17,55.17,0,0,0,1.1-8.258q-1.437-.423-2.959-.846c-1.945-.536-3.861-1.043-5.722-1.466a59.252,59.252,0,0,1,6.962-3.326C703.92,814.385,717.054,815.626,717.054,815.287Z" transform="translate(-633.57 -783.023)" fill="#3d3d3d" opacity="0.15"/>
        <path id="Path_1013" data-name="Path 1013" d="M811.9,828.8" transform="translate(-729.515 -793.068)" fill="#3d3d3d"/>
      </g>
      <g id="hand_left" transform="translate(102.171 53.912)">
        <path id="Path_1014" data-name="Path 1014" d="M887.9,486.331c1.437-.479,3.608,1.747,4.9,3.044a18.151,18.151,0,0,1,3.439,4.9c3.833,7.948,3.157,4.792,6.4,12.176,3.974,9.1,6.68,17.7,6.68,17.7,1.325,4.2,2.142,7.328,4.707,11.19,2.9,4.341,5.3,5.5,6.285,5.891a12.261,12.261,0,0,0,7.751.395c1.494-1.466,2.649-2.734,3.439-3.636,1.607-1.832,2.283-2.818,3.551-2.959a2.768,2.768,0,0,1,2.255.592c.31.338.367.7.677.789.395.113.789-.338,1.268-.789a10.566,10.566,0,0,1,2.847-1.973c.7-.31,2.057-.7,2.452-.2s-.479,1.578-.085,1.973,1.353-.507,2.368-.085a1.856,1.856,0,0,1,1.071,1.466c.056.733-.564.9-.676,1.86-.113.789.254.93.2,1.578-.113.987-1.015,1.127-2.255,2.565a31.664,31.664,0,0,0-1.776,2.762,24.107,24.107,0,0,1-1.578,2.17c-1.86,2.086-5.017,2.255-6.68,2.368a15,15,0,0,1-7.187-1.466,17.328,17.328,0,0,1-4.312,2.17,18.563,18.563,0,0,1-10.908,0c-6.962-1.945-11.048-7.215-13.754-10.823-4.031-5.355-5.5-10.006-8.146-18.461a102.226,102.226,0,0,1-4.228-21.618C886.206,494.955,885.558,487.12,887.9,486.331Z" transform="translate(-885.051 -486.264)" fill="#fff"/>
        <g id="Group_1758" data-name="Group 1758" transform="translate(3.35 0.241)">
          <g id="Group_1757" data-name="Group 1757">
            <path id="Path_1015" data-name="Path 1015" d="M894.271,487.959c2.48.817,4.2,2.819,5.637,4.932A74.733,74.733,0,0,1,904,499.684a142.882,142.882,0,0,1,6.708,14.825c2.029,5.073,3.89,10.2,5.778,15.3,1.522,4.059,3.354,8.371,6.877,11.077,3.269,2.508,7.92,3.551,11.584,1.268.451-.282.028-1.015-.423-.733-3.89,2.424-8.906.733-11.922-2.339-3.439-3.551-4.9-8.484-6.567-12.993-3.523-9.639-7.131-19.448-12.176-28.439-2.2-3.918-4.791-8.991-9.357-10.513-.507-.169-.733.648-.225.817Z" transform="translate(-893.985 -487.119)" fill="#161616"/>
          </g>
        </g>
        <g id="Group_1760" data-name="Group 1760" transform="translate(3.338 27.887)">
          <g id="Group_1759" data-name="Group 1759">
            <path id="Path_1016" data-name="Path 1016" d="M893.959,585.712c2.508,8.681,4.622,17.757,9.78,25.31,4.256,6.257,10.569,11.246,18.32,11.866a17.342,17.342,0,0,0,11.838-3.213c.423-.31,0-1.071-.423-.733a17.1,17.1,0,0,1-13.839,2.762,23.106,23.106,0,0,1-12.063-7.215c-7.356-7.976-9.808-18.856-12.74-28.974-.2-.536-1.015-.31-.874.2Z" transform="translate(-893.942 -585.207)" fill="#161616"/>
          </g>
        </g>
        <g id="Group_1762" data-name="Group 1762" transform="translate(43.6 48.316)">
          <g id="Group_1761" data-name="Group 1761">
            <path id="Path_1017" data-name="Path 1017" d="M1037.582,664.765a38.528,38.528,0,0,1,3.72-5.017c.846-.846,2.227-1.691,3.439-1.015a1.965,1.965,0,0,1,.507,2.847c-.31.451.423.874.733.423a2.722,2.722,0,0,0-2.368-4.312,4.84,4.84,0,0,0-3.354,2c-1.212,1.466-2.255,3.1-3.382,4.651-.338.423.395.846.7.423Z" transform="translate(-1036.79 -657.687)" fill="#161616"/>
          </g>
        </g>
        <g id="Group_1764" data-name="Group 1764" transform="translate(48.091 51.423)">
          <g id="Group_1763" data-name="Group 1763">
            <path id="Path_1018" data-name="Path 1018" d="M1052.944,668.992a2.017,2.017,0,0,0,1.522,2.9,2.96,2.96,0,0,0,3.157-2.649c.113-.536-.7-.761-.818-.225a2.3,2.3,0,0,1-1.635,2.029c-.93.2-1.973-.62-1.494-1.607.225-.507-.507-.93-.733-.451Z" transform="translate(-1052.725 -668.714)" fill="#161616"/>
          </g>
        </g>
        <g id="Group_1766" data-name="Group 1766" transform="translate(42.42 58.921)">
          <g id="Group_1765" data-name="Group 1765">
            <path id="Path_1019" data-name="Path 1019" d="M1032.915,699c3.241.648,6.313,2.142,9.667,1.437a10.335,10.335,0,0,0,6.511-4.51c.31-.451-.423-.874-.733-.423a9.509,9.509,0,0,1-6.426,4.2c-3.044.479-5.891-.93-8.822-1.522-.507-.085-.733.733-.2.817Z" transform="translate(-1032.607 -695.316)" fill="#161616"/>
          </g>
        </g>
        <g id="Group_1768" data-name="Group 1768" transform="translate(50.067 53.696)">
          <g id="Group_1767" data-name="Group 1767">
            <path id="Path_1020" data-name="Path 1020" d="M1060.374,676.839a1.488,1.488,0,0,0-.028,2.424,3.449,3.449,0,0,0,2.311.451,6.663,6.663,0,0,1,3.664.874.423.423,0,0,0,.423-.733,7.13,7.13,0,0,0-2.818-.958,12.592,12.592,0,0,0-1.466-.028,4.755,4.755,0,0,1-.9-.028c-.338-.085-1.437-.846-.761-1.24.451-.31.028-1.043-.423-.761Z" transform="translate(-1059.736 -676.775)" fill="#161616"/>
          </g>
        </g>
        <g id="Group_1770" data-name="Group 1770" transform="translate(50.635 52.529)">
          <g id="Group_1769" data-name="Group 1769">
            <path id="Path_1021" data-name="Path 1021" d="M1062.386,674.232a5.486,5.486,0,0,1,6.511.7c.395.366.987-.225.592-.592a6.34,6.34,0,0,0-7.525-.846.423.423,0,0,0,.423.733Z" transform="translate(-1061.752 -672.635)" fill="#161616"/>
          </g>
        </g>
        <g id="Group_1772" data-name="Group 1772" transform="translate(52.494 46.467)">
          <g id="Group_1771" data-name="Group 1771">
            <path id="Path_1022" data-name="Path 1022" d="M1068.955,655.349c.93-.677,1.832-1.325,2.762-2,.395-.282.761-.564,1.184-.817a5.133,5.133,0,0,1,.874-.451c1.325-.451,1.635.2.9,1.945-.507.169-.282.986.225.817a1.894,1.894,0,0,0,.479-3.467,2.751,2.751,0,0,0-2.706.31c-1.437.817-2.762,1.973-4.115,2.931-.479.338-.056,1.071.395.733Z" transform="translate(-1068.349 -651.129)" fill="#161616"/>
          </g>
        </g>
        <g id="Group_1774" data-name="Group 1774" transform="translate(54.271 48.727)">
          <g id="Group_1773" data-name="Group 1773">
            <path id="Path_1023" data-name="Path 1023" d="M1075.286,663.361c1.127-.7,2.255-1.437,3.382-2.142a14.5,14.5,0,0,1,1.578-.93,2.807,2.807,0,0,1,1.353-.31c.986,0,1.353.592,1.1,1.748-.338.423.254,1.015.592.592a1.937,1.937,0,0,0-1.522-3.157,4.725,4.725,0,0,0-2.9.958c-1.353.817-2.677,1.691-4,2.537-.479.254-.056.986.423.7Z" transform="translate(-1074.652 -659.146)" fill="#161616"/>
          </g>
        </g>
        <g id="Group_1776" data-name="Group 1776" transform="translate(57.564 51.618)">
          <g id="Group_1775" data-name="Group 1775">
            <path id="Path_1024" data-name="Path 1024" d="M1086.975,672.053q1.141-.634,2.283-1.184c.254-.141,1.1-.648,1.353-.592.7.141.225.845.056,1.127-.282.451.451.9.733.423.451-.733.845-2.17-.366-2.4a3.206,3.206,0,0,0-1.917.592c-.874.423-1.748.845-2.593,1.325-.451.254,0,.986.451.7Z" transform="translate(-1086.337 -669.406)" fill="#161616"/>
          </g>
        </g>
        <g id="Group_1778" data-name="Group 1778" transform="translate(56.813 53.283)">
          <g id="Group_1777" data-name="Group 1777">
            <path id="Path_1025" data-name="Path 1025" d="M1083.877,676.1a3.321,3.321,0,0,1,.818,5.327c-.367.395.225.986.592.592a4.175,4.175,0,0,0-.987-6.652c-.451-.254-.9.479-.423.733Z" transform="translate(-1083.672 -675.313)" fill="#161616"/>
          </g>
        </g>
        <g id="Group_1780" data-name="Group 1780" transform="translate(58.924 53.613)">
          <g id="Group_1779" data-name="Group 1779">
            <path id="Path_1026" data-name="Path 1026" d="M1094.441,676.629a15.7,15.7,0,0,1-3.1,3.016c-.423.31-.028,1.043.423.733a16.662,16.662,0,0,0,3.3-3.157c.31-.423-.282-1.015-.62-.592Z" transform="translate(-1091.16 -676.484)" fill="#161616"/>
          </g>
        </g>
        <g id="Group_1782" data-name="Group 1782" transform="translate(48.105 56.21)">
          <g id="Group_1781" data-name="Group 1781">
            <path id="Path_1027" data-name="Path 1027" d="M1053.177,686.544a10.335,10.335,0,0,1,4.932,1.691c.451.31.874-.423.423-.733a11.657,11.657,0,0,0-5.355-1.8c-.536-.028-.536.817,0,.846Z" transform="translate(-1052.775 -685.698)" fill="#161616"/>
          </g>
        </g>
        <path id="Path_1028" data-name="Path 1028" d="M882.1,510.7c.507,3.608,1.325,8.681,2.537,14.769.789,3.946,1.353,6.849,2.4,10.71,1.578,5.862,2.875,10.795,5.919,16.516,2,3.749,3.354,6.313,6.172,9.076,2,1.945,7.244,7.074,15.135,7.187A20.25,20.25,0,0,0,925.11,565.8a14.158,14.158,0,0,0,6.567,1.776,10.444,10.444,0,0,0,6.426-1.635c.845-.592,3.1-2.114,3.269-4.679a4.3,4.3,0,0,0-1.381-3.664c-1.691-1.24-4.453-.507-4.679.366-.2.817,1.832,1.494,1.776,2.649-.085,1.466-3.41,2.368-4.031,2.537-19.842,5.355-30.524-3.523-30.524-3.523-3.241-2.706-4.961-5.637-8.963-15.643C890.273,535.756,886.13,524.511,882.1,510.7Z" transform="translate(-882.1 -503.813)" fill="#3d3d3d" opacity="0.09"/>
      </g>
      <g id="hand_right" transform="translate(2.954 53.137)">
        <path id="Path_1029" data-name="Path 1029" d="M549.541,547.087a16,16,0,0,0,9.442,3.157,16.691,16.691,0,0,0,9.245-3.157,23.018,23.018,0,0,0,6.088-5.891c4.735-6,6.623-12.26,7.976-16.8,1.212-4.059.733-3.833,1.888-7.356,2.17-6.6,4.03-8.089,5.891-12.8,3.072-7.779,3.269-17.052.846-18.067-1.127-.451-2.79.874-6.088,3.579a31.927,31.927,0,0,0-4.566,4.481c-1.466,1.8-4.031,5.355-6.877,13.839-2.311,6.933-1.8,8.061-4.538,15.727-1.691,4.763-2.762,6.708-4.059,8.484a18.526,18.526,0,0,1-8.286,6.877,16.231,16.231,0,0,1-8.033.9c-.226-1.127-.987-4.228-3.608-5.75-.648-.395-2.227-1.3-3.354-.62a2.318,2.318,0,0,0-.958,1.522,8.2,8.2,0,0,0-3.354-2.847c-.733-.31-2.227-.986-2.847-.366-.564.564-.056,1.86,0,2.029a2.183,2.183,0,0,0-2.339.113,1.934,1.934,0,0,0-.817,1.888,1.728,1.728,0,0,0,.7.958,3.066,3.066,0,0,0-.056,1.973c.141.395.31.648,1.325,1.776,1.3,1.466,1.325,1.409,1.578,1.776.7,1.043.564,1.607,1.015,2.537a6.044,6.044,0,0,0,3.044,2.79c1.8.874,3.467.648,6.2.254A22.164,22.164,0,0,0,549.541,547.087Z" transform="translate(-530.849 -485.365)" fill="#fff"/>
        <g id="Group_1784" data-name="Group 1784" transform="translate(17.163)">
          <g id="Group_1783" data-name="Group 1783">
            <path id="Path_1030" data-name="Path 1030" d="M633.8,483.566a33.33,33.33,0,0,0-11.218,8.963A42.863,42.863,0,0,0,615.9,505.3c-1.578,4.622-2.706,9.386-3.918,14.092a32.877,32.877,0,0,1-6.144,12.937c-3.551,4.256-9.076,5.891-14.459,5.271-.536-.056-.536.789,0,.845a17.6,17.6,0,0,0,12.2-2.847c3.72-2.649,6.06-7.074,7.723-11.246,1.776-4.425,2.565-9.245,3.861-13.811a54.728,54.728,0,0,1,5.778-14.205,32.489,32.489,0,0,1,13.275-12.007c.507-.282.056-1.015-.423-.761Z" transform="translate(-590.975 -483.514)" fill="#161616"/>
          </g>
        </g>
        <g id="Group_1786" data-name="Group 1786" transform="translate(18.096 27.424)">
          <g id="Group_1785" data-name="Group 1785">
            <path id="Path_1031" data-name="Path 1031" d="M630.112,581.12c-2.565,9.752-4.651,20.265-11.077,28.354-2.79,3.495-6.426,6.483-10.823,7.666a14.565,14.565,0,0,1-13.191-2.508c-.423-.338-1.015.254-.592.592,5.609,4.622,13.613,4.143,19.476.2,6.426-4.312,10.231-11.584,12.711-18.715,1.747-5.017,2.959-10.231,4.312-15.361a.424.424,0,0,0-.817-.226Z" transform="translate(-594.284 -580.814)" fill="#161616"/>
          </g>
        </g>
        <g id="Group_1788" data-name="Group 1788" transform="translate(9.183 47.849)">
          <g id="Group_1787" data-name="Group 1787">
            <path id="Path_1032" data-name="Path 1032" d="M571.5,659.938c-.987-1.522-1.917-3.128-3.016-4.566a4.571,4.571,0,0,0-3.128-2.086c-2.339-.141-3.354,2.537-2.227,4.312.282.451,1.015.028.733-.423a2.112,2.112,0,0,1,.451-2.847c1.353-.846,2.734.536,3.467,1.494,1.1,1.437,2,3.016,2.988,4.538.282.451,1.015.028.733-.423Z" transform="translate(-562.664 -653.281)" fill="#161616"/>
          </g>
        </g>
        <g id="Group_1790" data-name="Group 1790" transform="translate(9.441 50.958)">
          <g id="Group_1789" data-name="Group 1789">
            <path id="Path_1033" data-name="Path 1033" d="M567.192,665.043a1.162,1.162,0,0,1-1.466,1.578,2.432,2.432,0,0,1-1.325-2c-.084-.535-.9-.31-.817.226.254,1.409,1.268,2.875,2.875,2.678a2.032,2.032,0,0,0,1.466-2.9c-.225-.507-.958-.085-.733.423Z" transform="translate(-563.578 -664.314)" fill="#161616"/>
          </g>
        </g>
        <g id="Group_1792" data-name="Group 1792" transform="translate(3.972 58.472)">
          <g id="Group_1791" data-name="Group 1791">
            <path id="Path_1034" data-name="Path 1034" d="M558.81,693.855c-2.593.564-5.13,1.945-7.835,1.522a8.609,8.609,0,0,1-6-4.2c-.282-.479-1.015-.028-.733.423a9.488,9.488,0,0,0,5.975,4.51c3.1.7,5.862-.789,8.822-1.437.536-.113.31-.93-.225-.817Z" transform="translate(-544.175 -690.972)" fill="#161616"/>
          </g>
        </g>
        <g id="Group_1794" data-name="Group 1794" transform="translate(5.534 53.231)">
          <g id="Group_1793" data-name="Group 1793">
            <path id="Path_1035" data-name="Path 1035" d="M555.349,673.171a.523.523,0,0,1,.141.62c-.169.564-.789.62-1.3.676-.536.028-1.071-.056-1.635,0a6.4,6.4,0,0,0-2.649.958c-.451.282-.028,1.015.423.733a5.728,5.728,0,0,1,3.326-.874,2.834,2.834,0,0,0,2.086-.423,1.52,1.52,0,0,0,0-2.424c-.423-.282-.846.451-.395.733Z" transform="translate(-549.716 -672.375)" fill="#161616"/>
          </g>
        </g>
        <g id="Group_1796" data-name="Group 1796" transform="translate(4.445 52.088)">
          <g id="Group_1795" data-name="Group 1795">
            <path id="Path_1036" data-name="Path 1036" d="M552.882,669.19a5.449,5.449,0,0,0-6.905.846c-.395.395.226.986.592.592a4.63,4.63,0,0,1,5.891-.7c.451.282.874-.451.423-.733Z" transform="translate(-545.85 -668.322)" fill="#161616"/>
          </g>
        </g>
        <g id="Group_1798" data-name="Group 1798" transform="translate(2.655 46.025)">
          <g id="Group_1797" data-name="Group 1797">
            <path id="Path_1037" data-name="Path 1037" d="M546.743,650.359c-1.156-.93-2.283-1.917-3.495-2.762a2.886,2.886,0,0,0-2.565-.677c-1.776.648-1.409,3.016.141,3.608.507.2.733-.62.225-.817q-1.564-1.86.254-1.691a1.008,1.008,0,0,1,1.184.085,9.408,9.408,0,0,1,1.353,1.015c.761.62,1.55,1.24,2.311,1.86.395.31,1.015-.282.592-.62Z" transform="translate(-539.499 -646.811)" fill="#161616"/>
          </g>
        </g>
        <g id="Group_1800" data-name="Group 1800" transform="translate(0 48.268)">
          <g id="Group_1799" data-name="Group 1799">
            <path id="Path_1038" data-name="Path 1038" d="M538.232,658.271c-1.212-.846-2.424-1.719-3.636-2.537a4.174,4.174,0,0,0-2.621-.958,1.975,1.975,0,0,0-1.522,3.1c.31.423,1.043,0,.733-.423-.62-1.127-.113-1.719,1.466-1.776a4.118,4.118,0,0,1,1.015.451c.395.225.761.507,1.127.761L537.837,659c.423.31.846-.423.395-.733Z" transform="translate(-530.081 -654.767)" fill="#161616"/>
          </g>
        </g>
        <g id="Group_1802" data-name="Group 1802" transform="translate(0.208 51.152)">
          <g id="Group_1801" data-name="Group 1801">
            <path id="Path_1039" data-name="Path 1039" d="M535.745,666.945a24.223,24.223,0,0,0-2.368-1.325c-.536-.282-1.268-.789-1.917-.564-1.015.366-.62,1.719-.226,2.4.254.479.987.056.733-.423-.085-.169-.395-.676-.31-.874.113-.282.564-.113.761-.056a3.785,3.785,0,0,1,.676.338c.761.395,1.494.817,2.227,1.268a.437.437,0,0,0,.423-.761Z" transform="translate(-530.818 -665.001)" fill="#161616"/>
          </g>
        </g>
        <g id="Group_1804" data-name="Group 1804" transform="translate(3.379 52.836)">
          <g id="Group_1803" data-name="Group 1803">
            <path id="Path_1040" data-name="Path 1040" d="M544.107,671.038a4.373,4.373,0,0,0-.9,6.652c.367.423.958-.2.592-.592a3.517,3.517,0,0,1,.733-5.327c.451-.282.028-1.015-.423-.733Z" transform="translate(-542.07 -670.975)" fill="#161616"/>
          </g>
        </g>
        <g id="Group_1806" data-name="Group 1806" transform="translate(0.369 53.214)">
          <g id="Group_1805" data-name="Group 1805">
            <path id="Path_1041" data-name="Path 1041" d="M531.478,672.932a15.973,15.973,0,0,0,2.988,3.185c.423.338,1.015-.254.592-.592a14.459,14.459,0,0,1-2.847-3.016c-.338-.451-1.071-.028-.733.423Z" transform="translate(-531.391 -672.316)" fill="#161616"/>
          </g>
        </g>
        <g id="Group_1808" data-name="Group 1808" transform="translate(8.465 55.772)">
          <g id="Group_1807" data-name="Group 1807">
            <path id="Path_1042" data-name="Path 1042" d="M565.213,681.393a9.99,9.99,0,0,0-4.9,1.8c-.451.31-.028,1.043.423.733a8.913,8.913,0,0,1,4.481-1.691c.564-.056.564-.9,0-.846Z" transform="translate(-560.116 -681.39)" fill="#161616"/>
          </g>
        </g>
        <path id="Path_1043" data-name="Path 1043" d="M597.728,523.5c-3.523,8.568-6.229,15.474-7.948,19.983-4.03,10.485-5.158,14.149-8.963,18.969-3.241,4.087-7.074,9.188-13.557,10.175a16.9,16.9,0,0,1-9.5-1.522c-.507.395-4.369,3.157-8.117,1.691-2.086-.817-4.143-2.931-3.72-4.228.423-1.325,3.241-1.24,3.213-1.86-.028-.507-1.973-1.212-3.72-.676a4.051,4.051,0,0,0-2.537,2.2c-.733,2.057,1.184,4.171,1.691,4.735,2.593,2.875,6.567,2.734,7.272,2.706a11.056,11.056,0,0,0,5.919-2.029,14.2,14.2,0,0,0,6.6,3.213c5.721,1.071,10.344-2.142,12.881-3.72,7.244-4.594,9.977-11.922,12.2-17.447,1.071-2.678,1.55-4.425,4.171-15.107C595.247,533.816,596.657,528.01,597.728,523.5Z" transform="translate(-539.154 -512.23)" fill="#3d3d3d" opacity="0.17"/>
        <path id="Path_1044" data-name="Path 1044" d="M533.314,656.88c.958-.169,2.2,2.368,3.044,4.4-.423,2.17-.958,2.649-1.353,2.706-1.127.2-3.044-2.565-2.706-5.073C532.328,658.712,532.553,657.021,533.314,656.88Z" transform="translate(-531.646 -608.011)" fill="#3d3d3d" opacity="0.17"/>
      </g>
      <g id="torso" transform="translate(57.159 44.265)">
        <path id="Path_1045" data-name="Path 1045" d="M727.867,461.157c-5.327,6.116-5.44,13.67-5.468,26.917a134.65,134.65,0,0,0,5.919,39.6,68.118,68.118,0,0,0,19.476,2.847,66.865,66.865,0,0,0,19.25-2.847c1.043-4.312,2.424-10.654,3.495-18.377,3.692-26.184,6.116-43.4-3.495-51.86C757.349,448.925,736.971,450.7,727.867,461.157Z" transform="translate(-722.399 -452.035)" fill="#fff" stroke="#161616" stroke-width="3"/>
        <path id="Path_1046" data-name="Path 1046" d="M802.465,453.9a47.666,47.666,0,0,1,3.833,11.189c.93,4.453,2.367,14.346-5.778,38.98a224.816,224.816,0,0,1-11.02,27.255,63.873,63.873,0,0,0,7.159.338,69.114,69.114,0,0,0,18.518-2.621c2.142-10.485,3.664-19.419,4.707-26.212,1.3-8.343,2.2-15.389,1.917-24.3-.338-11.274-2.255-14.543-3.326-16.065C813.88,455.76,805.594,454.295,802.465,453.9Z" transform="translate(-770.588 -453.374)" fill="#3d3d3d" opacity="0.1"/>
        <path id="Path_1047" data-name="Path 1047" d="M846.412,513.4c-1.268,3.833-3.1,9.752-4.9,17.136-2.255,9.217-2.593,13.078-3.833,18.01-1.663,6.426-5.13,15.5-13.275,25.874a35.222,35.222,0,0,0,10.316-1.212,34.8,34.8,0,0,0,5.581-2.086c1.437-7.835,2.706-15.192,3.833-22.012,2-11.95,2.706-16.883,2.79-23.422A107.859,107.859,0,0,0,846.412,513.4Z" transform="translate(-795.651 -496.104)" fill="#3d3d3d" opacity="0.13"/>
      </g>
      <g id="head" transform="translate(52.793)">
        <path id="Path_1048" data-name="Path 1048" d="M787.653,424.717c-.93,1.268-.479,2.424-.676,7.159-.141,3.1-.451,5.581-.676,7.159a12.894,12.894,0,0,0,15.84-.676,30.436,30.436,0,0,1-1.184-4.425c-1.043-5.383.028-7.046-1.184-8.878C797.6,421.814,789.879,421.673,787.653,424.717Z" transform="translate(-763.924 -386.578)" fill="#fff" stroke="#161616" stroke-width="3"/>
        <path id="Path_1049" data-name="Path 1049" d="M750.575,326.587a27.451,27.451,0,0,0,1.522,9.386c1.1,3.523,2.311,7.469,5.806,11.077a21.743,21.743,0,0,0,9.386,5.637,24.761,24.761,0,0,0,8.878-6.144,27.392,27.392,0,0,0,5.806-10.569,29.879,29.879,0,0,0,1.691-12.965c-.423-4.143-.874-8.625-4.425-12.091-5.242-5.1-12.909-3.777-13.98-3.579-7.441,1.381-11.189,7.272-12.091,8.878A20.5,20.5,0,0,0,750.575,326.587Z" transform="translate(-738.261 -303.64)" fill="#fff" stroke="#161616" stroke-width="3"/>
        <g id="Group_1810" data-name="Group 1810" transform="translate(27.069 25.621)">
          <g id="Group_1809" data-name="Group 1809">
            <path id="Path_1050" data-name="Path 1050" d="M802.993,386.285a36.806,36.806,0,0,0,1.043,10.682.441.441,0,0,0,.7.2,5.506,5.506,0,0,0,1.268-2.565c.113-.535-.7-.761-.817-.225a4.558,4.558,0,0,1-1.043,2.2,6.587,6.587,0,0,1,.7.2,37.347,37.347,0,0,1-1.015-10.457.423.423,0,0,0-.846-.028Z" transform="translate(-802.95 -385.887)" fill="#161616"/>
          </g>
        </g>
        <g id="Group_1812" data-name="Group 1812" transform="translate(32.9 26.043)">
          <g id="Group_1811" data-name="Group 1811">
            <path id="Path_1051" data-name="Path 1051" d="M823.769,388.6c2,2.114,6.032,2.706,7.1-.7.169-.507-.648-.733-.817-.225-.874,2.79-4.143,1.917-5.665.31-.423-.366-1.015.225-.62.62Z" transform="translate(-823.64 -387.385)" fill="#161616"/>
          </g>
        </g>
        <g id="Group_1814" data-name="Group 1814" transform="translate(18.087 31.947)">
          <g id="Group_1813" data-name="Group 1813">
            <path id="Path_1052" data-name="Path 1052" d="M771.9,409.112c0-.085-.028.028-.056.028a.211.211,0,0,1-.141.028c-.085-.169-.2-.338-.282-.507.028-.028.028-.056.056-.085a.384.384,0,0,0-.282.507.394.394,0,0,0,.507.282.867.867,0,0,0,.536-.507.4.4,0,0,0-.282-.507.716.716,0,0,0-.874.507c-.028.225.056.479.282.507a.359.359,0,0,0,.536-.254Z" transform="translate(-771.081 -408.331)" fill="#161616"/>
          </g>
        </g>
        <g id="Group_1816" data-name="Group 1816" transform="translate(22.189 31.15)">
          <g id="Group_1815" data-name="Group 1815">
            <path id="Path_1053" data-name="Path 1053" d="M786.528,405.981q-.085.634-.338.085c-.31-.254-.254-.366.169-.31a.451.451,0,0,0-.592.141.444.444,0,0,0,.141.592.543.543,0,0,0,.7-.789.553.553,0,0,0-.958.479.394.394,0,0,0,.507.282.363.363,0,0,0,.366-.479Z" transform="translate(-785.637 -405.502)" fill="#161616"/>
          </g>
        </g>
        <g id="Group_1818" data-name="Group 1818" transform="translate(20.657 33.917)">
          <g id="Group_1817" data-name="Group 1817">
            <path id="Path_1054" data-name="Path 1054" d="M781.1,415.963a.243.243,0,0,1-.085.169c.056-.056-.056.028-.028,0s-.085.028,0,0h-.113c-.028,0-.028-.028-.056-.028.028.028.028,0-.028-.028a.3.3,0,0,1-.028-.395.241.241,0,0,1,.366.056.437.437,0,0,0-.592-.141.419.419,0,0,0-.141.592.594.594,0,0,0,.817.2.564.564,0,0,0,.226-.789.694.694,0,0,0-1.24.366.452.452,0,0,0,.9,0Z" transform="translate(-780.2 -415.321)" fill="#161616"/>
          </g>
        </g>
        <g id="Group_1820" data-name="Group 1820" transform="translate(35.263 30.783)">
          <g id="Group_1819" data-name="Group 1819">
            <path id="Path_1055" data-name="Path 1055" d="M832.664,404.4a.366.366,0,0,1,.338.282c.028.169-.085.282-.338.366-.084-.028-.141-.028-.225-.056a.218.218,0,0,1-.085-.338c.141-.225.564-.141.479.169a.392.392,0,0,0-.282-.507.4.4,0,0,0-.507.282.594.594,0,1,0,1.127-.028.516.516,0,0,0-.479-.366.524.524,0,0,0-.423.254.542.542,0,0,0,.451.789.434.434,0,0,0,.423-.423c-.056-.2-.226-.451-.479-.423Z" transform="translate(-832.022 -404.2)" fill="#161616"/>
          </g>
        </g>
        <g id="Group_1822" data-name="Group 1822" transform="translate(38.313 30.629)">
          <g id="Group_1821" data-name="Group 1821">
            <path id="Path_1056" data-name="Path 1056" d="M843.621,404.316c.028,0,.028-.028,0,0l-.141.141a3.439,3.439,0,0,1-.479-.2v-.225c0-.028.028-.028.028-.056l.141-.141a3.447,3.447,0,0,1,.479.2v.2a.392.392,0,0,0-.282-.507.4.4,0,0,0-.507.282.512.512,0,0,0,.958.338.474.474,0,0,0-.225-.62.5.5,0,0,0-.676.169.412.412,0,1,0,.7.423Z" transform="translate(-842.844 -403.656)" fill="#161616"/>
          </g>
        </g>
        <g id="Group_1824" data-name="Group 1824" transform="translate(36.552 33.396)">
          <g id="Group_1823" data-name="Group 1823">
            <path id="Path_1057" data-name="Path 1057" d="M837.584,414.156c-.028-.085,0,0-.028.028,0,.028-.084.085,0,.028l-.676-.085c-.169-.254.141-.479.366-.366a.451.451,0,0,0-.592.141.444.444,0,0,0,.141.592.557.557,0,0,0,.677-.113.593.593,0,0,0,.084-.7.443.443,0,0,0-.676-.085.772.772,0,0,0-.2.761.394.394,0,0,0,.507.282.369.369,0,0,0,.395-.479Z" transform="translate(-836.596 -413.472)" fill="#161616"/>
          </g>
        </g>
        <g id="Group_1826" data-name="Group 1826" transform="translate(25.136 38.106)">
          <g id="Group_1825" data-name="Group 1825">
            <path id="Path_1058" data-name="Path 1058" d="M796.206,431.119a4.679,4.679,0,0,0,7.074-.2c.338-.423-.254-1.015-.592-.592a3.865,3.865,0,0,1-5.891.2c-.367-.395-.958.2-.592.592Z" transform="translate(-796.091 -430.184)" fill="#161616"/>
          </g>
        </g>
        <g id="Group_1828" data-name="Group 1828" transform="translate(19.358 19.977)">
          <g id="Group_1827" data-name="Group 1827">
            <path id="Path_1059" data-name="Path 1059" d="M776.3,367.846a3.4,3.4,0,0,1,3.269-1.071c.536.113.761-.7.225-.817a4.263,4.263,0,0,0-4.087,1.3c-.366.395.225.987.592.592Z" transform="translate(-775.591 -365.862)" fill="#161616"/>
          </g>
        </g>
        <g id="Group_1830" data-name="Group 1830" transform="translate(32.91 19.356)">
          <g id="Group_1829" data-name="Group 1829">
            <path id="Path_1060" data-name="Path 1060" d="M824.077,364.543a4.9,4.9,0,0,1,3.523.93c.451.31.874-.423.423-.733a5.506,5.506,0,0,0-3.946-1.043c-.536.056-.536.9,0,.846Z" transform="translate(-823.675 -363.657)" fill="#161616"/>
          </g>
        </g>
        <g id="Group_1832" data-name="Group 1832" transform="translate(18.417 26.297)">
          <g id="Group_1831" data-name="Group 1831">
            <path id="Path_1061" data-name="Path 1061" d="M772.378,389.5c2,2.114,6.032,2.706,7.1-.7.169-.507-.648-.733-.817-.225-.874,2.79-4.143,1.917-5.665.31a.439.439,0,0,0-.62.62Z" transform="translate(-772.252 -388.285)" fill="#161616"/>
          </g>
        </g>
        <path id="Path_1062" data-name="Path 1062" d="M734.8,304.8a68.353,68.353,0,0,0,6.68,6.962,72.009,72.009,0,0,0,10.2,7.723,31.881,31.881,0,0,1-8.737,19.983,10.891,10.891,0,0,0,.874,5.975c2.565,5.383,9.949,7.807,15.614,5.975.676-.225,5.44-1.832,6.99-6.116.423-1.184.648-2.621,0-6.426a53.2,53.2,0,0,0-3.044-10.767,113.968,113.968,0,0,1-4.679-14.882c-.507-2.255-2.593-10.344-9.921-15.023-1.917-1.24-6.032-3.861-11.218-3.072a13.626,13.626,0,0,0-5.1,1.888,21.076,21.076,0,0,0-10.654,3.8c-9.188,6.6-8.935,18.489-8.906,19.7a55.182,55.182,0,0,1-1.607,6.426c-2.086,6.539-3.833,7.356-4.228,11.387a14.35,14.35,0,0,0,2.762,10.344,11.436,11.436,0,0,0,6.567,4.228,11.69,11.69,0,0,0,12.345-6.116,11.192,11.192,0,0,0,1.071-6c-.817-.733-8.343-7.554-7.441-18.179C723.381,310.518,734.289,305.05,734.8,304.8Z" transform="translate(-706.952 -294.984)" fill="#444"/>
        <path id="Path_1063" data-name="Path 1063" d="M818.786,366.1a24.009,24.009,0,0,1,.761,8.315c-.395,4.453-1.973,7.582-3.608,10.795a46.094,46.094,0,0,1-6.539,9.639,9.148,9.148,0,0,0,1.691-.479,10.519,10.519,0,0,0,3.129-1.8c-.225,2.649-.451,5.3-.648,7.948,1.607-.7,3.213-1.381,4.82-2.086-.338-2.819-.7-5.609-1.043-8.427A40.063,40.063,0,0,0,820,386.309a31.047,31.047,0,0,0,4.453-9.921,25.817,25.817,0,0,0,.648-6.144C823.013,368.89,820.9,367.481,818.786,366.1Z" transform="translate(-780.513 -346.056)" fill="#3d3d3d" opacity="0.11"/>
        <path id="Path_1064" data-name="Path 1064" d="M824.984,382.6c-.225-.056-.845,2.847-2.734,7.187a65.97,65.97,0,0,1-3.016,5.947A41.233,41.233,0,0,1,809.2,406.978c.62.282,1.268.564,1.888.846,1.832-.2,3.664-.366,5.5-.564-.084-1.55-.2-3.1-.282-4.622a31.034,31.034,0,0,0,7.1-11.246C824.927,386.967,825.265,382.654,824.984,382.6Z" transform="translate(-780.369 -357.903)" fill="#3d3d3d" opacity="0.16"/>
        <path id="Path_1065" data-name="Path 1065" d="M709.33,425.679a9.252,9.252,0,0,0,.761,4.256c1.1,2.452,3.664,5.13,6.426,5.1,3.354-.028,7.074-4.087,6.905-9.837a23.63,23.63,0,0,0,2.565,4.735,24.944,24.944,0,0,0,4.059,4.538,12.186,12.186,0,0,1-.564,3.974,11.964,11.964,0,0,1-2.565,4.453,11.4,11.4,0,0,1-6.426,3.692c-5.158.846-9.047-2.734-9.752-3.41-4.622-4.425-3.833-10.682-3.692-11.64A14.078,14.078,0,0,1,709.33,425.679Z" transform="translate(-706.909 -388.499)" fill="#0a0a0a" opacity="0.29"/>
        <path id="Path_1066" data-name="Path 1066" d="M843.045,382.2c.226,1.381.536,3.58.761,6.342.479,5.919,0,7.5.958,10.513.141.479,2.311,7.131,5.5,7.187,2.48.056,5.243-3.833,6.342-9.555a35.7,35.7,0,0,1,1.409,6.99,10.941,10.941,0,0,1-.085,4.171,9.2,9.2,0,0,1-3.974,4.735,13.367,13.367,0,0,1-8.709,2.17,13.007,13.007,0,0,1-8.6-4.538,11.825,11.825,0,0,1-2.452-5.581,10.8,10.8,0,0,1-.085-2.452,30.088,30.088,0,0,0,5.862-8.145A31.816,31.816,0,0,0,843.045,382.2Z" transform="translate(-798.233 -357.618)" fill="#0a0a0a" opacity="0.12"/>
      </g>
    </g>
  </g>
</svg>
