<svg xmlns="http://www.w3.org/2000/svg" width="121.497" height="40" viewBox="0 0 121.497 40">
  <g id="google-logo" transform="translate(-0.048 -12.149)">
    <path id="Path_40" data-name="Path 40" d="M29.919,26.274H15.742V30.5H25.8c-.5,5.923-5.4,8.448-10.038,8.448A11.077,11.077,0,0,1,4.659,27.7,11.1,11.1,0,0,1,15.772,16.386a10.892,10.892,0,0,1,7.579,3.052L26.3,16.376A14.952,14.952,0,0,0,15.62,12.149,15.741,15.741,0,0,0,.048,27.627a15.692,15.692,0,0,0,15.8,15.556c8.273,0,14.33-5.692,14.33-14.107A12.711,12.711,0,0,0,29.919,26.274Z" fill="#4285f4"/>
    <path id="Path_41" data-name="Path 41" d="M35.157,20.976a9.974,9.974,0,1,0,.069,19.948,9.763,9.763,0,0,0,9.9-9.94,9.743,9.743,0,0,0-9.968-10.008Zm.058,3.918a5.724,5.724,0,0,1,5.572,6.063,5.644,5.644,0,1,1-11.257-.029,5.746,5.746,0,0,1,5.685-6.035Z" transform="translate(6.376 2.24)" fill="#ea4335"/>
    <path id="Path_42" data-name="Path 42" d="M52.48,20.976a9.974,9.974,0,1,0,.069,19.948,9.763,9.763,0,0,0,9.9-9.94A9.743,9.743,0,0,0,52.48,20.976Zm.058,3.918a5.724,5.724,0,0,1,5.572,6.063,5.644,5.644,0,1,1-11.257-.029,5.746,5.746,0,0,1,5.685-6.035Z" transform="translate(10.773 2.24)" fill="#fbbc05"/>
    <path id="Path_43" data-name="Path 43" d="M69.379,20.984c-5.341,0-9.538,4.7-9.538,9.966a9.821,9.821,0,0,0,9.445,9.985,6.551,6.551,0,0,0,5.448-2.424v1.966c0,3.442-2.081,5.5-5.222,5.5a5.507,5.507,0,0,1-5.084-3.551l-3.818,1.6a9.557,9.557,0,0,0,8.935,5.874c5.309,0,9.355-3.358,9.355-10.4V21.583H74.734v1.69A7.008,7.008,0,0,0,69.379,20.984Zm.386,3.911c2.618,0,5.306,2.244,5.306,6.077,0,3.9-2.683,6.043-5.364,6.043a5.657,5.657,0,0,1-5.5-6.006c0-3.83,2.751-6.115,5.553-6.115Z" transform="translate(15.175 2.242)" fill="#4285f4"/>
    <path id="Path_44" data-name="Path 44" d="M91.686,20.965c-5.037,0-9.266,4.025-9.266,9.961a9.626,9.626,0,0,0,9.75,10.008,10.07,10.07,0,0,0,8.323-4.376l-3.435-2.294a5.553,5.553,0,0,1-4.865,2.746,5.11,5.11,0,0,1-4.874-3.024l13.32-5.549-.691-1.626a9,9,0,0,0-8.263-5.845ZM91.86,24.8a3.958,3.958,0,0,1,3.676,2.13l-8.9,3.733A5.532,5.532,0,0,1,91.86,24.8Z" transform="translate(20.906 2.238)" fill="#ea4335"/>
    <path id="Path_45" data-name="Path 45" d="M77.356,42.372h4.376V12.97H77.356Z" transform="translate(19.621 0.208)" fill="#34a853"/>
  </g>
</svg>
