<svg xmlns="http://www.w3.org/2000/svg" xmlns:xlink="http://www.w3.org/1999/xlink" width="28.715" height="32" viewBox="0 0 28.715 32">
  <defs>
    <linearGradient id="linear-gradient" x1="3.021" y1="0.798" x2="2.909" y2="0.769" gradientUnits="objectBoundingBox">
      <stop offset="0" stop-color="#00a0ff"/>
      <stop offset="0.007" stop-color="#00a1ff"/>
      <stop offset="0.26" stop-color="#00beff"/>
      <stop offset="0.512" stop-color="#00d2ff"/>
      <stop offset="0.76" stop-color="#00dfff"/>
      <stop offset="1" stop-color="#00e3ff"/>
    </linearGradient>
    <linearGradient id="linear-gradient-2" x1="2.632" y1="1.244" x2="2.371" y2="1.244" gradientUnits="objectBoundingBox">
      <stop offset="0" stop-color="#ffe000"/>
      <stop offset="0.409" stop-color="#ffbd00"/>
      <stop offset="0.775" stop-color="orange"/>
      <stop offset="1" stop-color="#ff9c00"/>
    </linearGradient>
    <linearGradient id="linear-gradient-3" x1="2.36" y1="0.504" x2="2.27" y2="0.351" gradientUnits="objectBoundingBox">
      <stop offset="0" stop-color="#ff3a44"/>
      <stop offset="1" stop-color="#c31162"/>
    </linearGradient>
    <linearGradient id="linear-gradient-4" x1="2.29" y1="1.652" x2="2.331" y2="1.583" gradientUnits="objectBoundingBox">
      <stop offset="0" stop-color="#32a071"/>
      <stop offset="0.069" stop-color="#2da771"/>
      <stop offset="0.476" stop-color="#15cf74"/>
      <stop offset="0.801" stop-color="#06e775"/>
      <stop offset="1" stop-color="#00f076"/>
    </linearGradient>
  </defs>
  <g id="Google_Play-Logo.wine" transform="translate(0 0)">
    <g id="g1231" transform="translate(0 0)">
      <path id="path1192" d="M.566,24.382A2.52,2.52,0,0,0,0,26.137v27.5a2.4,2.4,0,0,0,.58,1.741l.1.082L16.088,40.054v-.346L.664,24.3Z" transform="translate(0 -23.892)" fill-rule="evenodd" fill="url(#linear-gradient)"/>
      <path id="path1203" d="M961.44,645.744,956.3,640.6v-.36l5.142-5.142.111.069,6.082,3.456c1.741.982,1.741,2.6,0,3.594l-6.082,3.456S961.44,645.744,961.44,645.744Z" transform="translate(-940.225 -624.424)" fill-rule="evenodd" fill="url(#linear-gradient-2)"/>
      <path id="path1210" d="M54.46,956.953,49.208,951.7,33.7,967.208a2.033,2.033,0,0,0,2.585.082L54.46,956.953" transform="translate(-33.134 -935.703)" fill-rule="evenodd" fill="url(#linear-gradient-3)"/>
      <path id="path1223" d="M54.46,11.018,36.285.693A2.016,2.016,0,0,0,33.7.776L49.207,16.269Z" transform="translate(-33.134 -0.272)" fill-rule="evenodd" fill="url(#linear-gradient-4)"/>
      <path id="path1225" d="M55.135,1257.6l-18.05,10.255a2.051,2.051,0,0,1-2.488.013l-.1.1.1.082a2.053,2.053,0,0,0,2.488-.014l18.174-10.324Z" transform="translate(-33.92 -1236.461)" fill-rule="evenodd" opacity="0.2"/>
      <path id="path1227" d="M1267.506,953.317l-6.206,3.525.111.111,6.082-3.456a2.18,2.18,0,0,0,1.3-1.8A2.248,2.248,0,0,1,1267.506,953.317Z" transform="translate(-1240.098 -935.703)" fill-rule="evenodd" opacity="0.12"/>
      <path id="path1229" d="M3.152.61,27.408,14.39a2.28,2.28,0,0,1,1.3,1.617,2.182,2.182,0,0,0-1.3-1.8L3.152.43C1.41-.565,0,.264,0,2.254v.18C0,.444,1.41-.372,3.152.61Z" transform="translate(0 -0.008)" fill="#fff" fill-rule="evenodd" opacity="0.25"/>
    </g>
  </g>
</svg>
