<svg xmlns="http://www.w3.org/2000/svg" width="60" height="53.334" viewBox="0 0 60 53.334">
  <path id="Icon_awesome-hammer" data-name="Icon awesome-hammer" d="M59.512,20.2l-2.357-2.357a1.667,1.667,0,0,0-2.357,0l-1.178,1.178-3.01-3.01a6.639,6.639,0,0,0-1.7-6.418L44.192,4.881a16.668,16.668,0,0,0-23.571,0l9.428,4.714v1.953A6.663,6.663,0,0,0,32,16.262l5.119,5.119a6.639,6.639,0,0,0,6.418,1.7l3.01,3.01-1.178,1.178a1.667,1.667,0,0,0,0,2.357l2.357,2.357a1.667,1.667,0,0,0,2.357,0l9.428-9.428a1.667,1.667,0,0,0,0-2.356ZM29.645,18.619a10.109,10.109,0,0,1-1.026-1.245L2.046,42.184a6.441,6.441,0,1,0,9.1,9.1l24.805-26.57a10.128,10.128,0,0,1-1.192-.98l-5.119-5.119Z" transform="translate(0)" fill="#51459e"/>
</svg>
