<svg xmlns="http://www.w3.org/2000/svg" width="161.275" height="36.223" viewBox="0 0 161.275 36.223">
  <g id="Logo" transform="translate(-77.999 -21.681)">
    <path id="Path_16" data-name="Path 16" d="M342.029-154a5.178,5.178,0,0,1,1.6.26,4.865,4.865,0,0,1,1.438.739,3.87,3.87,0,0,1,1.037,1.176,3.046,3.046,0,0,1,.4,1.546V-137.1a3.2,3.2,0,0,1-.373,1.559,3.53,3.53,0,0,1-1,1.149,4.829,4.829,0,0,1-1.438.725,10.234,10.234,0,0,1-1.673.26H327.481a10.19,10.19,0,0,1-1.687-.26,4.861,4.861,0,0,1-1.424-.725,3.529,3.529,0,0,1-1-1.149A3.2,3.2,0,0,1,323-137.1v-13.184a3.046,3.046,0,0,1,.4-1.546A3.87,3.87,0,0,1,324.438-153a4.865,4.865,0,0,1,1.438-.739,5.178,5.178,0,0,1,1.6-.26Zm-1.881,3.748H329.361a2.582,2.582,0,0,0-1.881.561,2.183,2.183,0,0,0-.553,1.6v8.725a2.234,2.234,0,0,0,.539,1.669,2.663,2.663,0,0,0,1.867.52h10.842a2.571,2.571,0,0,0,1.867-.547,2.249,2.249,0,0,0,.539-1.641v-8.725a2.183,2.183,0,0,0-.553-1.6A2.582,2.582,0,0,0,340.148-150.252Z" transform="translate(-237.068 181.962)" fill="#51459e" opacity="0.204"/>
    <path id="Path_14" data-name="Path 14" d="M342.029-154a5.178,5.178,0,0,1,1.6.26,4.865,4.865,0,0,1,1.438.739,3.87,3.87,0,0,1,1.037,1.176,3.046,3.046,0,0,1,.4,1.546V-137.1a3.2,3.2,0,0,1-.373,1.559,3.53,3.53,0,0,1-1,1.149,4.829,4.829,0,0,1-1.438.725,5.48,5.48,0,0,1-1.673.26h-4.392l-2.048,2.745a1.123,1.123,0,0,1-1.554.234,1.1,1.1,0,0,1-.238-.234l-2.049-2.745h-4.267a5.439,5.439,0,0,1-1.687-.26,4.861,4.861,0,0,1-1.424-.725,3.529,3.529,0,0,1-1-1.149A3.2,3.2,0,0,1,323-137.1v-13.184a3.046,3.046,0,0,1,.4-1.546A3.87,3.87,0,0,1,324.438-153a4.865,4.865,0,0,1,1.438-.739,5.178,5.178,0,0,1,1.6-.26Zm-1.881,3.748H329.361a2.582,2.582,0,0,0-1.881.561,2.183,2.183,0,0,0-.553,1.6v8.725a2.234,2.234,0,0,0,.539,1.669,2.663,2.663,0,0,0,1.867.52h10.842a2.571,2.571,0,0,0,1.867-.547,2.249,2.249,0,0,0,.539-1.641v-8.725a2.183,2.183,0,0,0-.553-1.6A2.582,2.582,0,0,0,340.148-150.252Z" transform="translate(-245.001 188.115)" fill="#51459e"/>
    <g id="Group_7" data-name="Group 7" transform="translate(219.509 52.981)">
      <ellipse id="Ellipse_4" data-name="Ellipse 4" cx="2.5" cy="2.461" rx="2.5" ry="2.461" transform="translate(0)" fill="#51459e"/>
      <ellipse id="Ellipse_5" data-name="Ellipse 5" cx="2.5" cy="2.461" rx="2.5" ry="2.461" transform="translate(7.383)" fill="#51459e"/>
      <ellipse id="Ellipse_6" data-name="Ellipse 6" cx="2.5" cy="2.461" rx="2.5" ry="2.461" transform="translate(14.766)" fill="#51459e"/>
    </g>
    <path id="Path_15" data-name="Path 15" d="M6.989,3.793V-20H2.44v23.8ZM20.216-11.954a9.318,9.318,0,0,0-1.085-4.672,7.38,7.38,0,0,0-2.852-2.887,7.706,7.706,0,0,0-3.8-.98A6.161,6.161,0,0,0,8.9-19.442a6.715,6.715,0,0,0-2.345,2.957,11.393,11.393,0,0,0-.822,4.532A11.423,11.423,0,0,0,6.552-7.44,6.7,6.7,0,0,0,8.9-4.466a6.161,6.161,0,0,0,3.587,1.05,7.706,7.706,0,0,0,3.8-.98,7.351,7.351,0,0,0,2.852-2.9A9.341,9.341,0,0,0,20.216-11.954Zm-4.689,0A4.763,4.763,0,0,1,14.932-9.5a3.96,3.96,0,0,1-1.592,1.54,4.623,4.623,0,0,1-2.187.525,4.191,4.191,0,0,1-1.977-.507A4.018,4.018,0,0,1,7.6-9.469a4.727,4.727,0,0,1-.612-2.484A4.727,4.727,0,0,1,7.6-14.438a4.018,4.018,0,0,1,1.575-1.522,4.191,4.191,0,0,1,1.977-.507,4.623,4.623,0,0,1,2.187.525,3.96,3.96,0,0,1,1.592,1.54A4.763,4.763,0,0,1,15.527-11.954ZM26.655-20H22.211v16.1h4.444Zm4.724,4.724,2.065-3.849a2.987,2.987,0,0,0-1.277-.945,4.434,4.434,0,0,0-1.662-.315,4.04,4.04,0,0,0-2.449.892,6.52,6.52,0,0,0-1.925,2.38A7.6,7.6,0,0,0,25.4-13.7l1.26,1.26a5.831,5.831,0,0,1,.3-1.977,2.724,2.724,0,0,1,.892-1.277,2.292,2.292,0,0,1,1.435-.455,2.693,2.693,0,0,1,1.172.227A3.825,3.825,0,0,1,31.379-15.278Zm1.47,3.324a8.215,8.215,0,0,0,1.172,4.392,8.02,8.02,0,0,0,3.184,2.957,9.725,9.725,0,0,0,4.567,1.05,9.725,9.725,0,0,0,4.567-1.05,8.02,8.02,0,0,0,3.184-2.957A8.215,8.215,0,0,0,50.7-11.954a8.191,8.191,0,0,0-1.172-4.409A8.061,8.061,0,0,0,46.338-19.3a9.725,9.725,0,0,0-4.567-1.05,9.725,9.725,0,0,0-4.567,1.05,8.061,8.061,0,0,0-3.184,2.939A8.191,8.191,0,0,0,32.849-11.954Zm4.619,0a4.928,4.928,0,0,1,.577-2.415,4.06,4.06,0,0,1,1.557-1.61,4.3,4.3,0,0,1,2.17-.56,4.3,4.3,0,0,1,2.17.56,4.06,4.06,0,0,1,1.557,1.61,4.928,4.928,0,0,1,.577,2.415,4.829,4.829,0,0,1-.577,2.4,4.217,4.217,0,0,1-1.557,1.61,4.194,4.194,0,0,1-2.17.577,4.194,4.194,0,0,1-2.17-.577,4.217,4.217,0,0,1-1.557-1.61A4.829,4.829,0,0,1,37.468-11.954ZM50.625-20v3.814h9.938V-20Zm2.764-5.6v21.7h4.374V-25.6Zm7.1,13.647a8.215,8.215,0,0,0,1.172,4.392A8.02,8.02,0,0,0,64.85-4.605a9.725,9.725,0,0,0,4.567,1.05,9.725,9.725,0,0,0,4.567-1.05,8.02,8.02,0,0,0,3.184-2.957,8.215,8.215,0,0,0,1.172-4.392,8.191,8.191,0,0,0-1.172-4.409A8.061,8.061,0,0,0,73.983-19.3a9.725,9.725,0,0,0-4.567-1.05A9.725,9.725,0,0,0,64.85-19.3a8.061,8.061,0,0,0-3.184,2.939A8.191,8.191,0,0,0,60.493-11.954Zm4.619,0a4.928,4.928,0,0,1,.577-2.415,4.06,4.06,0,0,1,1.557-1.61,4.3,4.3,0,0,1,2.17-.56,4.3,4.3,0,0,1,2.17.56,4.06,4.06,0,0,1,1.557,1.61,4.928,4.928,0,0,1,.577,2.415,4.829,4.829,0,0,1-.577,2.4,4.217,4.217,0,0,1-1.557,1.61,4.194,4.194,0,0,1-2.17.577,4.194,4.194,0,0,1-2.17-.577,4.217,4.217,0,0,1-1.557-1.61A4.829,4.829,0,0,1,65.112-11.954Zm18.651,0a4.6,4.6,0,0,1,.63-2.415,4.639,4.639,0,0,1,1.7-1.662,4.661,4.661,0,0,1,2.362-.612,6.372,6.372,0,0,1,1.96.315,6.666,6.666,0,0,1,1.8.892,3.987,3.987,0,0,1,1.242,1.347v-4.654a6.174,6.174,0,0,0-2.187-1.172,10.154,10.154,0,0,0-3.132-.437,9.937,9.937,0,0,0-4.6,1.05,8,8,0,0,0-3.219,2.939,8.191,8.191,0,0,0-1.172,4.409,8.215,8.215,0,0,0,1.172,4.392,7.963,7.963,0,0,0,3.219,2.957,9.937,9.937,0,0,0,4.6,1.05,10.154,10.154,0,0,0,3.132-.437A5.868,5.868,0,0,0,93.456-5.2V-9.854a4.117,4.117,0,0,1-1.207,1.347,6.494,6.494,0,0,1-1.767.91,6.274,6.274,0,0,1-2.03.332A4.769,4.769,0,0,1,86.09-7.86a4.5,4.5,0,0,1-1.7-1.645A4.669,4.669,0,0,1,83.763-11.954Zm15.5,3.044a2.068,2.068,0,0,1,.315-1.172,2.024,2.024,0,0,1,.98-.735,4.731,4.731,0,0,1,1.715-.262,8.58,8.58,0,0,1,2.467.35,6.786,6.786,0,0,1,2.117,1.05v-2.1a4.209,4.209,0,0,0-1.155-.875,8.527,8.527,0,0,0-1.977-.77,10.5,10.5,0,0,0-2.712-.315,7.1,7.1,0,0,0-4.654,1.365,4.565,4.565,0,0,0-1.645,3.709A4.768,4.768,0,0,0,95.5-5.883a5.039,5.039,0,0,0,2.082,1.732,6.624,6.624,0,0,0,2.8.595,7.691,7.691,0,0,0,2.817-.525,5.243,5.243,0,0,0,2.2-1.575,3.96,3.96,0,0,0,.857-2.589l-.56-2.1a3.6,3.6,0,0,1-.525,1.977,3.536,3.536,0,0,1-1.365,1.26,4.029,4.029,0,0,1-1.89.437,3.385,3.385,0,0,1-1.347-.262,2.181,2.181,0,0,1-.962-.77A2.074,2.074,0,0,1,99.265-8.91Zm-1.75-6.544a8.037,8.037,0,0,1,1.085-.595,9,9,0,0,1,1.75-.595,9.069,9.069,0,0,1,2.135-.245,5.817,5.817,0,0,1,1.33.14,2.87,2.87,0,0,1,1.032.455,1.919,1.919,0,0,1,.647.787,2.789,2.789,0,0,1,.21,1.137V-3.906h4.374V-15.313a4.313,4.313,0,0,0-.91-2.782,5.637,5.637,0,0,0-2.519-1.732,10.556,10.556,0,0,0-3.674-.595,12.675,12.675,0,0,0-4.059.612,21.045,21.045,0,0,0-3.079,1.277ZM112.877-31.2V-3.906h4.549V-31.2Zm7.628,0V-3.906h4.549V-31.2Z" transform="translate(113.704 52.881)" fill="#51459e"/>
  </g>
</svg>
