<svg xmlns="http://www.w3.org/2000/svg" width="779.683" height="639.716" viewBox="0 0 779.683 639.716">
  <g id="pixeltrue-welcome" transform="translate(-145.508 -59.4)">
    <g id="background" transform="translate(145.508 59.4)">
      <g id="details">
        <circle id="Ellipse_1404" data-name="Ellipse 1404" cx="9.91" cy="9.91" r="9.91" transform="translate(529.667 125.001)" fill="#6d6d6d"/>
        <circle id="Ellipse_1405" data-name="Ellipse 1405" cx="4.621" cy="4.621" r="4.621" transform="translate(545.474 108.099)" fill="#6d6d6d"/>
        <circle id="Ellipse_1406" data-name="Ellipse 1406" cx="4.742" cy="4.742" r="4.742" transform="translate(242.397 47.726)" fill="#6d6d6d"/>
        <circle id="Ellipse_1407" data-name="Ellipse 1407" cx="8.025" cy="8.025" r="8.025" transform="translate(549.426 596.185)" fill="#6d6d6d"/>
        <circle id="Ellipse_1408" data-name="Ellipse 1408" cx="3.709" cy="3.709" r="3.709" transform="translate(188.53 632.299)" fill="#6d6d6d"/>
        <circle id="Ellipse_1409" data-name="Ellipse 1409" cx="3.83" cy="3.83" r="3.83" transform="translate(234.736 358.1)" fill="#ec615b"/>
        <circle id="Ellipse_1410" data-name="Ellipse 1410" cx="3.709" cy="3.709" r="3.709" transform="translate(242.397 377.859)" fill="#333"/>
        <circle id="Ellipse_1411" data-name="Ellipse 1411" cx="6.931" cy="6.931" r="6.931" transform="translate(234.736 474.771)" fill="#333"/>
        <circle id="Ellipse_1412" data-name="Ellipse 1412" cx="4.377" cy="4.377" r="4.377" transform="translate(529.667 85.968)" fill="#333"/>
        <circle id="Ellipse_1413" data-name="Ellipse 1413" cx="3.83" cy="3.83" r="3.83" transform="translate(363.688 94.723)" fill="#333"/>
        <circle id="Ellipse_1414" data-name="Ellipse 1414" cx="2.918" cy="2.918" r="2.918" transform="translate(23.098 396.159)" fill="#333"/>
        <circle id="Ellipse_1415" data-name="Ellipse 1415" cx="7.296" cy="7.296" r="7.296" transform="translate(540.002 617.707)" fill="#333"/>
        <circle id="Ellipse_1416" data-name="Ellipse 1416" cx="3.83" cy="3.83" r="3.83" transform="translate(621.593)" fill="#333"/>
        <g id="Group_10434" data-name="Group 10434" transform="translate(251.039 144.582)">
          <g id="Group_10433" data-name="Group 10433">
            <path id="Path_5406" data-name="Path 5406" d="M560.655,328.635c-.608-3.769-1.155-11.308,4.864-10.7,2.189.243,3.4,2.189,5.837,1.338,4.56-1.581,3.526-7.478,5.411-10.883,3.1-5.472,9.12,2.493,13.74-.122,1.52-.851,1.885-2.432,1.824-4.073-.122-6.141,5.289-5.715,9.728-4.5a.915.915,0,0,0,.486-1.763c-4.5-1.216-11.977-1.642-12.16,4.864-.061,1.581.79,3.161-1.52,4.134a4.782,4.782,0,0,1-2.614-.243c-1.581-.486-2.979-1.581-4.621-2.006a5.2,5.2,0,0,0-5.654,1.52c-1.824,2.189-1.763,5.168-2.614,7.721-.912,2.736-2.675,4.317-5.654,2.979A6.559,6.559,0,0,0,564,316.05c-6.262.851-5.958,8.451-5.168,13.072.243,1.155,2.006.669,1.824-.486Z" transform="translate(-558.415 -297.207)" fill="#424242"/>
          </g>
        </g>
        <g id="Group_10436" data-name="Group 10436" transform="translate(258.617 152.594)">
          <g id="Group_10435" data-name="Group 10435">
            <path id="Path_5407" data-name="Path 5407" d="M572.716,337.328c.486-3.77,3.526-5.411,7.053-5.411,1.885,0,3.769.3,5.593-.365,4.134-1.581,3.344-6.08,4.317-9.606,1.824-6.688,10.275-2.554,14.956-3.648,3.161-.79,5.837-3.952,4.5-7.3-.426-1.094-2.189-.608-1.763.486,2.067,5.046-4.985,5.35-7.964,4.985-2.189-.243-4.317-.608-6.505-.061-3.465.912-4.8,3.465-5.289,6.749-.426,3.04-.365,6.384-4.317,6.87-2.128.243-4.256-.365-6.384.122a7.973,7.973,0,0,0-6.019,7.053c-.182,1.277,1.642,1.277,1.824.122Z" transform="translate(-570.879 -310.385)" fill="#424242"/>
          </g>
        </g>
        <g id="Group_10438" data-name="Group 10438" transform="translate(382.459 29.91)">
          <g id="Group_10437" data-name="Group 10437">
            <path id="Path_5408" data-name="Path 5408" d="M778.177,108.9c-2.128,2.675-4.377,5.958-3.344,9.545.851,2.918,3.162,4.013,5.958,3.83,1.642-.122,3.344-.547,4.681.912,1.034,1.094.365,3.4.061,4.621-.486,1.885-1.4,3.709-1.216,5.715.3,2.736,2.493,4.864,5.289,4.256,1.155-.243.669-2.006-.486-1.763-5.289,1.216-1.642-7.6-1.4-9.728a5.937,5.937,0,0,0-1.459-4.985c-1.338-1.277-2.979-1.155-4.681-.973-2.675.3-5.168-.547-5.289-3.769-.061-2.432,1.642-4.621,3.1-6.445.851-.79-.486-2.128-1.216-1.216Z" transform="translate(-774.573 -108.596)" fill="#424242"/>
          </g>
        </g>
        <g id="Group_10440" data-name="Group 10440" transform="translate(396.297 29.23)">
          <g id="Group_10439" data-name="Group 10439">
            <path id="Path_5409" data-name="Path 5409" d="M801.448,107.552a6.19,6.19,0,0,0-1.52,10.883c1.459,1.094,3.162.851,4.621,1.763,2.736,1.642.547,4.864.669,7.417a3.866,3.866,0,0,0,1.459,3.222,2.948,2.948,0,0,0,4.742-1.216c.365-1.094-1.4-1.581-1.763-.486-2.31-.3-3.1-1.338-2.432-3.1l.365-1.824a9.28,9.28,0,0,0,.182-1.824,4.758,4.758,0,0,0-1.338-3.526c-1.459-1.338-3.709-.79-5.289-1.885-3.222-2.25-2.067-6.505,1.216-7.9,1.094-.426.122-1.946-.912-1.52Z" transform="translate(-797.335 -107.478)" fill="#424242"/>
          </g>
        </g>
        <g id="Group_10442" data-name="Group 10442" transform="translate(0 353.67)">
          <g id="Group_10441" data-name="Group 10441">
            <path id="Path_5410" data-name="Path 5410" d="M148.361,676.125a6.555,6.555,0,0,1,0-7.113c1.4-2.189,3.344-2.25,5.593-3.1,3.1-1.277,3.161-4.5,2.979-7.417a9.247,9.247,0,0,1,.182-3.162c.79-2.432,2.857-1.763,4.742-1.459a4.1,4.1,0,0,0,3.04-.608,6.251,6.251,0,0,0,2.25-3.526c.3-1.094.365-2.25.608-3.344a6.64,6.64,0,0,1,.73-2.189c.973-1.52,2.128-1.642,3.526-.3a.915.915,0,0,0,1.763-.486c-1.094-3.952-5.958-2.189-7.174.608a22.568,22.568,0,0,0-.912,4.013,8.244,8.244,0,0,1-.73,2.371c-.912,1.642-2.614,1.338-4.2,1.155-1.885-.182-3.344-.365-4.56,1.4-1.4,2.006-1.034,4.378-1.034,6.688.061,2.8-.547,3.891-3.283,4.8a9.209,9.209,0,0,0-2.979,1.277,8.469,8.469,0,0,0-2.128,11.248c.608,1.034,2.189.122,1.581-.851Z" transform="translate(-145.508 -641.114)" fill="#3f3f3f"/>
          </g>
        </g>
        <g id="Group_10444" data-name="Group 10444" transform="translate(7.042 362.908)">
          <g id="Group_10443" data-name="Group 10443" transform="translate(0 0)">
            <path id="Path_5411" data-name="Path 5411" d="M160.5,686.276c-2.554-.365-1.581-3.162-.426-4.256a13.016,13.016,0,0,1,3.1-1.824,11.159,11.159,0,0,0,3.648-2.614c2.614-3.283-1.155-7.661,2.493-10.275,3.648-2.554,13.436-3.709,10.579-10.518-.426-1.094-2.006-.122-1.581.912,2.067,4.925-7.965,6.384-10.518,8.451a6.115,6.115,0,0,0-2.067,2.858c-.73,2.553,1.4,5.168-.486,7.6-2.189,2.675-6.87,2.675-7.965,6.445a3.855,3.855,0,0,0,2.8,5.046c1.094.122,1.581-1.641.426-1.824Z" transform="translate(-157.09 -656.308)" fill="#3f3f3f"/>
          </g>
        </g>
        <g id="Group_10446" data-name="Group 10446" transform="translate(674.555 224.742)">
          <g id="Group_10445" data-name="Group 10445">
            <path id="Path_5412" data-name="Path 5412" d="M1257.375,455.894a3.99,3.99,0,0,1,.182-4.256c1.338-1.946,2.918-1.52,4.985-1.338,1.4.122,2.675.426,4.013-.365,2.371-1.459,2.006-4.5,2.432-6.809.973-5.411,5.654-.486,8.816-2.189a3.918,3.918,0,0,0,1.824-2.979c.426-2.371.547-9.424,5.107-6.566.973.608,1.946-.973.912-1.581-4.073-2.493-7.357,1.642-7.721,5.472-.243,2.189,0,4.317-2.918,4.013-1.033-.122-2.067-.669-3.1-.79a3.9,3.9,0,0,0-4.013,1.763c-1.034,1.7-.669,3.83-1.094,5.654-.912,4.134-4.438,1.824-7.3,2.31-3.83.669-5.593,5.289-3.769,8.512a.925.925,0,0,0,1.641-.851Z" transform="translate(-1255.011 -429.053)" fill="#3f3f3f"/>
          </g>
        </g>
        <g id="Group_10448" data-name="Group 10448" transform="translate(683.984 232.847)">
          <g id="Group_10447" data-name="Group 10447">
            <path id="Path_5413" data-name="Path 5413" d="M1272.514,464.95c-1.033-2.8,2.189-5.9,4.985-4.438a.905.905,0,0,0,1.094-.122c1.4-1.52,1.763-3.283,2.371-5.229,1.094-3.526,3.709-4.013,6.87-4.985,3.1-.973,6.566-3.526,5.289-7.174-.425-1.094-2.189-.608-1.763.486,1.763,4.8-6.87,5.168-9.424,6.931-3.1,2.189-2.189,6.141-4.56,8.694a6.7,6.7,0,0,1,1.094-.122c-4.073-2.128-9.241,2.067-7.661,6.505.365,1.034,2.128.608,1.7-.547Z" transform="translate(-1270.52 -442.385)" fill="#3f3f3f"/>
          </g>
        </g>
        <g id="Group_10450" data-name="Group 10450" transform="translate(439.281 269.46)">
          <g id="Group_10449" data-name="Group 10449" transform="translate(0 0)">
            <path id="Path_5414" data-name="Path 5414" d="M869.169,504.487c.122,0,1.459,3.283,2.006,3.709a3.54,3.54,0,0,0,2.918.547c1.824-.3,2.979-1.642,4.56-2.493,3.4-1.946,3.4,1.4,4.742,3.283,1.52,2.25,3.161,1.155,4.925.061,1.155-.73,2.25-1.216,3.283-.182a12.588,12.588,0,0,1,1.338,2.128,5.938,5.938,0,0,0,2.493,2.25c1.034.486,2.006-1.094.912-1.581-2.493-1.094-2.8-5.229-5.776-5.654-1.4-.182-2.006.608-3.1,1.216-1.338.79-2.128,1.338-2.979-.182-.365-.608-.426-1.459-.851-2.067-1.946-3.222-4.985-1.459-7.417.122a9.993,9.993,0,0,1-1.338.851c-1.034-.3-2.128-.608-3.161-.912-.426-.426-.426-1.459-.79-2.006a1.917,1.917,0,0,0-2.189-.912c-1.216.243-.73,2.006.426,1.824Z" transform="translate(-868.035 -502.606)" fill="#3f3f3f"/>
          </g>
        </g>
        <g id="Group_10452" data-name="Group 10452" transform="translate(452.995 263.026)">
          <g id="Group_10451" data-name="Group 10451">
            <path id="Path_5415" data-name="Path 5415" d="M892.3,494.5c1.824-2.858,6.019,3.1,7.721,3.83a4.525,4.525,0,0,0,3.1.122,8.79,8.79,0,0,0,1.338-.547,3.953,3.953,0,0,1,4.377.912c1.946,1.642,2.493,3.83,5.289,4.438a3.2,3.2,0,0,0,3.891-1.7c.486-1.034-1.094-2.006-1.581-.912-1.7,3.648-6.384-3.526-7.6-4.317-2.249-1.459-3.648-.243-5.9.243-3.587.73-4.742-3.283-7.721-4.256-1.763-.608-3.466-.3-4.438,1.338-.73.973.851,1.885,1.52.851Z" transform="translate(-890.591 -492.023)" fill="#3f3f3f"/>
          </g>
        </g>
      </g>
      <g id="background_grey" transform="translate(5.817 32.847)">
        <g id="Group_10454" data-name="Group 10454" transform="translate(675.222 337.108)">
          <g id="Group_10453" data-name="Group 10453">
            <path id="Path_5416" data-name="Path 5416" d="M1266.541,669.724h96.912a.913.913,0,0,0,0-1.824h-96.912a.913.913,0,0,0,0,1.824Z" transform="translate(-1265.675 -667.9)" fill="#e8e8e8"/>
          </g>
        </g>
        <g id="Group_10456" data-name="Group 10456" transform="translate(702.535 337.64)">
          <g id="Group_10455" data-name="Group 10455">
            <path id="Path_5417" data-name="Path 5417" d="M1310.6,669.641v28.21a.913.913,0,0,0,1.824,0v-28.21a.913.913,0,0,0-1.824,0Z" transform="translate(-1310.6 -668.775)" fill="#e8e8e8"/>
          </g>
        </g>
        <g id="Group_10458" data-name="Group 10458" transform="translate(745.824 297.331)">
          <g id="Group_10457" data-name="Group 10457">
            <path id="Path_5418" data-name="Path 5418" d="M1383.624,642.738v-39.4a.913.913,0,0,0-1.824,0v39.4a.912.912,0,0,0,1.824,0Z" transform="translate(-1381.8 -602.475)" fill="#e8e8e8"/>
          </g>
        </g>
        <g id="Group_10460" data-name="Group 10460" transform="translate(725.319 297.103)">
          <g id="Group_10459" data-name="Group 10459">
            <path id="Path_5419" data-name="Path 5419" d="M1348.941,603.924H1385.6a.913.913,0,0,0,0-1.824h-36.661a.913.913,0,0,0,0,1.824Z" transform="translate(-1348.075 -602.1)" fill="#e8e8e8"/>
          </g>
        </g>
        <g id="Group_10462" data-name="Group 10462" transform="translate(702.171 79.127)">
          <g id="Group_10461" data-name="Group 10461">
            <path id="Path_5420" data-name="Path 5420" d="M1310,244.441v34.047a.913.913,0,0,0,1.824,0V244.441a.913.913,0,0,0-1.824,0Z" transform="translate(-1310 -243.575)" fill="#e8e8e8"/>
          </g>
        </g>
        <g id="Group_10464" data-name="Group 10464" transform="translate(672.866 114.831)">
          <g id="Group_10463" data-name="Group 10463">
            <path id="Path_5421" data-name="Path 5421" d="M1262.712,304.124H1328.5a.913.913,0,0,0,0-1.824h-65.783a.912.912,0,1,0,0,1.824Z" transform="translate(-1261.8 -302.3)" fill="#e8e8e8"/>
          </g>
        </g>
        <g id="Group_10466" data-name="Group 10466" transform="translate(738.953 115.545)">
          <g id="Group_10465" data-name="Group 10465">
            <path id="Path_5422" data-name="Path 5422" d="M1370.5,304.341v22.617a.913.913,0,0,0,1.824,0V304.341a.913.913,0,0,0-1.824,0Z" transform="translate(-1370.5 -303.475)" fill="#e8e8e8"/>
          </g>
        </g>
        <g id="Group_10468" data-name="Group 10468" transform="translate(127.47 42.725)">
          <g id="Group_10467" data-name="Group 10467">
            <path id="Path_5423" data-name="Path 5423" d="M365.627,185.524h64.446a.913.913,0,0,0,0-1.824H365.627a.912.912,0,0,0,0,1.824Z" transform="translate(-364.737 -183.7)" fill="#e8e8e8"/>
          </g>
        </g>
        <g id="Group_10470" data-name="Group 10470" transform="translate(190.13 43.454)">
          <g id="Group_10469" data-name="Group 10469">
            <path id="Path_5424" data-name="Path 5424" d="M467.8,185.812v17.51a.913.913,0,0,0,1.824,0v-17.51a.912.912,0,1,0-1.824,0Z" transform="translate(-467.8 -184.9)" fill="#e8e8e8"/>
          </g>
        </g>
        <g id="Group_10472" data-name="Group 10472" transform="translate(168.79 14.013)">
          <g id="Group_10471" data-name="Group 10471">
            <path id="Path_5425" data-name="Path 5425" d="M434.524,165.369V137.341a.913.913,0,0,0-1.824,0v28.028a.912.912,0,0,0,1.824,0Z" transform="translate(-432.7 -136.475)" fill="#e8e8e8"/>
          </g>
        </g>
        <g id="Group_10474" data-name="Group 10474" transform="translate(0 230.104)">
          <g id="Group_10473" data-name="Group 10473">
            <path id="Path_5426" data-name="Path 5426" d="M155.941,493.724h44.5a.913.913,0,0,0,0-1.824h-44.5a.913.913,0,0,0,0,1.824Z" transform="translate(-155.075 -491.9)" fill="#e8e8e8"/>
          </g>
        </g>
        <g id="Group_10476" data-name="Group 10476" transform="translate(28.043 212.761)">
          <g id="Group_10475" data-name="Group 10475">
            <path id="Path_5427" data-name="Path 5427" d="M201.2,464.241v16.415a.913.913,0,0,0,1.824,0V464.241a.913.913,0,0,0-1.824,0Z" transform="translate(-201.2 -463.375)" fill="#e8e8e8"/>
          </g>
        </g>
        <g id="Group_10478" data-name="Group 10478" transform="translate(16.431 212.716)">
          <g id="Group_10477" data-name="Group 10477">
            <path id="Path_5428" data-name="Path 5428" d="M183.012,465.124h23.711a.913.913,0,0,0,0-1.824H183.012a.912.912,0,1,0,0,1.824Z" transform="translate(-182.1 -463.3)" fill="#e8e8e8"/>
          </g>
        </g>
        <g id="Group_10480" data-name="Group 10480" transform="translate(284.185 596.047)">
          <g id="Group_10479" data-name="Group 10479">
            <path id="Path_5429" data-name="Path 5429" d="M623.412,1095.624h59.46a.913.913,0,0,0,0-1.824h-59.46a.912.912,0,1,0,0,1.824Z" transform="translate(-622.5 -1093.8)" fill="#e8e8e8"/>
          </g>
        </g>
        <g id="Group_10482" data-name="Group 10482" transform="translate(319.873 582.352)">
          <g id="Group_10481" data-name="Group 10481">
            <path id="Path_5430" data-name="Path 5430" d="M683.024,1084.97v-12.828a.913.913,0,0,0-1.824,0v12.828a.912.912,0,1,0,1.824,0Z" transform="translate(-681.2 -1071.275)" fill="#e8e8e8"/>
          </g>
        </g>
        <g id="Group_10484" data-name="Group 10484" transform="translate(315.298 581.455)">
          <g id="Group_10483" data-name="Group 10483">
            <path id="Path_5431" data-name="Path 5431" d="M674.541,1071.624h24.684a.913.913,0,0,0,0-1.824H674.541a.913.913,0,0,0,0,1.824Z" transform="translate(-673.675 -1069.8)" fill="#e8e8e8"/>
          </g>
        </g>
        <g id="Group_10486" data-name="Group 10486" transform="translate(1.398 564.067)">
          <g id="Group_10485" data-name="Group 10485">
            <path id="Path_5432" data-name="Path 5432" d="M158.241,1043.024H217.7a.913.913,0,0,0,0-1.824h-59.46a.913.913,0,0,0,0,1.824Z" transform="translate(-157.375 -1041.2)" fill="#e8e8e8"/>
          </g>
        </g>
        <g id="Group_10488" data-name="Group 10488" transform="translate(29.745 541.192)">
          <g id="Group_10487" data-name="Group 10487">
            <path id="Path_5433" data-name="Path 5433" d="M204,1004.441v21.036a.913.913,0,0,0,1.824,0v-21.036a.913.913,0,0,0-1.824,0Z" transform="translate(-204 -1003.575)" fill="#e8e8e8"/>
          </g>
        </g>
        <g id="Group_10490" data-name="Group 10490" transform="translate(5.107 539.322)">
          <g id="Group_10489" data-name="Group 10489">
            <path id="Path_5434" data-name="Path 5434" d="M188.113,1000.5H164.341a.913.913,0,0,0,0,1.824h23.772a.913.913,0,0,0,0-1.824Z" transform="translate(-163.475 -1000.5)" fill="#e8e8e8"/>
          </g>
        </g>
        <g id="Group_10492" data-name="Group 10492" transform="translate(660.088 484.688)">
          <g id="Group_10491" data-name="Group 10491">
            <path id="Path_5435" data-name="Path 5435" d="M1243.894,938.339c-2.006-2.006-1.52-5.9,1.581-6.566,1.642-.365,3.222.669,4.8.851a3.187,3.187,0,0,0,3.283-1.034c1.216-1.581.243-3.4.182-5.168-.121-5.533,6.445-5.168,9.728-3.222a.923.923,0,0,0,1.338-1.034,8,8,0,0,1,13.072-7.782c.912.73,2.189-.547,1.277-1.277a9.846,9.846,0,0,0-16.111,9.606c.426-.365.912-.669,1.338-1.034-2.8-1.7-6.384-2.553-9.363-.669a6.281,6.281,0,0,0-2.553,2.918,5.324,5.324,0,0,0-.486,2.554c.061,1.642.608,1.52-.608,3.1-1.338,1.763-1.459.973-3.344.547a5.657,5.657,0,0,0-5.9,1.641c-2.128,2.371-1.581,5.715.547,7.843.79.851,2.067-.426,1.216-1.277Z" transform="translate(-1240.782 -910.638)" fill="#e8e8e8"/>
          </g>
        </g>
        <g id="Group_10494" data-name="Group 10494" transform="translate(673.258 496.161)">
          <g id="Group_10493" data-name="Group 10493">
            <path id="Path_5436" data-name="Path 5436" d="M1264.242,947.56c-.669-5.533,8.39-5.593,10.944-9.424a15.412,15.412,0,0,0,1.337-3.1,6.017,6.017,0,0,1,4.256-3.648c3.344-.851,6.809.669,9.849,1.945,1.094.426,1.581-1.338.486-1.763-5.593-2.31-13.132-4.073-16.233,2.736-1.094,2.432-1.459,3.769-4.013,5.046-1.52.73-3.1,1.155-4.56,2.006-2.31,1.338-4.134,3.4-3.83,6.2.121,1.155,1.945,1.155,1.763,0Z" transform="translate(-1262.445 -929.509)" fill="#e8e8e8"/>
          </g>
        </g>
        <g id="Group_10496" data-name="Group 10496" transform="translate(411.492 336.335)">
          <g id="Group_10495" data-name="Group 10495">
            <path id="Path_5437" data-name="Path 5437" d="M833.964,667.706c1.216,3.04,2.432,6.141,3.648,9.18.122-.365.3-.669.426-1.034-.669.426-1.338.851-2.006,1.338-1.034-2.432-.608-3.04,1.338-1.945a5.422,5.422,0,0,1,1.946,3.587,17.285,17.285,0,0,1-1.034,8.755.889.889,0,0,0,1.094,1.094c3.648-.73,5.107,3.648,4.377,6.384a21.337,21.337,0,0,1-2.736,5.533c-.608.973.973,1.885,1.581.912,1.946-3.04,4.2-6.809,2.857-10.579a5.828,5.828,0,0,0-6.566-4.013l1.094,1.094c1.216-3.526,2.006-7.964.486-11.552-1.034-2.371-3.4-4.2-6.08-3.4a3.262,3.262,0,0,0-2.128,4.681c1.642,3.344,4.5,1.094,6.627-.3a.986.986,0,0,0,.426-1.034c-1.216-3.04-2.432-6.141-3.648-9.18-.365-1.034-2.128-.608-1.7.486Z" transform="translate(-831.893 -666.629)" fill="#e8e8e8"/>
          </g>
        </g>
        <g id="Group_10498" data-name="Group 10498" transform="translate(52.025 44.602)">
          <g id="Group_10497" data-name="Group 10497">
            <path id="Path_5438" data-name="Path 5438" d="M242.624,191.963c-1.155-2.918,2.736-3.709,4.56-2.675a10.157,10.157,0,0,1,3.161,3.465,15.192,15.192,0,0,1,2.067,3.769,3.616,3.616,0,0,1-.182,3.344c-2.128.973-3.222.73-3.283-.669-.547-2.006,1.581-3.344,3.4-3.283a7.448,7.448,0,0,1,4.925,2.493,10.506,10.506,0,0,1,2.675,8.451c.547-.182,1.155-.3,1.7-.486-1.216-1.763-.061-3.648,1.581-4.56a4.534,4.534,0,0,1,4.317.182c2.189,1.155,3.709,3.283,5.107,5.229.669.973,2.25.061,1.581-.912-2.31-3.222-5.776-7.721-10.336-6.688-3.344.73-6.019,4.621-3.83,7.661a.924.924,0,0,0,1.7-.486c.547-5.776-3.709-13.68-10.518-12.707a4.567,4.567,0,0,0-4.2,4.56c0,1.946,1.216,3.952,3.283,4.073,2.432.182,4.073-2.189,4.2-4.377.182-3.04-2.189-6.323-4.013-8.573-1.7-2.006-4.2-3.709-6.87-2.675-2.189.79-3.648,2.979-2.736,5.229.365,1.216,2.128.73,1.7-.365Z" transform="translate(-240.646 -186.787)" fill="#e8e8e8"/>
          </g>
        </g>
        <g id="Group_10500" data-name="Group 10500" transform="translate(371.259 132.612)">
          <g id="Group_10499" data-name="Group 10499" transform="translate(0 0)">
            <path id="Path_5439" data-name="Path 5439" d="M768.748,337.9c-2.554-1.52-.73-6.019,2.128-4.134,2.736,1.824-.912,4.925-2.675,2.8-.73-.912-2.006.365-1.277,1.277a4.018,4.018,0,0,0,5.654.182,3.588,3.588,0,0,0-.547-5.654,3.874,3.874,0,0,0-5.776,1.094,4.56,4.56,0,0,0,1.641,6.019c.912.547,1.824-.973.851-1.581Z" transform="translate(-765.719 -331.546)" fill="#e8e8e8"/>
          </g>
        </g>
        <g id="Group_10502" data-name="Group 10502" transform="translate(565.614)">
          <g id="Group_10501" data-name="Group 10501">
            <path id="Path_5440" data-name="Path 5440" d="M1087.768,119.429c-1.338-1.885.973-4.742,3.1-3.891-.182-.122-.365-.3-.547-.426a3.175,3.175,0,0,1-2.8,4.621,10.419,10.419,0,0,1,.851.669c-.365-1.034-.791-2.128-1.155-3.161-.426-1.094-2.189-.608-1.763.486.365,1.034.79,2.128,1.155,3.161a.845.845,0,0,0,.851.669,4.8,4.8,0,0,0,4.5-2.8c.669-1.338,1.034-4.134-.608-4.985-3.587-1.763-7.3,3.587-5.168,6.566.669.973,2.249.061,1.581-.912Z" transform="translate(-1085.392 -113.427)" fill="#e8e8e8"/>
          </g>
        </g>
        <g id="Group_10504" data-name="Group 10504" transform="translate(615.556 91.306)">
          <g id="Group_10503" data-name="Group 10503">
            <path id="Path_5441" data-name="Path 5441" d="M1169.46,268.709a2.835,2.835,0,0,1,2.128-3.222,2.525,2.525,0,0,1,2.736,1.946c.79,2.736-2.8,4.013-4.5,2.128-.79-.851-2.067.426-1.277,1.277,3.161,3.526,9.241.061,7.3-4.438a4.258,4.258,0,0,0-5.107-2.614,4.7,4.7,0,0,0-3.1,5.411.945.945,0,0,0,1.824-.486Z" transform="translate(-1167.536 -263.605)" fill="#e8e8e8"/>
          </g>
        </g>
        <g id="Group_10506" data-name="Group 10506" transform="translate(416.539 583.585)">
          <g id="Group_10505" data-name="Group 10505">
            <path id="Path_5442" data-name="Path 5442" d="M843.785,1089.352a3.081,3.081,0,0,1,0-5.472c2.067-1.155,4.013-.122,5.9.73,1.581.729,3.4,1.4,4.8,0,1.277-1.216,1.034-3.1,1.094-4.682.243-6.141,6.2-4.925,10.275-3.4,1.094.425,1.581-1.338.486-1.763-3.587-1.4-8.573-2.736-11.43.791a5.7,5.7,0,0,0-1.155,3.526c-.061.851.3,2.736-.182,3.526-1.338,2.006-3.162.182-4.56-.425-2.675-1.155-6.505-.851-8.147,1.945a4.8,4.8,0,0,0,1.946,6.749c1.094.547,2.006-1.034.973-1.52Z" transform="translate(-840.196 -1073.303)" fill="#e8e8e8"/>
          </g>
        </g>
      </g>
      <g id="flower" transform="translate(454.48 364.271)">
        <g id="Group_10508" data-name="Group 10508" transform="translate(0 124.043)">
          <g id="Group_10507" data-name="Group 10507">
            <path id="Path_5443" data-name="Path 5443" d="M893.925,863.441a266.869,266.869,0,0,0,2.918,66.756c.182,1.155,1.946.669,1.763-.486a265.872,265.872,0,0,1-2.858-66.27c.122-1.155-1.7-1.155-1.824,0Z" transform="translate(-893.033 -862.575)" fill="#e8e8e8"/>
          </g>
        </g>
        <g id="Group_10510" data-name="Group 10510" transform="translate(1.474 124.479)">
          <g id="Group_10509" data-name="Group 10509">
            <path id="Path_5444" data-name="Path 5444" d="M896.091,865.121a133.969,133.969,0,0,0,29.244,6.566c9.363.973,20.124,2.006,29.122-1.52,1.094-.426.608-2.189-.486-1.763-8.755,3.466-19.395,2.432-28.636,1.459a129.661,129.661,0,0,1-28.757-6.505c-1.155-.426-1.581,1.338-.486,1.763Z" transform="translate(-895.457 -863.292)" fill="#e8e8e8"/>
          </g>
        </g>
        <g id="Group_10512" data-name="Group 10512" transform="translate(0.367 2.573)">
          <g id="Group_10511" data-name="Group 10511">
            <path id="Path_5445" data-name="Path 5445" d="M909.847,789.009a68.431,68.431,0,0,1-7.6-15.747,75.364,75.364,0,0,1-2.128-8.086c-.3-1.642-.608-3.283-.79-4.925,0-.182-.669-4.5.608-3.891.608.3,1.641-.243,1.338-1.034a75.712,75.712,0,0,1-5.35-26.447l-.912.912c.486.182.912.365,1.4.547.608.73,1.763-.061,1.52-.912a50.136,50.136,0,0,1-2.25-12.038c-.061-.973.122-11.916.79-11.734a.905.905,0,0,0,1.094-1.094,99.432,99.432,0,0,1-1.4-20.793,82.776,82.776,0,0,1,.973-10.275c.486-3.1.73-6.87,3.161-9.12l-1.459-.182c5.107,9.606,7.965,20.124,10.579,30.581q3.83,15.412,6.749,31.129a501.439,501.439,0,0,1,7.539,65.358c.061,1.155,1.885,1.155,1.824,0a499.687,499.687,0,0,0-7.6-65.844q-3.01-16.233-6.992-32.284c-2.614-10.275-5.472-20.489-10.518-29.913a.956.956,0,0,0-1.459-.182c-2.067,1.885-2.675,4.377-3.161,6.992a100.778,100.778,0,0,0-1.4,11.308,102.863,102.863,0,0,0,1.338,23.65l1.094-1.094c-3.526-.973-3.1,6.627-3.161,8.329a52.632,52.632,0,0,0,2.432,17.631c.486-.3,1.034-.608,1.52-.912a2.7,2.7,0,0,0-2.675-1.094.935.935,0,0,0-.912.912,77.335,77.335,0,0,0,5.411,26.933c.426-.365.912-.669,1.338-1.034-6.08-2.918-2.554,10.822-2.067,12.889a70.724,70.724,0,0,0,9.484,22.252c.73,1.094,2.31.182,1.642-.79Z" transform="translate(-893.636 -662.782)" fill="#e8e8e8"/>
          </g>
        </g>
        <g id="Group_10514" data-name="Group 10514" transform="translate(24.124 0)">
          <g id="Group_10513" data-name="Group 10513">
            <path id="Path_5446" data-name="Path 5446" d="M934.833,726.613a44.612,44.612,0,0,1-.182-11.734c.122-.973,2.432-12.4,3.587-11.916a.955.955,0,0,0,1.4-.79c.365-7.782,2.8-14.713,5.654-21.887,2.857-7.113,5.654-13.984,10.4-20.124H954.41c3.465,3.952,3.04,9.971,3.222,14.9.243,5.533.426,11.065.486,16.6q.183,16.324-.547,32.648a540.7,540.7,0,0,1-7.3,66.391c-.182,1.155,1.581,1.642,1.763.486a550.48,550.48,0,0,0,7.478-69.249q.729-17.51.365-35.02c-.122-5.837-.243-11.673-.669-17.51-.243-3.83-.851-7.6-3.526-10.579a.882.882,0,0,0-1.277,0c-4.682,6.08-7.6,12.768-10.4,19.881-3.1,7.661-5.715,15.078-6.141,23.468.486-.243.912-.547,1.4-.79-3.709-1.642-4.925,6.262-5.411,8.39a45.857,45.857,0,0,0-.608,17.267c-.061,1.216,1.7.73,1.581-.426Z" transform="translate(-932.712 -658.55)" fill="#e8e8e8"/>
          </g>
        </g>
        <g id="Group_10516" data-name="Group 10516" transform="translate(4.001 190.522)">
          <g id="Group_10515" data-name="Group 10515">
            <path id="Path_5447" data-name="Path 5447" d="M900.274,974.582a91.3,91.3,0,0,0,58.488-.851c1.094-.365.608-2.128-.486-1.763a89.985,89.985,0,0,1-57.515.851.915.915,0,0,0-.486,1.763Z" transform="translate(-899.614 -971.919)" fill="#e8e8e8"/>
          </g>
        </g>
        <g id="Group_10518" data-name="Group 10518" transform="translate(60.229 129.88)">
          <g id="Group_10517" data-name="Group 10517">
            <path id="Path_5448" data-name="Path 5448" d="M992.1,873.041c.73,9.849,1.52,19.7,2.189,29.548.669,10.032.912,20.185-.73,30.156-.182,1.155,1.581,1.641,1.763.486,1.642-9.788,1.52-19.638.851-29.487-.669-10.214-1.459-20.489-2.25-30.7-.061-1.155-1.885-1.155-1.824,0Z" transform="translate(-992.097 -872.175)" fill="#e8e8e8"/>
          </g>
        </g>
      </g>
    </g>
    <g id="window" transform="translate(216.612 224.687)">
      <path id="Path_5449" data-name="Path 5449" d="M458.4,982.791c12.4-6.627,24.866-13.254,37.269-19.881,5.837.973,13.862,2.249,23.468,3.587,19.212,2.675,50.158,6.992,89.312,8.147a637.128,637.128,0,0,0,79.706-2.432c26.933-2.554,43.227-6.019,56.542-9.606A298.668,298.668,0,0,0,773.88,953a134.129,134.129,0,0,1,19.273,8.147,124.44,124.44,0,0,1,10.822,6.323c-11.43,3.283-26.812,7.478-45.112,11.734-38.546,9-68.094,13.254-74.3,14.166-35.445,5.046-85.968,12.16-149.5,4.8A495,495,0,0,1,458.4,982.791Z" transform="translate(-339.272 -574.996)" fill="#fff"/>
      <path id="Path_5450" data-name="Path 5450" d="M457.3,991.437c.3,2.554.669,5.046.973,7.6,4.56,1.277,11.248,3.1,19.516,4.925a363.876,363.876,0,0,0,52.833,7.6c77.457,6.08,139.349.669,139.349.669,30.946-2.736,60.98-5.533,99.769-16.841,14.591-4.256,26.508-8.573,35.02-11.916l-2.006-8.573c-2.371.973-5.9,2.371-10.214,3.952-29.3,10.7-53.441,14.227-74.964,16.841-47.3,5.837-70.951,8.694-105.667,9.241A760.006,760.006,0,0,1,457.3,991.437Z" transform="translate(-338.841 -583.581)" fill="#161616"/>
      <g id="Group_10520" data-name="Group 10520" transform="translate(118.034 408.099)">
        <g id="Group_10519" data-name="Group 10519">
          <path id="Path_5451" data-name="Path 5451" d="M456.6,1003.412v5.837a.913.913,0,0,0,1.824,0v-5.837a.912.912,0,0,0-1.824,0Z" transform="translate(-456.6 -1002.5)" fill="#161616"/>
        </g>
      </g>
      <g id="Group_10522" data-name="Group 10522" transform="translate(118.042 399.157)">
        <g id="Group_10521" data-name="Group 10521">
          <path id="Path_5452" data-name="Path 5452" d="M457.274,1005.185c45.416,12.281,92.838,13.862,139.592,14.531,44.93.608,90.163-1.338,134.424-9.545a409.226,409.226,0,0,0,73.2-20.55c1.094-.426.608-2.189-.486-1.763-41.829,16.233-86.272,24.5-130.959,27.967-45.051,3.465-90.528,2.675-135.579-.061-26.933-1.7-53.624-5.229-79.706-12.281a.885.885,0,1,0-.486,1.7Z" transform="translate(-456.614 -987.792)" fill="#161616"/>
        </g>
      </g>
      <g id="Group_10524" data-name="Group 10524" transform="translate(464.143 391.121)">
        <g id="Group_10523" data-name="Group 10523">
          <path id="Path_5453" data-name="Path 5453" d="M1027.655,983.163a32.847,32.847,0,0,0,.243-7.721c-.122-1.155-1.946-1.155-1.824,0a31.921,31.921,0,0,1-.182,7.235c-.182,1.094,1.581,1.642,1.763.486Z" transform="translate(-1025.878 -974.575)" fill="#161616"/>
        </g>
      </g>
      <g id="Group_10526" data-name="Group 10526" transform="translate(118.087 387.493)">
        <g id="Group_10525" data-name="Group 10525">
          <path id="Path_5454" data-name="Path 5454" d="M458.093,989.943c12.768-6.08,25.292-12.585,37.573-19.638a.913.913,0,0,0-.912-1.581q-18.422,10.488-37.573,19.638c-1.094.486-.182,2.067.912,1.581Z" transform="translate(-456.687 -968.608)" fill="#161616"/>
        </g>
      </g>
      <g id="Group_10528" data-name="Group 10528" transform="translate(155.919 377.426)">
        <g id="Group_10527" data-name="Group 10527">
          <path id="Path_5455" data-name="Path 5455" d="M519.574,962.963c72.532,13.8,147.921,16.355,221.061,5.9,19.455-2.8,38.789-7.113,56.785-15.139,1.094-.486.122-2.067-.912-1.581-16.172,7.174-33.439,11.369-50.888,14.105-17.753,2.8-35.688,4.5-53.624,5.654a690.765,690.765,0,0,1-109.315-1.763c-21.036-2.006-41.89-5.046-62.622-8.937-1.155-.182-1.642,1.581-.486,1.763Z" transform="translate(-518.914 -952.049)" fill="#161616"/>
        </g>
      </g>
      <g id="Group_10530" data-name="Group 10530" transform="translate(433.401 376.982)">
        <g id="Group_10529" data-name="Group 10529">
          <path id="Path_5456" data-name="Path 5456" d="M975.974,953.131a125.816,125.816,0,0,1,30.46,14.713c.973.669,1.885-.912.912-1.581a129.264,129.264,0,0,0-30.885-14.9.915.915,0,0,0-.486,1.763Z" transform="translate(-975.314 -951.319)" fill="#161616"/>
        </g>
      </g>
      <g id="Group_10532" data-name="Group 10532" transform="translate(118.99 390.54)">
        <g id="Group_10531" data-name="Group 10531">
          <path id="Path_5457" data-name="Path 5457" d="M458.8,990.935c21.462,7.235,43.835,10.64,66.331,12.464,22.8,1.824,45.781,2.371,68.641,2.371,45.416,0,90.954-3.1,135.7-11.248a541.255,541.255,0,0,0,75.085-19.091c1.094-.365.608-2.128-.486-1.763-43.106,14.348-87.914,22.738-133.147,26.873a901.114,901.114,0,0,1-135.579,1.7c-25.778-1.581-51.617-4.8-76.18-13.072-.973-.365-1.459,1.4-.365,1.763Z" transform="translate(-458.173 -973.619)" fill="#161616"/>
        </g>
      </g>
      <g id="Group_10534" data-name="Group 10534" transform="translate(153.487 36.903)">
        <g id="Group_10533" data-name="Group 10533">
          <path id="Path_5458" data-name="Path 5458" d="M516.06,415.7c74.3-17.206,150.779-20.975,226.776-21.7,21.523-.243,43.045-.182,64.567-.182a.913.913,0,0,0,0-1.824c-76.241-.122-152.846-.182-228.539,10.336-21.279,2.979-42.376,6.749-63.291,11.612a.915.915,0,0,0,.486,1.763Z" transform="translate(-514.914 -391.96)" fill="#161616"/>
        </g>
      </g>
      <path id="Path_5459" data-name="Path 5459" d="M993.654,369.445c.79,28.271,1.277,61.041,1.094,97.459-.122,21.158-.3,11.065-2.189,99.1-1.094,50.706-1.4,69.8-4.985,99.1-2.31,19.091-5.107,34.776-7.174,45.416,15.686,4.377,30.642,8.512,43.775,12.16,20.307,5.654,25.718,7.174,33.8,8.329a134.889,134.889,0,0,0,45.416-1.642c6.505-53.259,10.093-98.675,12.16-133.451,7.417-122.2.486-178.5-2.189-198.262-3.648-26.629-8.147-48.517-11.612-63.655-13.011,2.493-23.59,5.168-31.007,7.174-25.474,6.992-45.659,15.2-62.561,22.13C1001.922,365.919,996.876,368.047,993.654,369.445Z" transform="translate(-543.907 -332.336)" fill="#fff"/>
      <path id="Path_5460" data-name="Path 5460" d="M300.407,335.8c-.486,5.229-1.034,11.673-1.52,17.267-10.092,115.091-15.139,172.666-16.78,209.692a1052.664,1052.664,0,0,0,6.627,169.079,13.238,13.238,0,0,0,4.073,5.107c2.858,2.128,5.472,2.067,10.64,3.526a70.61,70.61,0,0,1,8.147,3.04c5.593,2.189,18.118,4.681,34.047,4.073,22.86-.912,40.431-7.9,53.32-13.193a207.371,207.371,0,0,0,28.453-14.227c-3.77-33.865-6.566-69.614-8.147-107.126a1544.728,1544.728,0,0,1,6.627-218.325c-2.8-1.094-6.87-2.614-11.673-4.56-8.269-3.344-28.089-11.43-62.987-28.453C337.433,355.012,320.167,346.318,300.407,335.8Z" transform="translate(-269.801 -333.041)" fill="#fff"/>
      <path id="Path_5461" data-name="Path 5461" d="M1179.4,333.6c.73,4.013,1.7,9.545,2.8,16.172,1.52,9.424,4.925,31.737,7.417,61.041,2.553,30.521,3.161,56.785,3.222,77.7.182,42.437-1.4,73.566-5.533,146.158-1.277,22.617-3.161,55.752-5.532,96.182,2.493-.182,4.925-.3,7.417-.486,1.216-10.092,2.857-25.109,4.134-43.471.973-13.254,1.4-22.921,1.824-33.317,2.128-47.666,2.493-47.118,3.222-66.574,1.459-38.363,1.155-67.85.912-94.358-.182-18.3-.73-35.628-1.824-70.282-.79-23.59-1.581-44.5-6.931-71.681-1.4-6.931-2.736-12.707-3.708-16.659C1184.325,333.9,1181.893,333.782,1179.4,333.6Z" transform="translate(-621.919 -332.179)" fill="#161616"/>
      <path id="Path_5462" data-name="Path 5462" d="M284.546,337.6c-.426,2.128-1.094,5.411-1.763,9.424a216.583,216.583,0,0,0-2.614,23.225c-1.338,20.671-4.013,30.764-7.9,76.666-.73,8.39-1.277,15.747-2.371,30.521-2.25,30.156-3.344,45.234-4.134,62.257-.851,19.03-.973,32.466-1.155,59.339-.182,23.225-.3,40.005.3,61.953.486,17.51,1.459,41.282,3.83,69.614,4.925,1.459,9.788,2.918,14.713,4.378-.061-2.736-.243-7.661-.608-13.8-1.459-27.3-3.83-38.363-4.377-61.1-.182-6.992-.061-11.612,0-18.239.669-47.544-.122-69.249.3-100.134.73-50.4,4.134-89.8,7.053-123.359,2.736-31.737,5.837-58.913,8.512-80.192C290.991,337.965,287.768,337.782,284.546,337.6Z" transform="translate(-263.242 -333.747)" fill="#161616"/>
      <g id="Group_10536" data-name="Group 10536" transform="translate(435.802 37.277)">
        <g id="Group_10535" data-name="Group 10535">
          <path id="Path_5463" data-name="Path 5463" d="M991.749,393.441c2.249,44.626,1.946,89.373,1.338,134-.669,43.653-.973,87.427-4.317,131.02a675.531,675.531,0,0,1-9.484,74.052c-.243,1.155,1.52,1.641,1.763.486,8.086-42.863,11.065-86.455,12.4-129.986q2.1-66.665,1.946-133.512c-.061-25.353-.486-50.706-1.763-76.058-.122-1.155-1.946-1.155-1.885,0Z" transform="translate(-979.262 -392.575)" fill="#161616"/>
        </g>
      </g>
      <g id="Group_10538" data-name="Group 10538" transform="translate(449.171 0.486)">
        <g id="Group_10537" data-name="Group 10537">
          <path id="Path_5464" data-name="Path 5464" d="M1002.619,369.719a417.5,417.5,0,0,1,106.518-35.871c1.155-.243.669-2.006-.486-1.763a423.307,423.307,0,0,0-106.943,36.053c-1.034.547-.122,2.128.912,1.581Z" transform="translate(-1001.252 -332.062)" fill="#161616"/>
        </g>
      </g>
      <g id="Group_10540" data-name="Group 10540" transform="translate(556.425 0.591)">
        <g id="Group_10539" data-name="Group 10539" transform="translate(0)">
          <path id="Path_5465" data-name="Path 5465" d="M1177.685,333.369c10.032,50.523,13.072,102.141,13.011,153.576-.122,51.435-3.161,102.749-5.654,154.123q-2.189,44.413-4.377,88.765c-.061,1.155,1.763,1.155,1.824,0,2.614-52.408,5.35-104.816,7.721-157.284,2.31-51.435,3.77-102.992.3-154.366a668.351,668.351,0,0,0-11-85.239.937.937,0,0,0-1.824.426Z" transform="translate(-1177.662 -332.235)" fill="#161616"/>
        </g>
      </g>
      <g id="Group_10542" data-name="Group 10542" transform="translate(435.88 376.021)">
        <g id="Group_10541" data-name="Group 10541">
          <path id="Path_5466" data-name="Path 5466" d="M979.64,951.3c2.736,3.162,7.6,3.77,11.43,4.925,5.229,1.581,10.518,3.161,15.747,4.742,10.579,3.161,21.1,6.505,31.8,9.18a155.769,155.769,0,0,0,63.595,2.493c1.155-.182.669-1.945-.486-1.763a153.135,153.135,0,0,1-62.622-2.493c-9.788-2.371-19.394-5.411-29-8.329l-14.591-4.377-7.3-2.189c-2.553-.79-5.411-1.338-7.235-3.465a.925.925,0,0,0-1.338,1.277Z" transform="translate(-979.392 -949.738)" fill="#161616"/>
        </g>
      </g>
      <g id="Group_10544" data-name="Group 10544" transform="translate(557.003)">
        <g id="Group_10543" data-name="Group 10543" transform="translate(0)">
          <path id="Path_5467" data-name="Path 5467" d="M1179.274,333.048c2.25.547,4.5,1.094,6.809,1.642a.915.915,0,0,0,.486-1.763c-2.25-.547-4.5-1.094-6.809-1.642-1.155-.243-1.641,1.52-.486,1.763Z" transform="translate(-1178.614 -331.262)" fill="#161616"/>
        </g>
      </g>
      <g id="Group_10546" data-name="Group 10546" transform="translate(564.316 1.686)">
        <g id="Group_10545" data-name="Group 10545">
          <path id="Path_5468" data-name="Path 5468" d="M1190.677,335.169c6.08,24.562,7.721,50.219,9.484,75.45,1.824,25.778,2.8,51.617,3.222,77.517.73,51.374-1.033,102.749-3.952,154.062-1.641,29.061-3.709,58.123-5.837,87.184-.061,1.155,1.763,1.155,1.824,0,3.83-51.678,7.3-103.356,8.937-155.156,1.641-51.678,1.52-103.478-1.763-155.156-1.763-28.089-3.344-56.907-10.093-84.327a.937.937,0,0,0-1.824.426Z" transform="translate(-1190.642 -334.035)" fill="#161616"/>
        </g>
      </g>
      <g id="Group_10548" data-name="Group 10548" transform="translate(559.533 396.663)">
        <g id="Group_10547" data-name="Group 10547" transform="translate(0)">
          <path id="Path_5469" data-name="Path 5469" d="M1183.641,986.25c2.675-.243,5.289-.486,7.964-.73,1.155-.122,1.155-1.945,0-1.824-2.675.243-5.289.486-7.964.73-1.155.122-1.155,1.945,0,1.824Z" transform="translate(-1182.775 -983.69)" fill="#161616"/>
        </g>
      </g>
      <g id="Group_10550" data-name="Group 10550" transform="translate(146.993 60.319)">
        <g id="Group_10549" data-name="Group 10549">
          <path id="Path_5470" data-name="Path 5470" d="M511.812,431.341q-6.11,63.2-7.3,126.7-1.186,63.747,2.614,127.493c1.4,23.833,3.4,47.6,5.837,71.316.122,1.155,1.946,1.155,1.824,0q-6.566-63.108-8.208-126.642-1.642-63.747,1.7-127.493,1.915-35.749,5.289-71.377c.182-1.155-1.641-1.155-1.763,0Z" transform="translate(-504.232 -430.475)" fill="#161616"/>
        </g>
      </g>
      <g id="Group_10552" data-name="Group 10552" transform="translate(31.307 2.501)">
        <g id="Group_10551" data-name="Group 10551">
          <path id="Path_5471" data-name="Path 5471" d="M314.407,337.093a990.006,990.006,0,0,0,122.508,57.515c1.094.426,1.581-1.338.486-1.763a983.259,983.259,0,0,1-122.082-57.332.913.913,0,0,0-.912,1.581Z" transform="translate(-313.952 -335.375)" fill="#161616"/>
        </g>
      </g>
      <g id="Group_10554" data-name="Group 10554" transform="translate(13.634 2.926)">
        <g id="Group_10553" data-name="Group 10553">
          <path id="Path_5472" data-name="Path 5472" d="M301.127,336.941Q291,414.094,287.143,491.976q-3.83,77.791-1.216,155.643,1.459,43.683,4.925,87.306c.122,1.155,1.946,1.155,1.824,0q-6.2-77.609-5.958-155.521.182-77.882,6.809-155.521,3.739-43.592,9.424-86.941c.122-1.155-1.7-1.155-1.824,0Z" transform="translate(-284.884 -336.075)" fill="#161616"/>
        </g>
      </g>
      <g id="Group_10556" data-name="Group 10556" transform="translate(19.098 385.649)">
        <g id="Group_10555" data-name="Group 10555">
          <path id="Path_5473" data-name="Path 5473" d="M294.315,982.857c33.864,18.422,74.417,14.47,108.828-.122a239.793,239.793,0,0,0,29.913-15.443c.973-.608.061-2.189-.912-1.581-32.04,19.395-69.614,32.953-107.491,25.9a99.227,99.227,0,0,1-29.426-10.336c-.973-.547-1.946,1.034-.912,1.581Z" transform="translate(-293.872 -965.575)" fill="#161616"/>
        </g>
      </g>
      <g id="Group_10558" data-name="Group 10558" transform="translate(5.611 396.212)">
        <g id="Group_10557" data-name="Group 10557">
          <path id="Path_5474" data-name="Path 5474" d="M272.181,984.622a127.325,127.325,0,0,0,13.072,5.229c1.094.365,1.581-1.4.486-1.763a119.082,119.082,0,0,1-12.646-5.046c-1.094-.486-2.006,1.094-.912,1.581Z" transform="translate(-271.687 -982.949)" fill="#161616"/>
        </g>
      </g>
      <g id="Group_10560" data-name="Group 10560" transform="translate(0 3.344)">
        <g id="Group_10559" data-name="Group 10559">
          <path id="Path_5475" data-name="Path 5475" d="M282.547,337.636c-6.566,50.949-12.038,102.019-15.625,153.272-3.526,51.009-5.229,102.141-4.134,153.272.608,28.94,2.067,57.88,4.56,86.7.122,1.155,1.946,1.155,1.824,0a1410.366,1410.366,0,0,1-4.438-153.758c1.155-51.131,4.681-102.2,9.728-153.15q4.286-43.227,9.91-86.394c.182-1.094-1.642-1.094-1.824.061Z" transform="translate(-262.459 -336.762)" fill="#161616"/>
        </g>
      </g>
      <g id="Group_10562" data-name="Group 10562" transform="translate(19.975 2.829)">
        <g id="Group_10561" data-name="Group 10561">
          <path id="Path_5476" data-name="Path 5476" d="M296.46,338.581a41.953,41.953,0,0,1,10.7-.79c1.155.061,1.155-1.763,0-1.824a46.077,46.077,0,0,0-11.187.851c-1.155.243-.669,2.006.486,1.763Z" transform="translate(-295.314 -335.915)" fill="#161616"/>
        </g>
      </g>
      <g id="Group_10564" data-name="Group 10564" transform="translate(467.985 41.411)">
        <g id="Group_10563" data-name="Group 10563">
          <path id="Path_5477" data-name="Path 5477" d="M1035.786,400.241q3.83,105.788-.486,211.638c-.79,19.759-1.824,39.458-3.1,59.217-.061,1.155,1.763,1.155,1.824,0q6.658-105.606,5.107-211.577-.456-29.639-1.52-59.278c-.061-1.155-1.885-1.155-1.824,0Z" transform="translate(-1032.197 -399.375)" fill="#161616"/>
        </g>
      </g>
      <g id="Group_10566" data-name="Group 10566" transform="translate(495.77 16.119)">
        <g id="Group_10565" data-name="Group 10565">
          <path id="Path_5478" data-name="Path 5478" d="M1083.188,358.641q3.648,73.6,3.587,147.374,0,73.687-3.648,147.374-2.006,41.677-5.229,83.232c-.061,1.155,1.763,1.155,1.824,0q5.654-73.5,7.721-147.192,2.006-73.687.486-147.435-.912-41.677-2.918-83.354c-.061-1.155-1.885-1.155-1.824,0Z" transform="translate(-1077.898 -357.775)" fill="#161616"/>
        </g>
      </g>
      <g id="Group_10568" data-name="Group 10568" transform="translate(534.559 5.244)">
        <g id="Group_10567" data-name="Group 10567" transform="translate(0)">
          <path id="Path_5479" data-name="Path 5479" d="M1143.584,340.807q5.107,76.514,6.019,153.332.821,77.061-2.614,154-1.915,43.136-5.289,86.211c-.061,1.155,1.763,1.155,1.824,0q5.837-76.514,7.478-153.272,1.55-76.97-1.155-154.062-1.55-43.136-4.438-86.272a.913.913,0,0,0-1.824.061Z" transform="translate(-1141.698 -339.887)" fill="#161616"/>
        </g>
      </g>
      <g id="Group_10570" data-name="Group 10570" transform="translate(457.627 335.065)">
        <g id="Group_10569" data-name="Group 10569">
          <path id="Path_5480" data-name="Path 5480" d="M1022.845,883.241a327.661,327.661,0,0,1-7.661,47.3.915.915,0,0,0,1.763.486,326.047,326.047,0,0,0,7.721-47.787c.122-1.155-1.7-1.155-1.824,0Z" transform="translate(-1015.161 -882.375)" fill="#161616"/>
        </g>
      </g>
      <g id="Group_10572" data-name="Group 10572" transform="translate(40.766 15.43)">
        <g id="Group_10571" data-name="Group 10571">
          <path id="Path_5481" data-name="Path 5481" d="M340.448,357.285c-7.3,51.009-10.4,102.566-10.883,154.062-.426,51.8,1.7,103.539,4.864,155.217,1.763,29.244,3.83,58.427,5.9,87.671.061,1.155,1.885,1.155,1.824,0-3.648-51.5-7.3-102.992-9.3-154.548-2.006-51.435-2.31-102.992.669-154.427,1.7-29.244,4.5-58.488,8.633-87.488.243-1.094-1.52-1.641-1.7-.486Z" transform="translate(-329.511 -356.642)" fill="#161616"/>
        </g>
      </g>
      <g id="Group_10574" data-name="Group 10574" transform="translate(77.582 32.238)">
        <g id="Group_10573" data-name="Group 10573">
          <path id="Path_5482" data-name="Path 5482" d="M399.146,385.146c-4.621,49.307-7.721,98.8-8.755,148.347a1455.423,1455.423,0,0,0,4.256,148.347q3.374,41.13,9.545,81.895c.182,1.155,1.946.669,1.763-.486A1257.309,1257.309,0,0,1,392.7,615.206c-1.581-48.882-.669-97.885,2.006-146.705q2.28-41.677,6.262-83.293c.122-1.216-1.7-1.216-1.824-.061Z" transform="translate(-390.066 -384.287)" fill="#161616"/>
        </g>
      </g>
      <g id="Group_10576" data-name="Group 10576" transform="translate(111.096 46.754)">
        <g id="Group_10575" data-name="Group 10575">
          <path id="Path_5483" data-name="Path 5483" d="M455.774,409.036a1276.2,1276.2,0,0,0-10.336,138.741,1294.25,1294.25,0,0,0,4.742,139.045q3.466,38.667,9.181,77.031c.182,1.155,1.945.669,1.763-.486a1281.494,1281.494,0,0,1-11.248-276.813q2.645-38.85,7.661-77.578c.243-1.094-1.581-1.094-1.763.061Z" transform="translate(-445.188 -408.162)" fill="#161616"/>
        </g>
      </g>
      <path id="Path_5484" data-name="Path 5484" d="M1082.571,342.437a511.771,511.771,0,0,1,14.044,96c4.56,92.048-17.084,167.255-35.932,215.529q-19.972,32.01-39.883,64.02a177.914,177.914,0,0,0,56.117,14.044,174.229,174.229,0,0,0,42.072-1.7c.122-2.675,2.128-43.349,2.25-46.024,6.627-136.248,7.053-145.55,7.3-154.913a1297.648,1297.648,0,0,0-5.593-161.115q-3.374-17.419-6.749-34.776C1105.066,336.418,1093.818,339.4,1082.571,342.437Z" transform="translate(-559.744 -332.139)" fill="#3f3f3f" opacity="0.12"/>
      <path id="Path_5485" data-name="Path 5485" d="M369.272,373.579c-1.581,6.627-3.952,16.537-6.749,28.636C350.121,456.2,341,495.9,336.137,532.444,327.5,596.829,319.174,659.207,354.68,710.4a144.174,144.174,0,0,0,29.183,30.885,110.041,110.041,0,0,1-26.933,6.749c-29.426,3.466-53.016-6.08-64.567-11.795-4.377-40.309-7.417-83.476-8.39-129.135a1500.128,1500.128,0,0,1,18.543-270Q335.8,355.339,369.272,373.579Z" transform="translate(-270.754 -333.551)" fill="#3f3f3f" opacity="0.13"/>
    </g>
    <g id="cat" transform="translate(242.027 190.024)">
      <path id="Path_5486" data-name="Path 5486" d="M314.151,283.521c-.79.608-.182,2.979.912,7.053.426,1.581.851,2.8,1.094,3.587-.486,3.283-.912,6.566-1.4,9.849a11.2,11.2,0,0,0-9.059,7.721,34.416,34.416,0,0,1,6.87,1.4,37.091,37.091,0,0,1,8.755,4.073,4.627,4.627,0,0,0,1.094,3.162,4.356,4.356,0,0,0,2.493,1.094c2.189.365,4.8.851,8.147,1.581,1.459.851,3.891,2.25,6.87,3.891,10.092,5.472,13.74,6.384,23.833,11.734,6.505,3.466,5.958,3.587,10.518,5.776a104.047,104.047,0,0,0,17.084,6.566,27.721,27.721,0,0,0,5.958-10.822,26.849,26.849,0,0,0,.912-10.214,7.741,7.741,0,0,0,4.56.912c4.864-.547,7.965-6.08,8.937-10.032.851-3.465.061-5.654-.608-9.728-1.52-9.12-2.857-17.267.912-22.434,3.162-4.317,9.667-6.323,14.9-12.1.486-.547,1.4-1.581,1.094-2.067-.547-.912-4.8.669-6.87,1.581-1.338.608-11.369,5.229-14.409,15.686-.486,1.642-.547,6.384-.608,15.807-.061,6.87.061,10.761-2.675,13.011a6.478,6.478,0,0,1-5.35,1.4c-2.8-.608-4.134-3.344-5.35-5.168-3.162-4.8-7.661-6.809-13.193-9.545-4.317-2.128-8.025-2.918-15.5-4.56-7.053-1.52-9.18-1.338-12.22-3.587A21.951,21.951,0,0,1,345.583,291a28.594,28.594,0,0,1-3.161-9.12c-.365-2.493-.3-4.256-.912-4.377-1.094-.243-1.642,4.8-5.35,6.566-2.25,1.094-3.709.061-7.661.182a22.664,22.664,0,0,0-8.755,2.067C318.65,285.528,315.245,282.731,314.151,283.521Z" transform="translate(-304.826 -274.249)"/>
      <g id="Group_10578" data-name="Group 10578" transform="translate(9.195 9.274)">
        <g id="Group_10577" data-name="Group 10577">
          <path id="Path_5487" data-name="Path 5487" d="M321.34,309.5c-1.277-10.032,7.843-19.151,17.935-18.118,9.545.973,15.868,12.585,15.564,21.279-.061,1.155,1.763,1.155,1.824,0,.3-9.606-6.87-22.252-17.388-23.1-11.065-.912-21.158,8.876-19.759,19.942.182,1.094,2.006,1.155,1.824,0Z" transform="translate(-319.386 -289.503)"/>
        </g>
      </g>
      <g id="Group_10580" data-name="Group 10580" transform="translate(10.853 30.924)">
        <g id="Group_10579" data-name="Group 10579">
          <path id="Path_5488" data-name="Path 5488" d="M322.227,329.787c3.709,7.235,11.673,12.342,20,11.248a18,18,0,0,0,15.2-14.774c.182-1.155-1.581-1.642-1.763-.486a16.124,16.124,0,0,1-13.68,13.436c-7.6,1.034-14.774-3.709-18.179-10.336-.547-1.034-2.128-.122-1.581.912Z" transform="translate(-322.113 -325.114)"/>
        </g>
      </g>
      <g id="Group_10582" data-name="Group 10582" transform="translate(15.638 37.925)">
        <g id="Group_10581" data-name="Group 10581">
          <path id="Path_5489" data-name="Path 5489" d="M331.878,343.117c-.182-2.31,6.384-3.283,8.025-3.648a41.4,41.4,0,0,1,9.059-1.034,29.791,29.791,0,0,1,15.868,4.438c.973.608,1.946-.973.912-1.581a33.091,33.091,0,0,0-20.61-4.5,49.2,49.2,0,0,0-11.065,2.371c-1.946.669-4.256,1.52-4.073,3.952.122,1.155,2.006,1.155,1.885,0Z" transform="translate(-329.983 -336.629)"/>
        </g>
      </g>
      <g id="Group_10584" data-name="Group 10584" transform="translate(43.457 21.76)">
        <g id="Group_10583" data-name="Group 10583">
          <path id="Path_5490" data-name="Path 5490" d="M375.959,311.657c3.83,4.621,10.032,5.715,15.564,6.931,7.357,1.7,14.956,3.222,21.4,7.3a25.349,25.349,0,0,1,5.289,38.424c-.79.851.486,2.189,1.277,1.277a27.111,27.111,0,0,0-.061-36.661c-5.107-5.472-12.4-8.329-19.516-10.214-7.235-1.885-17.631-2.189-22.738-8.39-.669-.851-1.946.426-1.216,1.338Z" transform="translate(-375.741 -310.04)"/>
        </g>
      </g>
      <g id="Group_10586" data-name="Group 10586" transform="translate(67.499 50.841)">
        <g id="Group_10585" data-name="Group 10585">
          <path id="Path_5491" data-name="Path 5491" d="M434.02,362.206a11.023,11.023,0,0,0-13.072-3.465c-5.776,2.371-6.08,9.484-5.411,14.9.122,1.155,1.946,1.155,1.824,0-.547-4.256-.608-10.822,3.77-12.95a9.169,9.169,0,0,1,11.248,2.493c.73.912,2.31,0,1.642-.973Z" transform="translate(-415.285 -357.873)"/>
        </g>
      </g>
      <g id="Group_10588" data-name="Group 10588" transform="translate(57.568 61.85)">
        <g id="Group_10587" data-name="Group 10587">
          <path id="Path_5492" data-name="Path 5492" d="M410.714,379.883c-3.344-2.554-6.809-4.742-11.126-3.587a.9.9,0,0,0-.608,1.094c1.094,4.256,7.782,6.019,11.308,7.539a163.87,163.87,0,0,0,16.537,6.141c1.094.365,1.581-1.4.486-1.763-4.5-1.4-8.876-2.918-13.254-4.742-2.371-.973-4.681-2.006-6.992-3.1-2.067-.973-5.776-2.128-6.384-4.56-.182.365-.426.73-.608,1.094,3.769-1.034,6.87,1.216,9.667,3.4.973.79,1.885-.79.973-1.52Z" transform="translate(-398.949 -375.979)"/>
        </g>
      </g>
      <g id="Group_10590" data-name="Group 10590" transform="translate(15.754 42.864)">
        <g id="Group_10589" data-name="Group 10589">
          <path id="Path_5493" data-name="Path 5493" d="M330.312,346.119c2.371,3.891,7.174,4.56,11.369,5.168a73.3,73.3,0,0,0,18.6.243c1.155-.122,1.155-1.946,0-1.824a72.352,72.352,0,0,1-14.956.182c-4.2-.426-10.944-.669-13.5-4.681-.547-1.034-2.128-.122-1.52.912Z" transform="translate(-330.175 -344.752)"/>
        </g>
      </g>
      <g id="Group_10592" data-name="Group 10592" transform="translate(0 29.579)">
        <g id="Group_10591" data-name="Group 10591">
          <path id="Path_5494" data-name="Path 5494" d="M305.988,331.351c.79-4.256,4.5-6.445,8.633-6.627a10.4,10.4,0,0,1-.851-.669,19.852,19.852,0,0,0,1.338,4.2c.426,1.094,2.189.608,1.763-.486a33.644,33.644,0,0,1-1.338-4.2.912.912,0,0,0-.851-.669c-4.864.243-9.484,2.918-10.4,7.965-.243,1.155,1.52,1.642,1.7.486Z" transform="translate(-304.262 -322.9)"/>
        </g>
      </g>
      <g id="Group_10594" data-name="Group 10594" transform="translate(8.431 8.28)">
        <g id="Group_10593" data-name="Group 10593">
          <path id="Path_5495" data-name="Path 5495" d="M322,298.77a33.68,33.68,0,0,1-1.824-8.147c0-.243-.061-.486-.061-.73-.061-.547,0-.486.243.182.547.365,1.094.79,1.642,1.216a19.744,19.744,0,0,1,2.493,2.554c.79.912,2.067-.426,1.277-1.277-1.034-1.216-5.35-6.2-7.174-4.256-.912.973-.243,3.222-.061,4.317a35.206,35.206,0,0,0,1.642,6.627c.486,1.094,2.25.669,1.824-.486Z" transform="translate(-318.13 -287.867)"/>
        </g>
      </g>
      <g id="Group_10596" data-name="Group 10596" transform="translate(31.136 3.223)">
        <g id="Group_10595" data-name="Group 10595">
          <path id="Path_5496" data-name="Path 5496" d="M357.193,287c.547-.973,1.094-1.946,1.7-2.918a12.071,12.071,0,0,0,.669-1.216c.365-.608.365-1.155,1.094-.973.851.182.547,2.189.547,2.918,0,1.155.061,2.31.061,3.465a.913.913,0,0,0,1.824,0c0-1.885.061-3.769-.061-5.654a2.99,2.99,0,0,0-1.824-2.979c-1.216-.365-2.067.426-2.675,1.338-1.034,1.642-1.946,3.4-2.918,5.046a.928.928,0,0,0,1.581.973Z" transform="translate(-355.475 -279.55)"/>
        </g>
      </g>
      <g id="Group_10598" data-name="Group 10598" transform="translate(91.097 0.212)">
        <g id="Group_10597" data-name="Group 10597">
          <path id="Path_5497" data-name="Path 5497" d="M454.1,324.818c.365,4.621,5.533,6.141,9.12,3.891,5.289-3.283,6.445-10.7,5.776-16.294-.912-7.661-2.736-14.774-.122-22.374,2.493-7.235,8.694-13.132,16.537-13.619,1.155-.061,1.155-1.885,0-1.824-10.7.669-18,9.788-19.516,19.881-.912,6.019.426,11.612,1.216,17.51a19.142,19.142,0,0,1-1.52,11.187,10.687,10.687,0,0,1-3.344,4.013c-2.249,1.4-6.141.973-6.384-2.31,0-1.216-1.824-1.277-1.763-.061Z" transform="translate(-454.098 -274.598)"/>
        </g>
      </g>
      <g id="Group_10600" data-name="Group 10600" transform="translate(92.005 34.062)">
        <g id="Group_10599" data-name="Group 10599">
          <path id="Path_5498" data-name="Path 5498" d="M455.658,349.928c1.885,5.046,8.451,2.8,11.308-.122,4.681-4.742,3.648-12.646,3.283-18.665-.061-1.155-1.885-1.155-1.824,0,.243,3.83.608,7.965-.061,11.795a10.25,10.25,0,0,1-2.189,4.985c-1.338,1.642-7.174,5.776-8.755,1.52-.426-1.094-2.189-.608-1.763.486Z" transform="translate(-455.592 -330.275)"/>
        </g>
      </g>
      <g id="Group_10602" data-name="Group 10602" transform="translate(104.024 0.087)">
        <g id="Group_10601" data-name="Group 10601">
          <path id="Path_5499" data-name="Path 5499" d="M493.806,274.458c-6.931,2.675-13.923,6.445-16.719,13.74-3.222,8.39-.912,17.51-1.094,26.2a.913.913,0,0,0,1.824,0c.182-7.6-1.642-15.382.182-22.921,2.006-8.269,8.877-12.4,16.294-15.26,1.094-.426.608-2.189-.486-1.763Z" transform="translate(-475.36 -274.392)"/>
        </g>
      </g>
      <g id="Group_10604" data-name="Group 10604" transform="translate(104.521 1.094)">
        <g id="Group_10603" data-name="Group 10603">
          <path id="Path_5500" data-name="Path 5500" d="M492.728,276.141c-6.384,2.918-12.22,8.025-15.2,14.531-1.581,3.4-1.338,7.174-1.338,10.883,0,4.742.182,9.545.547,14.288.061,1.155,1.885,1.155,1.824,0-.243-3.83-.426-7.6-.486-11.43-.061-4.013-.608-8.755.912-12.524,2.614-6.384,8.512-11.308,14.652-14.166,1.094-.486.182-2.067-.912-1.581Z" transform="translate(-476.178 -276.049)"/>
        </g>
      </g>
      <g id="Group_10606" data-name="Group 10606" transform="translate(14.668 21.424)">
        <g id="Group_10605" data-name="Group 10605">
          <path id="Path_5501" data-name="Path 5501" d="M328.456,311.258a3.458,3.458,0,0,0,6.445-1.338c.061-.608-.851-.547-.912,0a2.542,2.542,0,0,1-4.742.912.449.449,0,1,0-.79.426Z" transform="translate(-328.388 -309.487)" fill="#fff"/>
        </g>
      </g>
      <g id="Group_10608" data-name="Group 10608" transform="translate(27.557 18.605)">
        <g id="Group_10607" data-name="Group 10607">
          <path id="Path_5502" data-name="Path 5502" d="M349.656,307.069a3.607,3.607,0,0,0,6.749-1.763.456.456,0,0,0-.912,0,2.686,2.686,0,0,1-5.046,1.338.449.449,0,1,0-.79.426Z" transform="translate(-349.588 -304.85)" fill="#fff"/>
        </g>
      </g>
      <g id="Group_10610" data-name="Group 10610" transform="translate(22.85 24.285)">
        <g id="Group_10609" data-name="Group 10609">
          <path id="Path_5503" data-name="Path 5503" d="M342.973,314.744a5.865,5.865,0,0,1-1.034,4.985c-.365.486.426.912.79.486a7.055,7.055,0,0,0,1.155-5.715c-.182-.547-1.094-.3-.912.243Z" transform="translate(-341.846 -314.193)" fill="#fff"/>
        </g>
      </g>
      <g id="Group_10612" data-name="Group 10612" transform="translate(24.325 24.32)">
        <g id="Group_10611" data-name="Group 10611">
          <path id="Path_5504" data-name="Path 5504" d="M344.289,314.706a5.536,5.536,0,0,0,3.222,5.472c.547.243.973-.547.486-.79a4.716,4.716,0,0,1-2.8-4.681.456.456,0,1,0-.912,0Z" transform="translate(-344.272 -314.25)" fill="#fff"/>
        </g>
      </g>
      <g id="Group_10614" data-name="Group 10614" transform="translate(9.097 29.193)">
        <g id="Group_10613" data-name="Group 10613">
          <path id="Path_5505" data-name="Path 5505" d="M319.635,323.259c5.35-.426,8.755,3.952,12.342,7.174.426.365,1.094-.243.669-.669-3.769-3.4-7.417-7.843-13.011-7.478-.547.061-.547.973,0,.973Z" transform="translate(-319.225 -322.265)" fill="#fff"/>
        </g>
      </g>
      <g id="Group_10616" data-name="Group 10616" transform="translate(18.811 35.235)">
        <g id="Group_10615" data-name="Group 10615">
          <path id="Path_5506" data-name="Path 5506" d="M335.87,337.856a30.282,30.282,0,0,1,22.982-4.073c.547.122.79-.73.243-.851a31.4,31.4,0,0,0-23.65,4.2c-.547.243-.061,1.034.426.73Z" transform="translate(-335.202 -332.204)" fill="#fff"/>
        </g>
      </g>
      <g id="Group_10618" data-name="Group 10618" transform="translate(36.335 43.335)">
        <g id="Group_10617" data-name="Group 10617">
          <path id="Path_5507" data-name="Path 5507" d="M364.435,351.408a21.082,21.082,0,0,0,15.321-5.107c.426-.365-.182-1.034-.669-.669a20.169,20.169,0,0,1-14.652,4.864.459.459,0,0,0,0,.912Z" transform="translate(-364.025 -345.526)" fill="#fff"/>
        </g>
      </g>
      <g id="Group_10620" data-name="Group 10620" transform="translate(33.821 5.81)">
        <g id="Group_10619" data-name="Group 10619">
          <path id="Path_5508" data-name="Path 5508" d="M361.173,284.045a8.937,8.937,0,0,0-.851,7.357c.182.547,1.034.3.851-.243a7.925,7.925,0,0,1,.73-6.627.44.44,0,1,0-.73-.486Z" transform="translate(-359.891 -283.805)" fill="#fff"/>
        </g>
      </g>
      <g id="Group_10622" data-name="Group 10622" transform="translate(10.813 10.845)">
        <g id="Group_10621" data-name="Group 10621">
          <path id="Path_5509" data-name="Path 5509" d="M322.262,292.946A6.1,6.1,0,0,1,325,296.9c.122.547.973.3.851-.243a7.069,7.069,0,0,0-3.161-4.5c-.486-.3-.912.486-.426.79Z" transform="translate(-322.047 -292.088)" fill="#fff"/>
        </g>
      </g>
      <g id="Group_10624" data-name="Group 10624" transform="translate(43.078 20.627)">
        <g id="Group_10623" data-name="Group 10623">
          <path id="Path_5510" data-name="Path 5510" d="M375.228,308.981a15.8,15.8,0,0,0,4.013,3.526c.486.3.973-.486.486-.79a14.683,14.683,0,0,1-3.83-3.4c-.426-.426-1.034.243-.669.669Z" transform="translate(-375.116 -308.176)" fill="#fff"/>
        </g>
      </g>
      <g id="Group_10626" data-name="Group 10626" transform="translate(66.977 49.607)">
        <g id="Group_10625" data-name="Group 10625">
          <path id="Path_5511" data-name="Path 5511" d="M428.15,357.519c-1.277-3.222-7.417-1.034-9.424.243a9.492,9.492,0,0,0-3.83,10.883c.182.547,1.034.3.851-.243a8.621,8.621,0,0,1,2.371-9.059,9.17,9.17,0,0,1,4.013-2.128c1.034-.3,4.56-.973,5.107.486.243.608,1.094.365.912-.182Z" transform="translate(-414.425 -355.843)" fill="#fff"/>
        </g>
      </g>
      <g id="Group_10628" data-name="Group 10628" transform="translate(53.156 60.794)">
        <g id="Group_10627" data-name="Group 10627">
          <path id="Path_5512" data-name="Path 5512" d="M406.714,375.919A21.14,21.14,0,0,0,392,375.251c-.547.182-.3,1.034.243.851a20.135,20.135,0,0,1,14.227.669c.547.243.79-.669.243-.851Z" transform="translate(-391.693 -374.243)" fill="#fff"/>
        </g>
      </g>
    </g>
    <g id="girl_waving" transform="translate(397.257 143.001)">
      <g id="legs" transform="translate(74.549 335.698)">
        <path id="Path_5513" data-name="Path 5513" d="M687.611,775.713c-2.493,5.958-2.493,10.4-2.858,21.826-.426,14.105-1.642,28.149-1.763,42.194-.122,11.856-.3,29.791-.79,53.137a609.3,609.3,0,0,0,64.324.182,613.332,613.332,0,0,0,61.345-6.141C799.114,857.3,793.339,835.721,789.2,819c-2.189-8.937-5.411-22.313-14.288-37.938A121.9,121.9,0,0,0,761.3,761.73c-.973-.851-22.434-18.908-47.24-10.4C712.842,751.82,694.785,758.386,687.611,775.713Z" transform="translate(-682.2 -749.059)" fill="#5e5e5e"/>
        <g id="Group_10630" data-name="Group 10630" transform="translate(41.108 60.733)">
          <g id="Group_10629" data-name="Group 10629">
            <path id="Path_5514" data-name="Path 5514" d="M749.927,850.319c4.073,7.235,8.147,14.47,12.16,21.7.547,1.034,2.128.122,1.581-.912-4.073-7.235-8.147-14.47-12.16-21.7-.547-1.034-2.128-.122-1.581.912Z" transform="translate(-749.813 -848.952)" fill="#282828"/>
          </g>
        </g>
        <g id="Group_10632" data-name="Group 10632" transform="translate(40.524 60.119)">
          <g id="Group_10631" data-name="Group 10631">
            <path id="Path_5515" data-name="Path 5515" d="M749.064,849.558c9.363,11.673,14.774,24.988,17.692,39.579a345.445,345.445,0,0,1,5.533,41.829c.061,1.155,1.885,1.155,1.824,0a364.793,364.793,0,0,0-5.715-42.984c-2.918-14.652-8.633-28.028-18-39.7-.73-.973-2.067.365-1.338,1.277Z" transform="translate(-748.853 -847.942)" fill="#282828"/>
          </g>
        </g>
        <path id="Path_5516" data-name="Path 5516" d="M773.3,750.5c2.128,4.256,5.168,10.518,8.573,18.057,9.91,22.009,20.185,45.234,25.657,73.809a208.98,208.98,0,0,1,3.466,49.125c5.107-.243,10.518-.669,16.172-1.277s11.065-1.338,16.172-2.189c-1.581-5.35-4.134-13.862-6.992-24.38-7.964-29.426-9.059-38.607-15.868-58-5.046-14.409-9.728-24.2-16.476-33.56-6.08-8.451-11.795-13.74-19.03-17.449A48.644,48.644,0,0,0,773.3,750.5Z" transform="translate(-717.913 -749.624)" fill="#3f3f3f" opacity="0.19"/>
        <path id="Path_5517" data-name="Path 5517" d="M749.4,851.7a177.907,177.907,0,0,1,5.411,31.372,181.354,181.354,0,0,1-3.161,51.313c6.992-.426,13.923-.851,20.915-1.277a292.062,292.062,0,0,0-3.83-34.229c-3.83-22.435-7.843-30.764-11.065-36.114A77.209,77.209,0,0,0,749.4,851.7Z" transform="translate(-708.544 -789.296)" fill="#3f3f3f" opacity="0.11"/>
      </g>
      <g id="hand_right" transform="translate(13.473 257.424)">
        <path id="Path_5518" data-name="Path 5518" d="M606.317,621.643c-2.006,1.338-3.222,3.891-5.593,8.937a81.43,81.43,0,0,0-4.317,12.16c-4.013,13.619-3.587,11.308-4.985,16.476a230.372,230.372,0,0,0-6.931,34.776,215.73,215.73,0,0,0-1.338,30.095,189.07,189.07,0,0,0,5.958,40.127c3.769,15.5,8.816,28.393,18.847,54.11,2.189,5.533,4.013,10.092,5.289,13.254-.912.122-2.371.3-4.134.547-9.18,1.094-10.457.851-14.166,1.642-4.742,1.034-9,2.067-10.64,5.654-.73,1.642-1.034,3.952-.122,4.742,1.155.973,3.4-1.216,7.3-2.493A18.333,18.333,0,0,1,599.69,841a41.272,41.272,0,0,0-3.04,7.9c-1.338,4.621-2.371,8.39-.669,11.065.851,1.338,2.493,2.554,3.83,2.189.73-.182,1.4-.851,3.222-5.654,1.763-4.8,1.885-6.323,3.344-8.208a10.944,10.944,0,0,1,3.709-2.918,30.553,30.553,0,0,0-1.277,6.505,20.467,20.467,0,0,0,0,5.107c.243,1.763.79,5.533,3.587,7.6.486.365,2.493,1.885,3.709,1.094,1.034-.608.73-2.31,1.155-7.782.365-4.621.73-5.9,1.034-6.627a12.811,12.811,0,0,1,2.918-4.56,92.712,92.712,0,0,0-.122,10.7c.243,4.317.669,6.262,2.067,7.478.79.669,2.128,1.338,3.222.851s1.459-2.006,1.763-3.891c1.338-7.113.547-9.18,2.067-12.768a9.588,9.588,0,0,1,2.918-4.317c3.465-2.554,8.39-1.034,9.059-.851,2.918.912,4.013,2.493,5.472,1.824,1.216-.547,1.885-2.31,1.946-3.77.061-3.587-3.891-6.323-7.3-8.572a33.846,33.846,0,0,0-7.661-3.891,143.635,143.635,0,0,1-9.849-25.353,163.016,163.016,0,0,1-3.952-18.179c-3.222-18.543-2.067-25.657-5.654-44.078-.851-4.438-1.7-7.965-2.189-9.971.243-3.04.669-7.782,1.277-13.558,2.006-18.847,3.344-30.642,7.417-44.5,3.222-10.883,6.505-19.82,6.505-19.82,4.134-11.126,5.472-12.646,4.986-16.233C631.488,626.507,613.8,616.658,606.317,621.643Z" transform="translate(-582.268 -620.315)" fill="#fff"/>
        <g id="Group_10634" data-name="Group 10634" transform="translate(0 6.625)">
          <g id="Group_10633" data-name="Group 10633">
            <path id="Path_5519" data-name="Path 5519" d="M601.111,631.691c-10.822,24.988-17.631,51.678-19.091,78.916-1.52,27.785,3.283,54.961,12.281,81.226,5.107,15.017,11.308,29.609,17.631,44.2.486,1.094,2.006.122,1.581-.912-10.944-25.292-21.644-50.949-26.751-78.064-5.046-26.751-4.013-54.414,1.824-80.983a236.627,236.627,0,0,1,14.105-43.41c.426-1.094-1.094-2.067-1.581-.973Z" transform="translate(-581.743 -631.211)" fill="#161616"/>
          </g>
        </g>
        <g id="Group_10636" data-name="Group 10636" transform="translate(29.947 41.203)">
          <g id="Group_10635" data-name="Group 10635">
            <path id="Path_5520" data-name="Path 5520" d="M643.1,688.7A242.273,242.273,0,0,0,631,760.5a.913.913,0,0,0,1.824,0,240.988,240.988,0,0,1,12.038-71.316c.365-1.094-1.4-1.581-1.763-.486Z" transform="translate(-631 -688.085)" fill="#161616"/>
          </g>
        </g>
        <g id="Group_10638" data-name="Group 10638" transform="translate(23.402 101.267)">
          <g id="Group_10637" data-name="Group 10637">
            <path id="Path_5521" data-name="Path 5521" d="M620.4,788.168c5.411,7.539,7.6,16.537,8.877,25.535,1.338,9.18,1.946,18.483,3.283,27.663,2.675,18.665,7.052,37.269,15.868,53.989.547,1.034,2.128.122,1.581-.912-9.181-17.388-13.5-36.783-16.051-56.117-2.25-16.963-1.581-36.6-11.977-51.07-.669-.912-2.249,0-1.581.912Z" transform="translate(-620.234 -786.879)" fill="#161616"/>
          </g>
        </g>
        <g id="Group_10640" data-name="Group 10640" transform="translate(0.192 210.594)">
          <g id="Group_10639" data-name="Group 10639">
            <path id="Path_5522" data-name="Path 5522" d="M611.814,966.7a129.75,129.75,0,0,0-16.841,1.885c-3.952.79-8.147,2.067-10.883,5.229-1.581,1.885-3.587,6.384-.122,7.661,1.52.547,2.858-.486,4.134-1.216,3.161-1.824,6.445-3.709,10.214-2.675a.915.915,0,0,0,.486-1.763c-3.1-.851-5.9-.122-8.694,1.277-.851.426-1.642.851-2.432,1.338-.486.243-.912.547-1.4.851-.547-.973-1.155-1.945-1.7-2.918.122-1.52,3.161-3.283,4.256-3.891,2.979-1.581,6.445-2.128,9.728-2.614,4.438-.669,8.876-1.094,13.315-1.338a.913.913,0,0,0-.061-1.824Z" transform="translate(-582.059 -966.698)" fill="#161616"/>
          </g>
        </g>
        <g id="Group_10642" data-name="Group 10642" transform="translate(11.959 215.993)">
          <g id="Group_10641" data-name="Group 10641">
            <path id="Path_5523" data-name="Path 5523" d="M614.416,975.591a13.931,13.931,0,0,0-10.579,8.512c-1.946,4.621-3.587,11.491-1.338,16.233,1.7,3.587,5.9,4.864,7.478.486.973-2.736.79-5.715,1.763-8.451a16.292,16.292,0,0,1,6.323-8.329c.973-.669.061-2.25-.912-1.581A17.483,17.483,0,0,0,610.768,990a23.432,23.432,0,0,0-1.642,4.925c-.3,1.4-.486,8.451-3.83,6.384-1.885-1.155-2.067-4.864-2.006-6.749a32.991,32.991,0,0,1,1.763-8.694,12.423,12.423,0,0,1,9.788-8.512c1.216-.182.73-1.946-.426-1.763Z" transform="translate(-601.413 -975.578)" fill="#161616"/>
          </g>
        </g>
        <g id="Group_10644" data-name="Group 10644" transform="translate(25.145 220.344)">
          <g id="Group_10643" data-name="Group 10643">
            <path id="Path_5524" data-name="Path 5524" d="M628.633,982.9c-3.769,2.432-5.107,7.721-5.472,11.977-.365,4.56.912,9.484,4.317,12.707,2.006,1.885,5.107,2.857,5.654-.669.912-5.9-1.459-14.227,4.985-17.753,1.034-.547.122-2.128-.912-1.581a10.425,10.425,0,0,0-4.681,5.837c-1.277,3.648-.547,7.357-1.094,11.126-.243,1.7-.73,3.526-2.614,1.763a10.314,10.314,0,0,1-1.763-2.189,13.357,13.357,0,0,1-2.006-6.019c-.426-4.256.669-11.065,4.56-13.619.912-.669,0-2.25-.973-1.581Z" transform="translate(-623.101 -982.734)" fill="#161616"/>
          </g>
        </g>
        <g id="Group_10646" data-name="Group 10646" transform="translate(37.555 224.756)">
          <g id="Group_10645" data-name="Group 10645">
            <path id="Path_5525" data-name="Path 5525" d="M645.268,990.6c-1.155,4.377-2.25,8.937-1.52,13.5.3,2.189,1.581,7.539,4.377,8.086,3.161.608,4.438-4.985,4.742-7.053.669-4.5-.182-9.91,3.344-13.376a.9.9,0,1,0-1.277-1.277c-4.256,4.2-2.8,10.275-4.073,15.625-.426,1.946-1.642,4.864-3.648,2.614-1.094-1.155-1.4-3.4-1.642-4.925-.608-4.256.426-8.512,1.52-12.646.243-1.155-1.52-1.642-1.824-.547Z" transform="translate(-643.513 -989.991)" fill="#161616"/>
          </g>
        </g>
        <g id="Group_10648" data-name="Group 10648" transform="translate(47.769 208.904)">
          <g id="Group_10647" data-name="Group 10647">
            <path id="Path_5526" data-name="Path 5526" d="M664.987,965.792c3.587,1.459,7.3,3.04,10.092,5.837,1.277,1.277,2.857,3.222,3.222,5.046.912,5.046-2.858,1.824-4.256,1.216-3.83-1.7-11.43-.486-13.619,3.4-.547,1.034,1.034,1.945,1.581.912,1.155-2.128,4.317-2.675,6.505-2.979a10.5,10.5,0,0,1,4.134.061c1.459.426,2.371,1.7,3.77,2.128,2.006.608,3.526-.79,3.83-2.736.547-3.161-2.189-6.688-4.317-8.755-2.979-2.857-6.809-4.438-10.579-5.958-.973-.365-1.4,1.4-.365,1.824Z" transform="translate(-660.313 -963.919)" fill="#161616"/>
          </g>
        </g>
        <path id="Path_5527" data-name="Path 5527" d="M636.155,656.795c-6.992.426-11.187,18.3-13.5,28.21-2.614,11.126-4.985,26.447-4.5,48.76a283.1,283.1,0,0,0,19.577,97.216c1.946,5.472,3.83,10.944,5.776,16.355-1.094,4.5-2.189,9.12-3.222,13.923-1.338,6.323-2.554,12.524-3.526,18.483a4.623,4.623,0,0,0,3.83-1.034c1.4-1.4,1.216-3.648,1.277-5.593.061-1.824.243-10.64,4.2-13.923,2.432-2.006,6.323-2.006,9-1.034,2.736,1.034,3.952,3.04,5.776,2.432a4.349,4.349,0,0,0,2.554-3.466c.608-4.438-7.9-9-9.3-9.728-2.736-1.459-4.013-1.642-5.776-3.466a13.768,13.768,0,0,1-3.222-6.262c-5.046-19.212-7.539-18-10.944-40.066-2.554-16.659-.912-15.686-3.526-28.94-1.824-9.363-3.344-13.193-3.83-21.279a87.668,87.668,0,0,1,1.581-21.948c4.56-25.109,13.315-55.508,15.443-62.743C641.87,659.652,639.195,656.612,636.155,656.795Z" transform="translate(-595.994 -634.613)" fill="#3f3f3f" opacity="0.13"/>
      </g>
      <g id="hand_left" transform="translate(101.43)">
        <path id="Path_5528" data-name="Path 5528" d="M803.112,226.961c-1.885-.061-3.344,3.344-3.709,4.256a13.809,13.809,0,0,0-.79,7.661s.365,2.554,1.581,18a64.981,64.981,0,0,1-.547,14.835c-2.432,6.688-4.742,11.916-6.323,15.321-5.35,11.43-8.937,15.99-16.415,30.46-2.8,5.411-3.04,6.262-6.323,12.95-8.208,16.6-14.227,26.994-20.367,38.12-5.411,9.728-13.011,24.015-21.948,42.376-.426,1.581-2.554,10.032,2.371,17.449,5.229,7.843,16.172,11.369,26.751,7.964a64.158,64.158,0,0,0,6.08-10.579,72.654,72.654,0,0,0,3.709-10.336c.669-2.25,3.344-9.849,8.755-25.17,1.7-4.742,3.77-10.4,7.965-21.462,6.384-16.963,9.545-25.414,11.673-30.7,4.8-12.038,8.451-20.367,15.625-36.54,3.769-8.512,8.39-18.787,13.74-30.46a74.557,74.557,0,0,0,11.916-8.451c6.566-5.654,9.849-10.457,16.172-19.577,4.073-5.958,7.174-11.187,6.323-16.415-.122-.73-.426-2.857-1.581-3.161-1.459-.426-3.283,2.493-5.289,5.046a54.36,54.36,0,0,1-9.789,9.545,101.082,101.082,0,0,1,4.256-10.032c2.493-5.107,4.56-8.39,5.837-14.044,1.4-6.019.122-7.113-.243-7.417-1.642-1.216-4.438,1.094-6.08-.243-1.459-1.277-.182-4.073-1.338-4.742s-3.709,1.338-5.533,3.465c-3.161,3.648-3.891,7.174-5.046,10.579a45.154,45.154,0,0,1-6.87,12.95c-.912.122-2.128.182-2.675-.547-.608-.851.243-2.25,1.034-4.5.182-.547.061-.243,1.338-5.837.486-2.128,1.4-6.08,2.128-9.241,1.034-4.56,1.52-6.445.547-8.451-.182-.426-.973-2.067-2.128-2.128-1.338-.061-2.371,2.067-3.161,3.709-3.222,6.627-4.864,9.971-5.289,11.126-2.128,5.776-4.985,14.592-5.411,17.631a14.845,14.845,0,0,1-.79,3.283c-.3.79-.486,1.094-.669,1.581-1.52,3.4-.243,5.654-1.824,6.87-.182.122-1.094.79-1.824.547-.79-.243-1.155-1.277-1.581-4.742-.608-4.742-.243-6.141-1.338-8.208C805.3,228.785,804.389,227.021,803.112,226.961Z" transform="translate(-726.819 -197.295)" fill="#fff"/>
        <g id="Group_10650" data-name="Group 10650" transform="translate(71.004 28.351)">
          <g id="Group_10649" data-name="Group 10649">
            <path id="Path_5529" data-name="Path 5529" d="M845.571,273c.426-4.438-.243-8.755-.486-13.193a32.648,32.648,0,0,1,.182-6.445,23.552,23.552,0,0,1,.79-3.587c.608-1.763.669-3.222,2.614-3.283,1.824-.061,1.7,1.034,2.006,2.554a23.164,23.164,0,0,1,.426,4.073,34.976,34.976,0,0,0,.608,5.654c.426,1.885,1.581,3.465,3.709,2.8,1.094-.365.669-2.128-.486-1.763-2.128.608-1.946-6.566-2.067-7.782a20.666,20.666,0,0,0-1.094-5.776c-1.034-2.554-3.4-3.83-5.411-1.459-2.614,3.04-3.162,8.512-3.162,12.281,0,5.35,1.034,10.579.547,15.929-.061,1.155,1.763,1.155,1.824,0Z" transform="translate(-843.2 -243.538)" fill="#161616"/>
          </g>
        </g>
        <g id="Group_10652" data-name="Group 10652" transform="translate(82.26)">
          <g id="Group_10651" data-name="Group 10651">
            <path id="Path_5530" data-name="Path 5530" d="M863.408,242.562c3.04-5.9,3.952-12.585,5.715-18.908a82.756,82.756,0,0,1,7.782-19.577c.79-1.338,1.581-3.222,2.736-4.256,2.249-2.067,2.249,1.885,2.067,3.587a90.513,90.513,0,0,1-2.189,11.308c-.79,3.4-1.885,6.688-2.675,10.092-.426,1.885-.426,3.526.912,4.985.79.851,2.067-.426,1.277-1.277-1.52-1.642.061-4.925.547-6.688.547-2.006,1.094-4.013,1.52-6.019.851-3.709,1.7-7.478,2.25-11.308.3-2.006.73-5.533-1.034-7.053-1.52-1.277-3.04-.061-4.073,1.155-4.438,5.533-7.174,12.828-9.363,19.516-2.493,7.721-3.283,16.355-7.053,23.59a.9.9,0,0,0,1.581.851Z" transform="translate(-861.713 -196.906)" fill="#161616"/>
          </g>
        </g>
        <g id="Group_10654" data-name="Group 10654" transform="translate(97.869 2.913)">
          <g id="Group_10653" data-name="Group 10653">
            <path id="Path_5531" data-name="Path 5531" d="M888.246,231.855c1.824.182,2.493-1.155,3.344-2.614,1.338-2.31,2.554-4.742,3.709-7.113,2.25-4.621,3.83-9.667,6.566-13.984a10.65,10.65,0,0,1,2.31-2.918,2.739,2.739,0,0,1,3.161-.79,12.2,12.2,0,0,1,.3,2.554,24.407,24.407,0,0,1-1.946,8.755c-2.067,5.533-4.377,11-6.627,16.537-.426,1.094,1.338,1.581,1.763.486,1.277-3.161,14.409-30.885,5.837-31.068-1.7-.061-3.648,2.067-4.621,3.222a28.731,28.731,0,0,0-4.013,6.688c-1.277,2.858-2.432,5.715-3.769,8.512-.79,1.7-1.7,3.465-2.554,5.107-.547,1.094-1.885,4.864-3.4,4.742-1.216-.061-1.216,1.763-.061,1.885Z" transform="translate(-887.387 -201.698)" fill="#161616"/>
          </g>
        </g>
        <g id="Group_10656" data-name="Group 10656" transform="translate(113.73 7.098)">
          <g id="Group_10655" data-name="Group 10655">
            <path id="Path_5532" data-name="Path 5532" d="M920,212.179c.669-3.526,4.5-1.094,4.985,1.155.426,1.885-.3,3.769-.912,5.533-.912,2.675-1.946,5.289-3.04,7.843a119.446,119.446,0,0,1-7.417,14.409.913.913,0,0,0,1.581.912,127.174,127.174,0,0,0,6.992-13.376c1.763-3.952,3.891-8.329,4.56-12.646.426-2.736-.365-6.262-3.4-7.235a3.952,3.952,0,0,0-5.107,2.979c-.182,1.094,1.581,1.581,1.763.426Z" transform="translate(-913.475 -208.581)" fill="#161616"/>
          </g>
        </g>
        <g id="Group_10658" data-name="Group 10658" transform="translate(96.826 25.777)">
          <g id="Group_10657" data-name="Group 10657">
            <path id="Path_5533" data-name="Path 5533" d="M905.57,254.805c2.31-2.614,4.56-5.229,6.87-7.843a47.869,47.869,0,0,1,3.648-4.134c.426-.365.851-.669,1.216-1.034,1.034.365,2.067.73,3.161,1.094.3.547-.426,2.128-.608,2.614a73.62,73.62,0,0,1-7.843,16.355,78.257,78.257,0,0,1-25.9,25.17c-1.034.608-.061,2.189.912,1.581a79.919,79.919,0,0,0,30.46-32.77,63.089,63.089,0,0,0,4.256-10.275c.608-2.067.973-4.864-1.4-5.958-2.31-1.094-4.742,1.034-6.2,2.553-3.465,3.587-6.627,7.6-9.91,11.369-.73.851.547,2.128,1.338,1.277Z" transform="translate(-885.672 -239.305)" fill="#161616"/>
          </g>
        </g>
        <g id="Group_10660" data-name="Group 10660" transform="translate(0 55.064)">
          <g id="Group_10659" data-name="Group 10659">
            <path id="Path_5534" data-name="Path 5534" d="M798.208,288.341c.426,5.593.851,11.308-.061,16.9-.912,5.533-3.222,10.64-5.776,15.625-5.168,10.092-10.579,20.063-15.868,30.095q-15.868,30.095-31.737,60.129c-6.08,11.491-12.16,23.042-18.239,34.533-.547,1.034,1.034,1.946,1.581.912,21.826-41.4,44.078-82.624,65.54-124.271,2.554-4.925,4.925-9.971,5.958-15.382,1.216-6.141.79-12.342.3-18.543a.851.851,0,1,0-1.7,0Z" transform="translate(-726.413 -287.475)" fill="#161616"/>
          </g>
        </g>
        <g id="Group_10662" data-name="Group 10662" transform="translate(31.637 72.621)">
          <g id="Group_10661" data-name="Group 10661">
            <path id="Path_5535" data-name="Path 5535" d="M843.959,316.807A1273.864,1273.864,0,0,0,792.585,442.9c-4.377,12.464-8.755,24.927-14.044,37.026-.486,1.094,1.094,2.006,1.581.912,9.059-20.611,15.686-42.194,23.468-63.23q11.947-32.466,25.778-64.263c5.229-11.977,10.579-23.833,16.172-35.628.486-1.034-1.094-1.946-1.581-.912Z" transform="translate(-778.449 -316.352)" fill="#161616"/>
          </g>
        </g>
        <path id="Path_5536" data-name="Path 5536" d="M862.248,213.294c-2.493-.365-5.837,9.849-7.782,14.956-5.9,15.686-10.883,17.51-23.529,38.789a285.228,285.228,0,0,0-17.631,35.02Q784.122,363.526,755,425.053c4.742,5.776,9.424,11.612,14.166,17.388,2.371-6.749,5.837-16.659,10.153-28.636,7.843-21.583,18-49.368,32.344-83.172,5.715-13.376,13.619-31.433,23.772-52.651a85.628,85.628,0,0,0,10.944-8.269c5.715-4.985,13.254-11.734,18.422-22.738a55.815,55.815,0,0,0,4.8-15.5,5.32,5.32,0,0,0-3.222-.547c-2.189.426-3.344,2.554-4.256,4.013-3.526,5.411-8.694,9-9.363,8.573-.365-.3.669-2.067,3.466-7.782,5.715-11.734,3.344-8.633,5.593-12.585,1.277-2.25,2.554-4.2,2.128-6.688C863.95,215.361,863.281,213.476,862.248,213.294Z" transform="translate(-737.62 -203.327)" fill="#3f3f3f" opacity="0.1"/>
        <path id="Path_5537" data-name="Path 5537" d="M862.381,281.5c-3.04,1.946-7.357,4.8-12.281,8.573-5.654,4.256-11.734,8.876-16.841,14.713a65.676,65.676,0,0,0-11.795,20.306c-16.719,42.68-36.6,89.008-42.255,101.9-3.1,7.053-7.965,17.692-14.409,30.46,2.918,3.83,5.9,7.661,8.816,11.491,8.39-25.6,18.057-52.408,29.122-80.192C814.654,358.9,827,330.99,839.4,305.029A80.035,80.035,0,0,0,862.381,281.5Z" transform="translate(-741.462 -230.069)" fill="#3f3f3f" opacity="0.13"/>
      </g>
      <g id="torso" transform="translate(31.955 206.127)">
        <path id="Path_5538" data-name="Path 5538" d="M641.367,557.475A67.907,67.907,0,0,0,628.9,568.237a77.694,77.694,0,0,0-11,16.111c-2.006,3.587-3.465,6.749-4.5,9.059,1.581,3.04,4.134,7.721,7.661,13.315,6.262,9.91,11.126,15.26,19.516,26.021,3.526,4.5,8.633,11.248,14.713,19.759q1.459,6.84,2.554,14.409a204.481,204.481,0,0,1,2.006,28.575,35.617,35.617,0,0,0,11.856,8.451c9.484,4.2,18.118,2.979,22.617,2.25,9.971-1.52,16.78-5.958,21.462-9.059A66.4,66.4,0,0,0,733.9,679.314c-.79-9.484-1.824-19.273-3.1-29.426q-1.642-12.95-3.648-25.17a138.7,138.7,0,0,0-2.8-25.17c-1.7-8.451-3.769-18.3-9.91-29.973a92.62,92.62,0,0,0-20.915-26.569,95.316,95.316,0,0,0-8.451-6.505,135.779,135.779,0,0,1-21.766,11.308C653.587,551.821,649.028,552.429,641.367,557.475Z" transform="translate(-612.635 -536.161)" fill="#fff"/>
        <g id="Group_10664" data-name="Group 10664" transform="translate(0 19.998)">
          <g id="Group_10663" data-name="Group 10663">
            <path id="Path_5539" data-name="Path 5539" d="M613.88,606.326c1.885-7.174,7.113-13.862,11.612-19.7a76.413,76.413,0,0,1,16.476-16.051c.973-.669.061-2.25-.912-1.581a77.888,77.888,0,0,0-16.963,16.476c-4.681,6.019-9.971,12.828-11.916,20.307-.3,1.216,1.459,1.642,1.7.547Z" transform="translate(-612.142 -568.834)" fill="#161616"/>
          </g>
        </g>
        <g id="Group_10666" data-name="Group 10666" transform="translate(0.263 56.73)">
          <g id="Group_10665" data-name="Group 10665">
            <path id="Path_5540" data-name="Path 5540" d="M612.712,630.619a358.608,358.608,0,0,0,44.2,61.224c.79.851,2.067-.426,1.277-1.277a357.43,357.43,0,0,1-43.9-60.859.913.913,0,0,0-1.581.912Z" transform="translate(-612.575 -629.252)" fill="#161616"/>
          </g>
        </g>
        <g id="Group_10668" data-name="Group 10668" transform="translate(50.507)">
          <g id="Group_10667" data-name="Group 10667">
            <path id="Path_5541" data-name="Path 5541" d="M696.544,548.441a74.49,74.49,0,0,1,22.252-10.7.915.915,0,0,0-.486-1.763,76.563,76.563,0,0,0-22.678,10.883c-.973.669-.061,2.249.912,1.581Z" transform="translate(-695.216 -535.942)" fill="#161616"/>
          </g>
        </g>
        <g id="Group_10670" data-name="Group 10670" transform="translate(72.189 0.542)">
          <g id="Group_10669" data-name="Group 10669">
            <path id="Path_5542" data-name="Path 5542" d="M731.256,538.577c29.061,20.246,41.525,55.752,40.127,90.1-.061,1.155,1.763,1.155,1.824,0,1.459-35.08-11.43-71.073-41.039-91.683-.912-.669-1.824.912-.912,1.581Z" transform="translate(-730.879 -536.834)" fill="#161616"/>
          </g>
        </g>
        <g id="Group_10672" data-name="Group 10672" transform="translate(40.554 114.308)">
          <g id="Group_10671" data-name="Group 10671">
            <path id="Path_5543" data-name="Path 5543" d="M678.939,725.381c3.161,6.505,3.526,14.592,4.2,21.644a214.009,214.009,0,0,1,.973,21.644.913.913,0,0,0,1.824,0,197.953,197.953,0,0,0-1.216-24.015c-.73-6.749-1.216-14.044-4.2-20.246-.547-1.034-2.067-.122-1.581.973Z" transform="translate(-678.844 -723.955)" fill="#161616"/>
          </g>
        </g>
        <g id="Group_10674" data-name="Group 10674" transform="translate(46.753 141.604)">
          <g id="Group_10673" data-name="Group 10673">
            <path id="Path_5544" data-name="Path 5544" d="M689.259,786.634c9.12,11.187,24.684,14.348,38.242,10.883a61.052,61.052,0,0,0,20.793-10.275c6.262-4.621,12.22-9.971,15.747-17.023.547-1.034-1.034-1.945-1.581-.912-3.4,6.749-9.12,11.916-15.139,16.355a60.906,60.906,0,0,1-19.395,9.849c-13.254,3.709-28.514.851-37.451-10.153-.669-.912-1.946.365-1.216,1.277Z" transform="translate(-689.041 -768.852)" fill="#161616"/>
          </g>
        </g>
        <g id="Group_10676" data-name="Group 10676" transform="translate(113.349 88.504)">
          <g id="Group_10675" data-name="Group 10675">
            <path id="Path_5545" data-name="Path 5545" d="M798.591,682.661c2.979,17.814,5.9,35.628,6.931,53.624.061,1.155,1.885,1.155,1.824,0-1.094-18.179-4.013-36.175-6.992-54.11-.182-1.155-1.946-.669-1.763.486Z" transform="translate(-798.578 -681.514)" fill="#161616"/>
          </g>
        </g>
        <path id="Path_5546" data-name="Path 5546" d="M701.2,546.463a162.756,162.756,0,0,1,23.711,37.148c11.308,24.562,13.558,45.781,15.26,63.838a261.543,261.543,0,0,1-.608,55.752,64.094,64.094,0,0,0,28.514-23.711c-2.006-16.963-4.013-33.986-6.019-50.949a114.741,114.741,0,0,0-3.891-32.952,113.127,113.127,0,0,0-22.8-43.775,109.2,109.2,0,0,0-15.26-14.713C713.785,540.261,707.523,543.362,701.2,546.463Z" transform="translate(-647.055 -536.396)" fill="#3f3f3f" opacity="0.13"/>
        <path id="Path_5547" data-name="Path 5547" d="M775.532,587.495c-1.094.3,1.459,10.214,3.891,24.866a395.545,395.545,0,0,1,4.5,43.775,217.329,217.329,0,0,1-6.566,60.859,57.422,57.422,0,0,0,10.214-6.566,54.682,54.682,0,0,0,9.91-10.518c-.79-24.5-2.857-37.208-4.8-44.383a93.538,93.538,0,0,1-2.128-9.3c-1.459-8.633-.73-12.342-1.52-19.516-.608-5.715-1.763-9.484-3.891-16.476C781.916,599.715,776.748,587.13,775.532,587.495Z" transform="translate(-676.092 -556.149)" fill="#3f3f3f" opacity="0.14"/>
      </g>
      <g id="head" transform="translate(0 113.141)">
        <path id="Path_5548" data-name="Path 5548" d="M619.5,397.287a56.8,56.8,0,0,0-28.7,39.883,7.331,7.331,0,0,0-5.411,1.277c-2.979,2.31-3.04,6.87-1.885,9.545a15.084,15.084,0,0,0,2.31,3.344c1.52,1.885,2.493,3.04,4.073,3.709a7.055,7.055,0,0,0,4.378.243,59.3,59.3,0,0,0,3.4,8.025c2.128,4.134,5.35,10.275,11.795,15.625a41.554,41.554,0,0,0,8.755,5.533,20.375,20.375,0,0,1,4.438,11.187c.608,9.424-6.262,17.267-12.768,20.732-11.308,6.019-23.59,0-28.089-2.25-2.432-1.216-14.652-7.539-19.759-21.4-6.2-16.719,1.885-33.439,6.688-43.41,4.864-10.032,7.113-9.363,10.822-19.151,4.925-12.95,2.31-17.51,7.965-27.42,2.189-3.891,6.627-11.673,15.929-15.321a29.185,29.185,0,0,1,18.483-.608A25.455,25.455,0,0,1,635.008,383c13.862,0,22.738,13.132,24.866,16.294,6.323,9.3,2.979,12.16,8.633,25.231,7.113,16.476,14.044,15.5,20.428,30.946,3.1,7.539,8.268,20,2.554,31.919-5.9,12.281-19.334,15.868-21.036,16.294-3.1.79-11.43,2.858-19.759-1.581-.79-.426-11.248-6.141-12.1-15.929a20.624,20.624,0,0,1,.973-7.66,22.5,22.5,0,0,1,4.134-7.357c2.614-3.222,5.776-9.18,7.964-21.036a10.2,10.2,0,0,0,4.438-1.277,10.928,10.928,0,0,0,5.107-9.91c-.061-.851-.3-5.715-3.83-7.357a6.2,6.2,0,0,0-3.83-.3C642.243,419.844,630.873,408.6,619.5,397.287Z" transform="translate(-559.668 -383)" fill="#212121"/>
        <path id="Path_5549" data-name="Path 5549" d="M634.842,406.4a62.706,62.706,0,0,0-14.409,11.552,59.4,59.4,0,0,0-13.74,24.623,34.241,34.241,0,0,0-.851,3.952,5.06,5.06,0,0,0-3.709,0c-2.31,1.034-2.8,3.83-3.04,5.229a10.571,10.571,0,0,0,1.094,6.749,8.95,8.95,0,0,0,4.378,4.8,7.88,7.88,0,0,0,4.985.426,72.609,72.609,0,0,0,3.952,8.694c2.857,5.472,5.533,10.518,10.7,15.017a34.338,34.338,0,0,0,10.032,6.08,22.473,22.473,0,0,1,3.04,6.992,21.646,21.646,0,0,1,.669,6.08,18.036,18.036,0,0,0,8.268,1.945,19.188,19.188,0,0,0,12.889-5.654,54.927,54.927,0,0,1-2.614-12.646c-.182-2.25-.243-4.377-.243-6.323a35.692,35.692,0,0,0,6.08-8.694,37.533,37.533,0,0,0,3.952-16.355,8.438,8.438,0,0,0,4.377-.426,8.855,8.855,0,0,0,4.377-4.56c.182-.3,2.736-5.533.426-10.7-.547-1.155-1.459-3.283-3.283-3.466a3.858,3.858,0,0,0-2.858,1.338c-2.493-2.979-7.174-8.512-13.74-16.111-5.654-6.627-9.241-10.761-15.26-15.017C638.125,408.346,636.179,407.19,634.842,406.4Z" transform="translate(-575.006 -392.173)" fill="#fff"/>
        <path id="Path_5550" data-name="Path 5550" d="M644.146,508.028c-.608,1.4,2.25,3.891,3.587,4.925a12.922,12.922,0,0,0,6.87,2.432,13.775,13.775,0,0,0,9.3-2.31,11.007,11.007,0,0,0,4.438-5.715c.669-2.371.486-5.654-.79-6.2-.973-.365-1.885.851-3.952,2.31-3.648,2.493-7.417,3.1-10.64,3.587C647.49,507.906,644.754,506.812,644.146,508.028Z" transform="translate(-592.7 -429.295)"/>
        <g id="Group_10678" data-name="Group 10678" transform="translate(32.138 61.573)">
          <g id="Group_10677" data-name="Group 10677">
            <path id="Path_5551" data-name="Path 5551" d="M612.477,487.391c2.189,9.12,5.715,18.057,11.552,25.474,5.168,6.627,12.828,13.011,21.766,12.16,8.268-.79,15.017-7.235,19.395-13.8a44.538,44.538,0,0,0,7.417-26.082c-.061-1.155-1.885-1.155-1.824,0a42.928,42.928,0,0,1-6.384,23.894c-4.2,6.749-11.126,13.862-19.577,14.227-8.937.365-16.294-6.931-21.036-13.74s-7.661-14.652-9.606-22.678c-.243-1.094-2.006-.608-1.7.547Z" transform="translate(-612.442 -484.275)" fill="#161616"/>
          </g>
        </g>
        <g id="Group_10680" data-name="Group 10680" transform="translate(57.875 100.105)">
          <g id="Group_10679" data-name="Group 10679">
            <path id="Path_5552" data-name="Path 5552" d="M654.912,549.019a22.854,22.854,0,0,1,3.83,12.828.913.913,0,0,0,1.824,0,25.067,25.067,0,0,0-4.073-13.74.913.913,0,0,0-1.581.912Z" transform="translate(-654.775 -547.652)" fill="#161616"/>
          </g>
        </g>
        <g id="Group_10682" data-name="Group 10682" transform="translate(62.239 109.119)">
          <g id="Group_10681" data-name="Group 10681">
            <path id="Path_5553" data-name="Path 5553" d="M662.407,568.389a17.1,17.1,0,0,0,22.07-4.621c.73-.912-.851-1.824-1.581-.912a15.194,15.194,0,0,1-19.577,3.952c-1.034-.547-1.946,1.034-.912,1.581Z" transform="translate(-661.952 -562.479)" fill="#161616"/>
          </g>
        </g>
        <g id="Group_10684" data-name="Group 10684" transform="translate(80.203 92.413)">
          <g id="Group_10683" data-name="Group 10683">
            <path id="Path_5554" data-name="Path 5554" d="M691.5,535.912a53.182,53.182,0,0,0,2.675,16.294c.365,1.094,2.128.608,1.763-.486a53.8,53.8,0,0,1-2.614-15.807.912.912,0,0,0-1.824,0Z" transform="translate(-691.5 -535)" fill="#161616"/>
          </g>
        </g>
        <g id="Group_10686" data-name="Group 10686" transform="translate(22.999 53.395)">
          <g id="Group_10685" data-name="Group 10685">
            <path id="Path_5555" data-name="Path 5555" d="M608.409,487.894c-.79.851-2.736.547-3.648.061a7.765,7.765,0,0,1-1.946-1.459,11.632,11.632,0,0,1-2.8-4.073c-1.216-2.857-1.763-11.065,3.648-9.606a.915.915,0,0,0,.486-1.763c-6.688-1.763-7.721,7.113-6.019,11.552,1.338,3.587,7.478,11,11.612,6.566.73-.851-.547-2.128-1.338-1.277Z" transform="translate(-597.411 -470.824)" fill="#161616"/>
          </g>
        </g>
        <g id="Group_10688" data-name="Group 10688" transform="translate(90.547 46.851)">
          <g id="Group_10687" data-name="Group 10687">
            <path id="Path_5556" data-name="Path 5556" d="M713.065,462.395c.73-2.432,3.891,2.25,4.256,3.1a12.416,12.416,0,0,1,.669,6.141c-.486,4.134-3.769,8.086-8.329,6.931a.915.915,0,0,0-.486,1.763c7.357,1.885,11.308-5.776,10.64-12.038-.3-2.736-1.4-6.262-4.013-7.721-1.7-.912-3.891-.669-4.5,1.277a.923.923,0,0,0,1.763.547Z" transform="translate(-708.514 -460.061)" fill="#161616"/>
          </g>
        </g>
        <g id="Group_10690" data-name="Group 10690" transform="translate(38.808 27.589)">
          <g id="Group_10689" data-name="Group 10689">
            <path id="Path_5557" data-name="Path 5557" d="M625.108,437.086a12.939,12.939,0,0,1,9.788-6.931c1.155-.182.669-1.946-.486-1.763a14.627,14.627,0,0,0-10.883,7.782c-.547,1.034,1.034,1.946,1.581.912Z" transform="translate(-623.413 -428.378)" fill="#161616"/>
          </g>
        </g>
        <g id="Group_10692" data-name="Group 10692" transform="translate(67.444 24.813)">
          <g id="Group_10691" data-name="Group 10691">
            <path id="Path_5558" data-name="Path 5558" d="M671.66,425.933a11.121,11.121,0,0,1,12.524,5.958c.547,1.034,2.067.122,1.581-.912a12.92,12.92,0,0,0-14.591-6.809.915.915,0,0,0,.486,1.763Z" transform="translate(-670.514 -423.812)" fill="#161616"/>
          </g>
        </g>
        <g id="Group_10694" data-name="Group 10694" transform="translate(55.324 33.278)">
          <g id="Group_10693" data-name="Group 10693">
            <path id="Path_5559" data-name="Path 5559" d="M650.591,438.869a70.8,70.8,0,0,1,.79,19.638c-.243,2.006-1.216,4.864-.3,6.87.973,2.189,3.587,4.073,5.229,5.776.79.851,2.128-.426,1.277-1.277-1.094-1.155-2.189-2.25-3.283-3.4-1.7-1.763-1.885-2.31-1.52-4.864.3-2.31.608-4.681.73-7.053a71.424,71.424,0,0,0-1.155-16.111c-.182-1.216-1.945-.73-1.763.426Z" transform="translate(-650.578 -437.735)" fill="#161616"/>
          </g>
        </g>
        <g id="Group_10696" data-name="Group 10696" transform="translate(44.743 41.184)">
          <g id="Group_10695" data-name="Group 10695">
            <path id="Path_5560" data-name="Path 5560" d="M636.108,459.592a7.724,7.724,0,0,1-1.216-4.742c0-.365.243-1.946.547-2.006a11.385,11.385,0,0,1,.547,2.371,16.375,16.375,0,0,1,.182,2.432c0,.243-.061,2.25-.061,1.034-.061-1.763.061-3.526.122-5.289-.608.061-1.216.182-1.763.243a35.652,35.652,0,0,1,.486,5.715h1.824v-.73a.913.913,0,0,0-1.824,0v.73a.913.913,0,0,0,1.824,0,35.612,35.612,0,0,0-.547-6.2c-.182-1.034-1.763-.73-1.763.243a39.785,39.785,0,0,0-.061,6.019,2.013,2.013,0,0,0,1.581,1.946c3.04.608,2.128-5.35,1.885-6.809-.182-1.155-.365-2.918-1.459-3.587a1.805,1.805,0,0,0-2.432.851c-1.52,2.554-.669,6.323.73,8.633.426,1.034,2.006.122,1.4-.851Z" transform="translate(-633.175 -450.739)" fill="#161616"/>
          </g>
        </g>
        <g id="Group_10698" data-name="Group 10698" transform="translate(72.831 37.962)">
          <g id="Group_10697" data-name="Group 10697">
            <path id="Path_5561" data-name="Path 5561" d="M682.308,454.292a7.724,7.724,0,0,1-1.216-4.742c0-.365.243-1.946.547-2.006a11.389,11.389,0,0,1,.547,2.371,16.382,16.382,0,0,1,.182,2.432c0,.243-.061,2.25-.061,1.034-.061-1.763.061-3.526.122-5.289-.608.061-1.216.182-1.763.243a35.651,35.651,0,0,1,.486,5.715h1.824v-.73a.913.913,0,0,0-1.824,0v.73a.913.913,0,0,0,1.824,0,35.618,35.618,0,0,0-.547-6.2c-.182-1.034-1.763-.73-1.763.243a39.785,39.785,0,0,0-.061,6.019,2.012,2.012,0,0,0,1.581,1.945c3.04.608,2.128-5.35,1.885-6.809-.182-1.155-.365-2.918-1.459-3.587a1.805,1.805,0,0,0-2.432.851c-1.52,2.553-.669,6.323.73,8.633.426,1.094,2.006.182,1.4-.851Z" transform="translate(-679.375 -445.439)" fill="#161616"/>
          </g>
        </g>
        <g id="Group_10700" data-name="Group 10700" transform="translate(37.812 53.806)">
          <g id="Group_10699" data-name="Group 10699">
            <path id="Path_5562" data-name="Path 5562" d="M622.641,473.324a.913.913,0,0,0,0-1.824.913.913,0,0,0,0,1.824Z" transform="translate(-621.775 -471.5)" fill="#161616"/>
          </g>
        </g>
        <g id="Group_10702" data-name="Group 10702" transform="translate(44.94 55.144)">
          <g id="Group_10701" data-name="Group 10701">
            <path id="Path_5563" data-name="Path 5563" d="M634.412,475.524h.243a.912.912,0,1,0,0-1.824h-.243a.935.935,0,0,0-.912.912.9.9,0,0,0,.912.912Z" transform="translate(-633.5 -473.7)" fill="#161616"/>
          </g>
        </g>
        <g id="Group_10704" data-name="Group 10704" transform="translate(40.707 60.737)">
          <g id="Group_10703" data-name="Group 10703">
            <path id="Path_5564" data-name="Path 5564" d="M627.427,484.724a.913.913,0,0,0,0-1.824.913.913,0,0,0,0,1.824Z" transform="translate(-626.537 -482.9)" fill="#161616"/>
          </g>
        </g>
        <g id="Group_10706" data-name="Group 10706" transform="translate(75.218 52.894)">
          <g id="Group_10705" data-name="Group 10705">
            <path id="Path_5565" data-name="Path 5565" d="M684.212,471.824h.243a.912.912,0,0,0,0-1.824h-.243a.935.935,0,0,0-.912.912.9.9,0,0,0,.912.912Z" transform="translate(-683.3 -470)" fill="#161616"/>
          </g>
        </g>
        <g id="Group_10708" data-name="Group 10708" transform="translate(81.951 48.395)">
          <g id="Group_10707" data-name="Group 10707">
            <path id="Path_5566" data-name="Path 5566" d="M695.241,464.424a.913.913,0,0,0,0-1.824.913.913,0,0,0,0,1.824Z" transform="translate(-694.375 -462.6)" fill="#161616"/>
          </g>
        </g>
        <g id="Group_10710" data-name="Group 10710" transform="translate(80.994 53.32)">
          <g id="Group_10709" data-name="Group 10709">
            <path id="Path_5567" data-name="Path 5567" d="M693.712,472.524h.243a.912.912,0,0,0,0-1.824h-.243a.935.935,0,0,0-.912.912.98.98,0,0,0,.912.912Z" transform="translate(-692.8 -470.7)" fill="#161616"/>
          </g>
        </g>
        <g id="Group_10712" data-name="Group 10712" transform="translate(49.059 67.7)">
          <g id="Group_10711" data-name="Group 10711">
            <path id="Path_5568" data-name="Path 5568" d="M644.181,506.784c-.973-1.4-2.553-3.4-1.885-5.229.79-2.067,3.283-1.763,4.925-1.52,2.006.3,3.648.669,5.593.061a25.668,25.668,0,0,0,4.438-2.31c3.466-1.945,7.539-2.128,8.633,2.432,3.1,12.464-18.908,15.99-22.313,5.046-.365-1.094-2.128-.669-1.763.486,4.2,13.436,30.217,8.451,25.657-6.445a6.646,6.646,0,0,0-5.35-4.925c-4.377-.426-7.235,3.952-11.43,4.256-3.1.243-6.87-2.128-9.363.79-2.25,2.614-.426,5.958,1.216,8.268.73.973,2.31.061,1.642-.912Z" transform="translate(-640.274 -494.352)" fill="#161616"/>
          </g>
        </g>
        <g id="Group_10714" data-name="Group 10714" transform="translate(49.374 70.405)">
          <g id="Group_10713" data-name="Group 10713">
            <path id="Path_5569" data-name="Path 5569" d="M640.858,505.063c1.338,3.709,8.025,2.553,10.944,2.128a30.676,30.676,0,0,0,15.017-6.87c.912-.73-.365-2.067-1.277-1.277a28.146,28.146,0,0,1-10.822,5.715c-1.763.486-11.065,2.554-12.038-.122-.486-1.155-2.25-.669-1.824.426Z" transform="translate(-640.792 -498.802)" fill="#161616"/>
          </g>
        </g>
        <g id="Group_10716" data-name="Group 10716" transform="translate(59.601 93.456)">
          <g id="Group_10715" data-name="Group 10715">
            <path id="Path_5570" data-name="Path 5570" d="M658.274,546.616c7.113,1.824,16.6-2.675,20.611-8.572.669-.973-.912-1.885-1.581-.912-3.526,5.168-12.342,9.3-18.543,7.721a.915.915,0,0,0-.486,1.763Z" transform="translate(-657.614 -536.716)" fill="#161616"/>
          </g>
        </g>
        <g id="Group_10718" data-name="Group 10718" transform="translate(60.476 94.877)">
          <g id="Group_10717" data-name="Group 10717">
            <path id="Path_5571" data-name="Path 5571" d="M659.507,548.079c6.323,3.952,16.719-1.642,19.759-7.661.547-1.034-1.034-1.946-1.581-.912-2.554,5.107-11.856,10.4-17.267,7.053a.887.887,0,1,0-.912,1.52Z" transform="translate(-659.052 -539.052)" fill="#161616"/>
          </g>
        </g>
        <path id="Path_5572" data-name="Path 5572" d="M685.305,447.9a97.546,97.546,0,0,1,1.338,9.849c.851,11.187,2.31,29.913-9,42.376-2.432,2.675-7.6,7.417-17.145,10.092a51.186,51.186,0,0,0,10.761-1.52,38.591,38.591,0,0,0,5.472-1.763c.243,5.411.426,10.822.669,16.233,2.067-1.338,4.073-2.614,6.141-3.952a25.839,25.839,0,0,1-2.432-14.044c.547-4.256,2.128-7.721,3.709-11.187a50.493,50.493,0,0,1,4.013-7.174,8.18,8.18,0,0,0,1.277,3.891c3.709,5.533,15.321,6.08,22.617,1.338,6.749-4.377,10.032-13.254,8.329-22.374a27.544,27.544,0,0,1,3.526,3.526c.912,1.094,3.283,4.256,6.566,15.382a60.793,60.793,0,0,1,1.824,6.992,31.084,31.084,0,0,1-.243,12.281,28.445,28.445,0,0,1-10.64,15.625,32.206,32.206,0,0,1-12.038,5.593c-3.04.669-12.16,2.858-20.732-2.128-3.222-1.885-4.985-3.283-5.958-4.985a11.807,11.807,0,0,1-1.277-4.985c-.547-8.329-.79-12.524-.243-15.382,1.641-8.268,5.35-9.12,7.417-18.543a45.546,45.546,0,0,0,.973-8.086,7.9,7.9,0,0,0,8.573-4.317c2.189-3.466,3.162-9.667-.243-12.524a7.261,7.261,0,0,0-5.472-1.459C690.595,453.737,687.981,450.818,685.305,447.9Z" transform="translate(-599.144 -408.442)" fill="#3f3f3f" opacity="0.2"/>
        <path id="Path_5573" data-name="Path 5573" d="M653.9,480.3c3.1.912,6.262,1.885,9.363,2.8-.79.73-1.581,1.4-2.432,2.128-.79.669-1.52,1.216-2.31,1.824a12.842,12.842,0,0,1-3.466-3.952A10.117,10.117,0,0,1,653.9,480.3Z" transform="translate(-596.557 -421.144)" fill="#3f3f3f" opacity="0.13"/>
        <path id="Path_5574" data-name="Path 5574" d="M568.166,490.487c-6.627,23.407-1.7,42.315,8.208,46.45,7.782,3.222,21.827-1.338,24.441-9.3.365-1.034.73-2.858-.669-8.451a66.342,66.342,0,0,0-9.3-20.793,14.651,14.651,0,0,1-3.466-3.04,13.794,13.794,0,0,1-2.918-6.749c1.763,1.824,4.317,4.134,5.958,3.4a4.443,4.443,0,0,0,2.006-5.107,75.6,75.6,0,0,0,2.979,11.065c2.067,5.9,4.134,11.612,8.937,17.023a35.831,35.831,0,0,0,13.8,9.484,20.327,20.327,0,0,1,4.2,9.606,21.092,21.092,0,0,1-.547,8.268,23.6,23.6,0,0,1-6.505,10.822,25.7,25.7,0,0,1-14.47,6.627c-16.476,2.189-29.244-12.22-31.493-14.713a36.806,36.806,0,0,1-8.086-13.376c-3.4-10.457-.79-19.881,1.094-26.751A67.975,67.975,0,0,1,568.166,490.487Z" transform="translate(-559.582 -423.731)" fill="#3f3f3f" opacity="0.16"/>
      </g>
    </g>
  </g>
</svg>
