<svg xmlns="http://www.w3.org/2000/svg" width="772.973" height="608.493" viewBox="0 0 772.973 608.493">
  <g id="pixeltrue-vision" transform="translate(0.001)">
    <g id="background" transform="translate(-0.001 22.188)">
      <g id="Group_9100" data-name="Group 9100" transform="translate(0 466.292)">
        <g id="Group_9099" data-name="Group 9099">
          <path id="Path_4713" data-name="Path 4713" d="M77.679,928.686C116.5,911.37,160.574,913.6,201.3,922.206c43.067,9.105,84.515,24.969,127.973,32.342,24.075,4.078,48.653,5.53,72.9,1.732,1.061-.168.614-1.788-.447-1.62-45.022,6.982-90.045-4.189-133.112-16.367-41.224-11.674-82.951-24.634-126.3-24.3-22.455.168-44.855,4.078-65.467,13.239-1.005.447-.168,1.9.838,1.452Z" transform="translate(-76.387 -913.989)" fill="#e8e8e8"/>
        </g>
      </g>
      <g id="Group_9102" data-name="Group 9102" transform="translate(217.864 466.018)">
        <g id="Group_9101" data-name="Group 9101">
          <path id="Path_4714" data-name="Path 4714" d="M467.243,942.881c52.619,1.061,103.563-13.518,155.009-22.176,15.026-2.514,30.164-4.525,45.413-5.53,1.061-.056,1.061-1.732,0-1.676-52.675,3.463-103.451,19.215-155.735,25.36a331.014,331.014,0,0,1-44.631,2.4.812.812,0,1,0-.056,1.62Z" transform="translate(-466.412 -913.498)" fill="#e8e8e8"/>
        </g>
      </g>
      <g id="Group_9104" data-name="Group 9104" transform="translate(463.601 471.418)">
        <g id="Group_9103" data-name="Group 9103">
          <path id="Path_4715" data-name="Path 4715" d="M907.377,928.38a157.9,157.9,0,0,1,57.032-1.788c17.428,2.681,34.13,8.435,50.608,14.579,16.255,6.033,32.4,12.457,49.268,16.758,17.428,4.413,35.135,5.53,53.122,5.53,21.227,0,42.621-.838,63.456,3.854,1.061.224,1.508-1.4.447-1.62-36.811-8.267-74.963.112-111.774-8.267-34.353-7.82-65.746-25.416-100.49-31.728a160.033,160.033,0,0,0-62.06,1.061c-1.117.223-.67,1.843.391,1.62Z" transform="translate(-906.335 -923.165)" fill="#e8e8e8"/>
        </g>
      </g>
      <g id="Group_9106" data-name="Group 9106" transform="translate(146.566 231.002)">
        <g id="Group_9105" data-name="Group 9105" transform="translate(0)">
          <path id="Path_4716" data-name="Path 4716" d="M351.748,523.619c-4.8-1.452-14.244-5.418-10.725-12.121,2.514-4.8,10-5.195,14.635-5.027,15.641.447,31.281,1.787,46.922.5,14.691-1.229,28.712-5.418,43.012-8.77,14.523-3.463,29.885-5.977,44.52-1.732,6.424,1.843,12.4,4.916,18.713,7.038a44.291,44.291,0,0,0,9.328,2.123c3.8.391,7.6-.168,11.339-.335,3.854-.168,7.82-.056,11.116,2.234,3.016,2.067,5.53,5.977,3.575,9.608-2.793,5.251-10.948,3.8-15.641,2.793a123.781,123.781,0,0,0-42.062-1.9,127.9,127.9,0,0,0-21.953,5.139c-7.709,2.458-15.194,4.636-23.4,3.519-7.653-1.061-14.97-3.519-22.735-3.8-7.764-.335-15.473.67-23.126,1.676-14.859,2.011-30.722,4.58-44.631-2.625-.95-.5-1.787.95-.838,1.452,13.015,6.759,27.706,5.195,41.783,3.352a198.115,198.115,0,0,1,22.288-2.234c8.211-.168,15.864,1.732,23.852,3.3,8.155,1.564,15.529.726,23.461-1.732,7.876-2.458,15.641-4.86,23.8-6.089a114.362,114.362,0,0,1,25.472-1.005c7.541.5,14.747,2.514,22.176,3.352,4.413.5,10.055.335,12.792-3.8,3.128-4.748-.223-10.278-4.525-12.9-6.536-3.966-14.635-1.173-21.729-1.62-7.82-.5-15.026-4.134-22.232-6.927-14.97-5.809-30.276-5.083-45.749-1.787-16.367,3.463-32.287,8.77-49.044,10.11a240.915,240.915,0,0,1-29.1.223l-15.138-.67a39.6,39.6,0,0,0-9.273.447c-4.748.95-10.166,3.743-9.831,9.384.391,6.2,7.541,9.049,12.568,10.557.95.223,1.4-1.4.391-1.732Z" transform="translate(-338.773 -492.767)" fill="#e8e8e8"/>
        </g>
      </g>
      <g id="Group_9108" data-name="Group 9108" transform="translate(555.861 26.102)">
        <g id="Group_9107" data-name="Group 9107">
          <path id="Path_4717" data-name="Path 4717" d="M1087.42,155.639c-4.8-.67-12.68-2.4-14.076-7.876-2.011-7.6,8.826-10,14.076-10.948,15.361-2.625,31.113-.223,46.586-.223,30.667-.056,60.886-5.865,91.385-8.044,15.249-1.117,30.611-1.285,45.8.67a65.845,65.845,0,0,1,10.446,1.787,9.872,9.872,0,0,1,4.022,2.067c2.569,2.514.056,4.8-2.29,6.033-6.033,3.184-12.9,4.469-19.662,4.748-13.518.614-26.98-2.178-40.5-1.676a59.842,59.842,0,0,0-18.489,3.463c-6.982,2.57-13.462,6.2-20.5,8.6a78.477,78.477,0,0,1-25.416,4.189c-8.77,0-17.428-1.341-26.086-2.346a212.639,212.639,0,0,0-52.619.391c-1.061.168-1.061,1.843,0,1.676a209.518,209.518,0,0,1,51.558-.5c8.491.95,16.981,2.29,25.583,2.458a80.125,80.125,0,0,0,23.573-3.016c7.82-2.234,14.97-6.089,22.511-9.105a60.7,60.7,0,0,1,22.679-4.189c14.412-.112,28.879,3.128,43.291,1.229a46.711,46.711,0,0,0,10.278-2.458c2.569-.95,6.033-2.123,7.876-4.3,3.463-4.189-1.564-7.876-5.307-8.937-7.373-2.179-15.7-2.57-23.349-3.016a232.7,232.7,0,0,0-24.969-.056c-33.683,1.62-66.975,8.658-100.77,8.546-9.608,0-19.216-.894-28.823-.95-8.155-.056-17.484.112-25.136,3.3-4.8,2.011-9.5,6.7-6.815,12.233,2.514,5.195,9.608,6.982,14.747,7.709,1.005.335,1.452-1.285.391-1.452Z" transform="translate(-1071.5 -125.95)" fill="#e8e8e8"/>
        </g>
      </g>
      <g id="Group_9110" data-name="Group 9110" transform="translate(30.312 121.607)">
        <g id="Group_9109" data-name="Group 9109">
          <path id="Path_4718" data-name="Path 4718" d="M131.908,307.357c46.586-20.221,97.642-1.341,140.6,18.936,21.9,10.334,43.458,21.394,66.3,29.549a342.75,342.75,0,0,0,69.321,16.7c47.424,6.424,95.966,3.575,142.608-6.871,48.877-10.948,95.184-30.834,143.67-43.291a378.879,378.879,0,0,1,154.618-7.429c6.256,1.005,12.457,2.179,18.657,3.519,1.061.223,1.508-1.4.447-1.62a377.933,377.933,0,0,0-151.881-1.173c-50.05,9.943-97.139,30.276-146.239,43.514-47.648,12.848-97.418,18.042-146.63,13.406a349.387,349.387,0,0,1-72.17-14.412c-24.243-7.6-46.978-18.657-69.824-29.605-41.28-19.83-87.866-39.939-134.564-28.153a99,99,0,0,0-15.752,5.418c-.95.5-.112,1.955.838,1.508Z" transform="translate(-130.652 -296.926)" fill="#e8e8e8"/>
        </g>
      </g>
      <g id="Group_9112" data-name="Group 9112" transform="translate(222.335 89.985)">
        <g id="Group_9111" data-name="Group 9111">
          <path id="Path_4719" data-name="Path 4719" d="M474.8,262.371c54.574,30.443,119.538,32.733,180.09,24.243,68.539-9.608,134.564-32.231,203.215-41.056,38.208-4.916,77.2-5.53,115.014,2.849,1.061.223,1.508-1.4.447-1.62C906.7,232.04,838.105,245.055,772.639,260.3c-64.517,15.026-129.761,32.566-196.624,28.265-34.912-2.234-69.656-10.557-100.379-27.65-.894-.559-1.732.894-.838,1.452Z" transform="translate(-474.416 -240.315)" fill="#e8e8e8"/>
        </g>
      </g>
      <g id="Group_9114" data-name="Group 9114" transform="translate(58.722)">
        <g id="Group_9113" data-name="Group 9113">
          <path id="Path_4720" data-name="Path 4720" d="M182.567,86.974A224.935,224.935,0,0,1,323.779,99.486c21.729,9.44,42.118,21.729,63.456,31.951a225.909,225.909,0,0,0,67.645,20.556c27.092,3.631,54.518,3.016,81.666,1.229,1.061-.056,1.061-1.732,0-1.676-24.522,1.62-49.268,2.29-73.734-.279A224.84,224.84,0,0,1,391.7,131.717c-21.506-10-41.838-22.288-63.456-32.007a223.614,223.614,0,0,0-66.919-18.88,226.268,226.268,0,0,0-79.208,4.525c-1.061.223-.614,1.843.447,1.62Z" transform="translate(-181.514 -79.222)" fill="#e8e8e8"/>
        </g>
      </g>
      <g id="Group_9116" data-name="Group 9116" transform="translate(520.77 319.799)">
        <g id="Group_9115" data-name="Group 9115">
          <path id="Path_4721" data-name="Path 4721" d="M1023.605,678.247c-4.916-1.005-12.959-3.519-13.35-9.608-.223-3.743,2.9-6.48,6.2-7.485,3.966-1.285,8.155-.112,12.01,1.005,7.038,2.067,14.132,3.743,21.506,4.022a67.7,67.7,0,0,0,20.333-2.514c7.15-1.9,14.132-4.469,21.226-6.48a88.421,88.421,0,0,1,22.958-3.352c14.914-.223,29.661,2.458,44.52,3.072a116.5,116.5,0,0,0,22.064-1.229c7.932-1.229,16.031-3.072,24.131-2.123,5.809.67,15.138,4.58,13.239,12.065-1.676,6.536-10.948,10.222-16.646,12.066-28.6,9.273-58.094-6.145-87.084-2.067-16.7,2.346-32.454,9.384-49.324,10.725-7.708.614-15.64.112-22.958-2.625-6.7-2.57-12.736-8.155-20.389-6.815-1.061.168-.615,1.787.447,1.62,4.58-.782,8.6,1.4,12.457,3.519a51.278,51.278,0,0,0,9.664,4.245,56.965,56.965,0,0,0,21.729,1.732c15.976-1.508,31-7.82,46.81-10.39,17.428-2.793,34.577,1.229,51.781,3.519,14.021,1.843,29.047,2.29,42.229-3.575,5.027-2.234,11.73-5.809,13.015-11.73,1.173-5.307-2.9-9.552-7.318-11.73-6.535-3.184-14.412-2.569-21.338-1.62-8.435,1.117-16.646,2.9-25.192,3.016-16.646.279-33.068-3.128-49.659-3.184a92.888,92.888,0,0,0-23.517,2.9c-7.653,2.011-15.082,4.8-22.679,6.871a67.918,67.918,0,0,1-28.432,1.787,118.574,118.574,0,0,1-13.965-3.463c-3.463-1.005-7.206-1.843-10.837-1.061-5.418,1.173-10.334,6.312-7.932,12.065,2.179,5.251,8.826,7.541,13.965,8.6.894.056,1.341-1.564.335-1.787Z" transform="translate(-1008.68 -651.732)" fill="#e8e8e8"/>
        </g>
      </g>
      <g id="Group_9118" data-name="Group 9118" transform="translate(284.002 529.348)">
        <g id="Group_9117" data-name="Group 9117" transform="translate(0)">
          <path id="Path_4722" data-name="Path 4722" d="M585.867,1064.425a373.221,373.221,0,0,0,61.054-20.444c10.222-4.469,20.221-9.552,31.114-12.233a118.884,118.884,0,0,1,32.063-3.128c12.457.279,24.8,1.955,37.09,3.91,1.061.167,1.508-1.452.447-1.62-20.947-3.3-42.509-5.977-63.568-2.178-10.837,1.955-20.78,6.089-30.722,10.613-10.446,4.748-21,9.049-31.84,12.848a366.025,366.025,0,0,1-36.085,10.613c-1.061.223-.615,1.843.447,1.62Z" transform="translate(-584.814 -1026.873)" fill="#161616"/>
        </g>
      </g>
      <g id="Group_9120" data-name="Group 9120" transform="translate(416.262 520.366)">
        <g id="Group_9119" data-name="Group 9119" transform="translate(0)">
          <path id="Path_4723" data-name="Path 4723" d="M822.376,1022.136a108.376,108.376,0,0,0,27.706-4.189c9.217-2.625,18.322-6.312,28.1-5.362,4.971.447,9.831,1.843,14.635,3.072,5.027,1.285,10,2.569,15.026,3.854,9.664,2.458,19.271,4.916,28.935,7.373a.84.84,0,0,0,.447-1.62c-10-2.57-20-5.083-30-7.653-9.161-2.346-18.545-5.474-27.93-6.591-9.217-1.061-17.931,1.787-26.645,4.469a113.7,113.7,0,0,1-30.22,5.027.81.81,0,1,0-.056,1.62Z" transform="translate(-821.587 -1010.793)" fill="#161616"/>
        </g>
      </g>
      <g id="Group_9122" data-name="Group 9122" transform="translate(513.794 532.567)">
        <g id="Group_9121" data-name="Group 9121">
          <path id="Path_4724" data-name="Path 4724" d="M997.258,1040.436c21.953-4.86,45.022-9.049,67.31-3.91,11.06,2.569,21.45,7.485,31.784,12.01,10.837,4.8,21.729,9.552,32.566,14.356,1.005.447,1.844-1.005.838-1.452-16.981-7.485-33.795-15.585-51.111-22.232-16.758-6.424-34.186-7.708-51.949-5.7a287.294,287.294,0,0,0-29.94,5.363c-1.005.168-.559,1.788.5,1.564Z" transform="translate(-996.192 -1032.636)" fill="#161616"/>
        </g>
      </g>
      <g id="Group_9124" data-name="Group 9124" transform="translate(315.339 578.536)">
        <g id="Group_9123" data-name="Group 9123" transform="translate(0)">
          <path id="Path_4725" data-name="Path 4725" d="M641.967,1122.678c5.753-1.005,11.563-2.011,17.316-3.016s11.563-2.29,17.372-2.9c5.362-.559,10.837.391,16.143.894,5.865.614,11.786,1.173,17.651,1.787,1.061.112,1.061-1.564,0-1.676-5.865-.615-11.786-1.173-17.651-1.787-5.7-.559-11.451-1.508-17.2-.782-11.4,1.4-22.735,3.91-34.074,5.865-1.061.224-.614,1.843.447,1.62Z" transform="translate(-640.914 -1114.93)" fill="#161616"/>
        </g>
      </g>
    </g>
    <g id="details" transform="translate(99.079 0)">
      <ellipse id="Ellipse_1394" data-name="Ellipse 1394" cx="6.927" cy="6.927" rx="6.927" ry="6.927" transform="translate(56.104 342.695)" fill="#3f3f3f"/>
      <ellipse id="Ellipse_1395" data-name="Ellipse 1395" cx="3.631" cy="3.631" rx="3.631" ry="3.631" transform="translate(78.112 364.48)" fill="#3f3f3f"/>
      <ellipse id="Ellipse_1396" data-name="Ellipse 1396" cx="8.546" cy="8.546" rx="8.546" ry="8.546" transform="translate(462.757)" fill="#3f3f3f"/>
      <ellipse id="Ellipse_1397" data-name="Ellipse 1397" cx="4.86" cy="4.86" rx="4.86" ry="4.86" transform="translate(486.33 17.037)" fill="#3f3f3f"/>
      <ellipse id="Ellipse_1398" data-name="Ellipse 1398" cx="8.1" cy="8.1" rx="8.1" ry="8.1" transform="translate(479.85 8.546)" fill="#2d2d2d"/>
      <ellipse id="Ellipse_1399" data-name="Ellipse 1399" cx="10.948" cy="10.948" rx="10.948" ry="10.948" transform="translate(457.618 419.669)" fill="#2d2d2d"/>
      <ellipse id="Ellipse_1400" data-name="Ellipse 1400" cx="6.982" cy="6.982" rx="6.982" ry="6.982" transform="translate(64.091 8.546)" fill="#2d2d2d"/>
      <ellipse id="Ellipse_1401" data-name="Ellipse 1401" cx="8.546" cy="8.546" rx="8.546" ry="8.546" transform="translate(173.017 482.901)" fill="#2d2d2d"/>
      <g id="Group_9126" data-name="Group 9126" transform="translate(241.053 317.101)">
        <g id="Group_9125" data-name="Group 9125" transform="translate(0)">
          <path id="Path_4726" data-name="Path 4726" d="M687.478,629.312c-1.173-.5.168-2.569.782-2.849.726-.335,2.179.112,2.961.335,1.229.391,2.29,1.061,3.519,1.4a6.161,6.161,0,0,0,4.245-.112c4.469-2.29-.838-10,5.7-10,3.575,0,6.591,5.307,9.552,1.341a16.361,16.361,0,0,0,2.067-4.86,11.061,11.061,0,0,1,1.843-4.134c1.173-1.341,4.748-2.681,5.139.223.112,1.061,1.843,1.061,1.676,0a3.866,3.866,0,0,0-3.8-3.463c-2.458-.168-4.245,1.676-5.251,3.687a30.2,30.2,0,0,0-1.564,4.469c-.335,1.061-.782,2.9-1.732,3.575-1.005.67-1.788-.056-2.625-.559-2.179-1.452-4.8-2.569-7.429-1.62-2.4.894-3.352,2.961-3.24,5.418,0,.726.224,1.62.168,2.346-.391,2.57-2.123,2.681-3.91,2.29s-3.3-1.508-5.139-1.843c-1.955-.391-3.91.112-4.8,2.067-.726,1.676-.279,3.352,1.4,4.022,1.006.279,1.452-1.341.447-1.732Z" transform="translate(-685.299 -607.181)" fill="#727272"/>
        </g>
      </g>
      <g id="Group_9128" data-name="Group 9128" transform="translate(269.807 318.343)">
        <g id="Group_9127" data-name="Group 9127" transform="translate(0)">
          <path id="Path_4727" data-name="Path 4727" d="M739.024,632.975a3.7,3.7,0,0,1,.056-4.189c1.285-1.843,3.072-1.564,5.027-1.285,1.452.223,3.24.5,4.3-.782.726-.838.614-1.843.894-2.793a6.436,6.436,0,0,1,2.458-3.463,7.042,7.042,0,0,1,8.379-.168.873.873,0,0,0,1.452-.614,9.993,9.993,0,0,1,11.4-8.491c1.061.168,1.508-1.452.447-1.62a11.716,11.716,0,0,0-13.518,10.111c.5-.223.95-.391,1.452-.615a8.28,8.28,0,0,0-7.932-1.285c-3.128,1.061-4.58,3.128-5.753,6.033-.559,1.452-1.229,2.346-2.849,2.123-.894-.112-1.732-.335-2.625-.391a4.753,4.753,0,0,0-3.407,1.117,5.525,5.525,0,0,0-1.173,7.206.829.829,0,0,0,1.4-.894Z" transform="translate(-736.775 -609.405)" fill="#727272"/>
        </g>
      </g>
      <g id="Group_9130" data-name="Group 9130" transform="translate(298.117 23.525)">
        <g id="Group_9129" data-name="Group 9129" transform="translate(0)">
          <path id="Path_4728" data-name="Path 4728" d="M789.659,94.287c-.95-.894-.67-1.452.782-1.732.615-.838,1.285-1.005,2.011-.447a5.787,5.787,0,0,1,2.4,1.787,20.76,20.76,0,0,0,2.681,2.29,4.955,4.955,0,0,0,4.58.391c1.788-.894,1.843-2.681,2.458-4.357A5.658,5.658,0,0,1,814.628,91.1c.335.447,1.173.614,1.452,0,1.061-2.514,2.4-5.362,4.8-6.871s6.424-1.341,7.485,1.787c.335,1.005,1.955.559,1.62-.447-1.061-3.016-4.134-4.357-7.206-3.854-4.245.726-6.591,4.971-8.155,8.546h1.452a7.407,7.407,0,0,0-8.658-3.072,7.189,7.189,0,0,0-3.519,2.793,9.677,9.677,0,0,0-1.005,2.178,7.208,7.208,0,0,1-.447,1.564,3.2,3.2,0,0,1-4.022,1.005c-2.737-1.508-5.418-6.312-9.217-4.357a3.1,3.1,0,0,0-.391,5.362.838.838,0,0,0,.838-1.452Z" transform="translate(-787.457 -81.615)" fill="#494949"/>
        </g>
      </g>
      <g id="Group_9132" data-name="Group 9132" transform="translate(334.496 26.981)">
        <g id="Group_9131" data-name="Group 9131" transform="translate(0)">
          <path id="Path_4729" data-name="Path 4729" d="M854.268,96.571c-.391-5.586,6.759-3.743,9.608-2.346,1.452.726,3.24,2.067,4.8.838a3.312,3.312,0,0,0,.95-1.508c.838-1.843,1.4-3.184,3.631-3.854,3.463-1.005,6.815,1.173,9.608,2.961.894.559,1.732-.894.838-1.452-2.961-1.843-6.312-3.91-9.943-3.3a7.127,7.127,0,0,0-3.3,1.341c-1.452,1.061-1.732,2.9-3.184,3.8-1.4.838-1.955,0-3.352-.67-.726-.335-1.452-.67-2.234-.95a8.346,8.346,0,0,0-4.525-.391,5.518,5.518,0,0,0-4.58,5.53c.056,1.061,1.732,1.061,1.676,0Z" transform="translate(-852.583 -87.802)" fill="#494949"/>
        </g>
      </g>
      <g id="Group_9134" data-name="Group 9134" transform="translate(495.667 257.342)">
        <g id="Group_9133" data-name="Group 9133">
          <path id="Path_4730" data-name="Path 4730" d="M1143.286,509.975c-3.687-8.1,10.278-11.675,11.228-3.184a6.035,6.035,0,0,1-4.134,6.647,6.483,6.483,0,0,1-7.6-4.469.84.84,0,0,0-1.62.447,8.17,8.17,0,0,0,9.664,5.642c4.078-1.061,6.089-5.586,5.139-9.5-1.005-4.134-5.307-6.144-9.273-5.083a7.432,7.432,0,0,0-4.86,10.446c.447.894,1.9,0,1.452-.95Z" transform="translate(-1141.116 -500.199)" fill="#494949"/>
        </g>
      </g>
      <g id="Group_9136" data-name="Group 9136" transform="translate(503.388 264.25)">
        <g id="Group_9135" data-name="Group 9135" transform="translate(0)">
          <path id="Path_4731" data-name="Path 4731" d="M1159.776,521.858c-3.016-.279-4.134-4.3-2.067-6.312a5.069,5.069,0,0,1,6.536-.168c1.9,1.508,3.743,5.921,1.62,8.044-2.793,2.793-6.2-1.732-7.541-3.743-.614-.894-2.067-.056-1.452.838,1.955,3.016,6.424,7.764,10.166,4.078,2.961-2.9.838-8.77-2.067-10.837-2.961-2.123-7.82-1.4-9.5,2.067a5.451,5.451,0,0,0,4.357,7.708c1.005.112,1.005-1.564-.056-1.676Z" transform="translate(-1154.937 -512.566)" fill="#494949"/>
        </g>
      </g>
      <g id="Group_9138" data-name="Group 9138" transform="translate(0 197.042)">
        <g id="Group_9137" data-name="Group 9137" transform="translate(0)">
          <path id="Path_4732" data-name="Path 4732" d="M254.565,398.534c2.234-.112,3.407-1.62,4.971-3.016,3.687-3.3,7.932-.168,10.278,3.072,2.234,3.072,5.474,5.251,8.323,1.564,1.341-1.732,2.011-4.3,3.854-5.53,3.743-2.514,6.927,2.458,9.273,4.636,2.681,2.458,8.211,3.575,9.44-1.005a.84.84,0,0,0-1.62-.447c-.614,2.4-3.519,2.346-5.251,1.341a17.535,17.535,0,0,1-3.352-3.072c-1.564-1.676-3.3-3.3-5.642-3.743-3.854-.67-5.586,2.793-7.318,5.586a5.693,5.693,0,0,1-1.843,2.29c-2.011,1.061-3.463-1.061-4.525-2.458a12.679,12.679,0,0,0-5.027-4.525,7.136,7.136,0,0,0-5.753-.335c-2.123.894-3.463,3.91-5.865,4.022a.811.811,0,0,0,.056,1.62Z" transform="translate(-253.762 -392.249)" fill="#494949"/>
        </g>
      </g>
      <g id="Group_9140" data-name="Group 9140" transform="translate(39.648 189.86)">
        <g id="Group_9139" data-name="Group 9139" transform="translate(0)">
          <path id="Path_4733" data-name="Path 4733" d="M324.941,381.352c2.346,2.793,6.536,6.535,10.222,3.463.894-.782,1.4-1.9,2.346-2.681a5.408,5.408,0,0,1,4.86-.782c3.519.95,5.586,4.3,7.429,7.15a.839.839,0,0,0,1.452,0c2.4-5.251,8.826-6.535,13.853-4.525,1.005.391,1.452-1.229.447-1.62-5.642-2.29-13.071-.614-15.752,5.251h1.452c-2.514-3.91-5.7-8.379-10.948-8.211a6.655,6.655,0,0,0-4.748,2.178c-1.452,1.676-2.681,3.016-5.083,2.29-1.843-.559-3.184-2.29-4.413-3.743-.615-.782-1.788.391-1.117,1.229Z" transform="translate(-324.741 -379.392)" fill="#494949"/>
        </g>
      </g>
      <g id="Group_9142" data-name="Group 9142" transform="translate(135.726 238.035)">
        <g id="Group_9141" data-name="Group 9141" transform="translate(0)">
          <path id="Path_4734" data-name="Path 4734" d="M501.467,477.849c-.726-1.452-1.564-2.961-2.234-4.469-.726-1.564-.391-2.178.559-3.519,1.229-1.732,3.128-3.3,5.307-2.123a7.12,7.12,0,0,1,3.016,4.357c.782,2.737.112,6.647-3.072,7.541-2.625.726-6.033-.894-5.921-3.91a.839.839,0,0,0-1.676,0c-.112,3.743,3.631,6.089,7.094,5.7,4.245-.5,6.033-4.971,5.418-8.77-.614-3.687-4.022-8.379-8.267-6.647-2.067.838-3.631,3.016-4.58,4.971-.559,1.173-.447,1.229.112,2.4.894,1.788,1.787,3.575,2.681,5.307a.889.889,0,0,0,1.564-.838Z" transform="translate(-496.743 -465.636)" fill="#727272"/>
        </g>
      </g>
      <g id="Group_9144" data-name="Group 9144" transform="translate(141.235 247.611)">
        <g id="Group_9143" data-name="Group 9143" transform="translate(0)">
          <path id="Path_4735" data-name="Path 4735" d="M512.02,496.365c-2.123-2.514-5.753-7.429-2.625-10.557,2.234-2.234,6.256-1.4,8.1.838,1.9,2.29,2.29,6.759-.67,8.435-2.514,1.452-6.145.056-6.591-2.849-.168-1.061-1.788-.614-1.62.447.67,3.8,5.307,5.586,8.658,4.078,4.078-1.9,4.245-7.541,1.843-10.837-2.29-3.184-7.318-4.3-10.446-1.676-4.525,3.743-.614,9.887,2.234,13.239.615.894,1.787-.279,1.117-1.117Z" transform="translate(-506.603 -482.78)" fill="#494949"/>
        </g>
      </g>
      <g id="Group_9146" data-name="Group 9146" transform="translate(475.268 129.855)">
        <g id="Group_9145" data-name="Group 9145">
          <path id="Path_4736" data-name="Path 4736" d="M1106.275,290.253c.056-4.916,6.815-3.463,9.719-3.128a11.412,11.412,0,0,0,7.038-1.285c2.458-1.285,4.469-3.3,6.871-4.692a10.752,10.752,0,0,1,5.307-1.788c1.955.056,3.184,1.229,4.916,1.955,4.022,1.62,6.591-2.123,9.105-4.58,4.971-4.86,12.066-2.849,17.875-.838,1.005.335,1.452-1.285.447-1.62-5.195-1.788-11.786-3.743-16.925-.782-2.458,1.4-3.91,3.966-6.145,5.586-3.184,2.29-5.865-1.341-9.217-1.4-7.206-.112-11,8.211-18.266,7.82-3.128-.168-6.145-1.341-9.161.056a5.081,5.081,0,0,0-3.24,4.636.839.839,0,0,0,1.676.056Z" transform="translate(-1104.598 -271.97)" fill="#727272"/>
        </g>
      </g>
      <g id="Group_9148" data-name="Group 9148" transform="translate(517.189 133.593)">
        <g id="Group_9147" data-name="Group 9147" transform="translate(0 0)">
          <path id="Path_4737" data-name="Path 4737" d="M1181.184,291.307a15.152,15.152,0,0,1,16.311-5.809c2.625.782,5.083,2.9,7.988,2.737,2.4-.168,3.687-2.123,5.307-3.631,2.625-2.4,6.033-4.357,9.719-4.245a8.813,8.813,0,0,1,5.7,2.346,4.345,4.345,0,0,0,1.787,1.173,4.788,4.788,0,0,0,3.128-.67,36.179,36.179,0,0,1,5.362-1.955,30.73,30.73,0,0,1,11.507-.614c1.061.112,1.061-1.564,0-1.676a30.384,30.384,0,0,0-11,.447,36.813,36.813,0,0,0-4.8,1.508,7.159,7.159,0,0,1-3.24.838c-1.508,0-1.4-.223-2.4-1.005-4.748-3.631-11.116-1.955-15.417,1.452-1.173.894-2.123,2.123-3.24,3.016-2.681,2.123-4.8.782-7.541-.447a15.989,15.989,0,0,0-7.373-1.452,16.8,16.8,0,0,0-13.127,7.15c-.726.894.726,1.732,1.341.838Z" transform="translate(-1179.645 -278.661)" fill="#727272"/>
        </g>
      </g>
    </g>
    <g id="girl" transform="translate(295.767 64.274)">
      <g id="leg_right" transform="translate(150.398 231.891)">
        <path id="Path_4738" data-name="Path 4738" d="M941.716,969.528c1.061,6.7,2.123,13.462,3.128,20.165q-33.1,10.725-32.454,13.574c.559,2.346,18.21.614,52.954-5.027-2.011-10.613-3.966-21.226-5.977-31.84C953.446,967.406,947.581,968.467,941.716,969.528Z" transform="translate(-891.567 -744.807)"/>
        <path id="Path_4739" data-name="Path 4739" d="M878.173,569.979c-.391,7.6-.95,18.434-1.452,31.56-.5,13.909-.782,21.17-.726,30.108,0,3.854.168,19.551,2.179,39.772,1.676,17.037,4.3,42.509,13.63,73.846A346.019,346.019,0,0,0,910.069,793.3a75.7,75.7,0,0,0,14.356.726,74.194,74.194,0,0,0,24.355-5.362c-1.676-5.474-4.022-13.239-6.48-22.567a568.742,568.742,0,0,1-16.478-101.775,593.536,593.536,0,0,1,.726-94.625Q902.416,569.784,878.173,569.979Z" transform="translate(-875.504 -569.7)" fill="#fff"/>
        <path id="Path_4740" data-name="Path 4740" d="M954.886,577.9c-1.061,4.022-2.458,9.831-3.966,16.87-3.91,18.6-7.932,45.134-7.541,89.989a770.748,770.748,0,0,0,9.328,111.83c2.793-.279,5.642-.615,8.6-1.061a163.091,163.091,0,0,0,17.2-3.575c-2.346-7.6-5.586-18.88-8.937-32.622a581.585,581.585,0,0,1-16.143-117.974A591.082,591.082,0,0,1,954.886,577.9Z" transform="translate(-905.24 -573.32)" fill="#606060" opacity="0.09"/>
        <g id="Group_9150" data-name="Group 9150" transform="translate(47.223 0.928)">
          <g id="Group_9149" data-name="Group 9149">
            <path id="Path_4741" data-name="Path 4741" d="M962.253,572.165A537.618,537.618,0,0,0,972.475,741.53q5.279,23.628,12.624,46.642c.335,1.005,1.955.559,1.62-.447a538.25,538.25,0,0,1-25.36-167.354c.112-16.087,1.005-32.231,2.57-48.262.112-1.005-1.564-1.005-1.676.056Z" transform="translate(-959.662 -571.362)" fill="#161616"/>
          </g>
        </g>
        <g id="Group_9152" data-name="Group 9152" transform="translate(0 51.02)">
          <g id="Group_9151" data-name="Group 9151">
            <path id="Path_4742" data-name="Path 4742" d="M875.5,661.854a377.509,377.509,0,0,0,18.769,135.4,357.483,357.483,0,0,0,14.021,35.806c.447,1.005,1.9.112,1.452-.838A375.545,375.545,0,0,1,877.4,700.118a380.051,380.051,0,0,1-.223-38.263c.056-1.117-1.62-1.061-1.676,0Z" transform="translate(-875.123 -661.037)" fill="#161616"/>
          </g>
        </g>
        <g id="Group_9154" data-name="Group 9154" transform="translate(33.61 217.631)">
          <g id="Group_9153" data-name="Group 9153">
            <path id="Path_4743" data-name="Path 4743" d="M935.52,965.225c1.9,2.123,6.256,1.62,8.826,1.676a74.885,74.885,0,0,0,11.73-.894c4.189-.614,8.379-1.508,12.512-2.514,2.067-.5,6.368-.615,7.429-2.9.447-.95-1.005-1.843-1.452-.838-.5,1.173-3.3,1.4-4.357,1.62-1.564.391-3.072.726-4.636,1.117-2.961.67-5.865,1.285-8.826,1.732a73.637,73.637,0,0,1-9.217.95c-2.346.112-9.049.838-10.781-1.117-.782-.838-1.955.391-1.229,1.173Z" transform="translate(-935.292 -959.308)" fill="#161616"/>
          </g>
        </g>
      </g>
      <g id="leg_left" transform="translate(106.914 205.722)">
        <path id="Path_4744" data-name="Path 4744" d="M830.794,548.965a118.011,118.011,0,0,0-5.362,16.143c-1.955,7.541-2.458,12.066-3.575,18.657-2.067,12.177-3.463,14.244-6.48,27.594-3.184,14.3-4.636,25.3-5.753,34.074-.894,6.815-2.514,20.724-3.24,38.71-.335,7.764-.5,12.345-.335,18.657a207.345,207.345,0,0,0,5.027,41.224,201.779,201.779,0,0,0,14.691,42.285,46.735,46.735,0,0,0,11.116,3.966c5.921,1.285,13.518,2.961,20.78-.726a23.47,23.47,0,0,0,10.055-10.39,215.432,215.432,0,0,1-8.6-30.443c-6.48-31.616-4.134-56.641-2.514-72.393,3.016-29.773,9.943-52.116,21.841-90.659,4.022-12.959,7.6-23.461,10.055-30.443.838-5.53,2.793-22.12-6.089-29.047C869.392,515.9,839.061,531.146,830.794,548.965Z" transform="translate(-801.12 -522.852)" fill="#fff"/>
        <path id="Path_4745" data-name="Path 4745" d="M910.784,622.8a218.478,218.478,0,0,0-13.63,25.081c-6.144,13.294-15.194,36.643-20.053,83.174a517.184,517.184,0,0,0-.335,103.953c1.732.168,9.105.782,15.417-4.3a20.173,20.173,0,0,0,5.753-7.541A217.414,217.414,0,0,1,889,790.88c-7.932-39.883-2.961-71.946.726-94.29A330.494,330.494,0,0,1,910.784,622.8Z" transform="translate(-831.284 -566.97)" fill="#606060" opacity="0.08"/>
        <path id="Path_4746" data-name="Path 4746" d="M835.721,1000.65c1.9,6.815,3.8,13.685,5.7,20.5q-44.911,13.657-44.129,17.037.838,3.854,61.166-5.7c-1.061-10.948-2.123-21.841-3.128-32.789C848.736,999.979,842.2,1000.315,835.721,1000.65Z" transform="translate(-797.277 -733.338)"/>
        <g id="Group_9156" data-name="Group 9156" transform="translate(4.255 26.216)">
          <g id="Group_9155" data-name="Group 9155">
            <path id="Path_4747" data-name="Path 4747" d="M829.7,570.352c-5.921,14.97-8.937,30.834-12.121,46.586-3.352,16.478-6.591,32.957-8.937,49.6-4.357,30.834-5.7,62.394.279,93.117a169.8,169.8,0,0,0,16.423,47.48c.5.95,1.955.112,1.452-.838-29.885-56.809-20.835-123.281-8.658-183.553,3.519-17.484,6.647-35.3,13.239-51.949.335-1.005-1.285-1.452-1.676-.447Z" transform="translate(-804.894 -569.785)" fill="#161616"/>
          </g>
        </g>
        <g id="Group_9158" data-name="Group 9158" transform="translate(52.717 55.132)">
          <g id="Group_9157" data-name="Group 9157">
            <path id="Path_4748" data-name="Path 4748" d="M917.71,622.137C899,672.019,886.484,725.643,893.746,779.1a205.113,205.113,0,0,0,10.669,43.179c.391,1.005,2.011.559,1.62-.447-18.6-50.217-14.8-105.294-.838-156.182,4.022-14.579,8.826-28.935,14.132-43.123.391-1.005-1.229-1.4-1.62-.391Z" transform="translate(-891.653 -621.55)" fill="#161616"/>
          </g>
        </g>
        <g id="Group_9160" data-name="Group 9160" transform="translate(24.454 254.953)">
          <g id="Group_9159" data-name="Group 9159">
            <path id="Path_4749" data-name="Path 4749" d="M841.471,987.835a42.148,42.148,0,0,0,25.863,5.027c7.318-1.005,15.808-4.357,16.534-12.792.112-1.061-1.564-1.061-1.676,0-.782,8.77-11.4,11.116-18.6,11.451a39.751,39.751,0,0,1-21.227-5.139c-1.005-.5-1.843.95-.894,1.452Z" transform="translate(-841.055 -979.275)" fill="#161616"/>
          </g>
        </g>
      </g>
      <g id="torso" transform="translate(132.901 75.68)">
        <path id="Path_4750" data-name="Path 4750" d="M858.994,300.635a50.764,50.764,0,0,0-5.642,8.155c-6.871,12.066-7.318,23.908-7.429,34.3-.112,15.138-.223,22.735,1.4,39.213,1.508,15.417,1.9,37.537-3.519,65.746a58.314,58.314,0,0,0,21.227,9.887c26.7,6.256,48.821-9.328,53.01-12.345-5.307-31.114-8.211-56.027-9.887-73.51-1.061-11.06-4.971-27.147-12.736-59.378-2.346-9.831-4.748-19.216-12.01-21.9C873.35,287.005,861,298.68,858.994,300.635Z" transform="translate(-843.8 -290.049)" fill="#9e9e9e"/>
        <path id="Path_4751" data-name="Path 4751" d="M914.2,292.8c.894,3.631,2.178,9.105,3.463,15.864a366.629,366.629,0,0,1,5.474,41.5c1.62,20.221,3.463,58.149,4.022,107.193a65.543,65.543,0,0,0,13.239-5.474,68.2,68.2,0,0,0,8.379-5.474c-.391-4.3-1.117-10.837-2.29-18.713-1.508-9.887-3.016-16.758-3.742-20.165a213.159,213.159,0,0,1-4.022-40.33c-2.29-9.719-4.022-17.54-5.195-22.735-3.24-14.747-4.189-20.165-6.647-29.1-2.458-8.993-5.027-16.143-6.647-20.444C918.222,294.141,916.211,293.47,914.2,292.8Z" transform="translate(-874.875 -291.263)" fill="#606060" opacity="0.1"/>
      </g>
      <g id="backpack" transform="translate(145.791 86.379)">
        <path id="Path_4752" data-name="Path 4752" d="M870.588,314.609c.5,1.005,1.341,1.341,3.184,2.234,1.564.782,3.072,1.732,4.636,2.4,4.8,2.067,10.446,11.228,11.339,12.68,3.407,5.53,7.373,12.01,9.664,21.394.615,2.458,2.011,8.826.391,30.331-1.732,22.064-3.966,25.137-2.234,36.141,1.285,7.988,2.9,17.54,10.781,22.735,7.317,4.8,15.752,3.128,17.484,2.793,10.613-2.067,16.646-10.278,22.511-18.266a79.869,79.869,0,0,0,13.8-31.281c.67-3.3.559-12.959.391-32.231-.223-19.886-.559-26.756-5.753-32.566a24.284,24.284,0,0,0-10.781-6.7,6.493,6.493,0,0,0-.726-4.636c-1.9-2.9-6.424-2.849-9.328-2.793-12.457.335-21.729,8.714-22.176,9.105a36.692,36.692,0,0,0-10.781,19.718,54.546,54.546,0,0,0-6.144-15.641c-1.732-2.961-4.3-5.977-9.5-12.121-4.078-4.8-6.033-6.647-9.1-7.653-.67-.223-5.753-1.732-7.429.559A3.849,3.849,0,0,0,870.588,314.609Z" transform="translate(-868.34 -309.359)" fill="#fff"/>
        <path id="Path_4753" data-name="Path 4753" d="M870.185,314.777c.335-.614,4.078.782,4.469.95,5.53,2.123,10.446,6.536,16.758,16.758a118.048,118.048,0,0,1,10.781,22.344c2.458-2.514,4.525-4.58,6.145-6.144a88.409,88.409,0,0,1,15.641-11.339c.95-.559,2.123-1.229,2.961-.726,1.732.95-.112,5.586.391,9.887.391,3.24,2.29,7.709,9.5,12.68a3.861,3.861,0,0,1-.559,3.184c-1.564,1.732-5.586.335-7.653-.391-3.352-1.173-9.831-4.245-17.484-13.239a118.3,118.3,0,0,0-2.4,12.121,125.873,125.873,0,0,0,.559,37.984,131.449,131.449,0,0,0,8.211,28.879,32.253,32.253,0,0,0,22.9.95,19.345,19.345,0,0,0-6.535,5.027c-2.625,3.184-2.681,5.586-4.86,8.546a18.392,18.392,0,0,1-8.937,6.312,21.253,21.253,0,0,1-6.312-1.676c-7.653-3.407-11.116-10.613-12.68-13.965-2.067-4.525-5.251-13.685-2.234-44.687,1.732-17.707,3.631-23.237.726-33.348a68.608,68.608,0,0,0-7.429-16.367A65.478,65.478,0,0,0,877.614,321.2C873.927,318.073,869.85,315.5,870.185,314.777Z" transform="translate(-868.328 -311.594)" fill="#606060" opacity="0.11"/>
        <path id="Path_4754" data-name="Path 4754" d="M977.818,333.195a24.823,24.823,0,0,0-3.3,5.865,21.871,21.871,0,0,0-1.564,9.5c.614,8.882,6.982,14.3,8.155,15.25.782.614,1.452,1.117,1.9,1.4a46.4,46.4,0,0,0-1.732,9.887c-.447,5.921-.894,12.568,2.569,14.523,2.234,1.229,5.586.391,7.429-1.4.447-.447,1.732-1.843,2.067-8.155.391-7.485-1.173-10.613,1.061-12.792a12.426,12.426,0,0,1,3.966-2.234,21.7,21.7,0,0,1,3.966-1.229c-.614,4.58-1.061,8.658-1.4,11.954-.391,4.078-.559,6.144.838,7.429a4.811,4.811,0,0,0,5.027.67c2.123-.95,2.793-3.575,3.966-8.826.95-4.134,1.732-7.6,1.229-12.289a28.811,28.811,0,0,0-1.229-5.7,28.424,28.424,0,0,0-.838-3.966c-.95-3.24-1.843-4.189-2.4-6.256-.838-2.961.112-4.413.335-7.764a23.82,23.82,0,0,0-1.9-11.06,7.417,7.417,0,0,0-3.8,1.229,8.133,8.133,0,0,0-2.961,3.631,14.585,14.585,0,0,0-7.094.168,15.086,15.086,0,0,0-8.658,6.424c1.452-3.184.223-6.312-1.732-7.094C980.052,331.631,978.041,333.083,977.818,333.195Z" transform="translate(-913.678 -317.499)"/>
        <g id="Group_9162" data-name="Group 9162" transform="translate(68.896 29.24)">
          <g id="Group_9161" data-name="Group 9161" transform="translate(0)">
            <path id="Path_4755" data-name="Path 4755" d="M991.77,365.319c.559-1.061,3.352-3.407,4.3-1.452.447.95,1.9.112,1.452-.838a3.021,3.021,0,0,0-3.463-1.4,5.388,5.388,0,0,0-3.743,2.849c-.5.95.95,1.788,1.452.838Z" transform="translate(-990.214 -361.547)" fill="#fff"/>
          </g>
        </g>
        <g id="Group_9164" data-name="Group 9164" transform="translate(85.282 24.213)">
          <g id="Group_9163" data-name="Group 9163">
            <path id="Path_4756" data-name="Path 4756" d="M1021.086,357.045a7.283,7.283,0,0,1,1.229-2.123c.559-.559,2.234-1.173,2.29.112.056,1.061,1.732,1.061,1.676,0a2.662,2.662,0,0,0-3.128-2.458c-1.843.335-2.793,2.011-3.519,3.575-.447,1.005,1.005,1.9,1.452.894Z" transform="translate(-1019.549 -352.547)" fill="#fff"/>
          </g>
        </g>
        <g id="Group_9166" data-name="Group 9166" transform="translate(85.653 32.926)">
          <g id="Group_9165" data-name="Group 9165" transform="translate(0)">
            <path id="Path_4757" data-name="Path 4757" d="M1021.826,369.237v.168l-.279.279c-.279.168-.726,0-.67-.335,0,0,0-.168.056-.112l-.168.168h1.173l-.112-.112.056.056c-.056-.056,0-.056,0,.056.056.335-.112.559-.559.726-.168-.056-.279-.056-.447-.112-.223-.112-.168-.447-.112-.615.056-.056,0-.056-.056.056h0a.831.831,0,0,0-.279,1.173.881.881,0,0,0,1.173.279,1.779,1.779,0,0,0,.838-1.229,1.124,1.124,0,0,0-1.061-1.173,1.062,1.062,0,0,0-1.117,1.005,1.406,1.406,0,0,0,.5,1.117.862.862,0,0,0,1.173,0,1.412,1.412,0,0,0,.056-2.29,1.318,1.318,0,0,0-1.285-.056,1.3,1.3,0,0,0-.447,1.452.8.8,0,0,0,1.005.559.941.941,0,0,0,.559-1.061Z" transform="translate(-1020.213 -368.145)" fill="#fff"/>
          </g>
        </g>
        <g id="Group_9168" data-name="Group 9168" transform="translate(71.868 34.306)">
          <g id="Group_9167" data-name="Group 9167">
            <path id="Path_4758" data-name="Path 4758" d="M1001.995,372.059a3.686,3.686,0,0,1-4.86-1.061c-.614-.894-2.067-.056-1.452.838a5.521,5.521,0,0,0,7.206,1.676.854.854,0,0,0-.894-1.452Z" transform="translate(-995.534 -370.616)" fill="#fff"/>
          </g>
        </g>
        <g id="Group_9170" data-name="Group 9170" transform="translate(73.979 39.149)">
          <g id="Group_9169" data-name="Group 9169" transform="translate(0)">
            <path id="Path_4759" data-name="Path 4759" d="M1002.434,379.518a10.974,10.974,0,0,0-3.016,3.575c-.5.95.95,1.787,1.452.838a9.708,9.708,0,0,1,2.793-3.24.862.862,0,0,0,0-1.173.934.934,0,0,0-1.229,0Z" transform="translate(-999.313 -379.287)" fill="#fff"/>
          </g>
        </g>
        <g id="Group_9172" data-name="Group 9172" transform="translate(89.3 27.865)">
          <g id="Group_9171" data-name="Group 9171">
            <path id="Path_4760" data-name="Path 4760" d="M1028.115,364.456a13.073,13.073,0,0,0,2.514-4.357c.335-1.005-1.285-1.452-1.62-.447a11.153,11.153,0,0,1-2.067,3.631c-.67.838.5,2.011,1.173,1.173Z" transform="translate(-1026.742 -359.085)" fill="#fff"/>
          </g>
        </g>
        <g id="Group_9174" data-name="Group 9174" transform="translate(89.719 33.448)">
          <g id="Group_9173" data-name="Group 9173">
            <path id="Path_4761" data-name="Path 4761" d="M1028.557,370.991c1.341-.279,2.9-.614,3.966.5.726.782,1.9-.391,1.173-1.173-1.508-1.62-3.687-1.341-5.642-.894-1.005.168-.559,1.788.5,1.564Z" transform="translate(-1027.491 -369.08)" fill="#fff"/>
          </g>
        </g>
        <g id="Group_9176" data-name="Group 9176" transform="translate(0)">
          <g id="Group_9175" data-name="Group 9175">
            <path id="Path_4762" data-name="Path 4762" d="M868.453,313.166c2.569-4.022,8.658-1.62,11.73.391,3.687,2.346,6.48,5.865,8.993,9.384,5.083,7.094,9.608,14.8,11.284,23.461.223,1.061,1.843.614,1.62-.447-1.955-10.334-7.988-20.277-14.8-28.209-3.966-4.58-15.194-13.239-20.277-5.362-.559.838.894,1.732,1.452.782Z" transform="translate(-866.875 -309.201)" fill="#161616"/>
          </g>
        </g>
        <g id="Group_9178" data-name="Group 9178" transform="translate(4.623 6.186)">
          <g id="Group_9177" data-name="Group 9177">
            <path id="Path_4763" data-name="Path 4763" d="M875.57,321.853c13.406,7.541,20.947,21.673,24.746,36.085a.84.84,0,0,0,1.62-.447c-3.91-14.8-11.786-29.382-25.528-37.09a.838.838,0,0,0-.838,1.452Z" transform="translate(-875.152 -320.275)" fill="#161616"/>
          </g>
        </g>
        <g id="Group_9180" data-name="Group 9180" transform="translate(33.62 6.777)">
          <g id="Group_9179" data-name="Group 9179">
            <path id="Path_4764" data-name="Path 4764" d="M928.647,351.032a31.358,31.358,0,0,1,16.367-22.9,42.621,42.621,0,0,1,14.523-4.692c2.4-.335,5.195-.67,7.541.223,2.569.95,5.027,5.027,1.787,6.871-.95.5-.112,1.955.838,1.452,3.575-2.011,2.681-7.15-.447-9.105-4.86-3.072-12.9-.894-17.875.782-12.289,3.966-22.455,13.909-24.3,27.036-.223.95,1.4,1.4,1.564.335Z" transform="translate(-927.062 -321.334)" fill="#161616"/>
          </g>
        </g>
        <g id="Group_9182" data-name="Group 9182" transform="translate(37.546 23.607)">
          <g id="Group_9181" data-name="Group 9181" transform="translate(0)">
            <path id="Path_4765" data-name="Path 4765" d="M935.492,366.845a59.365,59.365,0,0,1,9.552-8.379,27.735,27.735,0,0,1,10.725-5.362c1.061-.223.614-1.843-.447-1.62a29.711,29.711,0,0,0-11.116,5.53,63.5,63.5,0,0,0-9.887,8.658c-.726.782.447,2.011,1.173,1.173Z" transform="translate(-934.091 -351.462)" fill="#161616"/>
          </g>
        </g>
        <g id="Group_9184" data-name="Group 9184" transform="translate(57.911 13.611)">
          <g id="Group_9183" data-name="Group 9183">
            <path id="Path_4766" data-name="Path 4766" d="M972.086,345.372a33.366,33.366,0,0,1,4.525-7.541,6.737,6.737,0,0,1,1.173-1.341c.391-.726.894-.782,1.62-.112.894,0,1.285.335,1.285,1.117.614,1.173.67,3.184.894,4.525.223,1.061,1.843.614,1.62-.447-.447-2.123-1.005-9.719-5.027-7.653-1.564.782-2.737,2.737-3.743,4.078a38.285,38.285,0,0,0-3.8,6.535c-.447.95,1.005,1.843,1.452.838Z" transform="translate(-970.549 -333.568)" fill="#161616"/>
          </g>
        </g>
        <g id="Group_9186" data-name="Group 9186" transform="translate(68.827 14.136)">
          <g id="Group_9185" data-name="Group 9185">
            <path id="Path_4767" data-name="Path 4767" d="M991.493,342.938c2.849-3.687,8.658-8.77,13.63-6.033.95.5,1.787-.95.838-1.452-5.753-3.072-12.233,1.955-15.7,6.312-.615.838.559,2.011,1.229,1.173Z" transform="translate(-990.091 -334.507)" fill="#161616"/>
          </g>
        </g>
        <g id="Group_9188" data-name="Group 9188" transform="translate(83.933 9.72)">
          <g id="Group_9187" data-name="Group 9187">
            <path id="Path_4768" data-name="Path 4768" d="M1018.679,333.136c.782-1.229,4.413-5.642,5.977-4.469.838.614,1.005,2.793,1.229,3.8a26.856,26.856,0,0,1,.5,4.748c.056,1.061,1.732,1.061,1.676,0a29.256,29.256,0,0,0-.894-6.591c-.335-1.229-.615-3.575-2.067-3.966-1.341-.335-3.184.95-4.19,1.676a12.966,12.966,0,0,0-3.631,3.966c-.615.894.838,1.732,1.4.838Z" transform="translate(-1017.134 -326.602)" fill="#161616"/>
          </g>
        </g>
        <g id="Group_9190" data-name="Group 9190" transform="translate(40.867 34.85)">
          <g id="Group_9189" data-name="Group 9189">
            <path id="Path_4769" data-name="Path 4769" d="M940.3,372.993a108.409,108.409,0,0,0,12.289,10.334c4.3,3.072,8.491,5.251,13.909,4.971,1.061-.056,1.061-1.732,0-1.676-5.53.279-9.608-2.178-13.909-5.307a106.685,106.685,0,0,1-11.172-9.5c-.726-.726-1.9.447-1.117,1.173Z" transform="translate(-940.037 -371.591)" fill="#161616"/>
          </g>
        </g>
        <g id="Group_9192" data-name="Group 9192" transform="translate(27.826 40.964)">
          <g id="Group_9191" data-name="Group 9191">
            <path id="Path_4770" data-name="Path 4770" d="M918.707,383.577c6.089,27.036-9.775,56.585,3.352,82.448,2.458,4.86,6.2,9.273,11.339,11.451a23.259,23.259,0,0,0,16.031.279c11.507-3.687,18.936-14.356,24.634-24.41A79.912,79.912,0,0,0,982.5,433.18a54.61,54.61,0,0,0,1.62-10.837c.168-4.189-.391-8.379-.223-12.568.056-1.061-1.62-1.061-1.676,0-.223,6.815.67,13.294-.67,20.053A68.324,68.324,0,0,1,975.46,447.2c-5.083,10.278-11.954,21.841-22.511,27.259-5.474,2.793-12.233,3.854-18.1,1.676-5.753-2.123-9.552-7.206-12.01-12.624-5.251-11.786-4.636-25.192-3.24-37.7,1.564-14.188,4.022-28.544.838-42.732-.391-.95-2.011-.559-1.732.5Z" transform="translate(-916.691 -382.535)" fill="#161616"/>
          </g>
        </g>
        <g id="Group_9194" data-name="Group 9194" transform="translate(48.599 97.538)">
          <g id="Group_9193" data-name="Group 9193">
            <path id="Path_4771" data-name="Path 4771" d="M959.979,484.2a49.541,49.541,0,0,0-6.089,17.651c-.168,1.061,1.452,1.508,1.62.447a48.391,48.391,0,0,1,5.921-17.26c.559-.894-.894-1.732-1.452-.838Z" transform="translate(-953.878 -483.816)" fill="#161616"/>
          </g>
        </g>
        <g id="Group_9196" data-name="Group 9196" transform="translate(54.965 95.172)">
          <g id="Group_9195" data-name="Group 9195">
            <path id="Path_4772" data-name="Path 4772" d="M966.071,482.943c8.267-.726,16.981-2.29,25.248-1.4,1.061.112,1.061-1.564,0-1.676-8.267-.95-16.981.67-25.248,1.4-1.061.112-1.061,1.787,0,1.676Z" transform="translate(-965.275 -479.58)" fill="#161616"/>
          </g>
        </g>
        <g id="Group_9198" data-name="Group 9198" transform="translate(49.067 114.329)">
          <g id="Group_9197" data-name="Group 9197">
            <path id="Path_4773" data-name="Path 4773" d="M955.1,516.626c4.078,2.4,8.826,2.179,13.406,2.067,4.8-.168,9.608-.726,13.8-3.24.95-.559.056-2.011-.838-1.452-3.966,2.4-8.435,2.849-12.959,3.016-4.245.168-8.714.447-12.568-1.788-.894-.559-1.732.894-.838,1.4Z" transform="translate(-954.716 -513.875)" fill="#161616"/>
          </g>
        </g>
        <g id="Group_9200" data-name="Group 9200" transform="translate(75.307 96.14)">
          <g id="Group_9199" data-name="Group 9199" transform="translate(0)">
            <path id="Path_4774" data-name="Path 4774" d="M1006.612,481.92a98.313,98.313,0,0,1-4.86,17.875c-.391,1.006,1.229,1.452,1.62.447a91.07,91.07,0,0,0,4.86-17.875c.168-1.061-1.452-1.508-1.62-.447Z" transform="translate(-1001.692 -481.314)" fill="#161616"/>
          </g>
        </g>
        <g id="Group_9202" data-name="Group 9202" transform="translate(54.169 99.526)">
          <g id="Group_9201" data-name="Group 9201">
            <path id="Path_4775" data-name="Path 4775" d="M963.933,488.674c2.737,6.033,10.5,7.541,16.478,7.6a.839.839,0,0,0,0-1.676c-5.362-.112-12.568-1.341-15.026-6.815-.447-.95-1.9-.056-1.452.894Z" transform="translate(-963.849 -487.375)" fill="#161616"/>
          </g>
        </g>
        <g id="Group_9204" data-name="Group 9204" transform="translate(65.81 105.447)">
          <g id="Group_9203" data-name="Group 9203" transform="translate(0)">
            <path id="Path_4776" data-name="Path 4776" d="M985.2,498.771c-.168,1.4-.335,2.793-.5,4.134-.112,1.061,1.564,1.061,1.676,0,.168-1.4.335-2.793.5-4.134.112-1.061-1.564-1.061-1.676,0Z" transform="translate(-984.69 -497.975)" fill="#161616"/>
          </g>
        </g>
        <g id="Group_9206" data-name="Group 9206" transform="translate(69.05 105.447)">
          <g id="Group_9205" data-name="Group 9205" transform="translate(0)">
            <path id="Path_4777" data-name="Path 4777" d="M990.943,498.771c-.168,1.4-.335,2.793-.447,4.189-.112,1.061,1.564,1.061,1.676,0,.168-1.4.335-2.793.447-4.189.112-1.061-1.564-1.061-1.676,0Z" transform="translate(-990.49 -497.975)" fill="#161616"/>
          </g>
        </g>
        <g id="Group_9208" data-name="Group 9208" transform="translate(69.901 100.519)">
          <g id="Group_9207" data-name="Group 9207">
            <path id="Path_4778" data-name="Path 4778" d="M993.067,497.223a14.522,14.522,0,0,0,9.328-6.815.838.838,0,0,0-1.452-.838,13.083,13.083,0,0,1-8.323,6.033.84.84,0,0,0,.447,1.62Z" transform="translate(-992.014 -489.152)" fill="#161616"/>
          </g>
        </g>
        <g id="Group_9210" data-name="Group 9210" transform="translate(58.176 21.792)">
          <g id="Group_9209" data-name="Group 9209">
            <path id="Path_4779" data-name="Path 4779" d="M971.568,348.82c-1.676,9.887.168,21.673,10.278,26.2.95.447,1.843-1.005.838-1.452-9.44-4.245-11.06-15.138-9.5-24.3.168-1.061-1.452-1.508-1.62-.447Z" transform="translate(-971.022 -348.214)" fill="#161616"/>
          </g>
        </g>
        <g id="Group_9212" data-name="Group 9212" transform="translate(93.074 18.873)">
          <g id="Group_9211" data-name="Group 9211">
            <path id="Path_4780" data-name="Path 4780" d="M1033.5,343.832a90.344,90.344,0,0,0,.5,9.552c.447,3.407,3.519,7.206,1.9,10.613-.447.95,1.005,1.843,1.452.838,1.452-3.072.168-5.642-.894-8.658-1.4-3.854-1.061-8.323-1.229-12.4-.112-1.061-1.788-1.061-1.732.056Z" transform="translate(-1033.498 -342.987)" fill="#161616"/>
          </g>
        </g>
        <g id="Group_9214" data-name="Group 9214" transform="translate(73.264 46.498)">
          <g id="Group_9213" data-name="Group 9213">
            <path id="Path_4781" data-name="Path 4781" d="M998.35,393.368a3.951,3.951,0,0,1,5.809,2.737c.056.279.447.168.391-.112a4.4,4.4,0,0,0-6.424-3.016c-.223.168,0,.559.223.391Z" transform="translate(-998.034 -392.442)" fill="#fff"/>
          </g>
        </g>
        <g id="Group_9216" data-name="Group 9216" transform="translate(77.751 49.919)">
          <g id="Group_9215" data-name="Group 9215" transform="translate(0)">
            <path id="Path_4782" data-name="Path 4782" d="M1006.141,398.921a4.023,4.023,0,0,1,.838,1.508c.112.279.5.168.391-.112a6.19,6.19,0,0,0-.95-1.676c-.168-.223-.5.112-.279.279Z" transform="translate(-1006.067 -398.567)" fill="#fff"/>
          </g>
        </g>
        <g id="Group_9218" data-name="Group 9218" transform="translate(88.657 40.735)">
          <g id="Group_9217" data-name="Group 9217">
            <path id="Path_4783" data-name="Path 4783" d="M1025.987,387.753a7.628,7.628,0,0,1,4.078-5.251.2.2,0,1,0-.223-.335,7.715,7.715,0,0,0-4.245,5.474c-.056.279.335.391.391.112Z" transform="translate(-1025.59 -382.126)" fill="#fff"/>
          </g>
        </g>
      </g>
      <g id="head" transform="translate(114.312)">
        <path id="Path_4784" data-name="Path 4784" d="M833.471,178.675c-3.854,1.955-7.094,5.642-8.546,7.262-3.575,4.078-5.418,7.876-7.429,12.121a77.708,77.708,0,0,0-5.2,14.523c2.179.391,4.357.726,6.536,1.117a32.245,32.245,0,0,0,.726,8.937c.782,3.352,2.067,8.714,6.536,12.457,6.144,5.251,14.3,3.966,15.808,3.743a23.135,23.135,0,0,0,2.793,10.222c.559.95,1.117,1.843,1.676,2.625a35.343,35.343,0,0,0,12.457-6.536c11.842-9.552,13.462-23.8,13.965-27.93.726-6.368,2.123-18.378-5.753-28.32C858.831,178.619,843.246,173.76,833.471,178.675Z" transform="translate(-811.306 -164.355)" fill="#fff"/>
        <path id="Path_4785" data-name="Path 4785" d="M824.359,182.495a34.1,34.1,0,0,1,7.988-8.211c5.474-3.854,7.932-2.234,10.725-5.642,2.011-2.458,3.3-6.48,1.787-8.379-2.4-3.016-10.948.614-12.065,1.117-2.458,1.061-10.557,4.469-13.8,13.071-2.681,7.206-.894,15.082.335,15.25.335.056.559-.5,2.346-3.24C822.516,185.064,823.465,183.78,824.359,182.495Z" transform="translate(-813.645 -156.556)" fill="#37373a"/>
        <path id="Path_4786" data-name="Path 4786" d="M851.141,163.689c-.447,1.452-1.117,4.357,1.117,10.055,3.966,10.222,13.239,19.383,17.875,17.707,1.005-.391,2.067-1.4,4.078-1.508a6.4,6.4,0,0,1,4.078,1.117c2.458,1.955,2.569,6.2.95,8.937-.279.5-1.787,2.793-4.078,2.961-2.011.168-2.681-1.4-4.3-1.508-3.966-.223-7.373,8.491-7.82,9.664a26.379,26.379,0,0,0-1.508,15.473,23.19,23.19,0,0,0,3.519,8.546c5.195,7.541,13.909,9.384,17.149,10.055,3.184.67,15.305,3.184,24.746-4.636a21.821,21.821,0,0,0,7.82-12.68c2.29-12.177-7.932-21.282-8.546-21.785a75.394,75.394,0,0,0-7.262-27.371c-3.352-6.982-6.48-13.406-13.574-18.266-9.328-6.312-22.9-8.1-30-2.625A13.7,13.7,0,0,0,851.141,163.689Z" transform="translate(-828.251 -154.564)" fill="#37373a"/>
        <path id="Path_4787" data-name="Path 4787" d="M829.489,278.2a12.572,12.572,0,0,0-3.742,7.429c-.615,5.586,3.128,9.44,3.91,10.222,4.078,4.189,10.893,5.865,15.808,3.352.391-.168,4.692-2.458,4.86-5.753.056-1.452-.726-2.178-1.843-5.418-.726-2.123-1.173-3.854-1.508-5.027a15.772,15.772,0,0,1-7.262.726A16.893,16.893,0,0,1,829.489,278.2Z" transform="translate(-817.212 -209.138)" fill="#37373a"/>
        <path id="Path_4788" data-name="Path 4788" d="M852.5,179.7a19.187,19.187,0,0,0,1.452,7.038,19.912,19.912,0,0,0,2.179,3.854c2.346,3.575,3.128,6.927,4.357,10.669,1.955,5.809,1.62,10.669,1.229,16.7a69.225,69.225,0,0,1-5.083,21.562,22.914,22.914,0,0,1,6.033,2.9c4.3,2.9,6.256,6.368,7.485,7.988,2.514,3.3,8.1,6.759,21.562,6.536-1.341-1.341-3.24-3.352-5.307-5.809-4.86-5.7-9.1-10.669-11.619-16.7-1.452-3.463-3.687-10.557-1.955-20.835a4.872,4.872,0,0,0,4.86-.223,4.607,4.607,0,0,0,1.955-4.86,4.764,4.764,0,0,0-5.809-2.9,30.132,30.132,0,0,0-2.9-5.586,32.012,32.012,0,0,0-5.586-6.312C862.5,191.263,858.365,187.073,852.5,179.7Z" transform="translate(-829.051 -165.659)" fill="#606060" opacity="0.12"/>
        <path id="Path_4789" data-name="Path 4789" d="M813.4,237.933c.056-.894,2.9-1.62,5.307-1.452,2.123.168,4.636,1.117,4.58,1.955-.056.782-2.4,1.4-4.134,1.452C816.472,240,813.4,238.827,813.4,237.933Z" transform="translate(-811.792 -190.712)" fill="#606060" opacity="0.14"/>
        <g id="Group_9220" data-name="Group 9220" transform="translate(0 25.997)">
          <g id="Group_9219" data-name="Group 9219">
            <path id="Path_4790" data-name="Path 4790" d="M819.056,201.549a226.129,226.129,0,0,0-8.491,21.338.8.8,0,0,0,.559,1.005,17.051,17.051,0,0,0,6.647,1.173.839.839,0,0,0,0-1.676,17.914,17.914,0,0,1-6.2-1.117c.168.335.391.67.559,1.005a199.3,199.3,0,0,1,8.323-20.947c.5-.894-.95-1.787-1.4-.782Z" transform="translate(-810.521 -201.105)" fill="#161616"/>
          </g>
        </g>
        <g id="Group_9222" data-name="Group 9222" transform="translate(7.025 49.497)">
          <g id="Group_9221" data-name="Group 9221">
            <path id="Path_4791" data-name="Path 4791" d="M823.1,243.971c.447,7.206,1.117,15.194,6.48,20.612,5.139,5.251,12.568,4.8,19.327,4.022,1.061-.112,1.061-1.787,0-1.676-6.256.726-13.35,1.341-18.154-3.519-5.027-5.083-5.53-12.68-5.977-19.439-.056-1.061-1.732-1.061-1.676,0Z" transform="translate(-823.098 -243.175)" fill="#161616"/>
          </g>
        </g>
        <g id="Group_9224" data-name="Group 9224" transform="translate(29.526 74.041)">
          <g id="Group_9223" data-name="Group 9223" transform="translate(0)">
            <path id="Path_4792" data-name="Path 4792" d="M863.39,288.167a37.234,37.234,0,0,0,3.966,11.116c.5.95,1.955.112,1.452-.838a36.678,36.678,0,0,1-3.8-10.725c-.167-1.061-1.787-.614-1.62.447Z" transform="translate(-863.378 -287.114)" fill="#161616"/>
          </g>
        </g>
        <g id="Group_9226" data-name="Group 9226" transform="translate(7.887 55.576)">
          <g id="Group_9225" data-name="Group 9225" transform="translate(0)">
            <path id="Path_4793" data-name="Path 4793" d="M824.9,257.321a4.784,4.784,0,0,0,7.876-2.234c.335-1.061-1.285-1.452-1.62-.447a3.033,3.033,0,0,1-5.027,1.452c-.838-.67-2.011.5-1.229,1.229Z" transform="translate(-824.64 -254.057)" fill="#161616"/>
          </g>
        </g>
        <g id="Group_9228" data-name="Group 9228" transform="translate(12.716 54.897)">
          <g id="Group_9227" data-name="Group 9227" transform="translate(0)">
            <path id="Path_4794" data-name="Path 4794" d="M833.852,254.494a3.964,3.964,0,0,1,2.123,1.4.829.829,0,1,0,1.173-1.173,5.406,5.406,0,0,0-2.849-1.843.842.842,0,0,0-.447,1.62Z" transform="translate(-833.285 -252.842)" fill="#161616"/>
          </g>
        </g>
        <g id="Group_9230" data-name="Group 9230" transform="translate(14.211 32.269)">
          <g id="Group_9229" data-name="Group 9229" transform="translate(0)">
            <path id="Path_4795" data-name="Path 4795" d="M837.547,215.722c.447-2.346,3.352-1.9,4.916-1.061a6.335,6.335,0,0,1,2.849,3.3c.391,1.005,2.011.559,1.62-.447a7.767,7.767,0,0,0-5.307-4.971c-2.346-.614-5.139.112-5.642,2.737-.223,1.061,1.4,1.508,1.564.447Z" transform="translate(-835.962 -212.333)" fill="#161616"/>
          </g>
        </g>
        <g id="Group_9232" data-name="Group 9232" transform="translate(14.163 22.104)">
          <g id="Group_9231" data-name="Group 9231" transform="translate(0)">
            <path id="Path_4796" data-name="Path 4796" d="M837.453,197.8c2.514-4.189,7.429-.95,8.435,2.57a.84.84,0,0,0,1.62-.447,7.677,7.677,0,0,0-5.251-5.642A5.792,5.792,0,0,0,836,196.909a.853.853,0,0,0,1.452.894Z" transform="translate(-835.875 -194.136)" fill="#161616"/>
          </g>
        </g>
        <g id="Group_9234" data-name="Group 9234" transform="translate(16.599 43.478)">
          <g id="Group_9233" data-name="Group 9233" transform="translate(0)">
            <path id="Path_4797" data-name="Path 4797" d="M841.054,234.076a.839.839,0,0,0,0-1.676.839.839,0,0,0,0,1.676Z" transform="translate(-840.237 -232.4)" fill="#161616"/>
          </g>
        </g>
        <g id="Group_9236" data-name="Group 9236" transform="translate(19.763 40.965)">
          <g id="Group_9235" data-name="Group 9235" transform="translate(0)">
            <path id="Path_4798" data-name="Path 4798" d="M846.738,229.576h.223a.838.838,0,1,0,0-1.676h-.223a.859.859,0,0,0-.838.838.823.823,0,0,0,.838.838Z" transform="translate(-845.9 -227.9)" fill="#161616"/>
          </g>
        </g>
        <g id="Group_9238" data-name="Group 9238" transform="translate(20.656 44.693)">
          <g id="Group_9237" data-name="Group 9237" transform="translate(0)">
            <path id="Path_4799" data-name="Path 4799" d="M847.5,235.371v.168a.839.839,0,0,0,1.676,0v-.168a.839.839,0,0,0-1.676,0v.168a.839.839,0,0,0,1.676,0v-.168a.839.839,0,0,0-1.676,0Z" transform="translate(-847.5 -234.575)" fill="#161616"/>
          </g>
        </g>
        <g id="Group_9240" data-name="Group 9240" transform="translate(42.339 34.18)">
          <g id="Group_9239" data-name="Group 9239" transform="translate(0)">
            <path id="Path_4800" data-name="Path 4800" d="M888.988,218.517c1.508-2.178,4.078-.782,4.971,1.005a9.191,9.191,0,0,1,.67,4.58c-.223,3.8-3.407,6.48-7.094,4.134-.894-.614-1.732.838-.838,1.452a6.035,6.035,0,0,0,7.15-.056c2.234-1.732,2.625-4.58,2.458-7.262-.168-2.57-1.173-5.418-3.854-6.368a4.169,4.169,0,0,0-4.916,1.676c-.559.838.894,1.676,1.452.838Z" transform="translate(-886.316 -215.755)" fill="#161616"/>
          </g>
        </g>
      </g>
      <g id="binocular" transform="translate(0 1.502)">
        <path id="Path_4801" data-name="Path 4801" d="M615.5,161.084c-1.173,0-2.346.056-3.463.056a44.128,44.128,0,0,0-3.575,9.5,45.2,45.2,0,0,0-1.005,16.087,36.841,36.841,0,0,0,.838,4.692h3.016l1.173,4.022c9.44-.056,17.2-.056,22.623,0,32.845.279,55.747,1.564,61.054,1.843,6.647.391,12.066.782,15.417,1.005.112-2.067.67-2.793,1.173-3.016.894-.391,1.676.559,2.849.335,1.229-.223,2.011-1.508,2.514-2.681a8.5,8.5,0,0,0,5.027.838,7.826,7.826,0,0,0,1.341-.335l2.849-5.7a17.722,17.722,0,0,0-5.53-.838,18.847,18.847,0,0,0-3.352.335c-.112-.279-1.005-2.793-3.352-3.352a4.075,4.075,0,0,0-1.843,0l-1.005-1.843c-1.341-.223-3.407-.559-5.865-1.005-19.942-3.631-33.851-8.044-44.464-11.228-10.166-3.072-24.969-7.262-43.961-11.9C617.176,158.961,616.338,160.023,615.5,161.084Z" transform="translate(-606.439 -157.538)" fill="#fff"/>
        <path id="Path_4802" data-name="Path 4802" d="M607.607,189.82c.5-.112,1.061,1.173,1.676,1.005,1.005-.223.782-3.743,1.005-6.368A25.018,25.018,0,0,1,613.64,173.9c1.62.67,4.078,1.732,7.038,3.016,10.669,4.636,18.043,8.211,20.277,9.217C655.7,193,671.9,196.076,675.978,196.858a161.642,161.642,0,0,0,37.537,2.681l-2.011,5.53c-2.569-.056-6.312-.056-10.893-.168-19.662-.391-33.4-1.005-41.28-1.341-11.116-.447-27.036-.894-47.145-.838l-.67-4.525-3.854.67C606.825,191.887,607.048,189.932,607.607,189.82Z" transform="translate(-606.421 -164.601)" fill="#606060" opacity="0.07"/>
        <g id="Group_9242" data-name="Group 9242" transform="translate(3.122)">
          <g id="Group_9241" data-name="Group 9241" transform="translate(0)">
            <path id="Path_4803" data-name="Path 4803" d="M618.579,157.67a44.581,44.581,0,0,0-5.362,36.532.84.84,0,0,0,1.62-.447,42.885,42.885,0,0,1,5.195-35.247c.614-.95-.838-1.787-1.452-.838Z" transform="translate(-611.466 -157.252)" fill="#161616"/>
          </g>
        </g>
        <g id="Group_9244" data-name="Group 9244" transform="translate(11.12 0.385)">
          <g id="Group_9243" data-name="Group 9243">
            <path id="Path_4804" data-name="Path 4804" d="M626.352,159.594q47.173,11.9,94.29,23.74a.84.84,0,0,0,.447-1.62q-47.173-11.9-94.29-23.74a.842.842,0,0,0-.447,1.62Z" transform="translate(-625.786 -157.942)" fill="#161616"/>
          </g>
        </g>
        <g id="Group_9246" data-name="Group 9246" transform="translate(5.249 37.062)">
          <g id="Group_9245" data-name="Group 9245">
            <path id="Path_4805" data-name="Path 4805" d="M616.071,225.332q49.184-.419,98.312,2.29c1.061.056,1.061-1.62,0-1.676q-49.1-2.681-98.312-2.29a.839.839,0,0,0,0,1.676Z" transform="translate(-615.275 -223.601)" fill="#161616"/>
          </g>
        </g>
        <g id="Group_9248" data-name="Group 9248" transform="translate(103.985 23.908)">
          <g id="Group_9247" data-name="Group 9247" transform="translate(0)">
            <path id="Path_4806" data-name="Path 4806" d="M793.523,201.308a15.454,15.454,0,0,1-1.341,15.138c-.614.894.838,1.732,1.452.838a17.073,17.073,0,0,0,1.341-16.814c-.447-.95-1.9-.112-1.452.838Z" transform="translate(-792.034 -200.052)" fill="#161616"/>
          </g>
        </g>
        <g id="Group_9250" data-name="Group 9250" transform="translate(106.36 25.708)">
          <g id="Group_9249" data-name="Group 9249">
            <path id="Path_4807" data-name="Path 4807" d="M797.076,204.909c.615.447,1.061.279,1.788.447,1.4.391,1.955,1.676,2.234,3.016.447,2.458-.168,7.653-3.8,6.2-1.005-.391-1.452,1.229-.447,1.62,3.687,1.452,6.089-2.4,6.089-5.642a9.681,9.681,0,0,0-1.229-5.307,3.7,3.7,0,0,0-1.341-1.285c-.726-.335-1.732-.112-2.346-.559a.893.893,0,0,0-.95,1.508Z" transform="translate(-796.286 -203.275)" fill="#161616"/>
          </g>
        </g>
        <g id="Group_9252" data-name="Group 9252" transform="translate(111.27 28.661)">
          <g id="Group_9251" data-name="Group 9251">
            <path id="Path_4808" data-name="Path 4808" d="M805.871,210.315a43.053,43.053,0,0,1,8.491.279c1.061.112,1.061-1.564,0-1.676a47.973,47.973,0,0,0-8.491-.279c-1.061.112-1.061,1.787,0,1.676Z" transform="translate(-805.075 -208.562)" fill="#161616"/>
          </g>
        </g>
        <g id="Group_9254" data-name="Group 9254" transform="translate(111.236 34.926)">
          <g id="Group_9253" data-name="Group 9253">
            <path id="Path_4809" data-name="Path 4809" d="M805.62,221.41a25.815,25.815,0,0,0,6.871.335c1.061-.112,1.061-1.787,0-1.676a24.693,24.693,0,0,1-6.424-.279c-1.061-.168-1.508,1.4-.447,1.62Z" transform="translate(-805.014 -219.778)" fill="#161616"/>
          </g>
        </g>
        <g id="Group_9256" data-name="Group 9256" transform="translate(0 2.489)">
          <g id="Group_9255" data-name="Group 9255">
            <path id="Path_4810" data-name="Path 4810" d="M615.163,162.318c-5.418-3.128-6.926,6.647-7.653,9.719-1.676,7.094-2.458,14.412-.391,21.506a.9.9,0,0,0,.782.614h2.234a.839.839,0,0,0,0-1.676H607.9a9.536,9.536,0,0,1,.782.614,35.794,35.794,0,0,1-.614-15.585c.391-2.346.894-4.692,1.508-6.982.391-1.508,1.62-8.6,4.692-6.759a.853.853,0,0,0,.894-1.452Z" transform="translate(-605.877 -161.709)" fill="#161616"/>
          </g>
        </g>
      </g>
      <g id="hand" transform="translate(56.62 14.864)">
        <path id="Path_4811" data-name="Path 4811" d="M720.753,183.455a3.509,3.509,0,0,0-2.9-1.061c-1.843.112-3.631,1.787-5.586,5.865a41.134,41.134,0,0,0-3.966,16.758,68.53,68.53,0,0,0,4.245,24.466,120.87,120.87,0,0,0,2.681,17.54c2.849,12.736,5.865,26.142,16.255,38.04,3.91,4.525,11.619,13.294,25.025,16.478a44.064,44.064,0,0,0,28.209-2.9,42.926,42.926,0,0,0,15.138-11.954c3.519-4.413,7.6-9.217,6.927-15.138-.279-2.57-1.4-4.748-3.072-8.211s-2.569-5.195-4.357-5.865c-2.458-.95-5.083.726-7.988,2.4-4.916,2.793-5.363,5.474-10.669,8.267a34.107,34.107,0,0,1-5.586,2.123c-4.413,1.452-8.77,2.9-12.792,3.184-8.77.614-15.808-4.413-17.819-5.865-7.429-5.307-10.334-12.4-12.233-17.037a50.448,50.448,0,0,1-3.184-25.528,11,11,0,0,0,5.027-2.123c2.961-2.29,3.687-5.474,4.8-10.39.726-3.072,1.061-4.692.279-5.307-1.62-1.229-6.591,2.793-7.709,3.743a48.351,48.351,0,0,1,1.341-9.049c.726-2.9,1.117-4.413,2.123-5.586,1.955-2.29,4.245-2.067,5.027-4.245a3.64,3.64,0,0,0-.559-3.743c-1.117-1.117-3.519-1.061-5.586.559a4.013,4.013,0,0,0-3.463-2.4,3.892,3.892,0,0,0-2.681,1.061,3.4,3.4,0,0,0-1.62-3.463c-1.508-.782-3.91.112-4.8,2.4A3.626,3.626,0,0,0,720.753,183.455Z" transform="translate(-707.705 -181.71)" fill="#fff"/>
        <path id="Path_4812" data-name="Path 4812" d="M717.773,182.4a40.121,40.121,0,0,0-4.134,10.334c-2.458,9.831-.447,18.042.447,22.008,9.608,40.945,5.418,41.95,12.121,51.558,2.458,3.463,19.327,26.7,44.464,23.628,21.059-2.569,32.231-21.729,33.683-24.3a21.336,21.336,0,0,1,1.173,10.557,22.6,22.6,0,0,1-6.647,12.4,49.87,49.87,0,0,1-6.871,5.251,87.041,87.041,0,0,1-7.82,5.027c-6.647,3.743-16.925,4.636-24.075,3.687-19.439-2.57-31.113-21-35.973-28.656-11.116-17.484-12.233-35.191-12.121-44.017-1.061-3.575-2.123-7.206-3.184-10.781a80.831,80.831,0,0,1-.67-13.294c.279-7.988.5-13.965,4.58-19.048A18.92,18.92,0,0,1,717.773,182.4Z" transform="translate(-707.629 -181.716)" fill="#606060" opacity="0.12"/>
        <g id="Group_9258" data-name="Group 9258" transform="translate(20.483 46.419)">
          <g id="Group_9257" data-name="Group 9257">
            <path id="Path_4813" data-name="Path 4813" d="M809.2,329.141c8.826-4.189,14.747-12.959,13.294-22.9-.838-6.033-5.7-16.423-13.462-12.736-3.463,1.676-6.312,4.748-9.5,6.927a56.522,56.522,0,0,1-14.579,6.982c-6.48,2.067-13.685,2.514-19.942-.614a28.327,28.327,0,0,1-10.893-10.278,51.858,51.858,0,0,1-8.435-31.449c.056-1.061-1.62-1.061-1.676,0a52.017,52.017,0,0,0,5.586,26.7c3.631,7.485,8.937,14.523,16.981,17.54,9.775,3.631,20.444-.056,29.27-4.692a81.471,81.471,0,0,0,10.948-7.6c3.24-2.514,6.48-3.743,9.775-.391,4.078,4.134,5.307,11.339,4.078,16.814-1.508,6.536-6.368,11.451-12.289,14.244-.95.447-.112,1.9.838,1.452Z" transform="translate(-743.909 -264.275)" fill="#161616"/>
          </g>
        </g>
        <g id="Group_9260" data-name="Group 9260" transform="translate(20.195 24.199)">
          <g id="Group_9259" data-name="Group 9259">
            <path id="Path_4814" data-name="Path 4814" d="M745.353,248.238c-.726-3.072,1.452-3.854,3.463-5.307a13.166,13.166,0,0,0,2.9-3.184,23.6,23.6,0,0,0,4.245-10.39c.223-1.843.614-4.748-1.9-4.86-2.961-.112-4.189,3.631-6.982,3.91-1.061.112-1.061,1.787,0,1.676,2.123-.223,3.184-1.564,4.8-2.793.95-.726,2.011-1.564,2.514.056a8.2,8.2,0,0,1-.391,3.463,21.807,21.807,0,0,1-2.123,5.474,18.717,18.717,0,0,1-3.072,4.469c-1.173,1.229-2.793,1.508-4.078,2.514-1.732,1.341-1.452,3.631-1.005,5.474.279,1.005,1.9.559,1.62-.5Z" transform="translate(-743.395 -224.496)" fill="#161616"/>
          </g>
        </g>
        <g id="Group_9262" data-name="Group 9262" transform="translate(0)">
          <g id="Group_9261" data-name="Group 9261" transform="translate(0)">
            <path id="Path_4815" data-name="Path 4815" d="M709.9,220.29a71.225,71.225,0,0,1-.112-21.785,46.359,46.359,0,0,1,2.011-8.658,16.136,16.136,0,0,1,2.681-5.139c1.676-1.843,4.972-2.793,5.865.335a.84.84,0,0,0,1.62-.447,4.427,4.427,0,0,0-6.033-3.072c-3.407,1.4-5.027,5.586-6.089,8.77-3.128,9.664-3.128,20.5-1.62,30.443.223,1.061,1.843.614,1.676-.447Z" transform="translate(-707.24 -181.175)" fill="#161616"/>
          </g>
        </g>
        <g id="Group_9264" data-name="Group 9264" transform="translate(9.078 1.851)">
          <g id="Group_9263" data-name="Group 9263" transform="translate(0)">
            <path id="Path_4816" data-name="Path 4816" d="M725.172,192.929c1.341-3.3,5.139-9.943,9.273-5.418.726.782,1.9-.391,1.173-1.173a5.471,5.471,0,0,0-7.038-1.005c-2.681,1.508-3.91,4.469-5.027,7.206-.391.95,1.229,1.4,1.62.391Z" transform="translate(-723.492 -184.488)" fill="#161616"/>
          </g>
        </g>
        <g id="Group_9266" data-name="Group 9266" transform="translate(16.119 4.108)">
          <g id="Group_9265" data-name="Group 9265" transform="translate(0)">
            <path id="Path_4817" data-name="Path 4817" d="M737.775,196.11c.056-2.123.894-4.469,2.961-5.474a4.025,4.025,0,0,1,4.971,1.061c.67.838,1.843-.335,1.173-1.173a5.736,5.736,0,0,0-6.815-1.452c-2.681,1.285-3.91,4.189-3.966,7.038-.056,1.061,1.62,1.061,1.676,0Z" transform="translate(-736.097 -188.529)" fill="#161616"/>
          </g>
        </g>
        <g id="Group_9268" data-name="Group 9268" transform="translate(21.004 5.353)">
          <g id="Group_9267" data-name="Group 9267" transform="translate(0)">
            <path id="Path_4818" data-name="Path 4818" d="M746.494,197.652c1.005-3.743,5.195-7.15,8.826-4.134.838.67,2.011-.5,1.173-1.173-4.636-3.8-10.222-.223-11.619,4.86a.84.84,0,0,0,1.62.447Z" transform="translate(-744.842 -190.758)" fill="#161616"/>
          </g>
        </g>
        <g id="Group_9270" data-name="Group 9270" transform="translate(22.93 6.575)">
          <g id="Group_9269" data-name="Group 9269" transform="translate(0)">
            <path id="Path_4819" data-name="Path 4819" d="M756.507,194.2c1.788,2.514-2.179,4.078-3.575,5.251a7.717,7.717,0,0,0-2.346,3.575A49.523,49.523,0,0,0,748.3,215.1c-.112,1.061,1.564,1.061,1.676,0a59.348,59.348,0,0,1,1.452-8.826,27.042,27.042,0,0,1,.782-2.849c.726-1.955,1.788-2.681,3.407-3.854,2.011-1.452,4.134-3.8,2.346-6.312-.614-.782-2.067.056-1.452.95Z" transform="translate(-748.29 -192.945)" fill="#161616"/>
          </g>
        </g>
        <g id="Group_9272" data-name="Group 9272" transform="translate(0.571 36.386)">
          <g id="Group_9271" data-name="Group 9271">
            <path id="Path_4820" data-name="Path 4820" d="M708.283,247.367a89.449,89.449,0,0,0,3.407,11.228c.391,1.005,2.011.559,1.62-.447A89.459,89.459,0,0,1,709.9,246.92c-.223-1.061-1.843-.614-1.62.447Z" transform="translate(-708.262 -246.314)" fill="#161616"/>
          </g>
        </g>
        <g id="Group_9274" data-name="Group 9274" transform="translate(3.715 48.939)">
          <g id="Group_9273" data-name="Group 9273">
            <path id="Path_4821" data-name="Path 4821" d="M713.9,269.576c2.123,19.215,6.871,38.934,19.774,53.9,10.278,11.9,26.589,20.947,42.676,17.987a39.449,39.449,0,0,0,20.053-10.5c.782-.726-.391-1.955-1.173-1.173a36.544,36.544,0,0,1-40.833,7.094c-15.082-6.871-25.639-19.774-31.616-35.024-4.022-10.334-6.033-21.282-7.262-32.231-.056-1.117-1.732-1.117-1.62-.056Z" transform="translate(-713.89 -268.787)" fill="#161616"/>
          </g>
        </g>
      </g>
    </g>
  </g>
</svg>
