<svg xmlns="http://www.w3.org/2000/svg" width="744.544" height="697.38" viewBox="0 0 744.544 697.38">
  <g id="pixeltrue-idea" transform="translate(-230.1 -40.675)">
    <g id="color" transform="translate(362.463 90.492)">
      <path id="Path_4534" data-name="Path 4534" d="M919.373,125.8c-15.636,9.254-20.1,25.209-21.954,31.783-.447,1.6-5.68,21.188,3.383,41.611,2.68,6.063,5.552,12.317,12.062,15.317,3.765,1.787,7.148,1.659,20.423.511,6.191-.511,12.892-1.149,20.04-1.915A79,79,0,0,0,969.6,175.639c.447-3.382,5.68-43.717-16.274-54.439C938.966,114.117,921.671,124.392,919.373,125.8Z" transform="translate(-603.207 -118.733)" fill="#8e8e8e"/>
      <ellipse id="Ellipse_1388" data-name="Ellipse 1388" cx="14.423" cy="15.955" rx="14.423" ry="15.955" transform="translate(13.019 70.309)" fill="#898989"/>
      <ellipse id="Ellipse_1389" data-name="Ellipse 1389" cx="10.722" cy="10.339" rx="10.722" ry="10.339" transform="translate(343.8 337.206)" fill="#898989"/>
      <circle id="Ellipse_1390" data-name="Ellipse 1390" cx="7.978" cy="7.978" r="7.978" transform="translate(19.593 279.512)" fill="#898989"/>
      <ellipse id="Ellipse_1391" data-name="Ellipse 1391" cx="12.7" cy="13.338" rx="12.7" ry="13.338" transform="translate(0 70.245)" fill="#262626"/>
      <ellipse id="Ellipse_1392" data-name="Ellipse 1392" cx="7.85" cy="8.169" rx="7.85" ry="8.169" transform="translate(343.736 325.208)" fill="#262626"/>
      <ellipse id="Ellipse_1393" data-name="Ellipse 1393" cx="8.616" cy="9.19" rx="8.616" ry="9.19" transform="translate(447.891 97.88)" fill="#262626"/>
      <g id="Group_8816" data-name="Group 8816" transform="translate(262.304 172.087)">
        <g id="Group_8815" data-name="Group 8815">
          <path id="Path_4535" data-name="Path 4535" d="M855.586,389.349c-1.4-2.234-3.7-.128-4.659,1.4-1.978,3.191-3.255,7.148-1.787,10.786,1.085,2.744,3.765,5.042,6.893,4.6a5.6,5.6,0,0,0,4.978-5.616,1,1,0,0,0-1.659-.7c-3.382,4.276-7.531,10.339-4.148,15.827,2.361,3.765,8.169,4.276,10.467.191a16.04,16.04,0,0,1-1.723-.255c.319,1.787.638,3.574.894,5.361.191,1.213,2.042.7,1.851-.511-.319-1.787-.638-3.574-.894-5.361a.961.961,0,0,0-1.723-.255,3.98,3.98,0,0,1-5.169,1.532,5.987,5.987,0,0,1-2.936-5.552c0-3.7,2.617-6.956,4.786-9.7-.574-.255-1.085-.447-1.659-.7a3.814,3.814,0,0,1-4.659,3.7,5.286,5.286,0,0,1-3.574-3.574,7.97,7.97,0,0,1-.064-5.169c.064-.128,2.68-5.808,3.063-5.169.7,1.149,2.361.191,1.723-.83Z" transform="translate(-848.505 -388.376)" fill="#3a3a3a"/>
        </g>
      </g>
      <g id="Group_8818" data-name="Group 8818" transform="translate(6.841 174.738)">
        <g id="Group_8817" data-name="Group 8817">
          <path id="Path_4536" data-name="Path 4536" d="M450.185,396.6c1.4-3.829,6.063-2.17,7.531.511a7.855,7.855,0,0,1,.893,2.936c.255,1.915.064,2.68-1.6,3.829-1.787,1.787-2.234,1.085-1.276-2.106.447-.191.957-.383,1.4-.574a7.105,7.105,0,0,1,3.829.128,6.558,6.558,0,0,1,4.148,7.276.979.979,0,0,0,1.4,1.085,7.341,7.341,0,0,1,10.594,4.914c.255,1.213,2.106.7,1.851-.511a9.239,9.239,0,0,0-13.4-6c.447.383.957.7,1.4,1.085.83-5.616-3.446-10.849-9.382-9.956-2.042.319-5.106,1.6-5.361,4.021-.191,1.978,1.659,3.446,3.51,3.638,5.489.511,5.361-7.467,3.574-10.658-2.425-4.34-9.126-5.425-11.041-.064-.383,1.085,1.468,1.6,1.915.447Z" transform="translate(-448.219 -392.53)" fill="#3a3a3a"/>
        </g>
      </g>
      <g id="Group_8820" data-name="Group 8820" transform="translate(344.386 417.23)">
        <g id="Group_8819" data-name="Group 8819">
          <path id="Path_4537" data-name="Path 4537" d="M977.553,774.283a45.25,45.25,0,0,1,12.381,12.254c.7,1.021,2.361.064,1.659-.957a48.126,48.126,0,0,0-13.019-12.892c-1.085-.766-2.042.893-1.021,1.6Z" transform="translate(-977.119 -772.49)" fill="#3a3a3a"/>
        </g>
      </g>
      <g id="Group_8822" data-name="Group 8822" transform="translate(357.037 420.872)">
        <g id="Group_8821" data-name="Group 8821">
          <path id="Path_4538" data-name="Path 4538" d="M997.17,779.858c1.021,1.213,1.978,2.489,3,3.7.766.957,2.106-.383,1.34-1.34-1.021-1.213-1.978-2.489-3-3.7-.766-.957-2.106.447-1.34,1.34Z" transform="translate(-996.942 -778.197)" fill="#3a3a3a"/>
        </g>
      </g>
      <g id="Group_8824" data-name="Group 8824" transform="translate(351.1 403.037)">
        <g id="Group_8823" data-name="Group 8823">
          <path id="Path_4539" data-name="Path 4539" d="M987.933,751.878a52.748,52.748,0,0,1,10.849,14.04c.574,1.085,2.234.128,1.659-.957a53.378,53.378,0,0,0-11.169-14.423c-.893-.894-2.234.51-1.34,1.34Z" transform="translate(-987.638 -750.25)" fill="#3a3a3a"/>
        </g>
      </g>
    </g>
    <g id="background" transform="translate(230.1 96.723)">
      <g id="Group_8826" data-name="Group 8826" transform="translate(42.498 469.385)">
        <g id="Group_8825" data-name="Group 8825" transform="translate(0 0)">
          <path id="Path_4540" data-name="Path 4540" d="M296.7,864.884a289.156,289.156,0,0,0,7.212,41.036.96.96,0,0,0,1.851-.511,291.194,291.194,0,0,1-7.148-40.526c-.128-1.213-2.042-1.213-1.915,0Z" transform="translate(-296.69 -863.975)" fill="#e8e8e8"/>
        </g>
      </g>
      <g id="Group_8828" data-name="Group 8828" transform="translate(49.451 510.081)">
        <g id="Group_8827" data-name="Group 8827">
          <path id="Path_4541" data-name="Path 4541" d="M308.233,929.63a76.052,76.052,0,0,0,38.228,0,.96.96,0,0,0-.511-1.851,73.5,73.5,0,0,1-37.207,0,.962.962,0,0,0-.511,1.851Z" transform="translate(-307.585 -927.742)" fill="#e8e8e8"/>
        </g>
      </g>
      <g id="Group_8830" data-name="Group 8830" transform="translate(87.879 468.364)">
        <g id="Group_8829" data-name="Group 8829">
          <path id="Path_4542" data-name="Path 4542" d="M369.714,904.066q1.244-20.391,3.191-40.781c.128-1.213-1.787-1.213-1.915,0q-1.915,20.391-3.191,40.781c-.064,1.213,1.851,1.213,1.915,0Z" transform="translate(-367.798 -862.375)" fill="#e8e8e8"/>
        </g>
      </g>
      <g id="Group_8832" data-name="Group 8832" transform="translate(42.896 468.994)">
        <g id="Group_8831" data-name="Group 8831">
          <path id="Path_4543" data-name="Path 4543" d="M298.007,865.684a114.325,114.325,0,0,0,48.121-.447c1.213-.255.7-2.106-.511-1.851a112.658,112.658,0,0,1-47.1.447c-1.213-.255-1.723,1.6-.511,1.851Z" transform="translate(-297.314 -863.362)" fill="#e8e8e8"/>
        </g>
      </g>
      <g id="Group_8834" data-name="Group 8834" transform="translate(43.384 473.175)">
        <g id="Group_8833" data-name="Group 8833" transform="translate(0 0)">
          <path id="Path_4544" data-name="Path 4544" d="M298.092,872.649c.511,2.617,3.829,2.489,5.871,2.68a141,141,0,0,0,15.572.447c4.978-.128,9.956-.511,14.934-1.085,3.957-.51,7.786-1.021,11.3-3,1.085-.574.128-2.234-.957-1.659-6.318,3.51-15.062,3.383-22.146,3.7-3.51.128-7.084.191-10.594.128-1.851-.064-11.743.383-12.126-1.723-.255-1.213-2.042-.7-1.851.51Z" transform="translate(-298.078 -869.913)" fill="#e8e8e8"/>
        </g>
      </g>
      <g id="Group_8836" data-name="Group 8836" transform="translate(46.916 496.622)">
        <g id="Group_8835" data-name="Group 8835" transform="translate(0 0)">
          <path id="Path_4545" data-name="Path 4545" d="M303.732,908.087a56.034,56.034,0,0,0,11.615,14.36c.893.83,2.3-.511,1.34-1.34a51.829,51.829,0,0,1-11.3-13.977c-.574-1.085-2.234-.128-1.659.957Z" transform="translate(-303.613 -906.652)" fill="#e8e8e8"/>
        </g>
      </g>
      <g id="Group_8838" data-name="Group 8838" transform="translate(44.403 481.92)">
        <g id="Group_8837" data-name="Group 8837">
          <path id="Path_4546" data-name="Path 4546" d="M299.819,885.01A153.031,153.031,0,0,0,323.3,915.133c.894.893,2.234-.511,1.34-1.34a151.452,151.452,0,0,1-23.167-29.74c-.638-1.021-2.3-.064-1.659.957Z" transform="translate(-299.675 -883.616)" fill="#e8e8e8"/>
        </g>
      </g>
      <g id="Group_8840" data-name="Group 8840" transform="translate(55.085 477.284)">
        <g id="Group_8839" data-name="Group 8839" transform="translate(0 0)">
          <path id="Path_4547" data-name="Path 4547" d="M316.533,877.787a226.664,226.664,0,0,0,23.486,34.144c.766.957,2.106-.383,1.34-1.34a221.267,221.267,0,0,1-23.167-33.761c-.574-1.085-2.234-.128-1.659.957Z" transform="translate(-316.413 -876.352)" fill="#e8e8e8"/>
        </g>
      </g>
      <g id="Group_8842" data-name="Group 8842" transform="translate(67.225 477.771)">
        <g id="Group_8841" data-name="Group 8841">
          <path id="Path_4548" data-name="Path 4548" d="M335.6,878.51q9.86,14.743,19.912,29.357c.7,1.021,2.361.064,1.659-.957q-10.052-14.647-19.912-29.357c-.7-1.021-2.361-.064-1.659.957Z" transform="translate(-335.434 -877.116)" fill="#e8e8e8"/>
        </g>
      </g>
      <g id="Group_8844" data-name="Group 8844" transform="translate(77.462 477.197)">
        <g id="Group_8843" data-name="Group 8843">
          <path id="Path_4549" data-name="Path 4549" d="M351.619,877.61c3.319,5.361,6.893,10.594,10.594,15.7.7.957,2.361,0,1.659-.957-3.7-5.106-7.276-10.339-10.594-15.7-.638-1.021-2.3-.064-1.659.957Z" transform="translate(-351.475 -876.216)" fill="#e8e8e8"/>
        </g>
      </g>
      <g id="Group_8846" data-name="Group 8846" transform="translate(22.377 412.942)">
        <g id="Group_8845" data-name="Group 8845">
          <path id="Path_4550" data-name="Path 4550" d="M265.186,776.725c.766,4.4,1.532,8.871,2.361,13.275.255,1.213.447,2.489,1.468,3.255.7.574,3,.511,3.446,1.149a7.037,7.037,0,0,0,.128-1.149c-.957.957-1.915,1.915-2.936,2.808a1.068,1.068,0,0,0-.255.957c.574,1.723.957,4.276,2.106,5.744.574.766,1.6.638,2.042,1.085.383.383.255.128.064,1.276a11.794,11.794,0,0,0,0,3,17.329,17.329,0,0,0,1.213,4.4c3.319,8.041,9.764,14.551,15.955,20.55.893.83,2.234-.511,1.34-1.34a96.755,96.755,0,0,1-11.169-12.254c-3.191-4.4-6.956-10.339-4.978-15.955a.887.887,0,0,0-.255-.957c-1.213-.957-2.425-.574-3.255-2.106-1.6-2.872-.7-3.829,1.34-5.808a.879.879,0,0,0,.128-1.149,2.666,2.666,0,0,0-1.723-1.276c-.511-.191-1.276,0-1.787-.255-1.085-.574-1.085-1.978-1.276-3-.766-4.212-1.532-8.488-2.234-12.7-.128-1.276-1.978-.766-1.723.447Z" transform="translate(-265.162 -775.535)" fill="#e8e8e8"/>
        </g>
      </g>
      <g id="Group_8848" data-name="Group 8848" transform="translate(23.157 411.974)">
        <g id="Group_8847" data-name="Group 8847">
          <path id="Path_4551" data-name="Path 4551" d="M267.033,775.921a62.272,62.272,0,0,1,42.441,57.821.959.959,0,0,0,1.915,0,64.306,64.306,0,0,0-43.845-59.672c-1.149-.383-1.659,1.468-.511,1.851Z" transform="translate(-266.385 -774.019)" fill="#e8e8e8"/>
        </g>
      </g>
      <g id="Group_8850" data-name="Group 8850" transform="translate(60.131 398.618)">
        <g id="Group_8849" data-name="Group 8849">
          <path id="Path_4552" data-name="Path 4552" d="M326.221,800c6.191-17.168,15.317-33.761,29.932-45.057.957-.766,0-2.425-.957-1.659-15.062,11.679-24.443,28.528-30.825,46.206-.383,1.149,1.468,1.659,1.851.51Z" transform="translate(-324.319 -753.091)" fill="#e8e8e8"/>
        </g>
      </g>
      <g id="Group_8852" data-name="Group 8852" transform="translate(90.304 399.182)">
        <g id="Group_8851" data-name="Group 8851">
          <path id="Path_4553" data-name="Path 4553" d="M371.6,754.884c.447,5.872.957,11.743,1.4,17.678.128,1.213,2.042,1.213,1.915,0-.447-5.871-.957-11.743-1.4-17.678-.064-1.213-1.978-1.213-1.915,0Z" transform="translate(-371.598 -753.975)" fill="#e8e8e8"/>
        </g>
      </g>
      <g id="Group_8854" data-name="Group 8854" transform="translate(89.421 417.107)">
        <g id="Group_8853" data-name="Group 8853">
          <path id="Path_4554" data-name="Path 4554" d="M373.332,782.086c-.83.192-1.659.383-2.425.638a.96.96,0,0,0,.511,1.851c.83-.191,1.659-.383,2.425-.638a.96.96,0,0,0-.511-1.851Z" transform="translate(-370.214 -782.061)" fill="#e8e8e8"/>
        </g>
      </g>
      <g id="Group_8856" data-name="Group 8856" transform="translate(89.124 418.288)">
        <g id="Group_8855" data-name="Group 8855">
          <path id="Path_4555" data-name="Path 4555" d="M369.782,785.117a2.711,2.711,0,0,0,2.425,2.106.94.94,0,0,0,.957-.957.982.982,0,0,0-.957-.957h-.064c-.064,0-.191-.064-.064,0-.064-.064-.128-.064-.191-.128-.128-.064.128.128-.064-.064l-.128-.128c.128.128,0,0,0-.064-.064-.064-.064-.191-.064-.064,0-.064-.064-.191-.064-.255a.892.892,0,0,0-1.149-.638.913.913,0,0,0-.638,1.149Z" transform="translate(-369.749 -783.912)" fill="#e8e8e8"/>
        </g>
      </g>
      <g id="Group_8858" data-name="Group 8858" transform="translate(87.679 419.98)">
        <g id="Group_8857" data-name="Group 8857">
          <path id="Path_4556" data-name="Path 4556" d="M370.43,787.48a86.581,86.581,0,0,1-.447,10.786c-.128,1.149.064,3.829-.7,4.723a11.691,11.691,0,0,0-1.468.447c-.957.766.383,2.106,1.34,1.34.319-.255,1.085,0,1.6-.574.766-.766.638-2.553.766-3.446a92.97,92.97,0,0,0,.766-13.338c.064-1.149-1.851-1.149-1.851.064Z" transform="translate(-367.484 -786.562)" fill="#e8e8e8"/>
        </g>
      </g>
      <g id="Group_8860" data-name="Group 8860" transform="translate(78.558 436.877)">
        <g id="Group_8859" data-name="Group 8859">
          <path id="Path_4557" data-name="Path 4557" d="M361.877,814.673c2.042,2.425,1.468,6.446,1.276,9.382a21.887,21.887,0,0,1-2.489,9.445c-2.361,4.34-5.68,7.978-7.4,12.7-.447,1.149,1.4,1.659,1.851.51,2.3-6.191,7.595-10.786,9.19-17.3,1.149-4.659,2.234-12.126-1.085-16.083-.766-.893-2.106.447-1.34,1.34Z" transform="translate(-353.192 -813.038)" fill="#e8e8e8"/>
        </g>
      </g>
      <g id="Group_8862" data-name="Group 8862" transform="translate(70.26 417.201)">
        <g id="Group_8861" data-name="Group 8861">
          <path id="Path_4558" data-name="Path 4558" d="M342.111,835.94a161.474,161.474,0,0,1,14.232-52.269c.511-1.085-1.149-2.106-1.659-.957A164.489,164.489,0,0,0,340.2,836c-.128,1.213,1.787,1.149,1.915-.064Z" transform="translate(-340.19 -782.208)" fill="#e8e8e8"/>
        </g>
      </g>
      <g id="Group_8864" data-name="Group 8864" transform="translate(34.298 422.865)">
        <g id="Group_8863" data-name="Group 8863">
          <path id="Path_4559" data-name="Path 4559" d="M284.07,792.753a133.57,133.57,0,0,1,24.124,47.419.96.96,0,0,0,1.851-.511,136.29,136.29,0,0,0-24.635-48.248c-.766-.957-2.106.383-1.34,1.34Z" transform="translate(-283.842 -791.084)" fill="#e8e8e8"/>
        </g>
      </g>
      <g id="Group_8866" data-name="Group 8866" transform="translate(34.782 446.126)">
        <g id="Group_8865" data-name="Group 8865">
          <path id="Path_4560" data-name="Path 4560" d="M285.557,829.489a24.85,24.85,0,0,1,14.87,3.765c1.021.638,2.042-1.021.957-1.659a27.1,27.1,0,0,0-15.827-4.021c-1.276.064-1.276,1.978,0,1.915Z" transform="translate(-284.6 -827.53)" fill="#e8e8e8"/>
        </g>
      </g>
      <g id="Group_8868" data-name="Group 8868" transform="translate(45.373 428.163)">
        <g id="Group_8867" data-name="Group 8867">
          <path id="Path_4561" data-name="Path 4561" d="M303.24,810.755a20.757,20.757,0,0,1,1.4-10.211c.447-1.149-1.4-1.659-1.851-.511a21.964,21.964,0,0,0-1.468,10.722c.128,1.213,2.042,1.213,1.915,0Z" transform="translate(-301.195 -799.385)" fill="#e8e8e8"/>
        </g>
      </g>
      <g id="Group_8870" data-name="Group 8870" transform="translate(68.027 427.781)">
        <g id="Group_8869" data-name="Group 8869">
          <path id="Path_4562" data-name="Path 4562" d="M336.761,799.943c2.106,5.169,5.169,10.658,5.935,16.147.191,1.213,2.042.7,1.851-.511-.83-5.552-3.893-11.041-5.935-16.147-.447-1.149-2.3-.638-1.851.511Z" transform="translate(-336.692 -798.785)" fill="#e8e8e8"/>
        </g>
      </g>
      <g id="Group_8872" data-name="Group 8872" transform="translate(78.238 423.057)">
        <g id="Group_8871" data-name="Group 8871">
          <path id="Path_4563" data-name="Path 4563" d="M354.292,803.329c1.851-2.106,3.638-4.6,6-6.19,1.978-1.34,4.148-2.234,5.68-4.085.766-.957-.574-2.3-1.34-1.34-1.659,1.978-4.084,2.808-6.063,4.34a41.221,41.221,0,0,0-5.616,5.935c-.83.957.511,2.3,1.34,1.34Z" transform="translate(-352.691 -791.384)" fill="#e8e8e8"/>
        </g>
      </g>
      <g id="Group_8874" data-name="Group 8874" transform="translate(79.301 467.369)">
        <g id="Group_8873" data-name="Group 8873" transform="translate(0 0)">
          <path id="Path_4564" data-name="Path 4564" d="M355.533,863.742a29,29,0,0,1,9.382-.957c1.213.064,1.213-1.851,0-1.915a30.384,30.384,0,0,0-9.892,1.021.961.961,0,0,0,.511,1.851Z" transform="translate(-354.357 -860.816)" fill="#e8e8e8"/>
        </g>
      </g>
      <g id="Group_8876" data-name="Group 8876" transform="translate(79.313 467.945)">
        <g id="Group_8875" data-name="Group 8875">
          <path id="Path_4565" data-name="Path 4565" d="M355.284,864.834a26.522,26.522,0,0,0,10.467-1.213c1.149-.383.638-2.234-.511-1.851a26.343,26.343,0,0,1-9.956,1.149c-1.213-.064-1.213,1.851,0,1.915Z" transform="translate(-354.375 -861.719)" fill="#e8e8e8"/>
        </g>
      </g>
      <g id="Group_8878" data-name="Group 8878" transform="translate(43.509 468.826)">
        <g id="Group_8877" data-name="Group 8877" transform="translate(0 0)">
          <path id="Path_4566" data-name="Path 4566" d="M299.184,865.015h2.425a.959.959,0,0,0,0-1.915h-2.425a.959.959,0,0,0,0,1.915Z" transform="translate(-298.275 -863.1)" fill="#e8e8e8"/>
        </g>
      </g>
      <g id="Group_8880" data-name="Group 8880" transform="translate(90.29 484.271)">
        <g id="Group_8879" data-name="Group 8879">
          <path id="Path_4567" data-name="Path 4567" d="M372.484,889.215h60.757a.959.959,0,0,0,0-1.915H372.484a.959.959,0,0,0,0,1.915Z" transform="translate(-371.575 -887.3)" fill="#e8e8e8"/>
        </g>
      </g>
      <g id="Group_8882" data-name="Group 8882" transform="translate(432.75 471.634)">
        <g id="Group_8881" data-name="Group 8881" transform="translate(0 0)">
          <path id="Path_4568" data-name="Path 4568" d="M909.084,869.415h36.122a.959.959,0,0,0,0-1.915H909.084a.959.959,0,0,0,0,1.915Z" transform="translate(-908.175 -867.5)" fill="#e8e8e8"/>
        </g>
      </g>
      <g id="Group_8884" data-name="Group 8884" transform="translate(542.265 472.783)">
        <g id="Group_8883" data-name="Group 8883" transform="translate(0)">
          <path id="Path_4569" data-name="Path 4569" d="M1080.684,871.215h200.46a.959.959,0,0,0,0-1.915h-200.46a.959.959,0,0,0,0,1.915Z" transform="translate(-1079.775 -869.3)" fill="#e8e8e8"/>
        </g>
      </g>
      <g id="Group_8886" data-name="Group 8886" transform="translate(450.398 264.67)">
        <g id="Group_8885" data-name="Group 8885">
          <path id="Path_4570" data-name="Path 4570" d="M951.574,543.713q-7.276,15.03-15.636,29.485c-.255.511-.064,1.34.574,1.4,27.379,4.148,51.886,17.742,75.5,31.463a.958.958,0,0,0,.957-1.659c-23.8-13.785-48.44-27.443-76.01-31.655.191.447.383.957.574,1.4,5.616-9.637,10.786-19.465,15.636-29.485.574-1.085-1.021-2.106-1.6-.957Z" transform="translate(-935.829 -543.208)" fill="#e8e8e8"/>
        </g>
      </g>
      <g id="Group_8888" data-name="Group 8888" transform="translate(468.453 271.135)">
        <g id="Group_8887" data-name="Group 8887" transform="translate(0)">
          <path id="Path_4571" data-name="Path 4571" d="M966.021,582.16c1.914-5.489,3.829-11.041,5.744-16.529a71.762,71.762,0,0,1,2.489-7.084,4.623,4.623,0,0,1,2.361-3.127l2.3.574c1.149.319,2.3.574,3.383.894,2.617.638,6.829.638,6.382,4.148-.319,2.489-1.787,5.169-2.617,7.595-1.915,5.425-3.765,10.849-5.68,16.274-.383,1.149,1.468,1.659,1.851.511,2.489-7.148,4.978-14.36,7.467-21.507.574-1.659,2.17-4.467.894-6.254-1.4-1.915-5.616-2.042-7.786-2.617-2.106-.511-5.808-2.425-7.978-1.4-1.851.83-2.234,4.021-2.808,5.616-2.617,7.467-5.233,15-7.85,22.465-.383,1.085,1.468,1.6,1.851.447Z" transform="translate(-964.119 -553.337)" fill="#e8e8e8"/>
        </g>
      </g>
      <g id="Group_8890" data-name="Group 8890" transform="translate(493.192 257.826)">
        <g id="Group_8889" data-name="Group 8889" transform="translate(0)">
          <path id="Path_4572" data-name="Path 4572" d="M1004.68,581.444c4.084-8.616,8.233-17.3,12.317-25.911,2.042-4.34,4.085-8.616,6.19-12.956a54.9,54.9,0,0,1,2.936-6.191c1.021-1.6,1.276-1.978,3.063-1.276a17.837,17.837,0,0,1,2.936,1.915c1.085.766,2.808,1.6,3.574,2.617.957,1.213.574,2.489,0,4.021-.766,2.042-1.915,4.021-2.872,6-2.106,4.34-4.212,8.68-6.446,13.019-4.212,8.233-8.616,16.4-13.147,24.507a.958.958,0,0,0,1.659.957q8.328-14.742,15.827-29.868c2.489-4.978,5.233-10.084,7.339-15.253,1.468-3.765-1.723-5.3-4.531-7.276-2.234-1.532-5.744-5.042-8.169-2.17-1.532,1.787-2.361,4.786-3.383,6.956-1.276,2.617-2.489,5.233-3.766,7.914q-7.658,16.083-15.253,32.165c-.447.957,1.213,1.978,1.723.83Z" transform="translate(-1002.882 -532.484)" fill="#e8e8e8"/>
        </g>
      </g>
      <g id="Group_8892" data-name="Group 8892" transform="translate(514.413 294.011)">
        <g id="Group_8891" data-name="Group 8891">
          <path id="Path_4573" data-name="Path 4573" d="M1037.9,615.232a180.925,180.925,0,0,1,18.508-24.315,7.034,7.034,0,0,1-1.149.128c2.425,1.659,4.787,3.255,7.212,4.914a10.217,10.217,0,0,1-.319-1.34c-5.425,8.488-10.849,16.912-16.274,25.4-.638,1.021.957,1.978,1.659.957,5.425-8.488,10.849-16.912,16.274-25.4a1.021,1.021,0,0,0-.319-1.34c-2.425-1.659-4.787-3.255-7.212-4.914a.962.962,0,0,0-1.149.128,185.558,185.558,0,0,0-18.827,24.7.965.965,0,1,0,1.6,1.085Z" transform="translate(-1036.134 -589.182)" fill="#e8e8e8"/>
        </g>
      </g>
      <g id="Group_8894" data-name="Group 8894" transform="translate(580.898 231.429)">
        <g id="Group_8893" data-name="Group 8893" transform="translate(0)">
          <path id="Path_4574" data-name="Path 4574" d="M1151.727,519.061a14.25,14.25,0,0,1-9.254-15.636c1.149-6.956,7.978-13.147,15-9a12.824,12.824,0,0,1,5.489,14.679c-1.915,5.68-8.169,9.063-13.977,8.169-1.213-.191-1.723,1.659-.511,1.851,6.829,1.021,14.041-2.744,16.338-9.509a14.669,14.669,0,0,0-8.042-17.678c-7.786-3.191-14.87,3.51-16.21,10.977-1.4,7.914,3.255,15.189,10.594,18,1.213.447,1.723-1.4.574-1.851Z" transform="translate(-1140.309 -491.122)" fill="#e8e8e8"/>
        </g>
      </g>
      <g id="Group_8896" data-name="Group 8896" transform="translate(595.736 236.205)">
        <g id="Group_8895" data-name="Group 8895">
          <path id="Path_4575" data-name="Path 4575" d="M1173.222,520.557c-12.7-.383-7.914-20.742,3.319-19.976,11.232.83,6.637,23.741-5.68,19.529-1.149-.383-1.659,1.468-.51,1.851,14.232,4.85,20.614-21.061,7.02-23.231-6.637-1.085-12.636,5.169-13.658,11.36-1.021,6.127,3.127,12.126,9.509,12.317,1.213.128,1.213-1.787,0-1.851Z" transform="translate(-1163.558 -498.607)" fill="#e8e8e8"/>
        </g>
      </g>
      <g id="Group_8898" data-name="Group 8898" transform="translate(592.758 192.583)">
        <g id="Group_8897" data-name="Group 8897" transform="translate(0)">
          <path id="Path_4576" data-name="Path 4576" d="M1162.024,438.069a3.812,3.812,0,0,1-.766-4.4,2.966,2.966,0,0,1,4.148-.957,2.551,2.551,0,0,1,.319,3.765c-1.276,1.149-3.319.574-4.531-.383-.957-.766-2.3.574-1.34,1.34,1.979,1.532,5.042,2.3,7.148.447a4.482,4.482,0,0,0-.192-6.574,4.907,4.907,0,0,0-6.765.7c-1.851,2.17-1.34,5.425.574,7.4a.971.971,0,0,0,1.4-1.34Z" transform="translate(-1158.892 -430.254)" fill="#e8e8e8"/>
        </g>
      </g>
      <g id="Group_8900" data-name="Group 8900" transform="translate(408.611 141.387)">
        <g id="Group_8899" data-name="Group 8899">
          <path id="Path_4577" data-name="Path 4577" d="M872.425,457.1c-1.787-10.849,4.531-23.933,16.785-23.8,6.254.064,12.317,2.617,18.636,1.723a16.934,16.934,0,0,0,10.977-6.7A22.626,22.626,0,0,0,923.29,416c.319-6.51-2.17-13.147-.383-19.593.893-3.255,2.808-6.254,6.063-7.467,3.127-1.085,6.51-.447,9.765-.574a12.226,12.226,0,0,0,10.786-6.382c3.319-5.808,2.553-12.764,4.85-18.891,2.744-7.4,10.467-13.721,18.636-10.084,1.085.511,2.106-1.149.957-1.659-11.1-4.978-20.359,5.042-22.529,15.125-1.4,6.573-1.149,16.785-9,19.4-5.488,1.851-11.679-1.021-16.721,2.744-4.148,3.063-5.361,8.68-5.3,13.594.191,7.212,2.425,14.232-.766,21.125-2.936,6.51-8.743,10.4-15.955,9.956-6.382-.383-12.7-3-19.146-1.34-10.913,2.744-15.572,15.636-13.849,25.72.128,1.085,1.978.574,1.723-.574Z" transform="translate(-870.353 -350.035)" fill="#e8e8e8"/>
        </g>
      </g>
      <g id="Group_8902" data-name="Group 8902" transform="translate(488.734 145.368)">
        <g id="Group_8901" data-name="Group 8901">
          <path id="Path_4578" data-name="Path 4578" d="M998.516,413.856c-2.361-5.361.894-10.466,6.063-12.19,3.765-1.276,7.914-1.34,11.169-3.893,2.553-1.978,3.383-4.467,3.063-7.658-.319-3-.319-5.361,2.042-7.4a11.579,11.579,0,0,1,7.148-2.489c7.02-.255,16.657,3.319,21.763-3.51,2.361-3.191,1.659-7.148,2.744-10.722a11.115,11.115,0,0,1,11.36-7.786c1.213.064,1.213-1.851,0-1.915a13.339,13.339,0,0,0-10.339,4.085c-3.319,3.51-2.872,7.467-3.893,11.871-2.744,12.062-19.529,3.574-27.443,7.339-2.936,1.4-5.3,3.893-5.552,7.212-.319,3.893,1.468,7.084-2.489,9.764-2.106,1.4-4.531,1.851-6.956,2.425-4.021.957-7.978,2.17-10.02,6.063a10.82,10.82,0,0,0-.255,9.7c.447,1.213,2.042.191,1.6-.894Z" transform="translate(-995.897 -356.274)" fill="#e8e8e8"/>
        </g>
      </g>
      <g id="Group_8904" data-name="Group 8904" transform="translate(602.515 91.286)">
        <g id="Group_8903" data-name="Group 8903">
          <path id="Path_4579" data-name="Path 4579" d="M1176.746,298.188a15.853,15.853,0,0,1-.7-1.851c.83-.957,1.6-1.915,2.425-2.872.255-.064,1.4.7,1.787.7a3.348,3.348,0,0,0,2.553-.7c2.361-1.851,1.532-4.787,2.234-7.276,1.149-4.276,6.191-1.34,8.488-4.531,2.3-3.127,1.468-9.764,7.595-7.978a.96.96,0,0,0,.51-1.851,6.313,6.313,0,0,0-7.977,4.021c-.383.957-.511,2.042-.894,3-.83,2.234-1.723,2.553-4.148,2.68-1.787.128-3.191,0-4.4,1.532-1.021,1.34-1.021,3.063-1.213,4.659-.191,2.361,0,4.34-3.51,4.085-.7-.064-1.276-.7-2.042-.7-4.212-.064-3.51,5.106-2.489,7.595.383,1.149,2.3.638,1.787-.511Z" transform="translate(-1174.181 -271.532)" fill="#e8e8e8"/>
        </g>
      </g>
      <g id="Group_8906" data-name="Group 8906" transform="translate(613.72 96.954)">
        <g id="Group_8905" data-name="Group 8905" transform="translate(0)">
          <path id="Path_4580" data-name="Path 4580" d="M1195.1,306.7c-1.021-1.34-2.744-5.233.255-6.254,1.085-.383,2.489.064,3.638.064a3.813,3.813,0,0,0,2.744-.7c2.553-2.042.7-5.68,2.042-8.233,2.17-4.148,6.51-.893,9.573-3.063,2.17-1.532,2.744-4.467,3.127-6.893.192-1.213-1.659-1.723-1.851-.511-.447,2.872-.957,6.063-4.531,6.382-1.851.191-3.255-.447-4.978.383-2.808,1.34-3.7,3.829-3.765,6.7-.064,2.425.51,3.638-3.574,3.829-.511,0-1.021-.128-1.532-.128a4.793,4.793,0,0,0-3.574,2.106c-1.787,2.553-.766,5.489,1.021,7.722.83.957,2.17-.447,1.4-1.4Z" transform="translate(-1191.737 -280.414)" fill="#e8e8e8"/>
        </g>
      </g>
      <g id="Group_8908" data-name="Group 8908" transform="translate(72.814 145.103)">
        <g id="Group_8907" data-name="Group 8907">
          <path id="Path_4581" data-name="Path 4581" d="M345.856,368.585c5.3-6.382,12.828-11.615,21.507-10.722,9.445.957,14.1,8.488,15,17.3,1.532,14.615-2.042,32.1,7.85,44.547,3.893,4.914,9.7,7.531,15.955,6,7.531-1.787,13.4-7.722,20.1-11.232,7.914-4.148,18.827-6.382,25.975.574,5.233,5.106,6.382,12.892,8.105,19.657,1.6,6.127,4.34,12.892,9.828,16.529,3.319,2.17,6.956,2.361,10.786,2.106,4.276-.319,13.019-.574,12.126,6.127-.128,1.213,1.787,1.213,1.915,0a6.537,6.537,0,0,0-3-6.254c-3.319-2.425-7.148-2.042-11.041-1.787-4.4.319-8.169-.064-11.551-3.191-3.063-2.808-4.914-6.765-6.254-10.658-2.234-6.7-2.872-14.04-6.7-20.167-3.765-6.063-10.275-9-17.3-8.743-8.871.319-16.338,5.425-23.422,10.147-3.382,2.234-7.02,4.6-11.169,5.3-4.978.83-9.382-1.34-12.573-5.042-6-7.02-6.956-17.04-7.276-25.847-.319-8.233.766-17.168-1.978-25.145a17.837,17.837,0,0,0-16.4-12.19c-8.807-.447-16.529,4.85-21.954,11.36-.7.957.638,2.3,1.468,1.34Z" transform="translate(-344.192 -355.859)" fill="#e8e8e8"/>
        </g>
      </g>
      <g id="Group_8910" data-name="Group 8910" transform="translate(42.105 254.87)">
        <g id="Group_8909" data-name="Group 8909">
          <path id="Path_4582" data-name="Path 4582" d="M296.219,529.287A472.864,472.864,0,0,1,322.9,580.726c.511,1.149,2.17.128,1.659-.957a484.421,484.421,0,0,0-26.677-51.439.958.958,0,0,0-1.659.957Z" transform="translate(-296.075 -527.852)" fill="#e8e8e8"/>
        </g>
      </g>
      <g id="Group_8912" data-name="Group 8912" transform="translate(42.027 226.956)">
        <g id="Group_8911" data-name="Group 8911">
          <path id="Path_4583" data-name="Path 4583" d="M297.387,512.7c15.508-9.637,31.463-18.636,47.865-26.8,1.085-.574.128-2.234-.957-1.659C327.957,492.4,312,501.4,296.429,511.037c-1.085.7-.128,2.361.957,1.659Z" transform="translate(-295.952 -484.113)" fill="#e8e8e8"/>
        </g>
      </g>
      <g id="Group_8914" data-name="Group 8914" transform="translate(90.079 226.429)">
        <g id="Group_8913" data-name="Group 8913">
          <path id="Path_4584" data-name="Path 4584" d="M371.344,484.763q12.158,25.56,25.72,50.354c.574,1.085,2.234.128,1.659-.957-9.062-16.529-17.678-33.314-25.72-50.354-.574-1.149-2.17-.191-1.659.957Z" transform="translate(-371.244 -483.287)" fill="#e8e8e8"/>
        </g>
      </g>
      <g id="Group_8916" data-name="Group 8916" transform="translate(69.702 277.988)">
        <g id="Group_8915" data-name="Group 8915">
          <path id="Path_4585" data-name="Path 4585" d="M340.71,594.214q22.88-13.785,45.249-28.336c1.021-.638.064-2.3-.957-1.659q-22.4,14.551-45.249,28.336c-1.021.638-.064,2.3.957,1.659Z" transform="translate(-339.316 -564.075)" fill="#e8e8e8"/>
        </g>
      </g>
      <g id="Group_8918" data-name="Group 8918" transform="translate(69.782 249.013)">
        <g id="Group_8917" data-name="Group 8917">
          <path id="Path_4586" data-name="Path 4586" d="M339.543,519.584a206.162,206.162,0,0,0,2.106,36.569c.191,1.213,2.042.7,1.851-.511a200.435,200.435,0,0,1-2.042-36.058c.064-1.213-1.851-1.213-1.915,0Z" transform="translate(-339.441 -518.675)" fill="#e8e8e8"/>
        </g>
      </g>
      <g id="Group_8920" data-name="Group 8920" transform="translate(69.618 247.716)">
        <g id="Group_8919" data-name="Group 8919">
          <path id="Path_4587" data-name="Path 4587" d="M339.513,518.211c8.871,6.956,17.742,13.785,26.741,20.55.957.766,1.915-.894.957-1.659q-13.307-9.956-26.358-20.231c-.957-.766-2.3.574-1.34,1.34Z" transform="translate(-339.184 -516.642)" fill="#e8e8e8"/>
        </g>
      </g>
      <g id="Group_8922" data-name="Group 8922" transform="translate(72.307 268.072)">
        <g id="Group_8921" data-name="Group 8921">
          <path id="Path_4588" data-name="Path 4588" d="M345.058,567.341c7.339-6.573,16.912-10.084,23.869-17.168.893-.893-.511-2.234-1.34-1.34-6.956,7.02-16.466,10.594-23.869,17.168-.957.766.447,2.106,1.34,1.34Z" transform="translate(-343.397 -548.538)" fill="#e8e8e8"/>
        </g>
      </g>
      <g id="Group_8924" data-name="Group 8924" transform="translate(43.367 261.569)">
        <g id="Group_8923" data-name="Group 8923">
          <path id="Path_4589" data-name="Path 4589" d="M299.487,543.1c2.042-1.021,4.084-1.978,6.127-3,1.085-.511.128-2.17-.957-1.659-2.042,1.021-4.085,1.978-6.127,3-1.085.574-.128,2.17.957,1.659Z" transform="translate(-298.052 -538.349)" fill="#e8e8e8"/>
        </g>
      </g>
      <g id="Group_8926" data-name="Group 8926" transform="translate(49.959 272.318)">
        <g id="Group_8925" data-name="Group 8925">
          <path id="Path_4590" data-name="Path 4590" d="M309.8,560.047a34.822,34.822,0,0,1,5.489-2.936c1.149-.447.638-2.3-.511-1.851a41.14,41.14,0,0,0-6,3.127c-.957.7,0,2.361,1.021,1.659Z" transform="translate(-308.381 -555.192)" fill="#e8e8e8"/>
        </g>
      </g>
      <g id="Group_8928" data-name="Group 8928" transform="translate(57.152 285.307)">
        <g id="Group_8927" data-name="Group 8927">
          <path id="Path_4591" data-name="Path 4591" d="M321.087,579.92c1.787-.893,3.574-1.787,5.361-2.617,1.085-.574.128-2.17-.957-1.659-1.787.893-3.574,1.787-5.361,2.617-1.085.51-.128,2.17.957,1.659Z" transform="translate(-319.652 -575.544)" fill="#e8e8e8"/>
        </g>
      </g>
      <g id="Group_8930" data-name="Group 8930" transform="translate(60.619 295.942)">
        <g id="Group_8929" data-name="Group 8929">
          <path id="Path_4592" data-name="Path 4592" d="M326.754,598.457a36.459,36.459,0,0,1,6.318-4.467.958.958,0,0,0-.957-1.659,40.193,40.193,0,0,0-6.7,4.786c-.957.83.383,2.17,1.34,1.34Z" transform="translate(-325.084 -592.208)" fill="#e8e8e8"/>
        </g>
      </g>
      <g id="Group_8932" data-name="Group 8932" transform="translate(92.4 236.432)">
        <g id="Group_8931" data-name="Group 8931">
          <path id="Path_4593" data-name="Path 4593" d="M376.3,503.007a14.442,14.442,0,0,1,4.723-2.17.96.96,0,0,0-.51-1.851,14.888,14.888,0,0,0-5.233,2.361c-.957.7,0,2.361,1.021,1.659Z" transform="translate(-374.881 -498.961)" fill="#e8e8e8"/>
        </g>
      </g>
      <g id="Group_8934" data-name="Group 8934" transform="translate(98.061 245.695)">
        <g id="Group_8933" data-name="Group 8933">
          <path id="Path_4594" data-name="Path 4594" d="M385.187,519.171c2.042-1.276,4.084-2.553,6.063-3.893,1.021-.638.064-2.3-.957-1.659-2.042,1.276-4.084,2.553-6.063,3.893-1.085.7-.128,2.361.957,1.659Z" transform="translate(-383.752 -513.475)" fill="#e8e8e8"/>
        </g>
      </g>
      <g id="Group_8936" data-name="Group 8936" transform="translate(104.543 259.846)">
        <g id="Group_8935" data-name="Group 8935">
          <path id="Path_4595" data-name="Path 4595" d="M395.371,540.277c2.17-.957,4.4-1.915,6.573-2.872,1.149-.511.128-2.17-.957-1.659-2.17.957-4.4,1.915-6.573,2.872-1.149.51-.128,2.17.957,1.659Z" transform="translate(-393.908 -535.649)" fill="#e8e8e8"/>
        </g>
      </g>
      <g id="Group_8938" data-name="Group 8938" transform="translate(109.03 266.971)">
        <g id="Group_8937" data-name="Group 8937">
          <path id="Path_4596" data-name="Path 4596" d="M402.573,552.868a29.233,29.233,0,0,1,5.744-4.276c1.085-.574.128-2.234-.957-1.659a30.452,30.452,0,0,0-6.127,4.531.971.971,0,0,0,1.34,1.4Z" transform="translate(-400.938 -546.813)" fill="#e8e8e8"/>
        </g>
      </g>
      <g id="Group_8940" data-name="Group 8940" transform="translate(76.351 298.286)">
        <g id="Group_8939" data-name="Group 8939">
          <path id="Path_4597" data-name="Path 4597" d="M349.9,597.3a38.078,38.078,0,0,1,3.957,7.467c.447,1.149,2.3.638,1.851-.51a37.908,37.908,0,0,0-4.148-7.978c-.7-.957-2.361,0-1.659,1.021Z" transform="translate(-349.734 -595.881)" fill="#e8e8e8"/>
        </g>
      </g>
      <g id="Group_8942" data-name="Group 8942" transform="translate(86.166 292.971)">
        <g id="Group_8941" data-name="Group 8941">
          <path id="Path_4598" data-name="Path 4598" d="M365.232,588.987c1.213,2.17,2.361,4.276,3.574,6.446.574,1.085,2.234.128,1.659-.957-1.213-2.17-2.361-4.276-3.574-6.446-.574-1.085-2.234-.128-1.659.957Z" transform="translate(-365.113 -587.552)" fill="#e8e8e8"/>
        </g>
      </g>
      <g id="Group_8944" data-name="Group 8944" transform="translate(97.462 284.866)">
        <g id="Group_8943" data-name="Group 8943">
          <path id="Path_4599" data-name="Path 4599" d="M382.932,576.287l3.829,6.893c.574,1.085,2.234.128,1.659-.957l-3.829-6.893c-.574-1.085-2.234-.128-1.659.957Z" transform="translate(-382.813 -574.852)" fill="#e8e8e8"/>
        </g>
      </g>
      <g id="Group_8946" data-name="Group 8946" transform="translate(107.632 278.803)">
        <g id="Group_8945" data-name="Group 8945">
          <path id="Path_4600" data-name="Path 4600" d="M398.845,566.787c1.021,2.425,2.042,4.85,3.127,7.212.511,1.149,2.106.128,1.659-.957-1.021-2.425-2.042-4.85-3.127-7.212-.511-1.085-2.17-.128-1.659.957Z" transform="translate(-398.749 -565.352)" fill="#e8e8e8"/>
        </g>
      </g>
      <g id="Group_8948" data-name="Group 8948" transform="translate(49.7 244.317)">
        <g id="Group_8947" data-name="Group 8947">
          <path id="Path_4601" data-name="Path 4601" d="M308.119,512.71c1.213,1.978,2.361,3.957,3.574,5.872.638,1.085,2.3.064,1.659-.957-1.213-1.978-2.361-3.957-3.574-5.872-.638-1.021-2.3-.064-1.659.957Z" transform="translate(-307.975 -511.316)" fill="#e8e8e8"/>
        </g>
      </g>
      <g id="Group_8950" data-name="Group 8950" transform="translate(60.721 237.853)">
        <g id="Group_8949" data-name="Group 8949">
          <path id="Path_4602" data-name="Path 4602" d="M325.344,502.663l3.446,7.658c.511,1.149,2.17.128,1.659-.957L327,501.706c-.574-1.149-2.17-.191-1.659.957Z" transform="translate(-325.244 -501.187)" fill="#e8e8e8"/>
        </g>
      </g>
      <g id="Group_8952" data-name="Group 8952" transform="translate(70.543 231.836)">
        <g id="Group_8951" data-name="Group 8951">
          <path id="Path_4603" data-name="Path 4603" d="M340.8,493.126a26.261,26.261,0,0,1,3.957,7.467c.383,1.149,2.234.638,1.851-.511a26.069,26.069,0,0,0-4.148-7.914c-.7-.957-2.361-.064-1.659.957Z" transform="translate(-340.634 -491.76)" fill="#e8e8e8"/>
        </g>
      </g>
      <g id="Group_8954" data-name="Group 8954" transform="translate(81.201 226.894)">
        <g id="Group_8953" data-name="Group 8953">
          <path id="Path_4604" data-name="Path 4604" d="M357.5,485.41c1.34,2.042,2.617,4.021,3.957,6.063.638,1.021,2.3.064,1.659-.957-1.34-2.042-2.617-4.021-3.957-6.063-.7-1.021-2.361-.064-1.659.957Z" transform="translate(-357.334 -484.016)" fill="#e8e8e8"/>
        </g>
      </g>
      <g id="Group_8956" data-name="Group 8956" transform="translate(173.359 81.886)">
        <g id="Group_8955" data-name="Group 8955">
          <path id="Path_4605" data-name="Path 4605" d="M508.989,276.649c-6.191-1.915-6.51-8.488-3.574-13.4,2.872-4.787,8.424-6.063,12.764-2.106a9.024,9.024,0,0,1,.574,12.636c-3.319,3.7-8.743,3.638-12.573.83-.957-.766-1.915.893-.957,1.659,4.85,3.574,11.934,3,15.572-2.042a10.944,10.944,0,0,0-2.872-15.7c-12.764-8.233-23.741,15.508-9.445,19.976a.96.96,0,0,0,.511-1.851Z" transform="translate(-501.737 -256.804)" fill="#e8e8e8"/>
        </g>
      </g>
      <g id="Group_8958" data-name="Group 8958" transform="translate(184 90.756)">
        <g id="Group_8957" data-name="Group 8957">
          <path id="Path_4606" data-name="Path 4606" d="M525.3,283.337c-4.787,1.468-5.935-4.276-3.829-7.339a7.8,7.8,0,0,1,8.169-3.127,5.749,5.749,0,0,1,4.276,6.765c-.957,3.765-4.914,5.106-8.424,4.531-1.213-.191-1.723,1.659-.511,1.851,4.723.83,9.828-1.213,10.849-6.318.894-4.4-2.553-8.424-6.829-8.935-4.723-.574-9.892,2.872-10.53,7.722-.574,4.212,3.255,7.978,7.467,6.637,1.085-.319.574-2.17-.638-1.787Z" transform="translate(-518.41 -270.702)" fill="#e8e8e8"/>
        </g>
      </g>
      <g id="Group_8960" data-name="Group 8960" transform="translate(149.667 144.461)">
        <g id="Group_8959" data-name="Group 8959">
          <path id="Path_4607" data-name="Path 4607" d="M465.115,355.329c-1.532,3.127.638,6.254,3.829,7.084,2.425.638,4.978.064,7.467.191a21.742,21.742,0,0,1,7.786,1.851c5.361,2.425,8.807,6.829,9,12.764.191,4.978-1.276,10.147.893,14.87,4.6,9.956,17.232,2.361,23.741,8.807,5.425,5.425,3.191,15.317,10.467,19.465a.958.958,0,0,0,.957-1.659c-6.51-3.7-4.978-13.338-9.573-18.7-2.425-2.808-5.935-3.574-9.509-3.829-4.34-.255-9.956.638-13.147-3.063-3.7-4.34-1.723-10.849-1.915-15.955a15.314,15.314,0,0,0-4.276-10.53,20.277,20.277,0,0,0-9.126-5.106,24.758,24.758,0,0,0-5.3-.83c-2.3-.128-12.254,1.021-9.573-4.4.511-1.085-1.149-2.042-1.723-.957Z" transform="translate(-464.613 -354.852)" fill="#e8e8e8"/>
        </g>
      </g>
      <g id="Group_8962" data-name="Group 8962" transform="translate(0 487.526)">
        <g id="Group_8961" data-name="Group 8961">
          <path id="Path_4608" data-name="Path 4608" d="M231.057,894.315h34.591a.959.959,0,0,0,0-1.915H231.057a.957.957,0,0,0,0,1.915Z" transform="translate(-230.1 -892.4)" fill="#e8e8e8"/>
        </g>
      </g>
      <g id="Group_8964" data-name="Group 8964" transform="translate(18.636 530.796)">
        <g id="Group_8963" data-name="Group 8963" transform="translate(0 0)">
          <path id="Path_4609" data-name="Path 4609" d="M260.257,962.115h66.565a.959.959,0,0,0,0-1.915H260.257a.957.957,0,1,0,0,1.915Z" transform="translate(-259.3 -960.2)" fill="#e8e8e8"/>
        </g>
      </g>
      <g id="Group_8966" data-name="Group 8966" transform="translate(82.52 518.798)">
        <g id="Group_8965" data-name="Group 8965" transform="translate(0 0)">
          <path id="Path_4610" data-name="Path 4610" d="M360.357,943.315h61.906a.959.959,0,0,0,0-1.915H360.357a.957.957,0,0,0,0,1.915Z" transform="translate(-359.4 -941.4)" fill="#e8e8e8"/>
        </g>
      </g>
      <g id="Group_8968" data-name="Group 8968" transform="translate(425.594 510.576)">
        <g id="Group_8967" data-name="Group 8967">
          <path id="Path_4611" data-name="Path 4611" d="M898.135,935.335a79.158,79.158,0,0,1,31.464-1.149c4.467.7,9,1.4,13.53,1.021,4.4-.383,8.68-1.723,12.956-2.872,4.85-1.34,9.7-2.361,14.806-1.979,5.233.383,10.275,1.851,15.381,3a55.85,55.85,0,0,0,13.4,1.659,116,116,0,0,0,14.168-1.659c12.764-2.042,24.762-.766,37.4,1.34,1.213.191,1.723-1.659.511-1.851-10.211-1.659-20.486-3.382-30.889-2.361-10.849,1.085-20.933,3.765-31.91,1.532-9.19-1.851-17.934-4.723-27.379-2.936-5.042.957-9.828,2.744-14.87,3.7-5.616,1.085-11.041.447-16.657-.447a81.932,81.932,0,0,0-32.485,1.149c-1.085.319-.574,2.17.574,1.851Z" transform="translate(-896.963 -928.517)" fill="#e8e8e8"/>
        </g>
      </g>
      <g id="Group_8970" data-name="Group 8970" transform="translate(523.877 492.556)">
        <g id="Group_8969" data-name="Group 8969" transform="translate(0)">
          <path id="Path_4612" data-name="Path 4612" d="M1051.88,905.718q30.059-1.627,60.119-3.191a154.988,154.988,0,0,1,29.293,1.021,52.3,52.3,0,0,0,13.019.191c4.914-.574,10.02-1.34,14.615,1.021,1.085.574,2.042-1.085.957-1.659-7.786-3.957-16.785-.255-25.145-1.021-4.978-.447-9.828-1.4-14.806-1.659-5.169-.255-10.339-.128-15.508.128-20.869.957-41.738,2.234-62.608,3.319a.927.927,0,0,0,.064,1.851Z" transform="translate(-1050.962 -900.282)" fill="#e8e8e8"/>
        </g>
      </g>
      <g id="Group_8972" data-name="Group 8972" transform="translate(131.43 547.216)">
        <g id="Group_8971" data-name="Group 8971">
          <path id="Path_4613" data-name="Path 4613" d="M436.971,991.527c9.445.893,18.955,1.787,28.4.7a74.8,74.8,0,0,0,12.892-2.744,33.5,33.5,0,0,1,16.274-1.085c4.4.766,8.743,1.851,13.147,2.234a78.7,78.7,0,0,0,13.977-.319c9.765-.957,19.529-2.617,29.23-.447,1.213.255,1.723-1.6.51-1.851-9.318-2.042-18.636-.7-28.017.255a93.159,93.159,0,0,1-13.977.638c-5.3-.255-10.4-1.659-15.572-2.489a31.838,31.838,0,0,0-12.764.319c-4.6,1.149-8.935,2.68-13.658,3.382-10.084,1.468-20.359.447-30.442-.447-1.276-.191-1.213,1.723,0,1.851Z" transform="translate(-436.037 -985.929)" fill="#e8e8e8"/>
        </g>
      </g>
      <g id="Group_8974" data-name="Group 8974" transform="translate(226.42 0)">
        <g id="Group_8973" data-name="Group 8973">
          <path id="Path_4614" data-name="Path 4614" d="M591.785,166.344c-2.489-1.723-5.871-4.467-4.85-7.914,1.085-3.574,3.765-1.851,6.254-2.68,3.319-1.085,3.127-5.106,2.17-7.722-.957-2.553-3-8.743,2.3-6.637,1.213.511,2.106,1.34,3.51.893a3.534,3.534,0,0,0,2.234-2.744,12.012,12.012,0,0,0,0-3.382,14.724,14.724,0,0,1-.191-2.361c-.255-1.851.893-2.617,3.319-2.3.064,1.213,1.978,1.213,1.915,0a3.132,3.132,0,0,0-3.383-3c-2.234.064-3.446,2.234-3.7,4.276-.192,1.4.957,4.659.319,5.808-.766.511-1.532,1.085-2.361,1.6l-.957-.574a17.356,17.356,0,0,0-1.6-.7,3.7,3.7,0,0,0-4.276,2.553c-1.213,3.063.957,5.616,1.6,8.488.83,3.957-2.17,3.51-4.786,3.957a4.976,4.976,0,0,0-2.872,1.6c-4.021,4.659.638,9.828,4.467,12.509.957.7,1.914-.957.893-1.659Z" transform="translate(-584.878 -128.496)" fill="#e8e8e8"/>
        </g>
      </g>
      <g id="Group_8976" data-name="Group 8976" transform="translate(241.662 10.607)">
        <g id="Group_8975" data-name="Group 8975">
          <path id="Path_4615" data-name="Path 4615" d="M613,170.57c-2.106-2.425-3.7-5.744.383-7.02,1.021-.319,2.17-.191,3.127-.83,2.106-1.468,1.213-3.446.83-5.489-.192-1.149-.638-2.68.064-3.829.511-.83,2.361-1.149,3.319-1.34a11.646,11.646,0,0,0,3.893-1.276,3.821,3.821,0,0,0,1.213-5.233c-.638-1.021-2.3-.064-1.659.957,1.915,3.063-7.02,3.893-8.552,6.127-1.787,2.617,1.978,7.212-1.149,8.871-1.213.638-2.744.191-3.893,1.021a4.3,4.3,0,0,0-1.659,2.425c-.7,2.744,1.149,5.106,2.808,7.02.766.893,2.106-.447,1.276-1.4Z" transform="translate(-608.761 -145.116)" fill="#e8e8e8"/>
        </g>
      </g>
      <g id="Group_8978" data-name="Group 8978" transform="translate(167.039 9.192)">
        <g id="Group_8977" data-name="Group 8977">
          <path id="Path_4616" data-name="Path 4616" d="M495.322,154.643c-1.659-1.149-1.851-3.191-1.34-4.978.319-1.213,1.851-4.531,3.319-4.659,2.425-.255,3.638,2.808,4.276,4.6a18.294,18.294,0,0,1,.83,5.233.959.959,0,0,0,1.915,0c-.064-3.574-2.425-14.551-8.3-11.36-2.234,1.213-3.893,4.723-4.148,7.148a5.975,5.975,0,0,0,2.489,5.68c.957.7,1.915-.957.957-1.659Z" transform="translate(-491.833 -142.9)" fill="#e8e8e8"/>
        </g>
      </g>
      <g id="Group_8980" data-name="Group 8980" transform="translate(156.678 21.932)">
        <g id="Group_8979" data-name="Group 8979">
          <path id="Path_4617" data-name="Path 4617" d="M488.683,162.886c-2.3.574-4.6,1.149-6.956,1.723-1.34.319-3.638.447-4.723,1.468-1.851,1.723-1.34,7.02-1.34,9.254a.939.939,0,0,0,1.213.893c.319-.064.638-.191,1.021-.255,1.659-.893,2.489-.319,2.553,1.6,1.276,1.276,1.276,2.042,0,2.17a5.977,5.977,0,0,1-2.361.447.982.982,0,0,0-.957.957c.128,4.084.447,8.105.893,12.19.128,1.213,2.042,1.213,1.915,0-.447-4.085-.766-8.105-.893-12.19l-.957.957c2.68-.319,6.956-1.4,6.382-5.042-.638-3.893-5.361-3.446-8.041-2.68a14.716,14.716,0,0,0,1.213.893c0-1.468,0-2.872.128-4.34.191-2.3.064-3.127,2.17-3.957,2.872-1.149,6.254-1.532,9.254-2.3,1.213-.191.7-2.042-.511-1.787Z" transform="translate(-475.599 -162.862)" fill="#e8e8e8"/>
        </g>
      </g>
      <g id="Group_8982" data-name="Group 8982" transform="translate(178.043 20.569)">
        <g id="Group_8981" data-name="Group 8981">
          <path id="Path_4618" data-name="Path 4618" d="M509.984,162.688a49.141,49.141,0,0,1,8.105.191c2.553.319,2.425.7,2.808,2.936.255,1.4.319,2.872.447,4.276.511,5.489.893,10.977,1.213,16.466.064,1.213,1.978,1.213,1.915,0-.383-7.467-.638-15.125-1.851-22.529-.319-1.851-.638-2.425-2.553-2.744a41.125,41.125,0,0,0-10.084-.447c-1.213,0-1.213,1.915,0,1.851Z" transform="translate(-509.075 -160.725)" fill="#e8e8e8"/>
        </g>
      </g>
      <g id="Group_8984" data-name="Group 8984" transform="translate(159.304 45.786)">
        <g id="Group_8983" data-name="Group 8983">
          <path id="Path_4619" data-name="Path 4619" d="M480.918,208.191c3.765-.638,7.531-1.276,11.232-1.915,4.276-.7,8.36-.383,12.636-.7,1.978-.191,11.36-1.149,7.914-5.042-.83-.893-2.17.447-1.34,1.34.511.574-8.169,1.851-8.36,1.851-2.68.064-5.361-.064-8.041.255-4.85.574-9.7,1.6-14.551,2.425-1.213.128-.7,1.978.511,1.787Z" transform="translate(-479.714 -200.238)" fill="#e8e8e8"/>
        </g>
      </g>
    </g>
    <g id="robot" transform="translate(710.933 518.003)">
      <path id="Path_4620" data-name="Path 4620" d="M1012.474,788.6c-.191,6.7-.383,13.4-.574,20.167,8.488.574,16.912,1.085,25.4,1.659V789.749C1029,789.366,1020.771,788.983,1012.474,788.6Z" transform="translate(-993.786 -788.6)" fill="#fff" stroke="#161616" stroke-width="2"/>
      <path id="Path_4621" data-name="Path 4621" d="M1025.849,904.5c1.149,7.4,1.659,13.53,1.914,17.934.83,14.615.192,18-1.085,20.678-3.127,6.573-8.807,9.318-8.3,10.211.383.574,3.191-.064,15.7-6.637-.766-14.551-1.468-29.038-2.234-43.589C1029.869,903.611,1027.891,904.057,1025.849,904.5Z" transform="translate(-996.119 -830.026)" fill="#fff" stroke="#161616" stroke-width="2"/>
      <path id="Path_4622" data-name="Path 4622" d="M1004.2,831.8c10.849.064,21.7.191,32.548.255-1.213,14.551-2.361,29.038-3.574,43.589-9.445-.766-18.955-1.468-28.4-2.234Q1004.391,852.637,1004.2,831.8Z" transform="translate(-991 -804.23)" fill="#fff" stroke="#161616" stroke-width="2"/>
      <path id="Path_4623" data-name="Path 4623" d="M1005.307,904.319a67.591,67.591,0,0,1,4.978,20.423c.574,7.148.957,12.636-2.489,16.274-1.276,1.4-3.382,2.744-7.467,5.488-3.638,2.425-5.361,3.319-5.233,3.574.191.383,3.7-.383,19.018-5.808a89.636,89.636,0,0,0,1.659-19.593A88.284,88.284,0,0,0,1012.711,904C1010.285,904.128,1007.8,904.191,1005.307,904.319Z" transform="translate(-987.704 -830.351)" fill="#fff" stroke="#161616" stroke-width="2"/>
      <g id="Group_8986" data-name="Group 8986" transform="translate(21.514 113.025)">
        <g id="Group_8985" data-name="Group 8985">
          <path id="Path_4624" data-name="Path 4624" d="M1018.869,976.549a59.118,59.118,0,0,0,5.425-5.169c1.979-2.17,4.914-5.489,7.978-2.617l.191-1.532c-4.531,2.234-9,4.467-13.53,6.637a.962.962,0,0,0,.511,1.787c4.276.064,6.956-7.4,11.36-6,1.149.383,1.659-1.468.51-1.851a5.268,5.268,0,0,0-4.978,1.085c-1.851,1.34-4.467,4.85-6.829,4.85.191.574.319,1.213.511,1.787,4.531-2.234,9-4.467,13.53-6.637a.96.96,0,0,0,.192-1.532,6.74,6.74,0,0,0-6.956-1.149c-1.6.7-2.617,2.553-3.765,3.765a69.193,69.193,0,0,1-5.425,5.169c-1.021.83.319,2.234,1.276,1.4Z" transform="translate(-1017.227 -965.7)" fill="#161616"/>
        </g>
      </g>
      <g id="Group_8988" data-name="Group 8988" transform="translate(30.097 111.941)">
        <g id="Group_8987" data-name="Group 8987">
          <path id="Path_4625" data-name="Path 4625" d="M1031.584,965.978a15.23,15.23,0,0,1,5.552,1.213c1.085.511,2.106-1.149.957-1.659a16.488,16.488,0,0,0-6.51-1.532c-1.213.064-1.213,1.978,0,1.978Z" transform="translate(-1030.675 -964)" fill="#161616"/>
        </g>
      </g>
      <g id="Group_8990" data-name="Group 8990" transform="translate(19.888 109.847)">
        <g id="Group_8989" data-name="Group 8989">
          <path id="Path_4626" data-name="Path 4626" d="M1015.331,962.558a7.483,7.483,0,0,1,3.765,2.3c.83.893,2.17-.447,1.34-1.34a9.664,9.664,0,0,0-4.659-2.744c-1.085-.383-1.6,1.468-.447,1.787Z" transform="translate(-1014.679 -960.719)" fill="#161616"/>
        </g>
      </g>
      <g id="Group_8992" data-name="Group 8992" transform="translate(8.848 111.298)">
        <g id="Group_8991" data-name="Group 8991">
          <path id="Path_4627" data-name="Path 4627" d="M998.733,971.1c1.978-1.468,4.021-2.808,6.127-4.085a15.446,15.446,0,0,1,3-1.659c1.6-.574,2.553-.191,4.021.447v-1.659c-2.042.893-4.34.83-6.446,1.723-2.042.83-3.957,2.872-6.063,3.255l.766,1.723c3.765-1.851,7.977-2.17,11.743-4.021,1.085-.574.128-2.17-.957-1.659-3.766,1.851-7.978,2.17-11.743,4.021-1.021.51-.255,1.915.766,1.723,2.3-.383,4.148-2.489,6.318-3.319s4.531-.893,6.637-1.787a.958.958,0,0,0,0-1.659c-2.425-1.085-3.51-1.723-5.935-.447a70.111,70.111,0,0,0-9.063,5.744c-1.149.7-.191,2.361.83,1.659Z" transform="translate(-997.381 -962.992)" fill="#161616"/>
        </g>
      </g>
      <g id="Group_8994" data-name="Group 8994" transform="translate(19.956 81.413)">
        <g id="Group_8993" data-name="Group 8993">
          <path id="Path_4628" data-name="Path 4628" d="M1015.943,918.485a5.647,5.647,0,0,1,4.659.255c1.085.574,2.042-1.085.957-1.659a7.357,7.357,0,0,0-6.127-.447c-1.149.447-.638,2.3.511,1.851Z" transform="translate(-1014.785 -916.167)" fill="#161616"/>
        </g>
      </g>
      <g id="Group_8996" data-name="Group 8996" transform="translate(21.8 88.184)">
        <g id="Group_8995" data-name="Group 8995">
          <path id="Path_4629" data-name="Path 4629" d="M1018.584,928.705a4.691,4.691,0,0,1,3.638,1.085c.957.766,2.3-.574,1.34-1.34a7.041,7.041,0,0,0-4.978-1.659c-1.213.064-1.213,1.978,0,1.915Z" transform="translate(-1017.675 -926.775)" fill="#161616"/>
        </g>
      </g>
      <g id="Group_8998" data-name="Group 8998" transform="translate(22.512 96.136)">
        <g id="Group_8997" data-name="Group 8997">
          <path id="Path_4630" data-name="Path 4630" d="M1019.69,941.191a3.2,3.2,0,0,1,3.063,1.34c.638,1.021,2.3.064,1.659-.957a4.762,4.762,0,0,0-4.659-2.3.981.981,0,0,0-.957.957.888.888,0,0,0,.894.957Z" transform="translate(-1018.79 -939.236)" fill="#161616"/>
        </g>
      </g>
      <g id="Group_9000" data-name="Group 9000" transform="translate(30.21 80.978)">
        <g id="Group_8999" data-name="Group 8999">
          <path id="Path_4631" data-name="Path 4631" d="M1032.287,917.792a3.291,3.291,0,0,1,3.7.319c.957.766,2.3-.574,1.34-1.34a5.318,5.318,0,0,0-6-.638.958.958,0,0,0,.957,1.659Z" transform="translate(-1030.852 -915.484)" fill="#161616"/>
        </g>
      </g>
      <g id="Group_9002" data-name="Group 9002" transform="translate(31.245 93.248)">
        <g id="Group_9001" data-name="Group 9001">
          <path id="Path_4632" data-name="Path 4632" d="M1033.959,936.81a2.744,2.744,0,0,1,3,.511c.894.83,2.3-.511,1.34-1.34a4.739,4.739,0,0,0-5.361-.766c-1.085.447-.064,2.106,1.021,1.6Z" transform="translate(-1032.475 -934.711)" fill="#161616"/>
        </g>
      </g>
      <g id="Group_9004" data-name="Group 9004" transform="translate(31.591 103.209)">
        <g id="Group_9003" data-name="Group 9003">
          <path id="Path_4633" data-name="Path 4633" d="M1034.41,952.668a2.78,2.78,0,0,1,3.255.128c.957.766,2.3-.574,1.34-1.34a4.61,4.61,0,0,0-5.552-.383c-1.021.638-.064,2.3.957,1.6Z" transform="translate(-1033.016 -950.318)" fill="#161616"/>
        </g>
      </g>
      <path id="Path_4634" data-name="Path 4634" d="M1055.429,832.1l-3.829,44.036" transform="translate(-1008.149 -804.338)" fill="none" stroke="#161616" stroke-width="6"/>
      <path id="Path_4635" data-name="Path 4635" d="M1004.8,897.9c10.658.766,21.316,1.468,31.974,2.234" transform="translate(-991.217 -828.144)" fill="none" stroke="#161616" stroke-width="6"/>
      <path id="Path_4636" data-name="Path 4636" d="M1054.53,789.5c-.255,7.276-.574,14.487-.83,21.763" transform="translate(-1008.909 -788.926)" fill="none" stroke="#161616" stroke-width="6"/>
      <g id="Group_9006" data-name="Group 9006" transform="translate(44.608 34.323)">
        <g id="Group_9005" data-name="Group 9005">
          <path id="Path_4637" data-name="Path 4637" d="M1055.766,844.435c5.935-1.085,12.253,3.574,12.7,9.7.638,7.658-8.105,9-13.849,8.169-1.213-.191-1.723,1.659-.511,1.851,7.02,1.021,16.912-.957,16.274-10.02-.511-7.467-7.978-12.892-15.125-11.551-1.213.191-.7,2.042.51,1.851Z" transform="translate(-1053.414 -842.38)" fill="#161616"/>
        </g>
      </g>
      <g id="Group_9008" data-name="Group 9008" transform="translate(44.868 55.765)">
        <g id="Group_9007" data-name="Group 9007">
          <path id="Path_4638" data-name="Path 4638" d="M1054.509,877.843a6.731,6.731,0,0,1,5.169,4.723.96.96,0,0,0,1.851-.511,8.341,8.341,0,0,0-6.446-6.063c-1.276-.192-1.787,1.6-.574,1.851Z" transform="translate(-1053.82 -875.978)" fill="#161616"/>
        </g>
      </g>
      <g id="Group_9010" data-name="Group 9010" transform="translate(44.43 55.598)">
        <g id="Group_9009" data-name="Group 9009">
          <path id="Path_4639" data-name="Path 4639" d="M1053.3,877.11a11.053,11.053,0,0,1,1.978,7.467c-.064,1.213,1.851,1.213,1.915,0a13.2,13.2,0,0,0-2.3-8.424c-.638-1.021-2.3-.064-1.6.957Z" transform="translate(-1053.134 -875.716)" fill="#161616"/>
        </g>
      </g>
      <g id="Group_9012" data-name="Group 9012" transform="translate(0 34.93)">
        <g id="Group_9011" data-name="Group 9011">
          <path id="Path_4640" data-name="Path 4640" d="M996.653,843.886c-4.212-2.68-11.934,5.042-12.892,8.807-1.915,7.658,7.914,6.765,12,9.318,1.021.638,1.978-1.021.957-1.659-2.936-1.851-7.276-1.149-9.828-3.446-3.127-2.808-.255-6.191,1.915-8.169,1.149-1.021,5.042-4.4,6.893-3.255,1.021.766,2.042-.893.957-1.6Z" transform="translate(-983.517 -843.332)" fill="#161616"/>
        </g>
      </g>
      <g id="Group_9014" data-name="Group 9014" transform="translate(6.086 52.647)">
        <g id="Group_9013" data-name="Group 9013">
          <path id="Path_4641" data-name="Path 4641" d="M999.082,871.161a12.1,12.1,0,0,0-4.467,2.936c-.957,1.021-2.17,2.617-1.213,4.021.7,1.021,2.361.064,1.659-.957-.447-.638,1.213-2.042,1.659-2.425a8.219,8.219,0,0,1,2.872-1.723c1.149-.447.7-2.3-.51-1.851Z" transform="translate(-993.053 -871.092)" fill="#161616"/>
        </g>
      </g>
      <g id="Group_9016" data-name="Group 9016" transform="translate(10.02 53.619)">
        <g id="Group_9015" data-name="Group 9015">
          <path id="Path_4642" data-name="Path 4642" d="M1000.547,873.052a8.346,8.346,0,0,0-1.149,6.254c.255,1.213,2.106.7,1.851-.511a6.078,6.078,0,0,1,.957-4.787c.7-1.021-.957-1.978-1.659-.957Z" transform="translate(-999.217 -872.616)" fill="#161616"/>
        </g>
      </g>
      <g id="Group_9018" data-name="Group 9018" transform="translate(17.202 33.362)">
        <g id="Group_9017" data-name="Group 9017">
          <path id="Path_4643" data-name="Path 4643" d="M1010.681,841.784a103.089,103.089,0,0,0,.064,14.04c.128,1.213,2.042,1.213,1.915,0a93.736,93.736,0,0,1-.064-14.04c.128-1.213-1.787-1.213-1.915,0Z" transform="translate(-1010.471 -840.875)" fill="#161616"/>
        </g>
      </g>
      <g id="Group_9020" data-name="Group 9020" transform="translate(17.907 32.866)">
        <g id="Group_9019" data-name="Group 9019">
          <path id="Path_4644" data-name="Path 4644" d="M1012.484,842.014c6.765.383,13.466.638,20.231.766l-.957-.957c-.191,4.786-.383,9.637-.638,14.423-.064,1.213,1.851,1.213,1.915,0,.192-4.786.383-9.637.638-14.423a.981.981,0,0,0-.957-.957c-6.765-.128-13.466-.383-20.231-.766-1.213-.064-1.213,1.851,0,1.915Z" transform="translate(-1011.575 -840.098)" fill="#161616"/>
        </g>
      </g>
      <g id="Group_9022" data-name="Group 9022" transform="translate(17.399 47.254)">
        <g id="Group_9021" data-name="Group 9021">
          <path id="Path_4645" data-name="Path 4645" d="M1011.431,864.53c2.808.766,5.935.574,8.743.766,3.446.191,6.956.447,10.4.638,1.213.064,1.213-1.851,0-1.915l-9.19-.574c-3.063-.191-6.51,0-9.509-.766-1.085-.319-1.6,1.532-.447,1.851Z" transform="translate(-1010.779 -862.642)" fill="#161616"/>
        </g>
      </g>
      <g id="Group_9024" data-name="Group 9024" transform="translate(20.124 57.578)">
        <g id="Group_9023" data-name="Group 9023">
          <path id="Path_4646" data-name="Path 4646" d="M1015.145,880.275c1.149,2.489,3.638.319,5.552,1.213.893.383.7.957,1.915,1.021,1.4.064,4.85-2.744,5.552-.128a.991.991,0,0,0,1.6.447c.638-.192,1.34-.383,1.979-.511.766.957,2.17-.447,1.34-1.34-1.468-1.723-3.319-.766-4.723.51a14.923,14.923,0,0,1,1.6.447,3.779,3.779,0,0,0-5.169-2.681c-1.085.511-1.213,1.468-2.872.83-.319-.128-.447-.638-.766-.766-.7-.255-4.4.128-4.4.064-.447-1.213-2.106-.255-1.6.894Z" transform="translate(-1015.049 -878.818)" fill="#161616"/>
        </g>
      </g>
      <g id="Group_9026" data-name="Group 9026" transform="translate(21.779 6.114)">
        <g id="Group_9025" data-name="Group 9025">
          <path id="Path_4647" data-name="Path 4647" d="M1019.466,800.873a1.067,1.067,0,0,1,1.532-.638c.83.319,1.276,1.276,1.659,1.978.511,1.085,2.17.128,1.659-.957-.7-1.4-1.787-2.872-3.51-3.063a2.836,2.836,0,0,0-3.127,2.106c-.319,1.276,1.532,1.787,1.787.574Z" transform="translate(-1017.642 -798.18)" fill="#161616"/>
        </g>
      </g>
      <g id="Group_9028" data-name="Group 9028" transform="translate(33.481 6.931)">
        <g id="Group_9027" data-name="Group 9027">
          <path id="Path_4648" data-name="Path 4648" d="M1037.843,802.23a.965.965,0,0,1,1.34-.766c.766.255,1.085,1.213,1.213,1.915.192,1.213,2.042.7,1.851-.511a3.88,3.88,0,0,0-2.936-3.382,2.927,2.927,0,0,0-3.319,2.234c-.192,1.213,1.659,1.723,1.851.511Z" transform="translate(-1035.978 -799.46)" fill="#161616"/>
        </g>
      </g>
      <g id="Group_9030" data-name="Group 9030" transform="translate(24.441 11.393)">
        <g id="Group_9029" data-name="Group 9029">
          <path id="Path_4649" data-name="Path 4649" d="M1021.932,807.887a6.111,6.111,0,0,0,10.147.957c.766-.957-.574-2.3-1.34-1.34a4.2,4.2,0,0,1-7.148-.574c-.574-1.085-2.234-.128-1.659.957Z" transform="translate(-1021.813 -806.452)" fill="#161616"/>
        </g>
      </g>
    </g>
    <g id="lightbulb" transform="translate(599.859 40.675)">
      <g id="Group_9032" data-name="Group 9032" transform="translate(46.9 45.596)">
        <g id="Group_9031" data-name="Group 9031">
          <path id="Path_4650" data-name="Path 4650" d="M904.749,209.879c-8.041-3.255-12.892-11.041-15.827-18.827a62.478,62.478,0,0,1-4.021-25.592c.766-16.019,7.595-32.229,20.231-42.441,11.934-9.7,29.613-12.445,42.887-3.638,13.849,9.19,16.338,28.145,16.466,43.4.128,16.976-3.829,34.782-16.4,46.972-.893.83.447,2.234,1.34,1.34,11.934-11.615,16.466-28.209,16.912-44.419.447-15.891-1.468-35.995-14.551-46.908-12.254-10.211-30.442-9.7-43.526-1.4-14.487,9.19-23.039,25.847-24.89,42.632a65.98,65.98,0,0,0,3.957,31.017c3.255,8.3,8.424,16.21,16.976,19.657,1.085.511,1.532-1.34.447-1.787Z" transform="translate(-882.963 -112.119)" fill="#161616"/>
        </g>
      </g>
      <g id="Group_9034" data-name="Group 9034" transform="translate(66.453 143.581)">
        <g id="Group_9033" data-name="Group 9033">
          <path id="Path_4651" data-name="Path 4651" d="M914.94,266.64a7.171,7.171,0,0,0,1.468,9.892c2.425,1.723,6,1.978,8.871,2.361a71.507,71.507,0,0,0,10.467.7c6.254-.064,13.4-.511,19.21-2.936,4.212-1.787,7.4-6,5.169-10.53-.51-1.085-2.17-.128-1.659.957,4.786,9.764-17.87,10.594-22.784,10.594a72.89,72.89,0,0,1-13.466-1.213c-2.106-.383-4.467-.766-5.808-2.617a5.373,5.373,0,0,1,.191-6.191c.7-1.085-.957-2.042-1.659-1.021Z" transform="translate(-913.599 -265.652)" fill="#161616"/>
        </g>
      </g>
      <g id="Group_9036" data-name="Group 9036" transform="translate(69.835 153.449)">
        <g id="Group_9035" data-name="Group 9035">
          <path id="Path_4652" data-name="Path 4652" d="M918.9,282.573a81.173,81.173,0,0,0,.447,9.637,4.839,4.839,0,0,0,1.723,3.638c1.723,1.276,4.6,1.213,6.637,1.4a94.3,94.3,0,0,0,10.4.128c3.255-.128,6.51-.383,9.765-.7,1.915-.191,4.084-.128,5.552-1.6,3.255-3.191,3.319-9.254,2.489-13.275-.255-1.213-2.106-.7-1.851.511a16.276,16.276,0,0,1,.128,6.573c-.638,3.127-1.532,5.169-5.042,5.808a78.3,78.3,0,0,1-12.828.83c-4.084.064-8.68.255-12.7-.7-3.7-.893-2.744-9.19-2.744-12.254-.064-1.213-1.978-1.213-1.978,0Z" transform="translate(-918.9 -281.114)" fill="#161616"/>
        </g>
      </g>
      <g id="Group_9038" data-name="Group 9038" transform="translate(70.039 84.344)">
        <g id="Group_9037" data-name="Group 9037" transform="translate(0 0)">
          <path id="Path_4653" data-name="Path 4653" d="M919.654,174.663a41.273,41.273,0,0,1,16.721,20.231c.447,1.149,2.3.638,1.851-.511A43.482,43.482,0,0,0,920.675,173c-1.085-.7-2.042.957-1.021,1.659Z" transform="translate(-919.219 -172.834)" fill="#161616"/>
        </g>
      </g>
      <g id="Group_9040" data-name="Group 9040" transform="translate(86.97 84.641)">
        <g id="Group_9039" data-name="Group 9039" transform="translate(0 0)">
          <path id="Path_4654" data-name="Path 4654" d="M947.5,195.062a53.073,53.073,0,0,1,16.274-19.912c.957-.7,0-2.425-.957-1.659A56.006,56.006,0,0,0,945.845,194.1c-.511,1.085,1.149,2.042,1.659.957Z" transform="translate(-945.749 -173.299)" fill="#161616"/>
        </g>
      </g>
      <g id="Group_9042" data-name="Group 9042" transform="translate(87.188 103.213)">
        <g id="Group_9041" data-name="Group 9041">
          <path id="Path_4655" data-name="Path 4655" d="M946.1,203.357c.957,13.147,1.4,26.294,1.213,39.441a.959.959,0,0,0,1.915,0c.191-13.147-.255-26.358-1.213-39.441-.128-1.276-2.042-1.276-1.915,0Z" transform="translate(-946.09 -202.4)" fill="#161616"/>
        </g>
      </g>
      <g id="Group_9044" data-name="Group 9044" transform="translate(11.257 125.818)">
        <g id="Group_9043" data-name="Group 9043">
          <path id="Path_4656" data-name="Path 4656" d="M828.318,248.337c8.488-2.872,16.912-5.744,25.4-8.616,1.149-.383.638-2.234-.51-1.851-8.488,2.872-16.912,5.744-25.4,8.616a.96.96,0,0,0,.511,1.851Z" transform="translate(-827.114 -237.819)" fill="#161616"/>
        </g>
      </g>
      <g id="Group_9046" data-name="Group 9046" transform="translate(20.985 119.132)">
        <g id="Group_9045" data-name="Group 9045">
          <path id="Path_4657" data-name="Path 4657" d="M843.533,231.783c2.936-.83,5.872-1.723,8.807-2.553a.961.961,0,0,0-.511-1.851c-2.936.83-5.871,1.723-8.807,2.553-1.149.383-.7,2.234.51,1.851Z" transform="translate(-842.357 -227.342)" fill="#161616"/>
        </g>
      </g>
      <g id="Group_9048" data-name="Group 9048" transform="translate(0 100.396)">
        <g id="Group_9047" data-name="Group 9047">
          <path id="Path_4658" data-name="Path 4658" d="M810.384,199.909c11.232-.128,22.4.191,33.569.893,1.213.064,1.213-1.851,0-1.915-11.169-.7-22.4-.957-33.569-.893a.959.959,0,0,0,0,1.915Z" transform="translate(-809.475 -197.985)" fill="#161616"/>
        </g>
      </g>
      <g id="Group_9050" data-name="Group 9050" transform="translate(23.957 91.753)">
        <g id="Group_9049" data-name="Group 9049">
          <path id="Path_4659" data-name="Path 4659" d="M847.707,186.33a35.432,35.432,0,0,0,8.169,1.085.959.959,0,0,0,0-1.915,34.051,34.051,0,0,1-7.658-1.021.96.96,0,0,0-.511,1.851Z" transform="translate(-847.014 -184.442)" fill="#161616"/>
        </g>
      </g>
      <g id="Group_9052" data-name="Group 9052" transform="translate(20.181 32.622)">
        <g id="Group_9051" data-name="Group 9051">
          <path id="Path_4660" data-name="Path 4660" d="M841.418,93.392a209.414,209.414,0,0,1,27.379,28.4c.766.957,2.106-.383,1.34-1.34a205.775,205.775,0,0,0-27.379-28.4c-.893-.83-2.3.511-1.34,1.34Z" transform="translate(-841.097 -91.791)" fill="#161616"/>
        </g>
      </g>
      <g id="Group_9054" data-name="Group 9054" transform="translate(48.258 50.714)">
        <g id="Group_9053" data-name="Group 9053">
          <path id="Path_4661" data-name="Path 4661" d="M885.352,121.773c1.723,1.787,3.382,3.574,5.106,5.425.83.893,2.17-.447,1.34-1.34-1.723-1.787-3.382-3.574-5.106-5.425-.83-.893-2.17.447-1.34,1.34Z" transform="translate(-885.091 -120.138)" fill="#161616"/>
        </g>
      </g>
      <g id="Group_9056" data-name="Group 9056" transform="translate(9.176 54.12)">
        <g id="Group_9055" data-name="Group 9055">
          <path id="Path_4662" data-name="Path 4662" d="M824.329,127.278q4.691,2.776,9.573,5.169c1.085.574,2.042-1.085.957-1.659q-4.882-2.489-9.573-5.169a.958.958,0,0,0-.957,1.659Z" transform="translate(-823.852 -125.475)" fill="#161616"/>
        </g>
      </g>
      <g id="Group_9058" data-name="Group 9058" transform="translate(119.065 11.4)">
        <g id="Group_9057" data-name="Group 9057">
          <path id="Path_4663" data-name="Path 4663" d="M997.673,88.509l28.336-28.336c.893-.893-.511-2.234-1.34-1.34L996.333,87.169a.948.948,0,1,0,1.34,1.34Z" transform="translate(-996.038 -58.538)" fill="#161616"/>
        </g>
      </g>
      <g id="Group_9060" data-name="Group 9060" transform="translate(128.816 38.649)">
        <g id="Group_9059" data-name="Group 9059">
          <path id="Path_4664" data-name="Path 4664" d="M1012.71,108.36c2.425-1.787,4.85-3.51,7.276-5.3.957-.7.064-2.361-.957-1.659-2.425,1.787-4.85,3.51-7.276,5.3-1.021.7-.064,2.361.957,1.659Z" transform="translate(-1011.316 -101.234)" fill="#161616"/>
        </g>
      </g>
      <g id="Group_9062" data-name="Group 9062" transform="translate(89.34)">
        <g id="Group_9061" data-name="Group 9061">
          <path id="Path_4665" data-name="Path 4665" d="M951.337,69.538a259.364,259.364,0,0,0,4.276-27.953c.128-1.213-1.787-1.213-1.915,0a250,250,0,0,1-4.212,27.443c-.255,1.213,1.6,1.723,1.851.511Z" transform="translate(-949.462 -40.675)" fill="#161616"/>
        </g>
      </g>
      <g id="Group_9064" data-name="Group 9064" transform="translate(143.955 80.87)">
        <g id="Group_9063" data-name="Group 9063">
          <path id="Path_4666" data-name="Path 4666" d="M1035.971,174.1c17.359-1.6,34.655-3.191,52.014-4.787,1.213-.128,1.213-2.042,0-1.915-17.359,1.6-34.655,3.191-52.014,4.787-1.213.064-1.276,1.978,0,1.915Z" transform="translate(-1035.037 -167.39)" fill="#161616"/>
        </g>
      </g>
      <g id="Group_9066" data-name="Group 9066" transform="translate(71.248 144.864)">
        <g id="Group_9065" data-name="Group 9065">
          <path id="Path_4667" data-name="Path 4667" d="M921.807,269.665a74.382,74.382,0,0,0,32.485-.128c1.213-.255.7-2.106-.511-1.851a71.7,71.7,0,0,1-31.463.128c-1.213-.255-1.723,1.6-.511,1.851Z" transform="translate(-921.114 -267.662)" fill="#161616"/>
        </g>
      </g>
      <g id="Group_9068" data-name="Group 9068" transform="translate(72.628 161.156)">
        <g id="Group_9067" data-name="Group 9067">
          <path id="Path_4668" data-name="Path 4668" d="M924.184,295.111a123.515,123.515,0,0,0,24.762.766c1.213-.064,1.213-1.978,0-1.915a123.52,123.52,0,0,1-24.762-.766c-1.213-.128-1.213,1.787,0,1.915Z" transform="translate(-923.275 -293.19)" fill="#161616"/>
        </g>
      </g>
      <g id="Group_9070" data-name="Group 9070" transform="translate(132.389 138.592)">
        <g id="Group_9069" data-name="Group 9069">
          <path id="Path_4669" data-name="Path 4669" d="M1017.352,259.663q19.433,13.689,39.569,26.422c1.021.638,1.978-1.021.957-1.659q-20.1-12.732-39.568-26.422c-1.021-.7-1.978.957-.957,1.659Z" transform="translate(-1016.916 -257.834)" fill="#161616"/>
        </g>
      </g>
    </g>
    <g id="leg_l" transform="translate(512.457 493.431)">
      <path id="Path_4670" data-name="Path 4670" d="M741.514,964.1q-18.189,22.305-36.314,44.547c14.232,50.035,22.273,63.182,27.06,62.48,3.446-.511,5.106-7.978,6.956-16.338a108.967,108.967,0,0,0-.957-49.971c7.658-8.552,15.253-17.168,22.911-25.72C754.6,974.12,748.087,969.142,741.514,964.1Z" transform="translate(-684.347 -827.524)" fill="#161616" stroke="#161616" stroke-width="2"/>
      <path id="Path_4671" data-name="Path 4671" d="M684.954,810.091c7.595,5.871,14.87,3.765,29.932,6.318a116.2,116.2,0,0,1,42.568,16.529q-24.507,28.719-48.886,60.693c-3.893,5.169-7.786,10.339-11.552,15.508a119.124,119.124,0,0,1,21.954,7.467,117.459,117.459,0,0,1,19.657,11.232c24.316-21.188,46.014-41.675,65.352-61.012,8.935-8.935,21.571-22.592,23.55-41.93a24.607,24.607,0,0,0,.128-3c-.447-32.1-40.845-55.332-65.416-63.884-26.868-9.318-73.074-14.36-85.966,7.914C668.68,779.074,673.147,800.964,684.954,810.091Z" transform="translate(-672.525 -750.099)" fill="#4c4c4c"/>
      <path id="Path_4672" data-name="Path 4672" d="M745.784,793.8a109.434,109.434,0,0,1-9.19,36.25c-2.106.83-4.148,1.659-6.254,2.489,13.721,5.425,27.507,10.849,41.228,16.274q-15.317,17.519-30.825,36.7-15.987,19.72-30.442,38.739c6.829,2.234,13.594,4.467,20.422,6.637q36.665-40.4,73.33-80.86c2.553-7.339,2.425-13.083,1.659-17.1C802.2,813.265,778.141,797.246,745.784,793.8Z" transform="translate(-686.192 -765.91)" fill="#282828" opacity="0.29"/>
      <path id="Path_4673" data-name="Path 4673" d="M771.729,879.8c2.234,3.382,4.4,6.829,6.637,10.211q-28.528,34.367-57.055,68.671c-3.382-.893-6.829-1.851-10.211-2.744,12.19-16.721,25.337-33.889,39.569-51.184Q761.295,891.83,771.729,879.8Z" transform="translate(-686.482 -797.024)" fill="#111" opacity="0.24"/>
    </g>
    <g id="leg_r" transform="translate(391.453 492.108)">
      <path id="Path_4674" data-name="Path 4674" d="M703.706,926.1c18.827,3.446,37.718,6.829,56.545,10.275,21.763,47.482,24.188,62.8,20.1,65.416-2.936,1.851-9.062-2.744-15.891-7.914a109.37,109.37,0,0,1-31.783-38.8c-11.36-1.532-22.72-3.127-34.08-4.659C700.259,942.31,701.982,934.205,703.706,926.1Z" transform="translate(-560.954 -812.452)" fill="#161616" stroke="#161616" stroke-width="2"/>
      <path id="Path_4675" data-name="Path 4675" d="M586.872,755.923c-34.335,10.084-55.268,31.017-68.734,44.8-18.189,18.7-40.526,41.611-34.08,58.523,3.319,8.616,13.4,13.913,60.374,22.082,35.484,6.191,66.245,9.509,90.242,11.36,3-10.977,6-21.89,8.935-32.867q-36.186-11.679-72.308-23.294c14.806-3.127,30.378-6.829,46.589-11.36q18.476-5.169,35.229-10.786c10.339-20.869,12.573-43.4,1.787-56.162C639.843,740.351,606.082,750.243,586.872,755.923Z" transform="translate(-482.923 -748.025)" fill="#4c4c4c"/>
      <path id="Path_4676" data-name="Path 4676" d="M691.215,795a89.392,89.392,0,0,1-4.34,23.358A93.175,93.175,0,0,1,681,832.4c-1.723.128-3.446.319-5.169.447q-21.827,7.18-46.461,13.53c-10.594,2.744-20.933,5.106-30.953,7.276q36.282,11.392,72.564,22.72-.766,3.925-1.915,8.233c-.893,3.319-1.915,6.382-2.872,9.19L566.063,869.1c-1.532-1.851-6.573-8.552-5.808-17.423.83-9.637,10.02-16.466,21.763-22.72C615.971,810.955,672.9,798.765,691.215,795Z" transform="translate(-510.873 -765.021)" fill="#282828" opacity="0.29"/>
      <path id="Path_4677" data-name="Path 4677" d="M530.7,993.8" transform="translate(-500.209 -836.946)" fill="#6d6c6c"/>
      <path id="Path_4678" data-name="Path 4678" d="M593.2,888.2c6.063-.447,12.19-.894,18.253-1.4Q647.16,898.67,682.868,910.6c-1.021,3.765-2.042,7.595-3.063,11.36Q636.534,905.021,593.2,888.2Z" transform="translate(-522.821 -798.234)" fill="#111" opacity="0.24"/>
    </g>
    <g id="torso" transform="translate(486.402 338.993)">
      <path id="Path_4679" data-name="Path 4679" d="M631.7,524.505a118.734,118.734,0,0,1,47.674-15.764c33.442-3.51,59.1,8.488,69.245,13.913-1.851,25.081-4.723,45.121-7.02,58.906-2.744,16.466-4.978,25.592-6,40.717a212.273,212.273,0,0,0,1.787,44.738,151.942,151.942,0,0,1-95.348-1.787,222.561,222.561,0,0,0,.511-53.29c-1.6-13.721-3.765-20.423-6.382-37.016A364.08,364.08,0,0,1,631.7,524.505Z" transform="translate(-631.7 -508.109)" fill="#fff" stroke="#161616" stroke-width="2"/>
      <path id="Path_4680" data-name="Path 4680" d="M712.584,517.78a140.568,140.568,0,0,1,3.893,19.593c.7,5.425,3.574,30-5.361,62.416-5.488,19.976-11.3,41.1-30.315,58.459a83.448,83.448,0,0,1-16.4,11.743,153.1,153.1,0,0,0,83.8-1.787c-.638-4.787-1.468-12-1.787-20.678-.255-7.595-.255-19.72,4.978-53.864,4.148-26.868,7.084-38.42,8.552-62.735.191-2.808.255-5.169.383-6.765a91.432,91.432,0,0,0-18.189-8.169,87.584,87.584,0,0,0-18.189-3.893Z" transform="translate(-643.531 -509.553)" fill="#6d6c6c" opacity="0.14"/>
      <path id="Path_4681" data-name="Path 4681" d="M763.428,547.3a351.592,351.592,0,0,1-12,47.929c-10.849,33.187-18.444,55.524-38.93,71.862a87.526,87.526,0,0,1-34.4,16.466,121.614,121.614,0,0,0,35.548,4.467,125.063,125.063,0,0,0,39.7-7.467,185.027,185.027,0,0,1-2.234-33.7c.447-18.444,3.446-29.549,6.765-49.78C759.726,585.209,762.088,568.233,763.428,547.3Z" transform="translate(-648.487 -522.288)" fill="#6d6c6c" opacity="0.17"/>
    </g>
    <g id="hand_r" transform="translate(437.855 355.07)">
      <path id="Path_4682" data-name="Path 4682" d="M603.8,533.3a111.86,111.86,0,0,0-28.272,28.272c-21,30.506-20.423,62.863-19.593,74.8a120.193,120.193,0,0,0,21.89,36.952c6.7,7.722,16.529,18.827,33.314,25.975a75.6,75.6,0,0,0,14.1,4.531c3.063-2.744,6.063-5.489,9.126-8.233-9.828-11.488-19.72-23.55-29.613-35.995q-11.392-14.264-21.89-28.272a79.7,79.7,0,0,1,10.467-36.952,78.468,78.468,0,0,1,15.061-18.7Q606.093,554.52,603.8,533.3Z" transform="translate(-555.631 -533.3)" fill="#fff" stroke="#161616" stroke-width="2"/>
      <path id="Path_4683" data-name="Path 4683" d="M611.86,555.6c-18.38,20.742-27.124,40.4-31.463,52.779-7.595,21.444-6,32.676-4.85,38.037.957,4.212,3.063,11.424,10.786,22.4,6.7,9.509,20.805,26.549,47.674,40.59,2.361-2.3,4.723-4.531,7.084-6.829Q629.7,689.75,618.115,675.646q-15.221-18.476-28.336-36.314a80.952,80.952,0,0,1,25.273-55.907C613.9,574.172,612.881,564.918,611.86,555.6Z" transform="translate(-562.483 -541.368)" fill="#6d6c6c" opacity="0.13"/>
      <path id="Path_4684" data-name="Path 4684" d="M598.3,688.1a95.834,95.834,0,0,0,8.488,27.251c10.977,22.337,28.145,34.654,36.888,40.015,1.723-1.532,3.382-3,5.106-4.531Q623.509,719.436,598.3,688.1Z" transform="translate(-571.069 -589.306)" fill="#6d6c6c" opacity="0.16"/>
    </g>
    <g id="hand_l" transform="translate(569.56 353.921)">
      <path id="Path_4685" data-name="Path 4685" d="M796.935,531.5a119.28,119.28,0,0,1,31.719,27.762c23.614,29.932,22.911,61.714,22.018,73.457A117.1,117.1,0,0,1,826.1,669.033c-7.531,7.531-18.572,18.444-37.4,25.528a98.113,98.113,0,0,1-15.891,4.467c-3.383-2.681-6.829-5.361-10.211-8.041,10.977-11.3,22.146-23.1,33.25-35.356q12.732-14.072,24.571-27.762a71.2,71.2,0,0,0-11.743-36.314,80.575,80.575,0,0,0-16.912-18.38C793.553,559.262,795.276,545.413,796.935,531.5Z" transform="translate(-762.217 -531.5)" fill="#fff" stroke="#161616" stroke-width="2"/>
      <path id="Path_4686" data-name="Path 4686" d="M796.525,555.8a148.653,148.653,0,0,1,27.762,41.036c4.085,9,10.722,23.614,10.85,37.4.447,41.93-58.906,70.777-62.352,72.436-3.383-2.17-6.7-4.276-10.084-6.446q28.815-31.591,57.566-63.182a77.045,77.045,0,0,0-9.637-33.378,75.666,75.666,0,0,0-19.338-22.529C793.078,572.712,794.8,564.288,796.525,555.8Z" transform="translate(-762.253 -540.292)" fill="#6d6c6c" opacity="0.16"/>
      <path id="Path_4687" data-name="Path 4687" d="M820.651,683.4a89.6,89.6,0,0,1-5.042,17.87c-11.232,28.336-33.952,43.845-45.44,50.482-2.744-1.787-5.425-3.574-8.169-5.361Q791.293,714.9,820.651,683.4Z" transform="translate(-762 -586.457)" fill="#6d6c6c" opacity="0.12"/>
    </g>
    <g id="laptop" transform="translate(462.023 455.012)">
      <rect id="Rectangle_609" data-name="Rectangle 609" width="156.934" height="99.368" transform="translate(0 0.574)" fill="#fff" stroke="#161616" stroke-width="2"/>
      <g id="Group_9072" data-name="Group 9072" transform="translate(63.502 34.031)">
        <g id="Group_9071" data-name="Group 9071">
          <path id="Path_4688" data-name="Path 4688" d="M705.7,768.928c-8.3,1.021-12.317-9.062-10.147-15.764,2.106-6.637,9.956-9.764,16.338-7.467,6.318,2.3,9.382,10.02,7.148,16.21-2.489,6.893-11.169,9.7-17.551,6.637-1.085-.51-2.106,1.149-.957,1.659A15.166,15.166,0,0,0,717.7,767.46c4.4-4.4,5.042-11.36,2.3-16.785-6.254-12.381-25.592-8.424-26.932,5.169-.7,7.276,4.531,16.019,12.636,15.062,1.213-.191,1.213-2.106,0-1.978Z" transform="translate(-693.001 -743.223)" fill="#161616"/>
        </g>
      </g>
      <path id="Path_4689" data-name="Path 4689" d="M677.913,690.255c21.252,7.4,35.739,26.358,36.186,46.716.574,25.528-20.869,49.525-50.1,51.95l111.686.957q-.192-49.971-.319-99.879Q726.64,690,677.913,690.255Z" transform="translate(-619.007 -689.936)" fill="#6d6c6c" opacity="0.14"/>
      <path id="Path_4690" data-name="Path 4690" d="M801.663,689.9a164.542,164.542,0,0,1-7.978,46.525c-4.978,15.125-8.552,26.166-18.827,35.931-13.977,13.4-31.4,15.891-39.058,16.529q32.644.287,65.288.638.1-28.432.319-56.928C801.407,718.364,801.535,704.132,801.663,689.9Z" transform="translate(-644.984 -689.9)" fill="#6d6c6c" opacity="0.26"/>
    </g>
    <g id="head" transform="translate(483.364 213.643)">
      <path id="Path_4691" data-name="Path 4691" d="M707.427,450.671c-3.51,4.276-.128,9.509-.766,23.486a87.093,87.093,0,0,1-2.361,16.338,38.4,38.4,0,0,0,15.125,3.574,38.85,38.85,0,0,0,17.933-3.957,51.673,51.673,0,0,1-4.4-12.764c-2.872-14.3,2.234-21-1.978-26.294C726.063,444.927,712.15,444.863,707.427,450.671Z" transform="translate(-654.928 -360.428)" fill="#fff" stroke="#161616" stroke-width="2"/>
      <path id="Path_4692" data-name="Path 4692" d="M667.5,342.522a40.991,40.991,0,0,0-1.6,23.677c-.383.064-7.85,1.659-9.892,7.4-2.042,5.808,2.17,14.04,10.977,16.721,3.191,7.786,10.913,22.848,27.187,31.08a50.7,50.7,0,0,0,7.978,3.191,63.005,63.005,0,0,0,9.19-4.4,64.649,64.649,0,0,0,19.146-16.721,58.749,58.749,0,0,0,8.871-17.232,10.288,10.288,0,0,0,6.318-.83c5.489-2.808,8.233-11.551,4.4-17.231-3.191-4.723-9.382-4.914-10.147-4.914.83-3.319,3.382-15.253-3.063-27.06-7.4-13.594-23.294-20.742-38.228-18.7C676.562,320.377,667.883,341.5,667.5,342.522Z" transform="translate(-637.274 -313.675)" fill="#fff" stroke="#161616" stroke-width="2"/>
      <g id="Group_9074" data-name="Group 9074" transform="translate(51.231 105.352)">
        <g id="Group_9073" data-name="Group 9073">
          <path id="Path_4693" data-name="Path 4693" d="M707.651,478.578c3.893,2.3,8.169,5.871,12.956,5.489,3.957-.319,8.36-2.617,11.36-5.042.957-.766-.383-2.106-1.34-1.34-2.808,2.234-7.339,4.6-11.041,4.531-3.893-.064-7.85-3.319-11.041-5.3-.957-.638-1.915,1.021-.893,1.659Z" transform="translate(-707.213 -476.775)" fill="#161616"/>
        </g>
      </g>
      <g id="Group_9076" data-name="Group 9076" transform="translate(51.12 105.584)">
        <g id="Group_9075" data-name="Group 9075">
          <path id="Path_4694" data-name="Path 4694" d="M707.333,479.539c3.638,3.127,7.786,6.637,12.892,6.382,4.978-.255,9.637-3.574,12.892-7.148.83-.893-.511-2.234-1.34-1.34-2.808,3.063-6.765,6.063-11.1,6.51-4.786.447-8.616-2.808-12-5.744-.893-.83-2.234.511-1.34,1.34Z" transform="translate(-707.038 -477.138)" fill="#161616"/>
        </g>
      </g>
      <g id="Group_9078" data-name="Group 9078" transform="translate(51.957 106.649)">
        <g id="Group_9077" data-name="Group 9077">
          <path id="Path_4695" data-name="Path 4695" d="M710.233,480.526h0a.979.979,0,0,0-1.532-.255l-.064.064a.925.925,0,0,0,0,1.34c7.02,6.7,19.912,8.871,24.954-1.4.51-1.085-1.085-2.106-1.659-.957-4.467,9.19-15.764,6.956-21.89,1.021v1.34l.064-.064-1.532-.191v.064c.638,1.021,2.3.064,1.659-.957Z" transform="translate(-708.35 -478.808)" fill="#161616"/>
        </g>
      </g>
      <g id="Group_9080" data-name="Group 9080" transform="translate(61.091 48.368)">
        <g id="Group_9079" data-name="Group 9079">
          <path id="Path_4696" data-name="Path 4696" d="M723.069,388.453a127.776,127.776,0,0,0,1.276,30.825.87.87,0,0,0,1.149.638,9.908,9.908,0,0,0,5.616-4.531.958.958,0,0,0-1.659-.957,7.68,7.68,0,0,1-4.467,3.638c.383.191.766.447,1.149.638a123.581,123.581,0,0,1-1.213-30.315c.191-1.213-1.723-1.213-1.851.064Z" transform="translate(-722.663 -387.487)" fill="#161616"/>
        </g>
      </g>
      <path id="Path_4697" data-name="Path 4697" d="M702.417,401.488c.128.574,1.085,4.148,0,4.723s-4.148-1.723-5.106-4.723c-.766-2.553-.128-5.744,1.085-6C699.673,395.169,701.651,398.68,702.417,401.488Z" transform="translate(-652.279 -342.007)" fill="#161616" stroke="#161616" stroke-width="1"/>
      <path id="Path_4698" data-name="Path 4698" d="M754.017,401.488c.128.574,1.085,4.148,0,4.723s-4.148-1.723-5.106-4.723c-.766-2.553-.128-5.744,1.085-6C751.273,395.169,753.251,398.68,754.017,401.488Z" transform="translate(-670.948 -342.007)" fill="#161616" stroke="#161616" stroke-width="1"/>
      <g id="Group_9082" data-name="Group 9082" transform="translate(58.684 80.6)">
        <g id="Group_9081" data-name="Group 9081">
          <path id="Path_4699" data-name="Path 4699" d="M719.407,445.974c7.786,3.319,14.87-1.34,20.614-6.382.957-.83-.447-2.17-1.34-1.34-4.978,4.34-11.36,9-18.253,6.063-1.213-.447-2.17,1.213-1.021,1.659Z" transform="translate(-718.891 -437.991)" fill="#161616"/>
        </g>
      </g>
      <g id="Group_9084" data-name="Group 9084" transform="translate(80.756 67.714)">
        <g id="Group_9083" data-name="Group 9083">
          <path id="Path_4700" data-name="Path 4700" d="M754.384,419.715a.959.959,0,0,0,0-1.915.959.959,0,0,0,0,1.915Z" transform="translate(-753.475 -417.8)" fill="#161616"/>
        </g>
      </g>
      <g id="Group_9086" data-name="Group 9086" transform="translate(87.122 64.236)">
        <g id="Group_9085" data-name="Group 9085">
          <path id="Path_4701" data-name="Path 4701" d="M765.077,414.169l.192-.191a.948.948,0,0,0-1.34-1.34l-.191.191a.948.948,0,0,0,1.34,1.34Z" transform="translate(-763.45 -412.35)" fill="#161616"/>
        </g>
      </g>
      <g id="Group_9088" data-name="Group 9088" transform="translate(85.686 68.799)">
        <g id="Group_9087" data-name="Group 9087">
          <path id="Path_4702" data-name="Path 4702" d="M762.157,421.415h.191a.957.957,0,1,0,0-1.915h-.191a.982.982,0,0,0-.957.957.94.94,0,0,0,.957.957Z" transform="translate(-761.2 -419.5)" fill="#161616"/>
        </g>
      </g>
      <g id="Group_9090" data-name="Group 9090" transform="translate(40.917 44.595)">
        <g id="Group_9089" data-name="Group 9089">
          <path id="Path_4703" data-name="Path 4703" d="M692.742,385.037a6.639,6.639,0,0,1,8.424-.128c.957.766,2.3-.574,1.34-1.34a8.605,8.605,0,0,0-11.169.128c-.893.766.511,2.106,1.4,1.34Z" transform="translate(-691.052 -381.575)" fill="#161616"/>
        </g>
      </g>
      <g id="Group_9092" data-name="Group 9092" transform="translate(72.082 43.244)">
        <g id="Group_9091" data-name="Group 9091">
          <path id="Path_4704" data-name="Path 4704" d="M741.554,383.569a8.693,8.693,0,0,1,9.892-1.149c1.085.574,2.042-1.085.957-1.659a10.52,10.52,0,0,0-12.19,1.468c-.957.83.383,2.17,1.34,1.34Z" transform="translate(-739.884 -379.458)" fill="#161616"/>
        </g>
      </g>
      <g id="Group_9094" data-name="Group 9094" transform="translate(42.208 67.522)">
        <g id="Group_9093" data-name="Group 9093">
          <path id="Path_4705" data-name="Path 4705" d="M693.984,419.415a.959.959,0,0,0,0-1.915.959.959,0,0,0,0,1.915Z" transform="translate(-693.075 -417.5)" fill="#161616"/>
        </g>
      </g>
      <g id="Group_9096" data-name="Group 9096" transform="translate(48.973 66.629)">
        <g id="Group_9095" data-name="Group 9095">
          <path id="Path_4706" data-name="Path 4706" d="M704.584,418.015a.959.959,0,0,0,0-1.915.959.959,0,0,0,0,1.915Z" transform="translate(-703.675 -416.1)" fill="#161616"/>
        </g>
      </g>
      <g id="Group_9098" data-name="Group 9098" transform="translate(46.022 69.724)">
        <g id="Group_9097" data-name="Group 9097">
          <path id="Path_4707" data-name="Path 4707" d="M699.529,421.237l-.191.191a.948.948,0,0,0,1.34,1.34l.191-.191a.948.948,0,0,0-1.34-1.34Z" transform="translate(-699.05 -420.95)" fill="#161616"/>
        </g>
      </g>
      <path id="Path_4708" data-name="Path 4708" d="M667.568,319.8A47.153,47.153,0,0,0,649.7,337.93a46.436,46.436,0,0,0-5.361,24.762,145.215,145.215,0,0,0-15.572,41.675c-3.319,16.019-1.532,21.89.766,25.783,5.616,9.573,16.912,11.934,19.657,12.509,14.1,3,25.337-4.212,27.889-5.871a41.176,41.176,0,0,0,1.787-7.658,39.419,39.419,0,0,0-.255-12.509,65.85,65.85,0,0,1-20.678-29.613c-5.616-.574-9.828-4.4-10.211-8.68-.383-4.021,2.425-9.19,6.127-9.19,2.744,0,4.723,2.808,5.106,3.319a27.012,27.012,0,0,0,7.658-6.637c3.765-4.787,4.4-9.062,6.127-13.53A42.893,42.893,0,0,1,684.48,335.7c6.637,2.361,11.934,4.659,15.572,6.382,11.679,5.425,18.316,8.616,23.486,15.572a34.089,34.089,0,0,1,5.106,9.956c5.935-4.531,8.36-3.319,8.871-3.063,3.765,2.106,3.638,13.658-2.234,16.849a9.1,9.1,0,0,1-6.382.511A60.518,60.518,0,0,1,713.582,408.2a55.608,55.608,0,0,1-9.19,7.4,34.539,34.539,0,0,0,.255,9.445,32.361,32.361,0,0,0,2.553,8.424c15.508,10.211,34.782,8.36,45.249-2.617,9.318-9.828,9.318-24.7,5.808-34.846a37.941,37.941,0,0,0-12.445-17.231c.83-3.574,5.425-24.762-7.914-44.228-3.446-5.042-13.083-17.231-30.442-21.444C689.075,308.636,673.95,315.912,667.568,319.8Z" transform="translate(-626.939 -311.699)" fill="#191919"/>
      <path id="Path_4709" data-name="Path 4709" d="M745.064,365.5a45.242,45.242,0,0,1,9.764,21.763c2.617,18.253-7.978,33.059-13.338,40.654a78.794,78.794,0,0,1-12.19,13.466c2.808,7.531,5.552,15,8.36,22.529l8.616-2.872a43.4,43.4,0,0,1-3.829-8.871,45.427,45.427,0,0,1-1.915-15.827A67.893,67.893,0,0,0,752.084,426,69.391,69.391,0,0,0,766,401.686a9.785,9.785,0,0,0,6.637-.893c5.489-3.127,4.6-10.913,4.531-11.424-.191-1.659-.574-4.34-2.489-5.425-2.234-1.213-5.935-.064-8.871,3.382a32.768,32.768,0,0,0-10.339-16.083A32.031,32.031,0,0,0,745.064,365.5Z" transform="translate(-663.973 -331.164)" fill="#6d6c6c" opacity="0.17"/>
      <path id="Path_4710" data-name="Path 4710" d="M721.552,389.9c-.383-.064-1.659,5.489-5.552,30h6.7c-.447-3.255-.957-7.978-1.213-13.721C721.169,396.346,721.935,389.964,721.552,389.9Z" transform="translate(-659.161 -339.992)" fill="#6d6c6c" opacity="0.19"/>
      <path id="Path_4711" data-name="Path 4711" d="M788.955,417.761c-1.085.638,3,6.127,2.425,14.3-.191,2.553-.574,8.36-5.169,12.254-.319.255-7.148,5.871-13.913,2.3a12.382,12.382,0,0,1-6.318-11.424,50.133,50.133,0,0,1-9.956,12.892,52.671,52.671,0,0,1-8.68,6.573,36.7,36.7,0,0,0,.83,10.977,39.827,39.827,0,0,0,1.978,6.063,40.93,40.93,0,0,0,8.743,4.34c2.425.83,15.764,5.489,28.783-.957a27.444,27.444,0,0,0,11.1-9.382,26.793,26.793,0,0,0,3.319-7.4c4.34-14.423-2.042-27.443-2.617-28.528C795.975,422.675,790.3,416.995,788.955,417.761Z" transform="translate(-670.466 -350.047)" fill="#282828" opacity="0.54"/>
      <path id="Path_4712" data-name="Path 4712" d="M657.894,430.1c-.574.064.7,5.3-.7,10.467-1.021,3.829-4.276,10.084-9.828,11.36-5.808,1.276-13.019-3-16.338-10.977a45.49,45.49,0,0,0-3.893,16.274c-.191,4.659-.447,9.637,1.851,14.551,5.169,10.977,20.359,15.253,31.655,14.232a36.594,36.594,0,0,0,16.274-5.616,47.081,47.081,0,0,0,2.042-7.786,44.961,44.961,0,0,0,.191-13.019,53.382,53.382,0,0,1-10.658-10.147c-3.063-3.893-7.212-9.126-9.318-16.4C658.851,432.205,658.277,430.035,657.894,430.1Z" transform="translate(-626.966 -354.535)" fill="#282828" opacity="0.35"/>
    </g>
  </g>
</svg>
