<svg xmlns="http://www.w3.org/2000/svg" xmlns:xlink="http://www.w3.org/1999/xlink" width="1536.65" height="817.47" viewBox="0 0 1536.65 817.47">
  <defs>
    <linearGradient id="linear-gradient" y1="0.394" x2="1" y2="0.182" gradientUnits="objectBoundingBox">
      <stop offset="0" stop-color="#51449e"/>
      <stop offset="1" stop-color="#51449e" stop-opacity="0"/>
    </linearGradient>
  </defs>
  <path id="llline" d="M1334.209,122.345c-13.081,0-26.461.4-39.943,1.2-17.649,1.049-35.981,2.811-54.487,5.238-17.8,2.335-36.291,5.354-54.95,8.973-17.884,3.469-36.459,7.592-55.21,12.256C982.417,186.63,834.048,253.6,703.145,312.686,638.609,341.816,577.653,369.33,523.31,390.26c-28.952,11.151-53.906,19.629-76.288,25.919-12,3.372-23.419,6.145-33.947,8.244a289.3,289.3,0,0,1-30.814,4.551,420.909,420.909,0,0,1-60.774,1.157,324.834,324.834,0,0,1-51.8-7.041A273.951,273.951,0,0,1,225.8,409.444a258.023,258.023,0,0,1-37.008-18.709c-45.352-27.729-75.1-65.132-99-95.186-8.567-10.772-16.659-20.947-24.4-29.291-8.8-9.484-16.334-15.734-23.721-19.67a4.9,4.9,0,0,0-6.311,1.461,3.931,3.931,0,0,0,1.621,5.687c6.456,3.44,13.237,9.111,21.34,17.847,7.52,8.108,15.515,18.16,23.98,28.8,24.329,30.59,54.608,68.661,101.319,97.22A267.612,267.612,0,0,0,222,417.009a283.909,283.909,0,0,0,45.471,14.143,335.031,335.031,0,0,0,53.428,7.267,431.17,431.17,0,0,0,62.258-1.18c19.508-1.724,41.3-6.019,66.606-13.132,22.683-6.375,47.925-14.949,77.166-26.211,54.6-21.029,115.677-48.6,180.341-77.785,130.525-58.915,278.466-125.692,424.8-162.09,18.582-4.622,36.984-8.707,54.7-12.143,18.458-3.58,36.74-6.566,54.339-8.874,18.268-2.4,36.358-4.135,53.766-5.17,18.013-1.07,35.839-1.419,52.982-1.034,17.692.4,35.184,1.584,51.99,3.53a498.658,498.658,0,0,1,50.8,8.523,454.824,454.824,0,0,1,49.419,13.948,431.3,431.3,0,0,1,47.857,19.811,4.875,4.875,0,0,0,6.244-1.679,3.951,3.951,0,0,0-1.864-5.627,441.037,441.037,0,0,0-48.94-20.26,464.793,464.793,0,0,0-50.506-14.255,508.792,508.792,0,0,0-51.835-8.7c-17.119-1.982-34.929-3.192-52.936-3.6Q1341.214,122.345,1334.209,122.345Z" transform="translate(-74.47 416.778) rotate(-20)" fill="url(#linear-gradient)"/>
</svg>
