<svg xmlns="http://www.w3.org/2000/svg" width="40" height="40" viewBox="0 0 40 40">
  <g id="vuesax_linear_user-tick" data-name="vuesax/linear/user-tick" transform="translate(-300 -188)">
    <g id="user-tick" transform="translate(300 188)">
      <path id="Vector" d="M8.833-.75A9.583,9.583,0,1,1-.75,8.833,9.594,9.594,0,0,1,8.833-.75Zm0,16.667A7.083,7.083,0,1,0,1.75,8.833,7.091,7.091,0,0,0,8.833,15.917Z" transform="translate(11.167 2.833)" fill="#51459e"/>
      <path id="Vector-2" data-name="Vector" d="M.5,13.417a1.25,1.25,0,0,1-1.25-1.25A11.852,11.852,0,0,1,3.907,2.945a17.262,17.262,0,0,1,10.91-3.7,18.548,18.548,0,0,1,4.932.662,1.25,1.25,0,0,1-.665,2.41,16.048,16.048,0,0,0-4.268-.572C7.612,1.75,1.75,6.423,1.75,12.167A1.25,1.25,0,0,1,.5,13.417Z" transform="translate(5.183 24.5)" fill="#51459e"/>
      <g id="Group" transform="translate(22.083 22.083)">
        <path id="Vector-3" data-name="Vector" d="M7.167-.75a7.926,7.926,0,0,1,7.917,7.917,7.783,7.783,0,0,1-1.145,4.077A7.193,7.193,0,0,1,12.37,13.11a7.783,7.783,0,0,1-5.2,1.973A7.914,7.914,0,0,1,.4,11.247,7.88,7.88,0,0,1,2.223.987,7.967,7.967,0,0,1,7.167-.75Zm0,13.333a5.287,5.287,0,0,0,3.547-1.346l.033-.029a4.768,4.768,0,0,0,1.04-1.239l.016-.026a5.285,5.285,0,0,0,.781-2.777,5.413,5.413,0,0,0-8.8-4.223A5.355,5.355,0,0,0,1.75,7.167a5.285,5.285,0,0,0,.781,2.777l.01.017A5.332,5.332,0,0,0,7.167,12.583Z" transform="translate(0.75 0.75)" fill="#51459e"/>
        <path id="Vector-4" data-name="Vector" d="M2.15,5.033a1.247,1.247,0,0,1-.884-.366l-1.65-1.65A1.25,1.25,0,0,1,1.384,1.249l.8.8L4.851-.418a1.25,1.25,0,0,1,1.7,1.835L3,4.7A1.246,1.246,0,0,1,2.15,5.033Z" transform="translate(4.817 5.783)" fill="#51459e"/>
      </g>
      <path id="Vector-5" data-name="Vector" d="M0,0H40V40H0Z" fill="none" opacity="0"/>
    </g>
  </g>
</svg>
